<svg xmlns="http://www.w3.org/2000/svg" width="156" height="60" viewBox="0 0 156 60">
    <g fill="none" fill-rule="nonzero">
        <g fill="#303846">
            <path d="M8.434 47.045c.137-.29.343-.434.617-.434.429 0 .635.217.635.67v8.832c0 .453-.206.688-.635.688-.445 0-.651-.235-.651-.688v-6.045l-2.949 6.317c-.12.271-.325.416-.6.416-.274 0-.462-.145-.6-.416l-2.965-6.317v6.045c0 .453-.223.688-.652.688-.428 0-.634-.235-.634-.688v-8.832c0-.453.206-.67.634-.67.275 0 .48.145.617.434l3.583 7.747 3.6-7.747zM11.931 50.792c0-.47.223-.706.669-.706.446 0 .669.235.669.706v2.986c0 1.213.531 1.81 1.594 1.81.514 0 .926-.18 1.234-.525.292-.344.446-.778.446-1.303v-2.968c0-.47.223-.706.668-.706.446 0 .669.235.669.706v5.303c0 .47-.223.706-.669.706-.445 0-.668-.235-.668-.706v-.47c-.412.832-1.097 1.248-2.04 1.248-.806 0-1.423-.29-1.903-.869-.446-.543-.669-1.267-.669-2.172v-3.04zM25.303 56.095c0 .47-.223.706-.652.706-.428 0-.651-.235-.651-.706v-.127c-.446.598-1.114.905-2.006.905-.685 0-1.251-.18-1.697-.56-.446-.381-.651-.87-.651-1.467 0-.652.223-1.158.685-1.52.429-.344 1.012-.507 1.715-.507.754 0 1.405.253 1.92.76v-.633c0-1.14-.566-1.72-1.697-1.72-.275 0-.532.018-.772.073-.188.036-.394.108-.634.18l-.206.073c-.086.036-.171.036-.223.036-.377 0-.565-.199-.565-.579 0-.271.205-.489.617-.67.514-.217 1.148-.325 1.903-.325 1.954 0 2.914.94 2.914 2.823v3.258zm-1.8-2.027c-.292-.181-.634-.272-1.046-.272-.977 0-1.474.344-1.474 1.05 0 .706.48 1.068 1.44 1.068.428 0 .788-.09 1.08-.308.308-.199.463-.452.463-.76.017-.326-.155-.58-.463-.778zM33.909 56.873c-.875 0-1.629-.253-2.263-.76-.189-.163-.292-.344-.292-.58 0-.325.172-.488.515-.488.171 0 .342.073.531.2.223.18.446.307.686.416.291.108.6.18.908.18.789 0 1.183-.253 1.183-.76 0-.398-.463-.724-1.388-.977-1.595-.452-2.383-1.176-2.383-2.19 0-1.23.84-1.846 2.52-1.846.634 0 1.217.145 1.765.416.429.217.652.47.652.724 0 .344-.172.525-.514.525-.138 0-.326-.072-.583-.217a2.64 2.64 0 0 0-1.337-.344c-.789 0-1.183.235-1.183.706 0 .362.48.688 1.44.995.84.254 1.423.507 1.731.779.394.307.583.76.583 1.32-.017 1.25-.874 1.901-2.571 1.901zM43.44 56.095c0 .47-.223.706-.651.706-.429 0-.652-.235-.652-.706v-.127c-.446.598-1.114.905-2.006.905-.685 0-1.251-.18-1.697-.56-.445-.381-.651-.87-.651-1.467 0-.652.223-1.158.686-1.52.428-.344 1.011-.507 1.714-.507.754 0 1.406.253 1.92.76v-.633c0-1.14-.566-1.72-1.697-1.72-.275 0-.532.018-.772.073-.188.036-.394.108-.634.18l-.206.073c-.085.036-.171.036-.223.036-.377 0-.565-.199-.565-.579 0-.271.205-.489.617-.67.514-.217 1.148-.325 1.903-.325 1.954 0 2.914.94 2.914 2.823v3.258zm-1.389-8.941c.309 0 .463.163.463.489 0 1.05-.634 1.574-1.903 1.574-1.268 0-1.902-.525-1.902-1.574 0-.326.154-.49.462-.49.326 0 .498.182.498.526 0 .434.308.651.942.651.618 0 .943-.217.943-.651 0-.344.155-.525.497-.525zm-.428 6.914c-.292-.181-.634-.272-1.046-.272-.977 0-1.474.344-1.474 1.05 0 .706.48 1.068 1.44 1.068.428 0 .788-.09 1.08-.308.308-.199.463-.452.463-.76.017-.326-.137-.58-.463-.778zm-1.457-7.457a.635.635 0 0 1 .103-.163l.788-1.158c.12-.163.257-.254.446-.254.377 0 .548.181.548.561 0 .073-.017.145-.034.217a.327.327 0 0 1-.103.163l-.788 1.123a.565.565 0 0 1-.48.271c-.36 0-.532-.181-.532-.561 0-.054.017-.127.052-.2zM55.869 56.095c0 .47-.223.706-.669.706-.446 0-.669-.235-.669-.706v-2.986c0-1.213-.497-1.829-1.508-1.829-.514 0-.926.181-1.234.543-.309.344-.446.779-.446 1.286v2.968c0 .47-.223.706-.669.706-.445 0-.668-.236-.668-.706V53.09c0-1.212-.515-1.828-1.56-1.828-.515 0-.926.181-1.217.543-.275.344-.412.779-.412 1.285v2.969c0 .47-.223.706-.668.706-.446 0-.669-.236-.669-.706v-5.267c0-.47.223-.724.669-.724.445 0 .668.235.668.724v.488c.394-.832 1.063-1.248 1.989-1.248 1.028 0 1.748.434 2.177 1.32.548-.886 1.337-1.32 2.366-1.32.822 0 1.474.271 1.902.832.412.525.618 1.231.618 2.136v3.095zM64.646 52.511l1.697-2.226c.12-.145.274-.2.446-.2.411 0 .617.2.617.616a.612.612 0 0 1-.155.398L65.4 53.434l1.886 2.335a.658.658 0 0 1 .154.416c0 .417-.206.616-.6.616-.206 0-.36-.073-.463-.217l-1.697-2.227-1.697 2.227a.574.574 0 0 1-.463.217c-.394 0-.6-.2-.6-.616 0-.144.051-.29.154-.416l1.886-2.335-1.851-2.335a.612.612 0 0 1-.155-.398c0-.416.206-.615.617-.615.172 0 .326.072.446.199l1.629 2.226zM69.189 50.792c0-.47.222-.706.668-.706.446 0 .669.235.669.706v2.986c0 1.213.531 1.81 1.594 1.81.514 0 .926-.18 1.234-.525.292-.344.446-.778.446-1.303v-2.968c0-.47.223-.706.669-.706.445 0 .668.235.668.706v5.303c0 .47-.223.706-.668.706-.446 0-.669-.235-.669-.706v-.47c-.411.832-1.097 1.248-2.04 1.248-.806 0-1.423-.29-1.903-.869-.446-.543-.668-1.267-.668-2.172v-3.04zM82.354 51.063l-.36 1.032-.943 2.534c-.188.489-.377.96-.565 1.412-.686 1.665-1.56 2.823-2.623 3.457a.558.558 0 0 1-.343.108c-.394 0-.6-.18-.6-.56 0-.236.12-.435.343-.58a5.193 5.193 0 0 0 1.628-1.864l-2.211-5.593a.585.585 0 0 1-.034-.145c-.017-.054-.017-.108-.017-.145 0-.416.205-.633.6-.633.274 0 .462.127.565.38l1.817 4.76 1.629-4.651c.103-.344.326-.507.617-.507.377 0 .566.217.566.633a.799.799 0 0 1-.069.362zM88.766 51.027c.531.652.805 1.466.805 2.444 0 .307-.171.47-.514.47h-4.234c.086 1.213.72 1.81 1.903 1.81.6 0 1.148-.235 1.645-.724.138-.145.292-.217.429-.217.377 0 .549.199.549.579a.585.585 0 0 1-.172.398c-.6.724-1.44 1.086-2.52 1.086-1.011 0-1.817-.344-2.417-1.013-.549-.634-.823-1.43-.823-2.408 0-.977.292-1.791.909-2.443.6-.652 1.371-.977 2.28-.977.891 0 1.594.325 2.16.995zm-.412-2.679a.535.535 0 0 1 .155.38c0 .308-.155.471-.463.471a.462.462 0 0 1-.309-.109l-1.097-1.05-1.097 1.05a.462.462 0 0 1-.309.11c-.308 0-.463-.164-.463-.472 0-.144.052-.253.155-.38l1.371-1.303a.529.529 0 0 1 .343-.145c.12 0 .24.055.343.145l1.371 1.303zm-.017 4.453c-.068-.47-.24-.869-.548-1.159a1.61 1.61 0 0 0-1.183-.488c-1.029 0-1.629.56-1.766 1.665h3.497V52.8zM97.234 56.095c0 .47-.223.706-.668.706-.446 0-.669-.235-.669-.706v-2.986c0-1.213-.531-1.829-1.611-1.829-.515 0-.926.181-1.235.525-.291.344-.428.779-.428 1.304v2.968c0 .47-.223.706-.669.706-.445 0-.668-.236-.668-.706v-5.285c0-.47.223-.724.668-.724.446 0 .669.235.669.724v.488c.411-.832 1.097-1.248 2.04-1.248.806 0 1.44.29 1.903.85.445.543.668 1.267.668 2.172v3.04zM109.166 55.896c-.566.651-1.269.977-2.092.977-1.011 0-1.765-.434-2.228-1.285v.507c0 .47-.223.706-.652.706-.428 0-.634-.235-.634-.706v-8.778c0-.47.223-.706.669-.706.445 0 .668.235.668.706v3.982c.514-.851 1.234-1.285 2.177-1.285.84 0 1.526.307 2.092.94.583.652.874 1.485.874 2.48-.017.996-.291 1.81-.874 2.462zm-.995-4.09c-.342-.417-.805-.634-1.371-.634s-1.011.235-1.389.688c-.342.434-.531.959-.531 1.574 0 .616.171 1.14.531 1.575.36.452.823.67 1.389.67.566 0 1.029-.218 1.371-.634.343-.416.515-.96.515-1.629.017-.651-.172-1.194-.515-1.61zM112.423 47.425c.514 0 .771.272.771.833 0 .543-.257.832-.771.832s-.789-.271-.789-.832c.017-.561.275-.833.789-.833zm.668 8.67c0 .47-.222.706-.668.706-.446 0-.669-.235-.669-.706v-5.303c0-.47.223-.706.669-.706.446 0 .668.235.668.706v5.303zM120.137 51.027c.532.652.806 1.466.806 2.444 0 .307-.172.47-.514.47h-4.235c.086 1.213.72 1.81 1.903 1.81.6 0 1.149-.235 1.646-.724.137-.145.291-.217.428-.217.378 0 .549.199.549.579a.585.585 0 0 1-.171.398c-.6.724-1.44 1.086-2.52 1.086-1.012 0-1.818-.344-2.418-1.013-.548-.634-.822-1.43-.822-2.408 0-.977.291-1.791.908-2.443.6-.652 1.372-.977 2.28-.977.892 0 1.612.325 2.16.995zm-.394-2.679a.535.535 0 0 1 .154.38c0 .308-.154.471-.463.471a.462.462 0 0 1-.308-.109l-1.097-1.05-1.098 1.05a.462.462 0 0 1-.308.11c-.309 0-.463-.164-.463-.472 0-.144.051-.253.154-.38l1.372-1.303a.529.529 0 0 1 .343-.145c.12 0 .24.055.342.145l1.372 1.303zm-.034 4.453c-.069-.47-.24-.869-.549-1.159a1.61 1.61 0 0 0-1.183-.488c-1.028 0-1.628.56-1.766 1.665h3.498V52.8zM128.623 56.095c0 .47-.223.706-.669.706-.445 0-.668-.235-.668-.706v-2.986c0-1.213-.532-1.829-1.612-1.829-.514 0-.925.181-1.234.525-.291.344-.429.779-.429 1.304v2.968c0 .47-.222.706-.668.706-.446 0-.669-.236-.669-.706v-5.285c0-.47.223-.724.669-.724.446 0 .668.235.668.724v.488c.412-.832 1.098-1.248 2.04-1.248.806 0 1.44.29 1.903.85.446.543.669 1.267.669 2.172v3.04zM141.017 56.222c0 1.067-.257 1.9-.771 2.461-.566.616-1.406.905-2.555.905-.428 0-.84-.054-1.217-.145a4.515 4.515 0 0 1-1.251-.525c-.24-.144-.36-.325-.36-.56 0-.236.103-.399.291-.507.206-.109.429-.109.669.054.583.362 1.166.543 1.783.543.771 0 1.32-.181 1.645-.561.292-.326.429-.85.429-1.575v-.96c-.446.833-1.166 1.25-2.16 1.25-.909 0-1.629-.326-2.194-.978-.532-.615-.789-1.393-.789-2.334 0-.942.257-1.72.789-2.335.548-.634 1.285-.96 2.194-.96 1.011 0 1.749.417 2.194 1.25v-.453c0-.47.206-.724.635-.724.428 0 .651.235.651.706v5.448h.017zm-1.851-4.399c-.36-.416-.823-.615-1.372-.615-.565 0-1.028.2-1.388.597-.343.399-.532.905-.532 1.52 0 .616.172 1.123.532 1.521.36.398.823.597 1.388.597.566 0 1.029-.199 1.372-.615.343-.398.514-.905.514-1.502 0-.598-.171-1.104-.514-1.503zM143.811 47.425c.515 0 .772.272.772.833 0 .543-.257.832-.772.832-.514 0-.788-.271-.788-.832 0-.561.257-.833.788-.833zm.652 8.67c0 .47-.223.706-.669.706-.445 0-.668-.235-.668-.706v-5.303c0-.47.223-.706.668-.706.446 0 .669.235.669.706v5.303zM152.486 52.185c.137.399.205.815.205 1.267 0 .96-.291 1.774-.891 2.408-.617.67-1.389 1.013-2.366 1.013-.96 0-1.748-.344-2.365-1.013-.583-.652-.892-1.448-.892-2.408 0-.959.292-1.773.892-2.425.617-.67 1.388-.995 2.365-.995.943 0 1.715.325 2.332.959l.103-.434v-.562c0-.307.188-.47.548-.47.412 0 .617.163.617.47v.417c0 .29-.034.579-.12.868-.103.326-.24.616-.428.905 0-.018 0 0 0 0zm-1.612-.307c-.343-.435-.823-.67-1.423-.67-.6 0-1.08.217-1.422.67-.326.416-.48.923-.48 1.574 0 .634.154 1.159.48 1.557.342.434.822.67 1.422.67s1.08-.218 1.423-.67c.326-.416.497-.923.497-1.557-.017-.633-.171-1.158-.497-1.574zm-2.143-3.512c.035-.054.052-.126.103-.162l.789-1.159c.12-.163.257-.253.446-.253.377 0 .548.18.548.56 0 .073-.017.146-.034.218a.265.265 0 0 1-.103.163l-.789 1.122a.565.565 0 0 1-.48.272c-.36 0-.548-.181-.548-.561.034-.055.051-.127.068-.2zM155.091 47.425c.515 0 .772.272.772.833 0 .543-.257.832-.772.832-.514 0-.788-.271-.788-.832 0-.561.257-.833.788-.833zm.652 8.67c0 .47-.223.706-.669.706-.445 0-.668-.235-.668-.706v-5.303c0-.47.223-.706.668-.706.446 0 .669.235.669.706v5.303z"/>
        </g>
        <path fill="#CB2026" d="M44.295 33.092C41.695 35.692 38.603 37 35 37c-3.586 0-6.661-1.275-9.193-3.807S22 27.586 22 24c0-3.586 1.275-6.661 3.807-9.193S31.414 11 35 11c3.586 0 6.661 1.275 9.193 3.807C46.725 17.356 48 20.414 48 24v11.148c0 .51-.187.951-.544 1.308a1.797 1.797 0 0 1-1.308.544c-.51 0-.952-.187-1.309-.544a1.797 1.797 0 0 1-.544-1.308v-2.056zM35 14.688c-2.566 0-4.758.9-6.576 2.719-1.819 1.818-2.72 4.01-2.72 6.576s.901 4.758 2.72 6.576c1.818 1.819 4.01 2.72 6.576 2.72s4.758-.901 6.576-2.72c1.819-1.818 2.72-4.01 2.72-6.576s-.901-4.758-2.72-6.576c-1.818-1.802-4.01-2.72-6.576-2.72zM73.295 1.842c0-.507.187-.946.544-1.301.357-.355.799-.541 1.309-.541.51 0 .951.186 1.308.54.357.356.544.795.544 1.302V24.07c0 3.567-1.275 6.626-3.807 9.145C70.644 35.749 67.586 37 64 37c-3.586 0-6.661-1.268-9.193-3.786C52.275 30.695 51 27.636 51 24.069c0-3.566 1.275-6.625 3.807-9.144 2.532-2.518 5.607-3.786 9.193-3.786 3.586 0 6.661 1.268 9.193 3.786l.085.085V1.842h.017zm0 22.244c0-2.552-.9-4.732-2.719-6.541-1.818-1.809-4.01-2.704-6.576-2.704s-4.758.895-6.576 2.704c-1.819 1.809-2.72 3.989-2.72 6.541 0 2.553.901 4.733 2.72 6.542 1.818 1.808 4.01 2.704 6.576 2.704s4.758-.896 6.576-2.704c1.819-1.809 2.72-3.99 2.72-6.542zM28.674 4.728c0-.016-.017-.016-.017-.033 0 0 0-.017-.017-.017a10.184 10.184 0 0 0-.828-.895C25.296 1.25 22.24 0 18.677 0c-3.562 0-6.618 1.267-9.134 3.783-2.533 2.533-3.8 5.59-3.8 9.153v.405h-3.9a1.736 1.736 0 0 0-1.604.878 1.767 1.767 0 0 0 .642 2.415c.32.186.692.253 1.03.236h3.832v18.29c0 .506.186.945.54 1.3.355.354.794.54 1.301.54.507 0 .946-.186 1.3-.54.355-.355.54-.794.54-1.3V22.003l.034.034v-5.15h8.223c.659.05 1.317-.27 1.672-.879a1.767 1.767 0 0 0-.642-2.415 1.917 1.917 0 0 0-.945-.236H9.458c0-.135-.017-.27-.017-.405 0-.237.017-.49.034-.727v-.033c.169-2.23 1.047-4.155 2.668-5.776 1.807-1.807 3.985-2.702 6.534-2.702 2.55 0 4.728.895 6.535 2.702.236.237.44.473.642.71.304.303.692.472 1.148.506.506.034.962-.101 1.35-.439.389-.338.609-.76.642-1.267a1.842 1.842 0 0 0-.32-1.199z"/>
        <circle cx="95" cy="43" r="3" fill="#CB2026"/>
        <circle cx="106" cy="43" r="3" fill="#CB2026"/>
        <path fill="#CB2026" d="M101.708 37c-1.467 0-2.935-.202-4.368-.571a16.782 16.782 0 0 1-9.9-7.278 16.668 16.668 0 0 1-2.395-11.412l.05-.319-.758-.202-.118.05a2.364 2.364 0 0 1-.962.22c-.152 0-.32-.017-.472-.051a2.244 2.244 0 0 1-1.737-2.655A2.267 2.267 0 0 1 83.24 13c.152 0 .32.017.473.05a2.172 2.172 0 0 1 1.534 1.194l.068.151 1.922.504c.608.168 1.08.69 1.097 1.227 0 .185 0 .437-.017.538-1.67 7.68 2.53 14.924 9.799 16.857 1.18.32 2.378.47 3.592.47 6.223 0 11.705-4.184 13.34-10.167V23.773a1.497 1.497 0 0 1 1.839-1.059c.388.101.708.353.91.706.203.353.254.756.152 1.143-.016.034-.016.084-.033.118v.016C115.909 31.941 109.23 37 101.708 37z"/>
        <path fill="#CB2026" d="M114 20c0 6.631-5.369 12-12 12s-12-5.369-12-12 5.369-12 12-12 12 5.369 12 12z"/>
        <path fill="#F8F8F8" d="M110.892 21.992c.085.094.16.198.189.274.041.108-.055.309-.124.278-.05-.055-.251-.624-.392-.825a2.645 2.645 0 0 1-.09-.093.872.872 0 0 0-.111-.087.037.037 0 0 0 .038-.001.08.08 0 0 1-.01-.02c-.017-.066-.034-.278-.017-.31.017-.033.035-.196 0-.261s-.173-.196-.173-.245c0-.048-.034-.179-.138-.179-.103 0-.224-.163-.207-.195.018-.033-.017-.212-.069-.294-.034-.081-.241-.244-.31-.212-.087.016-.294.147-.363.196-.051.049-.103.31-.12.358-.018.033-.19.033-.19.066 0 .032-.018.114-.052.114-.035 0-.138.13-.173.277-.034.147-.172.554-.241.554-.07 0-.173-.098-.173-.147 0-.048-.034-.228-.069-.293a1.866 1.866 0 0 1-.224-.408c-.035-.114-.207-.39-.224-.44-.018-.049-.07-.228-.121-.244-.052-.017-.138-.13-.138-.163.017-.017-.035-.147-.173-.294l-.293.05-.086.015c-.018-.048-.087-.065-.156-.016-.052.033-.328.016-.345-.016-.017-.033-.12-.245-.224-.359-.104-.114-.449-.342-.483-.326-.035.016-.104.098-.087.147.018.049.207.13.242.212.034.065.138.277.19.244.052-.016.293.033.345.114.052.082.138.327.086.375-.052.033-.103.31-.172.36-.07.048-.328.146-.328.195 0 .049-.19.163-.345.228-.156.081-.639.13-.69.016a4.409 4.409 0 0 0-.346-.62c-.086-.113-.345-.472-.362-.554-.017-.097-.138-.195-.12-.13.016.065.016.277.068.326.052.049.224.245.276.326.052.082.138.49.242.57.086.082.259.44.328.44.086 0 .293-.032.345-.08.034-.05.276.016.293.097.017.098-.086.473-.19.636-.103.163-.448.652-.5.685-.052.032-.224.228-.259.342-.034.114-.138.554-.12.799.017.244-.156.913-.294 1.043-.138.147-.293.767-.345.783-.052.016-.19.114-.207.18-.018.064-.087.342-.173.423-.086.082-.362.457-.518.538-.155.098-.742.049-.828-.13-.052-.18-.293-.62-.293-.685 0-.065-.052-.375-.104-.522-.069-.147-.276-.57-.259-.717.018-.147.121-.57.104-.701-.017-.13-.173-.49-.207-.62-.035-.13-.155-.554-.12-.684.034-.13-.018-.555-.07-.538-.052.016-.207.032-.276 0-.069-.033-.328-.098-.328-.196h-.086l-.173-.016c-.034.114-.172.228-.293.228-.12 0-.483 0-.587-.065-.12-.065-.448-.343-.5-.457-.052-.114-.242-.554-.242-.766 0-.212.052-.831.104-.913.052-.098.259-.522.431-.652l.07-.114.103-.18c.034-.26.138-.489.207-.521.069-.033.224-.212.276-.196.052.017.259.065.38.017.12-.05.673-.115.776-.147.104-.033.466-.033.483.016.017.049-.052.114-.017.147.034.032.155.26.31.326.173.065.518.277.536.212.017-.065.345-.13.569-.114.224.016.742.065.76-.017.034-.097.172-.277.172-.326 0-.049 0-.114-.017-.049 0 .066-.19.066-.173.017 0-.05-.293-.098-.518-.033l-.155-.114-.069-.049a.597.597 0 0 1-.07-.212c0-.049.018-.26 0-.26-.016 0-.068.08-.068.179.017.097 0 .342.069.342s.034.163-.035.163c-.051 0-.12-.13-.103-.13s-.035-.033-.104-.033c-.069 0-.172-.098-.172-.147a.953.953 0 0 0-.052-.293l-.034-.05a.587.587 0 0 0-.087-.178l-.138-.196c-.207-.163-.276-.196-.172-.098.103.114.276.391.241.359-.034-.05-.12.065-.086.081.034 0-.017.13-.086.163-.07.033-.156.229-.207.212-.052-.016-.052-.179 0-.179.051.016.069-.147.017-.212-.035-.065-.294-.163-.31-.212 0-.049-.07 0-.035.13.034.13-.225.147-.26.017-.034-.147 0-.391-.068-.343-.07.05-.345.033-.397.115-.052.081-.31.31-.345.423-.035.13-.19.375-.242.36-.051-.017-.293.015-.345-.017-.052-.033-.31-.082-.328-.147a1.63 1.63 0 0 1-.034-.424c.017-.081.172-.326.293-.358.12-.017.449.032.466 0 .017-.033.035-.147-.017-.196-.07-.033-.138-.26-.207-.26-.07 0-.156-.099-.121-.131.034-.033.207-.147.242-.196.034-.049.276-.081.293-.098.017-.016-.086-.065-.224-.065-.139.016-.415.016-.38 0 .034-.033.12-.147.086-.196-.034-.065.017-.31.086-.31.052 0 .07-.179.035-.179-.035-.016-.138-.146-.12-.244.016-.098.051-.424.103-.457.051-.032.241 0 .224.033-.017.032-.069.13-.034.147.034.016.155.146.207.212.051.081.069.407.103.44.035.032.086.146.052.212-.017.032-.035.081-.052.13.07-.049.259-.081.276-.13.017-.05.121-.196.19-.212.07-.033.276-.082.276-.13 0-.05-.069-.099-.052-.147.018-.05.07-.229-.017-.229-.086 0-.19-.212-.19-.31 0-.097-.069-.39-.034-.521.034-.13.328-.277.328-.31 0-.032.034-.114.069-.114.034 0 .12-.016.172-.098.052-.081.225-.391.328-.473.104-.065.362-.31.397-.326.034-.032.12-.016.19-.065.069-.049.293-.18.362-.18.07 0 .276.033.328.082.052.033.207.196.276.212.07.033.345.18.518.229.172.048.259.31.328.26.069-.049.155-.326.19-.31.051 0 .19.05.19.098 0 .05.068.13.155.066.086-.066.466-.196.586-.212.121-.017.363.016.294 0-.07 0 .017-.212.086-.18.069.033.483-.032.57-.114.086-.081.327-.31.379-.277.052.033.19.098.207.049.017-.049.207 0 .207.065 0 .05.07.13.086.082.018-.05.104-.163.173-.13.086.048.242.097.19.065-.052-.033-.07-.229-.017-.245.051-.016.19-.082.207-.13a.488.488 0 0 1 .19-.18c.051-.016.258-.098.362-.114.12-.016.345-.13.362-.098.017.033.155.017.173-.032.017-.066.259-.098.276-.163.017-.082.155-.147.19-.114.051.032.276.114.38.114h.12c.138.114.276.244.414.358 0 .066.086.196.242.229h.034a11.589 11.589 0 0 1 3.106 4.613c-.086.114-.19.245-.224.261-.069.033-.19.31-.155.538.034.228-.26.57-.328.538-.07-.033-.138-.326-.19-.375-.052-.049-.155-.163-.138-.114.017.065-.104.18-.12.212-.018.033-.122.065-.139.098a.422.422 0 0 0 .035.244c.017.05.12.18.138.245.017.065.103.26.086.375a2.14 2.14 0 0 1-.138.424c-.017.016-.155.13-.224.244-.07.114-.363.424-.484.424-.12-.016-.224.18-.19.18.052 0 .104.097.087.162-.017.066-.155.343-.173.587-.017.245-.448.473-.448.44 0-.032-.087-.146-.156-.195-.069-.05-.241-.147-.258-.082-.018.066-.018.31.034.375.052.065.259.277.328.359.047.073.01.318-.087.295zm-17.05-2.801a.078.078 0 0 1-.026.026.03.03 0 0 1-.016-.006c-.032.012-.059.012-.059-.014 0-.083.017-.133.034-.133.01 0 .022.003.036.008a.049.049 0 0 1 .039-.004c.015.005.021.02.022.037.01.008.018.017.022.025.007.014-.02.04-.052.06zm20.055-1.663c.034.146.069.276.103.405-.138.065-.241.098-.258.081-.017-.016-.138.017-.207.05-.051.032-.172.21-.224.177-.051-.032-.051-.21 0-.21h.018c-.018-.033.017-.146.069-.179.086-.048.344-.21.413-.259a.372.372 0 0 1 .086-.065zm-.26 4.586c.107.148.363.074.363-.197-.108-.147-.377-.123-.363.197zm.331.11s.032-.017.032-.035l-.047.358c-.11-.09-.237-.161-.269-.143-.047.036-.063-.072-.031-.09.047-.018.079-.125.094-.09.016.036.19.018.221 0zm-20.277-1.987c0-.033.17-.083.222-.05.034.033.05.067 0 .067-.051 0-.222.016-.222-.017zm.608-.737c.034-.017.034.066-.051.133-.068.016-.12-.083-.153-.083-.017 0-.051-.033-.051-.067 0-.033.034-.132.085-.116.05.017.136.133.17.133zm-.433.406c-.017-.053 0-.213-.084-.195-.084.018-.201-.018-.251-.089-.068-.07-.336-.142-.386-.106-.05.035-.252 0-.235-.036.017-.035.134-.16.252-.16.117 0 .452.036.503.072.05.053.2.142.234.16.034.017.135.16.269.141.134 0 .251.302.167.284-.083-.018-.184.089-.218.053-.033-.035-.234-.07-.251-.124zm.932.357c0-.033.12-.116.17-.116.051 0 .068.05.034.1s-.204.05-.204.016zm-.738 3.686c-.086-.065-.293-.277-.38-.31.018-.033-.069-.212-.19-.278-.12-.065-.138-.473-.086-.473.052-.017.086-.098.017-.131-.052-.016-.207-.196-.224-.278-.018-.081.086-.506.138-.572.052-.065.103-.359.12-.375.018-.017.018-.18-.017-.245-.034-.066-.103-.245-.12-.213-.035.033-.156.066-.225-.016-.07-.082-.38-.196-.38-.212a.223.223 0 0 0-.087-.147c-.051-.033-.172-.18-.224-.197-.052-.016-.277-.049-.311-.098-.035-.065-.26-.245-.432-.277-.173-.033-.726-.229-.778-.327-.052-.098-.12-.54-.173-.604-.069-.066-.241-.246-.241-.295 0-.032-.07 0-.052.05.034.049.017.26-.018.245-.034-.033-.224-.098-.259-.196-.017-.05-.086-.131-.138-.197.07-.539.173-1.061.311-1.568.017-.065.035-.114.052-.18.052-.212.138-.424.207-.637.052-.114.087-.228.138-.343.07-.18.139-.36.225-.539.138-.261.26-.539.415-.8.052-.098.12-.196.173-.294l.414-.638c.052-.065.104-.147.156-.212.224-.31.449-.604.708-.882.052.016.104.033.104.049.017.049.12.033.155-.082a.446.446 0 0 0-.017-.212c.052-.065.121-.114.173-.18.103.033.224.082.259.13.052.083.207.279.173.328-.035.049.069.147.12.098.035-.05.087-.23.053-.23-.035 0-.139-.179-.139-.375s.26-.474.311-.44c.052.032.156.162.277.097.12-.065.242.13.31.114.07-.016.346.017.381.033.052.016.12.18.19.18s.276.049.311.098c.035.049.086.229.052.245-.035.016-.017.147.052.18.069.032.276.114.276.163s.104.082.087.114c-.035.033-.052.213-.087.229-.052.016-.103.114-.155.065-.035-.049-.225-.065-.19-.016.017.033.034.245 0 .31-.035.066-.087.278-.208.196-.12-.098-.57-.277-.674-.277-.103.016-.017-.18.26-.294l.051-.327.018-.196a3.838 3.838 0 0 0-.329-.18c-.086-.032-.259.05-.328.017-.052-.033-.242-.017-.19 0 .035.016.121.147.104.228 0 .066-.087.327-.19.36-.104.032-.467.13-.45.163 0 .033-.051.18-.138.229-.086.065-.294.31-.345.376-.052.065-.242.212-.242.26.017.034-.035.066.017.099.052.016.12.294.207.343.087.049.329.196.363.18.052-.033.138.049.156.016.034-.049.155.098.172.212.035.115.156.23.173.115.018-.13.156-.31.121-.294-.034.016-.069-.098-.017-.098.052 0 .19-.131.225-.294.034-.147.017-.736.051-.752.035-.016.173.016.208.065.034.05.19.017.242.082.051.066.31.082.31.164 0 .081.052.294.104.294s.208 0 .208-.05c0-.048.069-.065.12.033.052.082.26.294.26.327 0 .033 0 .147.069.196.052.049.138.278.173.261.034-.016.155.115.155.196 0 .082 0 .474.035.54.034.065.207.196.207.245 0 .049-.052.18-.12.147-.07-.033-.174.032-.19 0-.018-.033-.07-.098-.122-.082-.052.016-.19-.082-.104-.18.087-.114.156-.376.052-.294-.103.082-.397.017-.38.05.017.032-.034.179-.104.195-.069.017-.103.18-.051.229.051.049.138.196.051.245-.069.049-.241.13-.259.147.035-.016-.069-.114-.19-.082-.12.033-.363.229-.328.262.035.032-.017.228-.104.261-.069.033-.328.18-.38.245-.052.065-.017.376-.052.392-.034.017-.155.05-.138.082.017.033-.12.245-.26.31-.137.066-.293.441-.276.49.018.033.087.18.07.245-.018.066-.052.295-.139.262-.086-.033-.207-.343-.293-.376-.087-.033-.363-.049-.38-.033 0 .017-.07.066-.156.017-.086-.033-.432-.017-.501.016-.052.033-.311.36-.38.67-.07.31.466.474.5.408.035-.081.174-.212.243-.212.052.016.293.082.276.18-.017.098.017.392.138.392.121 0 .277.277.242.408-.034.13.087.425.139.392.051-.032.241-.081.293-.065.052.033.139.147.225.082.069-.05.242-.295.294-.31.051-.017.155-.066.19-.034.034.033.155.066.172.017 0-.05.208 0 .277.049.07.049.207.229.225.212.017-.016.172 0 .276.05.121.065.45.244.484.326.034.098.345.327.518.425.19.098.242.408.277.424.051.017.259.05.345.082.087.033.277.18.329.18.051 0 .276.016.362.049.087.032.26.18.294.147.052-.033.19.114.242.245v.261c-.017.082-.052.18-.052.229-.017.033-.173.212-.207.261-.035.033-.104.23-.121.245-.017.017-.104.066-.104.115s-.086.261-.103.408c-.018.147-.087.572-.139.588-.052.033-.328.147-.363.196-.034.05-.155.23-.155.278 0 .05-.07.245-.138.294-.07.05-.156.36-.19.392-.035.033-.121.164-.139.164-.017 0-.086.049-.155.049-.07 0-.207.049-.173.114.035.065-.017.376-.086.425-.07.049-.363.163-.38.261-.018.114-.294.229-.26.36.035.13-.017.392.018.424.034.033.034.245.017.294-.017.05-.173.147-.207.196-.052.05-.035.31.017.327.052.016.086.212.12.261.035.033.122.115.035.131-.086.016-.362.033-.397 0a.801.801 0 0 0-.173-.082s-.017-.016-.034-.049c-.018-.032-.052-.196-.087-.294-.052-.098-.207-.359-.224-.473-.018-.115-.07-.556-.087-.621 0-.066.035-.229 0-.245-.052-.017.035-.18.104-.213.069-.016.052-.228.017-.212-.052.016-.155-.261-.155-.474 0-.212.207-.653.172-.784-.017-.147.052-.49.052-.523-.017-.032-.069-.13-.052-.18a.743.743 0 0 0 0-.342c-.051-.115-.224-.458-.31-.54zm.362-12.192c-.088 0-.299.035-.422.035.07-.07.158-.16.246-.23.264-.231.528-.444.81-.657.3-.213.598-.426.915-.621.3-.16.546-.284.563-.284.036 0-.017.124-.105.16-.106.053-.352.195-.335.23.018.036-.088.196-.158.213-.07.018-.246.196-.334.249-.088.053-.44.16-.493.23-.053.072-.159.391-.211.391h-.07c.034.035.034.142.017.177-.018.036-.264.09-.423.107zm-.777 1.95c.023-.033.114-.132.137-.116.023.017.205.133.216.166.012.033-.034.016-.102-.05-.069-.05-.148.232-.205.232-.046 0-.068-.199-.046-.232zm6.337-2.51c-.034.032-.118.048-.017.064.085.016.102.22.034.22-.068 0-.203.19-.152.363.05.173-.238.363-.204.394.034.032 0 .19-.034.174-.034-.032-.068-.032 0 .015.068.048-.102.158-.187.126-.084-.031-.339-.078-.356-.063-.034.016-.068.08.017.126.085.048.187.032.119.08-.068.047-.204.283-.289.346-.085.047-.39.173-.424.205-.034.031-.17.142-.22.157-.051.032-.272 0-.289.048-.017.031-.153.457-.204.551-.05.08-.135.19-.17.221-.033.032-.135.11-.152.063-.034-.047-.22-.094-.272-.094-.05 0-.186-.174-.186-.379 0-.205-.255-.614-.204-.662.068-.047.034-.173.085-.205.05-.031.119-.157.017-.189-.102-.031-.153-.236-.068-.236.068 0 .085-.11.051-.079-.034.047-.22-.063-.22-.11 0-.063 0-.252-.035-.3-.033-.047-.118-.283-.22-.3-.102-.015-.34-.078-.356-.047-.017.032-.238.016-.323-.015-.085-.032-.102-.22 0-.22s.323-.048.272-.064c-.051-.016-.255-.032-.306-.063-.05-.032-.119.031-.136 0-.034-.032-.135-.063-.084-.11.05-.048.271-.063.373-.095.085-.031.237-.158.187-.158-.051 0 .084-.22.254-.315.17-.094.849-.22.967-.22.12-.016.526 0 .51-.063-.018-.064.05-.221.135-.237.085-.016.475-.031.645-.031.17 0 .51-.095.56-.095.05 0 .187.063.255.047.067-.015.356.032.475.032.118 0 .203.157.101.173-.101.032-.17.237-.084.205.068-.031.339 0 .373.032.034.031.22.078.288.063.068-.016.034.142-.033.157-.068.016-.238.095-.272.142-.034.032-.187.079-.17.11.017.032-.017.205-.05.237zm8.619 10.022c.051-.083.12-.116.17-.066.051.05.102.249.085.298-.017.033-.306-.149-.255-.232zm4.594-.113c-.021-.04-.212-.222-.254-.222-.042 0-.042-.061 0-.122.042-.06.233-.1.233-.182-.021-.08.106-.202.17-.182.063.02.168.243.253.263.085.02.021.303-.085.324-.127.02-.296.161-.317.121zm.805 2.517a9.997 9.997 0 0 1-1.334 2.748c-.036.016-.054.032-.09.032-.109.032-.433.112-.47.08-.035-.032-.162-.176-.126-.32l-.018-.191-.018-.096c-.072-.064-.126-.208-.126-.336 0-.128.018-.431.09-.447.072-.016.27-.24.343-.416l.108-.112.09-.08c.054.065.09.08.09.017 0-.064.145-.16.217-.192.072-.032.252-.016.288-.08.018-.064.18-.272.253-.304.072-.032.306-.128.306-.176 0-.047.235-.127.397-.127zm-9.024 1.635c-.017-.085-.102-.41-.05-.479a.528.528 0 0 0 .05-.274c-.017-.05.05-.308.101-.376.05-.069.287-.257.321-.342.017-.086.119-.223.119-.137 0 .085.135.599.118.701a.824.824 0 0 1-.085.223.412.412 0 0 0-.05.154c0 .051-.017.222-.034.308-.034.068-.186.36-.237.376-.05.018-.236-.05-.253-.154zm7.833-3.427c.075.018.12.256.09.274-.045.018-.09.256-.045.329.046.073.046.128 0 .11-.045-.019-.166-.073-.197-.037-.015.037-.06.055-.106-.146-.045-.201.182-.548.258-.53zm.035-1.618c-.034.063-.153.222-.204.174-.05-.047-.068-.365.051-.349.12.032.188.111.153.175zm-.34 1.775c0 .071-.04.186-.061.272-.02.085-.202.2-.182.214.02.014.02.029-.02.043-.04 0-.12.057-.202.014-.08-.043-.504-.086-.565-.143-.06-.057.02-.329.222-.415.202-.071.505-.529.586-.5.1.014.282.143.262.186 0 .043-.02.257-.04.329zm.174-2.642c.05-.067.153.215.119.281-.051.05-.102.05-.12 0-.016-.066-.05-.215 0-.281zm-1.587 3.672c.02-.05.19-.133.361-.083.152.05.685.265.723.298.038.033-.076.017-.285-.033-.21-.05-.818-.133-.799-.182z"/>
        <path fill="#CB2026" d="M132.483 33.402l3.937-9.532c.235-.568.653-.87 1.257-.87.887 0 1.323.48 1.323 1.438 0 .195-.034.39-.117.603l-5.194 12.125c-.25.55-.636.834-1.189.834s-.955-.284-1.19-.834l-5.193-12.125a1.61 1.61 0 0 1-.117-.603c0-.959.436-1.438 1.323-1.438.604 0 1.022.284 1.257.87l3.903 9.532zM156 36.45c0 1.04-.516 1.55-1.565 1.55-1.05 0-1.566-.51-1.566-1.55V29.85c0-2.694-1.263-4.032-3.789-4.032-1.21 0-2.188.387-2.9 1.18-.676.757-1.031 1.707-1.031 2.887v6.567c0 1.038-.534 1.549-1.584 1.549S142 37.49 142 36.45V24.726c0-1.056.516-1.584 1.565-1.584 1.05 0 1.584.528 1.584 1.584v1.057c.96-1.849 2.561-2.782 4.785-2.782 1.886 0 3.38.634 4.465 1.884 1.05 1.215 1.583 2.817 1.583 4.806v6.76H156z"/>
        <circle cx="121.5" cy="35.5" r="1.5" fill="#CB2026"/>
    </g>
</svg>
