<svg xmlns="http://www.w3.org/2000/svg" viewBox="0 0 800.05 321.43"><defs><style>.cls-1{fill:#eb252a;}.cls-2{fill:#242021;}.cls-3{fill:#242122;}.cls-4{fill:#fbc7b3;}.cls-5{fill:#fbbea8;}.cls-6{fill:#e92f31;}</style></defs><title>logo-gn247</title><g id="Layer_2" data-name="Layer 2"><g id="Layer_1-2" data-name="Layer 1"><path class="cls-1" d="M28.79,76.7l6.52-1.41c3.83-.85,7.65-1.74,11.49-2.56,3.53-.75,6.43.42,8.07,3.18a6.83,6.83,0,0,1-2.35,9.36,6.71,6.71,0,0,1-1.77.74c-4,1-8,1.83-12,2.71Q23.63,92,8.53,95.3A6.89,6.89,0,0,1,.22,90.19,5.75,5.75,0,0,1,.05,89.1a11.06,11.06,0,0,1,0-1.41V44.2a6.91,6.91,0,0,1,13.75-.32A16.56,16.56,0,0,1,13.9,46V64.3a3,3,0,0,0,.19,1.63,3.93,3.93,0,0,0,1.46-1.2A224.6,224.6,0,0,1,40.47,43,213.16,213.16,0,0,1,81.93,18.74,216.55,216.55,0,0,1,125.7,4.8c7.17-1.48,14.42-2.55,21.7-3.36A259.07,259.07,0,0,1,184.14.17c7,.22,14.05.8,21.05,1.58A313,313,0,0,1,291.08,24c2,.85,3.95,1.76,5.91,2.7,1.19.58,1.19.63.72,1.83q-2.65,6.72-5.34,13.39c-.52,1.28-.77,1.39-2.14.89-1-.37-1.94-.84-2.9-1.26a281.3,281.3,0,0,0-42.79-14.67,293.91,293.91,0,0,0-30.24-6.28c-6.61-1-13.25-1.74-19.92-2.28a259.3,259.3,0,0,0-31.66-.56c-6.91.29-13.8.95-20.66,1.93A206.64,206.64,0,0,0,112.71,26a192.17,192.17,0,0,0-40,16.88A203,203,0,0,0,43.92,62.66c-4.68,3.82-9.11,7.93-13.5,12.08A5.92,5.92,0,0,0,28.79,76.7Z"/><path class="cls-1" d="M557,245a2.15,2.15,0,0,0-1.48.07l-16.3,3.59a7.07,7.07,0,0,1-6.19-1,6.89,6.89,0,0,1,1.29-11.95,19,19,0,0,1,3.73-1q19.71-4.34,39.48-8.63a6.94,6.94,0,0,1,8.25,5.29,6.32,6.32,0,0,1,.15,1v43.89a6.92,6.92,0,0,1-13.81,1c0-.12,0-.23,0-.35-.08-3.58,0-7.15,0-10.74v-9.51a1.42,1.42,0,0,0-.24-1.11c-.62,0-.9.57-1.26.94-4.33,4.38-8.86,8.55-13.53,12.56a219.42,219.42,0,0,1-26.44,19.47,209,209,0,0,1-33.45,17,213.22,213.22,0,0,1-39.73,11.59,247.2,247.2,0,0,1-27.35,3.6,254.89,254.89,0,0,1-28.32.52c-8.09-.26-16.15-.95-24.19-1.95-9.32-1.15-18.56-2.68-27.73-4.66a307.25,307.25,0,0,1-50.69-15.46c-3.1-1.25-6.14-2.64-9.2-4-.53-.23-1-.53-1.57-.78s-.71-.76-.43-1.42c.86-2.05,1.65-4.13,2.48-6.19,1-2.55,2.12-5.08,3.08-7.66.29-.8.7-1,1.42-.81a12.51,12.51,0,0,1,1.66.57A265.69,265.69,0,0,0,335.7,293a296.52,296.52,0,0,0,43.89,8.88,262.46,262.46,0,0,0,40.71,1.85,212.47,212.47,0,0,0,49.12-7.23,192.27,192.27,0,0,0,44.1-18.11,205.8,205.8,0,0,0,29-20c5-4.1,9.71-8.49,14.32-13C557,245.26,556.94,245.12,557,245Z"/><path class="cls-2" d="M48.5,166.77a4.68,4.68,0,0,0-1.86-.16h-13c-1.27,0-1.3,0-1.3-1.27v-12.5c0-.87.31-1.17,1.12-1.1H65c.83-.06,1.19.19,1.3,1.14a43.94,43.94,0,0,1-.17,9.66,35.21,35.21,0,0,1-5.35,15.83,31.52,31.52,0,0,1-20.51,14c-7.73,1.66-15.37,1.22-22.33-2.8C7.64,183.65,1.3,174.85.2,162.92a34.67,34.67,0,0,1,7.93-26,29.06,29.06,0,0,1,15.33-9.42c11.43-3.07,22.15-1.2,32.15,5A21.67,21.67,0,0,1,60,136.15l-7.47,7.58c-.9.92-1.8,1.85-2.71,2.76s-.94.91-1.87.06c-2.1-1.9-4.34-3.65-7.15-4.32-6-1.43-11.77-1.31-16.88,2.66a18.29,18.29,0,0,0-5.52,21.41,19.36,19.36,0,0,0,4.62,7A15.55,15.55,0,0,0,47,169.92,14.83,14.83,0,0,0,48.5,166.77Z"/><path class="cls-2" d="M243.14,161.32v-33c0-1.33,0-1.35,1.38-1.35h13c1.52,0,1.53,0,1.53,1.54V184a9.83,9.83,0,0,1-3,7.26,7.77,7.77,0,0,1-10.41.59,17.53,17.53,0,0,1-4.81-5.77c-1.14-2-2.19-4.13-3.28-6.21l-12.5-24a4.73,4.73,0,0,0-1.19-1.55v36.83c0,.69-.26.94-.93.9s-1.41,0-2.11,0H209c-.82,0-1.24-.2-1.12-1.07a4.68,4.68,0,0,0,0-.53v-55.8a8.91,8.91,0,0,1,6.55-9,10.62,10.62,0,0,1,10,2.34,18.76,18.76,0,0,1,4.77,6.23q6.3,12.57,12.63,25.1A5.56,5.56,0,0,0,243.14,161.32Z"/><path class="cls-2" d="M768.17,152l2-1.79A18.29,18.29,0,0,1,796,152.16a18.48,18.48,0,0,1,3,4.84,12.59,12.59,0,0,1,1.09,5.12v29c.07.71-.28.89-.94.88H786.43c-1,0-1.17-.31-1.17-1.2V174.3c0-3.11-.12-6.23,0-9.33.21-4.38-4.52-5.69-7.21-4.45a3.73,3.73,0,0,0-2,2.34,9.26,9.26,0,0,0-.39,3.13v25.17c.06.72-.3.89-1,.88H762.3c-1.29,0-1.31,0-1.31-1.37V166a14.63,14.63,0,0,0-.07-1.75c-.29-3.1-1.91-4.5-5-4.34a4.46,4.46,0,0,0-4.09,3.3,9.76,9.76,0,0,0-.36,3.13V190a9.19,9.19,0,0,0,0,1.05c.12.91-.33,1.07-1.13,1.06H738c-1.29,0-1.31,0-1.31-1.38v-13.9c0-4.62.08-9.16,0-13.73-.18-7.44,3.57-12.29,10-15.29a19.71,19.71,0,0,1,13.4-1.09,13.84,13.84,0,0,1,7.1,4.29Z"/><path class="cls-2" d="M438.5,177h20.82c.88,0,1.25.2,1.24,1.17q-.06,6.33,0,12.68c0,.87-.2,1.34-1.17,1.2a9.19,9.19,0,0,0-1.05,0h-32.4c-4.76,0-9.6-4.85-8.79-10a18.26,18.26,0,0,1,3.09-7.4,45.44,45.44,0,0,1,4.95-5.71c4.88-5.15,9.8-10.27,14.7-15.4a19.48,19.48,0,0,0,2.63-3.29,10.25,10.25,0,0,0,1.28-3.07,5.37,5.37,0,0,0-2.1-5.75,5.78,5.78,0,0,0-6.45,0c-2.35,1.73-3.83,4.17-2.11,7.67a13.36,13.36,0,0,0,2.23,3.14l-10.19,10.66A18.6,18.6,0,0,1,418,151.46a21.6,21.6,0,0,1,14.75-24.66c8.62-2.56,19.79.29,24.39,10a23.67,23.67,0,0,1,1.05,17.48,15,15,0,0,1-3.83,6q-7.51,7.91-15,15.86Z"/><path class="cls-2" d="M481.38,164.2h10.28c1,0,1.14-.42,1.13-1.26V152.2a6.36,6.36,0,0,1,.94-3.47c4.21-7.18,8.36-14.39,12.54-21.59.14-.25.31-.49.55-.87a3.62,3.62,0,0,1,.23,1.92v34c0,2.31-.32,2,2.1,2h4.22c.72,0,.9.28.9.93v13c0,.65-.18.95-.9.93H509c-2.14,0-1.91-.24-1.92,1.84v9.68c0,1.43,0,1.45-1.42,1.45H494.3c-1.54,0-1.55,0-1.56-1.49v-10c0-1.42,0-1.44-1.44-1.44-5,0-10.13-.36-15.14.08-7,.62-11.74-6.84-10.21-12.76a21.51,21.51,0,0,1,2-5.4q9.09-16.06,18.16-32.13a2.12,2.12,0,0,1,2.19-1.29c4.45.06,8.91,0,13.68,0C495.15,139.82,488.35,151.86,481.38,164.2Z"/><path class="cls-2" d="M282.39,147.72a4,4,0,0,0,2.07-.55,19.82,19.82,0,0,1,10-1.09c5.49.9,9.07,4.31,11.44,9.16a18.72,18.72,0,0,1,1.7,8.2v27.1c0,1.49,0,1.5-1.54,1.5H294.3c-1.48,0-1.49,0-1.49-1.54V165.68c0-3.76-2.27-5.92-6-5.73a4.51,4.51,0,0,0-4.44,4.52V190.7c0,1.32,0,1.34-1.33,1.34H268.92c-1.3,0-1.32,0-1.32-1.37V129.11c0-2.33-.24-2.1,2-2.1H280c2.7,0,2.36-.38,2.37,2.28V146Z"/><path class="cls-2" d="M344.83,178.52a2.53,2.53,0,0,1,.16,1.41c0,3-.07,6.11,0,9.15a2.33,2.33,0,0,1-1.5,2.45,13.27,13.27,0,0,1-4.5,1.41c-6.31.76-12.17-.32-17.16-4.52a23.44,23.44,0,0,1-8.71-18.1c-.36-13.85,9-21.15,17-23.52a27.43,27.43,0,0,1,12.19-.52,30.07,30.07,0,0,1,12.45,4.51c5.64,3.85,8.59,9.11,8.56,16v23.77c0,1.45,0,1.45-1.39,1.47H350.49c-2.13,0-1.91.24-1.91-1.84V170.12a14.17,14.17,0,0,0-.35-3.49,8.76,8.76,0,0,0-6.45-6.76c-4.13-1.13-7.9-.6-11.08,2.5a8.64,8.64,0,0,0-2.62,6.14,11.64,11.64,0,0,0,1.14,6.15,8.54,8.54,0,0,0,7.47,4.79,19.33,19.33,0,0,0,7.48-.8A4.53,4.53,0,0,1,344.83,178.52Z"/><path class="cls-2" d="M128.87,178.47v11.28a1.53,1.53,0,0,1-.84,1.41,11.69,11.69,0,0,1-5.26,1.81c-6,.66-11.58-.27-16.42-4.11a23.23,23.23,0,0,1-9.27-18.51c-.12-5.88,1.3-11.3,5.22-15.81,4.72-5.44,10.63-8.53,17.94-8.64a32.84,32.84,0,0,1,17.36,4.21,18.33,18.33,0,0,1,9.3,12.6,23.82,23.82,0,0,1,.4,4.21V190.5c0,1.54,0,1.55-1.5,1.55h-12c-1.2,0-1.22,0-1.22-1.27V174.24a42.12,42.12,0,0,0-.15-6.15c-.76-5.12-3.39-7.78-8.5-8.55-4.25-.65-7.78.6-10.32,4.13-3.85,5.36-1,14,5.21,15.51a17.08,17.08,0,0,0,8.69-.33Z"/><path class="cls-2" d="M529,192l17.5-50H523.75c-1.64,0-1.51.09-1.51-1.53V128.37c0-1.36,0-1.39,1.35-1.39h25.52a19.34,19.34,0,0,1,7.21,1.31c3.9,1.57,5.81,4.52,6,8.67a20.76,20.76,0,0,1-1.14,7.08q-7.21,23.22-14.46,46.41c-.49,1.57-.5,1.57-2.16,1.57Z"/><path class="cls-2" d="M409.8,177.33v13.21c0,1.62,0,1.51-1.55,1.51H397.16c-1.56,0-1.59.26-1.59-1.65V167.33a18.92,18.92,0,0,0-.21-3,5.31,5.31,0,0,0-6-4.53,4.53,4.53,0,0,0-.75.15,5,5,0,0,0-3,3.43,9.45,9.45,0,0,0-.44,3.29v24.48c.07.71-.29.93-.94.88H373.32c-2.5,0-2.18.37-2.18-2.09V164.58c.25-5.42,1.95-10.21,6-14a17.91,17.91,0,0,1,9-4.45c4.36-.87,8.67-.78,12.71,1.22,6,3,9.73,7.75,10.7,14.49a28.28,28.28,0,0,1,.26,4C409.79,169.7,409.8,173.52,409.8,177.33Z"/><path class="cls-2" d="M677.21,153.66v5.63c0,.88-.29,1.1-1.11,1.07-2-.05-4,0-6,0a10.32,10.32,0,0,0-3.12.48,6.93,6.93,0,0,0-4.94,5.24,13.7,13.7,0,0,0-.13,6.27,7.31,7.31,0,0,0,6.27,6,39.21,39.21,0,0,0,6.85.31c2.14,0,2.14,0,2.14,2.11v10c0,1.22,0,1.24-1.27,1.24-2.93,0-5.87.12-8.8,0a20.11,20.11,0,0,1-17-9.93c-4.85-7.79-4.41-19.13.94-26.25A21,21,0,0,1,668,147c2.7-.07,5.4,0,8.1,0,.82,0,1.14.21,1.11,1.08C677.17,149.92,677.21,151.79,677.21,153.66Z"/><path class="cls-2" d="M74.57,169.42V148.64c0-1.84-.14-1.67,1.73-1.67H87.57c1.86,0,1.73-.17,1.73,1.67v42.61c0,.63-.28.82-.85.8s-.94,0-1.41,0H76.3c-1.89,0-1.73.16-1.73-1.67Z"/><path class="cls-3" d="M81.41,142.76c-4.22,0-8.39-3.87-8.24-7.78.23-5.74,4.43-9.19,8.38-9.1,4.67.1,8.74,3.43,8.66,8.26C90.12,139.33,86.66,142.77,81.41,142.76Z"/><path class="cls-4" d="M14.51,79.38c.1.28-.08.33-.23.35a.28.28,0,0,1-.27-.12.27.27,0,0,1,.08-.38l0,0C14.24,79.17,14.4,79.32,14.51,79.38Z"/><path class="cls-5" d="M571.3,241.79c.13,0,.27-.16.41-.15a.32.32,0,0,1,.34.28.25.25,0,0,1,0,.15c-.07.23-.27.13-.41.09A.37.37,0,0,1,571.3,241.79Z"/><path class="cls-2" d="M176.9,193.19c-9.55-.46-16.39-5.15-20.74-13.59-7.32-14.22,2.09-30,15.22-33.08,10.14-2.35,19.57,1.39,25.31,11,2.39,4,3.88,8.33,3.18,13.06-1.43,9.64-5.82,17.23-15.19,21.2A18.56,18.56,0,0,1,176.9,193.19Zm-8.6-20.85c1.32,5.57,8.48,8.46,13.17,5.32A9.87,9.87,0,0,0,184.15,164a10,10,0,0,0-1.93-2.13,7.93,7.93,0,0,0-6.51-2c-4.61.87-7.71,4.79-7.73,9.84A7.8,7.8,0,0,0,168.3,172.34Z"/><path class="cls-2" d="M706.59,193.18c-9.35-.4-16.12-5-20.47-13.15-7.75-14.55,1.88-30.5,15.07-33.52,9.61-2.19,18.77,1,24.62,10,2.82,4.32,4.58,9,3.77,14.29-1.46,9.58-5.91,17.08-15.21,21A18,18,0,0,1,706.59,193.18Zm2.71-32.86a7.4,7.4,0,0,0-7,.68c-5,3.11-5.5,9.28-3.71,13A8.84,8.84,0,0,0,713,176.06a10.21,10.21,0,0,0,2.5-6.78A9.59,9.59,0,0,0,709.3,160.32Z"/><path class="cls-6" d="M603.11,193.56a31,31,0,1,1,31-31.09v.28A31,31,0,0,1,603.11,193.56Zm20.38-30.93a20.07,20.07,0,1,0,0,.44v-.44Zm-9.72,0a10.59,10.59,0,1,0-10.68,10.5A10.6,10.6,0,0,0,613.77,162.63Z"/></g></g></svg>