<svg xmlns="http://www.w3.org/2000/svg" width="192" height="74" viewBox="0 0 192 74">
    <g fill="none" fill-rule="nonzero">
        <g fill="#303846">
            <path d="M10.38 58.454c.17-.347.423-.521.76-.521.528 0 .78.26.78.804v10.599c0 .543-.252.825-.78.825-.548 0-.802-.282-.802-.825V62.08l-3.629 7.58c-.147.326-.4.5-.738.5-.338 0-.57-.174-.738-.5l-3.65-7.58v7.255c0 .543-.275.825-.802.825-.528 0-.781-.282-.781-.825v-10.6c0-.542.253-.803.78-.803.338 0 .591.174.76.521l4.41 9.296 4.43-9.296zM14.685 62.95c0-.565.274-.847.823-.847.548 0 .823.282.823.847v3.584c0 1.455.654 2.172 1.962 2.172.633 0 1.14-.217 1.519-.63.359-.413.548-.934.548-1.564V62.95c0-.565.275-.847.823-.847.549 0 .823.282.823.847v6.364c0 .565-.274.847-.823.847-.548 0-.823-.282-.823-.847v-.565c-.506 1-1.35 1.499-2.51 1.499-.992 0-1.752-.348-2.342-1.043-.549-.651-.823-1.52-.823-2.606V62.95zM31.142 69.314c0 .565-.274.847-.802.847-.527 0-.802-.282-.802-.847v-.152c-.548.717-1.371 1.086-2.468 1.086-.844 0-1.54-.217-2.089-.673-.548-.457-.802-1.043-.802-1.76 0-.782.275-1.39.844-1.824.528-.413 1.245-.608 2.11-.608.929 0 1.73.304 2.363.912v-.76c0-1.369-.696-2.064-2.089-2.064-.337 0-.654.022-.949.087-.232.044-.485.13-.78.217l-.254.087c-.105.044-.21.044-.274.044-.464 0-.696-.24-.696-.695 0-.326.253-.587.76-.804.632-.26 1.413-.39 2.341-.39 2.405 0 3.587 1.129 3.587 3.387v3.91zm-2.215-2.433c-.36-.217-.781-.325-1.287-.325-1.203 0-1.815.412-1.815 1.26 0 .846.59 1.28 1.772 1.28.528 0 .97-.108 1.33-.369.38-.238.57-.543.57-.912.02-.39-.19-.695-.57-.934zM41.734 70.248c-1.076 0-2.005-.304-2.785-.912-.233-.196-.36-.413-.36-.695 0-.391.212-.587.634-.587.21 0 .422.087.654.24.274.216.548.368.844.499.359.13.738.217 1.118.217.97 0 1.456-.304 1.456-.912 0-.478-.57-.87-1.71-1.173-1.961-.543-2.932-1.412-2.932-2.628 0-1.477 1.034-2.216 3.102-2.216.78 0 1.498.174 2.173.5.527.26.802.565.802.869 0 .412-.211.63-.633.63-.17 0-.401-.087-.718-.261a3.314 3.314 0 0 0-1.645-.413c-.97 0-1.456.283-1.456.847 0 .435.59.826 1.772 1.195 1.034.304 1.751.608 2.131.934.485.369.717.912.717 1.585-.02 1.499-1.076 2.28-3.164 2.28zM53.465 69.314c0 .565-.275.847-.802.847-.528 0-.802-.282-.802-.847v-.152c-.548.717-1.371 1.086-2.468 1.086-.844 0-1.54-.217-2.09-.673-.548-.457-.801-1.043-.801-1.76 0-.782.274-1.39.844-1.824.527-.413 1.245-.608 2.11-.608.928 0 1.73.304 2.363.912v-.76c0-1.369-.696-2.064-2.089-2.064-.337 0-.654.022-.95.087-.231.044-.485.13-.78.217l-.253.087c-.106.044-.211.044-.274.044-.465 0-.697-.24-.697-.695 0-.326.253-.587.76-.804.633-.26 1.413-.39 2.342-.39 2.405 0 3.587 1.129 3.587 3.387v3.91zm-1.71-10.73c.38 0 .57.196.57.587 0 1.26-.78 1.89-2.342 1.89-1.561 0-2.342-.63-2.342-1.89 0-.39.19-.586.57-.586.4 0 .612.217.612.63 0 .52.38.781 1.16.781.76 0 1.16-.26 1.16-.782 0-.412.19-.63.613-.63zm-.527 8.297c-.359-.217-.78-.325-1.287-.325-1.203 0-1.814.412-1.814 1.26 0 .846.59 1.28 1.772 1.28.527 0 .97-.108 1.33-.369.379-.238.569-.543.569-.912.02-.39-.169-.695-.57-.934zm-1.793-8.948a.76.76 0 0 1 .126-.195l.97-1.39c.149-.196.317-.305.55-.305.464 0 .675.218.675.674 0 .087-.021.173-.043.26a.392.392 0 0 1-.126.196l-.97 1.346a.7.7 0 0 1-.592.326c-.443 0-.654-.217-.654-.673a.58.58 0 0 1 .064-.239zM68.761 69.314c0 .565-.274.847-.823.847-.548 0-.822-.282-.822-.847V65.73c0-1.455-.612-2.193-1.857-2.193-.633 0-1.14.217-1.52.651-.379.413-.548.934-.548 1.542v3.562c0 .565-.274.847-.823.847-.548 0-.823-.282-.823-.847V65.71c0-1.456-.632-2.194-1.92-2.194-.632 0-1.139.217-1.498.651-.337.413-.506.934-.506 1.543v3.561c0 .565-.274.848-.823.848-.548 0-.823-.283-.823-.848v-6.32c0-.565.275-.869.823-.869.549 0 .823.283.823.87v.586c.485-1 1.308-1.499 2.448-1.499 1.266 0 2.152.521 2.68 1.585.674-1.064 1.645-1.585 2.91-1.585 1.014 0 1.815.326 2.343.999.506.63.76 1.477.76 2.563v3.714zM79.564 65.013l2.089-2.671a.681.681 0 0 1 .548-.239c.507 0 .76.239.76.739a.724.724 0 0 1-.19.477l-2.279 2.802 2.321 2.802c.127.152.19.326.19.5 0 .499-.253.738-.738.738-.254 0-.443-.087-.57-.26l-2.089-2.672-2.089 2.671a.714.714 0 0 1-.57.261c-.485 0-.738-.239-.738-.739 0-.173.064-.347.19-.499l2.321-2.802-2.279-2.802a.724.724 0 0 1-.19-.477c0-.5.254-.739.76-.739.211 0 .4.087.549.239l2.004 2.671zM85.155 62.95c0-.565.274-.847.823-.847.549 0 .823.282.823.847v3.584c0 1.455.654 2.172 1.962 2.172.633 0 1.14-.217 1.52-.63.358-.413.548-.934.548-1.564V62.95c0-.565.274-.847.823-.847.548 0 .822.282.822.847v6.364c0 .565-.274.847-.822.847-.549 0-.823-.282-.823-.847v-.565c-.507 1-1.35 1.499-2.511 1.499-.992 0-1.751-.348-2.342-1.043-.549-.651-.823-1.52-.823-2.606V62.95zM101.36 63.276l-.444 1.238-1.16 3.04a67.706 67.706 0 0 1-.697 1.695c-.844 1.998-1.92 3.388-3.228 4.148a.699.699 0 0 1-.422.13c-.485 0-.738-.217-.738-.673 0-.282.147-.521.422-.695a6.282 6.282 0 0 0 2.004-2.237l-2.722-6.711c-.02-.065-.042-.13-.042-.174-.02-.065-.02-.13-.02-.174 0-.5.252-.76.738-.76.337 0 .57.152.696.456l2.236 5.712 2.005-5.581c.126-.413.4-.609.76-.609.463 0 .696.261.696.76a.938.938 0 0 1-.085.435zM109.25 63.233c.654.781.992 1.759.992 2.932 0 .369-.211.564-.633.564h-5.212c.106 1.455.887 2.172 2.342 2.172.739 0 1.414-.282 2.026-.869.169-.173.359-.26.527-.26.464 0 .675.239.675.695a.694.694 0 0 1-.21.478c-.739.868-1.773 1.303-3.102 1.303-1.245 0-2.237-.413-2.975-1.216-.675-.76-1.013-1.716-1.013-2.89 0-1.172.359-2.15 1.118-2.931.739-.782 1.688-1.173 2.807-1.173 1.097 0 1.962.39 2.658 1.195zm-.506-3.215c.126.13.19.282.19.456 0 .37-.19.565-.57.565a.578.578 0 0 1-.38-.13l-1.35-1.26-1.35 1.26a.578.578 0 0 1-.38.13c-.38 0-.57-.196-.57-.565 0-.174.063-.304.19-.456l1.688-1.564a.66.66 0 0 1 .422-.173.66.66 0 0 1 .422.173l1.688 1.564zm-.021 5.343c-.085-.565-.296-1.043-.676-1.39-.4-.391-.886-.586-1.455-.586-1.266 0-2.005.673-2.174 1.998h4.305v-.022zM119.673 69.314c0 .565-.274.847-.823.847-.548 0-.823-.282-.823-.847V65.73c0-1.455-.654-2.193-1.983-2.193-.633 0-1.14.217-1.52.63-.358.412-.527.933-.527 1.563v3.562c0 .565-.274.847-.822.847-.55 0-.823-.282-.823-.847V62.95c0-.565.274-.869.823-.869.548 0 .822.283.822.87v.586c.507-1 1.35-1.499 2.511-1.499.992 0 1.772.347 2.342 1.02.549.652.823 1.521.823 2.607v3.649zM134.358 69.075c-.696.782-1.562 1.173-2.574 1.173-1.245 0-2.173-.521-2.743-1.542v.608c0 .565-.274.847-.802.847-.527 0-.78-.282-.78-.847V58.78c0-.565.274-.847.822-.847.549 0 .823.282.823.847v4.778c.633-1.02 1.52-1.542 2.68-1.542 1.034 0 1.878.37 2.574 1.13.717.782 1.076 1.78 1.076 2.975-.021 1.195-.359 2.172-1.076 2.954zm-1.224-4.909c-.422-.5-.992-.76-1.688-.76s-1.245.283-1.709.826a2.923 2.923 0 0 0-.654 1.89c0 .738.211 1.367.654 1.889.443.543 1.013.803 1.71.803.695 0 1.265-.26 1.687-.76.422-.5.633-1.15.633-1.955.021-.781-.211-1.433-.633-1.933zM138.367 58.91c.633 0 .949.326.949 1 0 .651-.316.999-.95.999-.632 0-.97-.326-.97-1 .021-.673.338-.999.97-.999zm.822 10.404c0 .565-.274.847-.822.847-.549 0-.823-.282-.823-.847V62.95c0-.565.274-.847.823-.847.548 0 .822.282.822.847v6.364zM147.861 63.233c.654.781.992 1.759.992 2.932 0 .369-.211.564-.633.564h-5.212c.106 1.455.887 2.172 2.342 2.172.739 0 1.414-.282 2.026-.869.169-.173.359-.26.527-.26.464 0 .675.239.675.695a.694.694 0 0 1-.21.478c-.739.868-1.773 1.303-3.102 1.303-1.245 0-2.237-.413-2.975-1.216-.675-.76-1.013-1.716-1.013-2.89 0-1.172.359-2.15 1.118-2.931.739-.782 1.688-1.173 2.807-1.173 1.097 0 1.983.39 2.658 1.195zm-.485-3.215c.126.13.19.282.19.456 0 .37-.19.565-.57.565a.578.578 0 0 1-.38-.13l-1.35-1.26-1.35 1.26a.578.578 0 0 1-.38.13c-.38 0-.57-.196-.57-.565 0-.174.063-.304.19-.456l1.688-1.564a.66.66 0 0 1 .422-.173.66.66 0 0 1 .422.173l1.688 1.564zm-.042 5.343c-.085-.565-.296-1.043-.676-1.39-.4-.391-.886-.586-1.455-.586-1.266 0-2.005.673-2.174 1.998h4.305v-.022zM158.305 69.314c0 .565-.274.847-.823.847-.548 0-.823-.282-.823-.847V65.73c0-1.455-.654-2.193-1.983-2.193-.633 0-1.14.217-1.52.63-.358.412-.527.933-.527 1.563v3.562c0 .565-.274.847-.822.847-.549 0-.823-.282-.823-.847V62.95c0-.565.274-.869.823-.869.548 0 .822.283.822.87v.586c.507-1 1.35-1.499 2.511-1.499.992 0 1.773.347 2.342 1.02.549.652.823 1.521.823 2.607v3.649zM173.56 69.466c0 1.281-.317 2.28-.95 2.954-.696.738-1.73 1.086-3.144 1.086a6.6 6.6 0 0 1-1.498-.174 5.636 5.636 0 0 1-1.54-.63c-.295-.174-.443-.39-.443-.673 0-.283.127-.478.359-.608.253-.13.527-.13.823.065.717.434 1.434.651 2.194.651.95 0 1.624-.217 2.025-.673.36-.39.528-1.02.528-1.89v-1.15c-.549.998-1.435 1.498-2.659 1.498-1.118 0-2.004-.39-2.7-1.173-.654-.738-.97-1.672-.97-2.802 0-1.129.316-2.063.97-2.801.675-.76 1.582-1.151 2.7-1.151 1.245 0 2.152.5 2.701 1.498v-.543c0-.565.253-.869.78-.869.528 0 .802.283.802.847v6.538h.022zm-2.28-5.278c-.442-.5-1.012-.738-1.687-.738-.696 0-1.266.239-1.709.716-.422.478-.654 1.086-.654 1.825 0 .738.21 1.346.654 1.824.443.478 1.013.717 1.709.717.696 0 1.266-.239 1.688-.738.422-.478.633-1.086.633-1.803 0-.717-.211-1.325-.633-1.803zM176.999 58.91c.633 0 .95.326.95 1 0 .651-.317.999-.95.999s-.97-.326-.97-1c0-.673.316-.999.97-.999zm.801 10.404c0 .565-.274.847-.822.847-.549 0-.823-.282-.823-.847V62.95c0-.565.274-.847.823-.847.548 0 .822.282.822.847v6.364zM187.675 64.623a4.5 4.5 0 0 1 .253 1.52c0 1.151-.359 2.128-1.097 2.889-.76.803-1.71 1.216-2.912 1.216-1.181 0-2.152-.413-2.912-1.216-.717-.782-1.097-1.738-1.097-2.89 0-1.15.359-2.128 1.097-2.91.76-.803 1.71-1.194 2.912-1.194 1.16 0 2.11.39 2.87 1.151l.126-.521v-.673c0-.37.232-.565.675-.565.507 0 .76.195.76.565v.5c0 .347-.042.694-.148 1.042-.126.39-.295.738-.527 1.086 0-.022 0 0 0 0zm-1.984-.37c-.422-.52-1.012-.803-1.75-.803-.74 0-1.33.26-1.752.803-.4.5-.59 1.108-.59 1.89 0 .76.19 1.39.59 1.868.422.521 1.013.803 1.751.803.739 0 1.33-.26 1.751-.803.401-.5.612-1.108.612-1.868-.02-.76-.21-1.39-.612-1.89zm-2.637-4.213c.042-.065.063-.152.127-.196l.97-1.39c.148-.195.317-.304.549-.304.464 0 .675.217.675.674 0 .086-.021.173-.042.26a.317.317 0 0 1-.127.196l-.97 1.346a.7.7 0 0 1-.591.326c-.443 0-.675-.217-.675-.673a.793.793 0 0 0 .084-.24zM190.882 58.91c.633 0 .95.326.95 1 0 .651-.317.999-.95.999s-.97-.326-.97-1c0-.673.316-.999.97-.999zm.802 10.404c0 .565-.275.847-.823.847-.549 0-.823-.282-.823-.847V62.95c0-.565.274-.847.823-.847.548 0 .823.282.823.847v6.364z"/>
        </g>
        <path fill="#CB2026" d="M54.44 41.19C51.24 44.39 47.435 46 43 46c-4.413 0-8.199-1.569-11.315-4.685C28.569 38.199 27 34.413 27 30c0-4.413 1.569-8.199 4.685-11.315C34.801 15.569 38.587 14 43 14c4.413 0 8.199 1.569 11.315 4.685C57.431 21.822 59 25.587 59 30v13.72c0 .628-.23 1.172-.67 1.61-.438.44-.982.67-1.61.67-.627 0-1.171-.23-1.61-.67-.44-.438-.67-.982-.67-1.61v-2.53zM43 18.539c-3.158 0-5.856 1.108-8.094 3.346-2.238 2.238-3.347 4.936-3.347 8.094 0 3.158 1.109 5.856 3.347 8.094 2.238 2.238 4.936 3.347 8.094 3.347 3.158 0 5.856-1.109 8.094-3.347 2.238-2.238 3.347-4.936 3.347-8.094 0-3.158-1.109-5.856-3.347-8.094-2.238-2.217-4.936-3.346-8.094-3.346zM90.44 2.29c0-.63.23-1.176.67-1.618.439-.44.983-.672 1.61-.672.628 0 1.172.231 1.61.672.44.442.67.988.67 1.619v27.633c0 4.434-1.569 8.238-4.685 11.369C87.178 44.445 83.413 46 79 46c-4.413 0-8.199-1.576-11.315-4.707C64.569 38.162 63 34.358 63 29.924s1.569-8.237 4.685-11.368c3.116-3.132 6.902-4.708 11.315-4.708 4.413 0 8.199 1.576 11.315 4.708l.105.105V2.29h.02zm0 27.655c0-3.173-1.108-5.884-3.346-8.132-2.238-2.249-4.936-3.363-8.094-3.363-3.158 0-5.856 1.114-8.094 3.363-2.238 2.248-3.347 4.959-3.347 8.132s1.109 5.884 3.347 8.133c2.238 2.248 4.936 3.362 8.094 3.362 3.158 0 5.856-1.114 8.094-3.362 2.238-2.249 3.347-4.96 3.347-8.133zM35.595 5.879c0-.021-.021-.021-.021-.042 0 0 0-.021-.021-.021-.315-.378-.65-.756-1.027-1.113C31.403 1.553 27.609 0 23.186 0s-8.217 1.575-11.34 4.703c-3.144 3.15-4.716 6.95-4.716 11.38v.503H2.288a2.154 2.154 0 0 0-1.991 1.092 2.198 2.198 0 0 0 .796 3.002c.398.231.86.315 1.279.294H7.13v22.738c0 .63.23 1.175.67 1.616.44.441.986.672 1.615.672.628 0 1.173-.23 1.614-.672.44-.44.67-.987.67-1.616V27.356l.042.042v-6.403H21.95a2.204 2.204 0 0 0 2.075-1.092 2.198 2.198 0 0 0-.796-3.002 2.376 2.376 0 0 0-1.174-.294H11.741c0-.168-.02-.336-.02-.504 0-.294.02-.609.041-.903v-.042c.21-2.771 1.3-5.164 3.312-7.18 2.243-2.246 4.947-3.36 8.112-3.36s5.869 1.114 8.112 3.36c.293.294.545.588.796.882.378.378.86.588 1.426.63.628.042 1.194-.126 1.676-.546.483-.42.755-.945.797-1.575a2.292 2.292 0 0 0-.398-1.49z"/>
        <circle cx="116.5" cy="52.5" r="3.5" fill="#CB2026"/>
        <circle cx="130.5" cy="52.5" r="3.5" fill="#CB2026"/>
        <path fill="#CB2026" d="M124.745 46c-1.824 0-3.648-.252-5.43-.714-5.117-1.366-9.478-4.601-12.309-9.097a20.927 20.927 0 0 1-2.977-14.265l.063-.399-.944-.252-.147.063a2.925 2.925 0 0 1-1.195.273 2.79 2.79 0 0 1-.587-.063c-1.51-.315-2.474-1.807-2.16-3.32.273-1.28 1.426-2.226 2.726-2.226.189 0 .399.021.587.063.84.168 1.531.714 1.908 1.492l.084.189 2.39.63c.755.21 1.343.861 1.364 1.534 0 .23 0 .546-.021.672-2.076 9.6 3.145 18.655 12.182 21.071 1.468.4 2.956.588 4.466.588 7.737 0 14.552-5.23 16.586-12.71v-.062a1.863 1.863 0 0 1 2.285-1.324c.482.126.88.441 1.132.882.252.441.315.946.19 1.429-.022.042-.022.105-.043.147v.02C142.4 39.677 134.097 46 124.745 46z"/>
        <path fill="#CB2026" d="M140 25c0 8.289-6.711 15-15 15s-15-6.711-15-15 6.711-15 15-15 15 6.711 15 15z"/>
        <path fill="#F8F8F8" d="M136.115 27.148c.106.118.2.25.236.345.052.137-.069.391-.155.352-.061-.07-.314-.788-.49-1.042a3.326 3.326 0 0 1-.113-.118 1.091 1.091 0 0 0-.138-.11c.017.01.033.007.048-.001a.101.101 0 0 1-.013-.025c-.021-.083-.043-.35-.021-.392.021-.04.043-.247 0-.33-.043-.082-.216-.246-.216-.308s-.043-.227-.173-.227c-.129 0-.28-.206-.258-.247.021-.04-.022-.267-.087-.37-.043-.103-.302-.31-.388-.268-.108.02-.367.185-.453.247-.065.062-.13.391-.15.453-.022.041-.238.041-.238.082 0 .042-.022.145-.065.145-.043 0-.172.164-.216.35-.043.185-.215.7-.301.7-.087 0-.216-.124-.216-.186 0-.061-.043-.288-.086-.37a2.364 2.364 0 0 1-.28-.515c-.044-.144-.26-.494-.281-.556-.022-.062-.087-.288-.151-.309-.065-.02-.173-.165-.173-.206.022-.02-.043-.185-.216-.37l-.366.061-.108.02c-.022-.06-.108-.082-.194-.02-.065.041-.41.02-.432-.02-.021-.042-.15-.31-.28-.453-.13-.145-.56-.433-.604-.412-.043.02-.13.123-.108.185.022.062.259.165.302.268.043.082.173.35.237.309.065-.02.367.04.432.144.065.103.172.412.108.473-.065.042-.13.392-.216.454-.086.061-.41.185-.41.247 0 .061-.237.206-.431.288-.194.103-.798.165-.863.02a5.586 5.586 0 0 0-.431-.782c-.108-.144-.432-.597-.453-.7-.022-.124-.173-.247-.151-.165.021.082.021.35.086.412.065.062.28.309.345.412.065.103.173.618.302.72.108.104.324.557.41.557.108 0 .367-.042.431-.103.043-.062.345.02.367.123.021.124-.108.597-.237.803-.13.206-.561.824-.626.865-.065.041-.28.289-.323.433-.044.144-.173.7-.151 1.009.021.309-.195 1.153-.367 1.318-.173.185-.367.968-.432.988-.064.02-.237.144-.258.227-.022.082-.108.432-.216.535-.108.103-.453.577-.647.68-.194.123-.928.061-1.036-.165-.064-.227-.366-.783-.366-.865 0-.082-.065-.474-.13-.659-.086-.185-.345-.72-.323-.906.021-.185.15-.72.13-.886-.022-.164-.216-.617-.26-.782-.043-.165-.194-.7-.15-.865.043-.165-.022-.7-.087-.68-.065.021-.259.042-.345 0-.086-.04-.41-.123-.41-.247h-.108l-.215-.02c-.043.144-.216.288-.367.288s-.604 0-.733-.082c-.151-.083-.561-.433-.626-.577-.065-.144-.302-.7-.302-.968s.065-1.05.13-1.153c.064-.124.323-.659.539-.824l.086-.144.13-.226c.043-.33.172-.618.258-.66.087-.04.28-.267.345-.247.065.021.324.083.475.021.15-.062.841-.144.97-.185.13-.041.583-.041.605.02.021.062-.065.145-.022.186.043.04.194.33.388.412.216.082.647.35.669.267.021-.082.431-.164.712-.144.28.02.927.082.949-.02.043-.124.215-.35.215-.412s0-.145-.021-.062c0 .082-.237.082-.216.02 0-.061-.366-.123-.647-.04l-.194-.145-.086-.062a.76.76 0 0 1-.087-.267c0-.062.022-.33 0-.33-.021 0-.086.103-.086.227.022.123 0 .432.086.432.087 0 .044.206-.043.206-.064 0-.15-.165-.13-.165.022 0-.042-.04-.129-.04-.086 0-.215-.124-.215-.186s-.022-.289-.065-.37l-.043-.063c-.022-.061-.065-.185-.108-.226l-.173-.247c-.258-.206-.345-.247-.215-.124.13.144.345.494.302.453-.043-.062-.151.083-.108.103.043 0-.022.165-.108.206-.086.041-.194.288-.259.268-.064-.02-.064-.227 0-.227.065.02.087-.185.022-.267-.043-.083-.367-.206-.388-.268 0-.062-.087 0-.044.165.044.164-.28.185-.323.02-.043-.185 0-.494-.086-.432-.087.062-.432.04-.497.144-.064.103-.388.391-.43.535-.044.165-.238.474-.303.453-.065-.02-.367.02-.431-.02-.065-.041-.389-.103-.41-.186-.022-.082-.065-.411-.043-.535.021-.103.215-.412.366-.453.151-.02.561.041.583 0 .021-.041.043-.185-.022-.247-.086-.041-.172-.33-.259-.33-.086 0-.194-.123-.15-.164.043-.042.258-.186.301-.247.044-.062.346-.103.367-.124.022-.02-.108-.082-.28-.082-.173.02-.518.02-.475 0 .043-.042.151-.186.108-.248-.043-.082.022-.39.108-.39.065 0 .086-.227.043-.227-.043-.02-.173-.186-.151-.31.022-.123.065-.535.13-.576.064-.041.301 0 .28.041-.022.042-.086.165-.043.186.043.02.194.185.259.267.064.103.086.515.129.556.043.042.108.186.065.268-.022.041-.044.103-.065.165.086-.062.323-.103.345-.165.022-.062.151-.247.237-.268.087-.04.345-.103.345-.164 0-.062-.086-.124-.064-.186.021-.061.086-.288-.022-.288-.108 0-.237-.268-.237-.391 0-.124-.086-.494-.043-.66.043-.164.41-.35.41-.39 0-.042.043-.145.086-.145s.15-.02.216-.123c.064-.103.28-.494.41-.597.129-.083.452-.392.495-.412.044-.041.151-.02.238-.083.086-.061.366-.226.453-.226.086 0 .345.041.41.103.064.041.258.247.345.268.086.04.431.226.647.288.215.062.323.391.41.33.086-.062.194-.413.237-.392.065 0 .237.062.237.124 0 .061.086.164.194.082.108-.082.583-.247.734-.268.15-.02.453.02.366 0-.086 0 .022-.267.108-.226.086.041.604-.041.712-.144.108-.103.41-.392.475-.35.064.04.237.123.258.061.022-.061.26 0 .26.083 0 .061.085.164.107.103.022-.062.13-.206.216-.165.108.062.302.123.237.082-.065-.04-.086-.288-.022-.309.065-.02.238-.103.26-.164a.613.613 0 0 1 .237-.227c.064-.02.323-.123.453-.144.15-.02.43-.165.452-.124.022.042.195.021.216-.04.022-.083.324-.124.345-.207.022-.103.194-.185.238-.144.064.041.345.144.474.144h.151c.173.144.345.31.518.453 0 .083.108.247.302.289h.043a14.647 14.647 0 0 1 3.882 5.827c-.107.145-.237.31-.28.33-.086.041-.237.391-.194.68.043.288-.324.72-.41.68-.086-.042-.172-.413-.237-.475-.065-.061-.194-.206-.173-.144.022.083-.13.227-.15.268-.022.041-.152.082-.173.124-.022.04 0 .247.043.308.021.062.15.227.172.31.022.082.13.329.108.473a2.722 2.722 0 0 1-.172.535c-.022.021-.194.165-.28.31-.087.143-.454.535-.605.535-.15-.02-.28.226-.237.226.065 0 .13.124.108.206-.022.083-.194.433-.216.741-.021.31-.56.598-.56.556 0-.04-.108-.185-.195-.247-.086-.061-.302-.185-.323-.103-.022.083-.022.392.043.474.065.082.323.35.41.453.058.093.011.402-.109.373zm-21.313-3.539a.098.098 0 0 1-.032.034.038.038 0 0 1-.02-.008c-.04.015-.074.015-.074-.018 0-.105.022-.168.043-.168.012 0 .028.004.045.01a.06.06 0 0 1 .048-.004c.02.006.027.024.027.046.013.01.023.021.029.032.009.018-.024.05-.066.076zm25.069-2.1c.043.185.086.348.129.512-.172.082-.301.123-.323.103-.021-.02-.172.02-.258.061-.065.04-.215.266-.28.225-.064-.04-.064-.266 0-.266h.022c-.022-.04.021-.184.086-.225.107-.062.43-.266.516-.328.022-.02.065-.061.108-.082zm-.325 5.793c.135.186.454.093.454-.249-.135-.186-.47-.155-.454.249zm.415.14s.039-.023.039-.046c-.02.159-.04.317-.06.453-.137-.113-.295-.204-.335-.181-.059.045-.078-.09-.039-.113.06-.023.099-.159.118-.113.02.045.237.022.277 0zm-25.347-2.511c0-.042.213-.105.277-.063.042.042.064.084 0 .084s-.277.02-.277-.021zm.76-.931c.042-.02.042.084-.064.167-.085.021-.15-.104-.192-.104-.021 0-.064-.042-.064-.084s.043-.167.107-.146c.064.02.17.167.213.167zm-.542.513c-.02-.067 0-.269-.104-.246-.105.022-.252-.023-.315-.112-.084-.09-.42-.18-.482-.135-.063.045-.314 0-.293-.045.02-.045.167-.201.314-.201s.566.044.629.09c.063.066.251.179.293.2.042.023.168.203.336.18.167 0 .314.381.21.359-.105-.023-.231.112-.273.067-.042-.045-.294-.09-.315-.157zm1.166.451c0-.042.149-.146.212-.146.064 0 .086.063.043.125-.043.063-.255.063-.255.021zm-.922 4.656c-.108-.082-.368-.35-.476-.392.022-.041-.086-.268-.237-.35-.151-.083-.173-.599-.108-.599.065-.02.108-.124.021-.165-.064-.02-.259-.248-.28-.35-.022-.104.108-.64.172-.723.065-.083.13-.454.152-.475.021-.02.021-.227-.022-.31-.043-.082-.13-.309-.151-.267-.043.04-.195.082-.28-.021-.087-.103-.476-.248-.476-.268a.282.282 0 0 0-.108-.186c-.065-.041-.216-.227-.28-.248-.066-.02-.346-.062-.39-.124-.043-.082-.324-.31-.54-.35-.216-.042-.907-.29-.971-.413-.065-.124-.152-.681-.216-.764-.087-.082-.303-.31-.303-.371 0-.041-.086 0-.065.062.044.062.022.33-.021.31-.043-.042-.281-.124-.324-.248-.022-.062-.108-.165-.173-.248.086-.68.216-1.341.389-1.98.021-.083.043-.145.065-.228.064-.268.172-.536.259-.805.065-.144.108-.289.173-.433a9.06 9.06 0 0 1 .28-.681c.173-.33.324-.68.519-1.011.064-.124.15-.248.216-.372l.518-.804c.065-.083.13-.186.194-.269.281-.392.562-.763.886-1.114.065.02.13.041.13.062.021.062.15.041.194-.103a.569.569 0 0 0-.022-.268c.065-.083.151-.145.216-.227.13.04.281.103.324.165.065.103.26.35.216.412-.043.062.087.186.151.124.044-.062.108-.289.065-.289s-.173-.227-.173-.474c0-.248.324-.599.39-.558.064.042.194.207.345.124.151-.082.302.165.389.145.086-.02.432.02.475.041.064.02.15.227.237.227s.346.062.39.124c.042.062.107.289.064.31-.043.02-.022.185.065.226.086.042.345.145.345.207s.13.103.108.144c-.043.041-.065.268-.108.29-.065.02-.13.144-.194.082-.043-.062-.28-.083-.238-.021.022.041.043.31 0 .392-.043.083-.108.35-.259.248-.151-.124-.713-.351-.842-.351-.13.02-.022-.227.324-.372l.065-.412.021-.248a4.783 4.783 0 0 0-.41-.227c-.108-.041-.324.062-.41.02-.065-.04-.303-.02-.238 0 .043.021.151.186.13.29 0 .082-.109.412-.238.454-.13.04-.583.165-.562.206 0 .041-.065.227-.173.289-.108.082-.367.392-.432.474-.064.083-.302.269-.302.33.022.042-.043.083.022.124.065.021.15.372.259.434.108.062.41.247.453.227.065-.041.173.062.195.02.043-.061.194.124.216.269.043.144.194.289.216.144.021-.165.194-.392.151-.371-.043.02-.086-.124-.022-.124.065 0 .238-.165.281-.372.043-.185.022-.928.065-.949.043-.02.216.02.26.083.042.062.237.02.302.103.064.082.388.103.388.206s.065.372.13.372.26 0 .26-.062.085-.083.15.041c.065.103.324.372.324.413 0 .041 0 .186.087.247.064.062.172.351.216.33.043-.02.194.145.194.248 0 .103 0 .599.043.681.043.083.26.248.26.31s-.065.227-.152.185c-.086-.04-.216.042-.237 0-.022-.04-.087-.123-.152-.103-.064.02-.237-.103-.13-.227.109-.144.195-.474.066-.371-.13.103-.497.02-.476.062.022.041-.043.227-.13.247-.086.021-.129.227-.064.29.065.061.173.247.065.309-.087.062-.303.165-.324.186.043-.021-.087-.145-.238-.104-.15.042-.453.29-.41.33.043.042-.022.29-.13.33-.086.042-.41.228-.475.31-.065.083-.021.475-.065.495-.043.021-.194.062-.172.104.021.04-.152.31-.324.392-.173.082-.368.557-.346.619.022.041.108.227.086.31-.021.082-.064.37-.172.33-.108-.042-.26-.434-.368-.475-.107-.041-.453-.062-.475-.041 0 .02-.086.082-.194.02-.108-.041-.54-.02-.626.02-.065.042-.39.455-.476.847-.086.392.584.598.627.516.043-.103.216-.268.302-.268.065.02.367.103.346.227-.022.123.021.495.173.495.15 0 .345.35.302.516-.043.165.108.536.173.495.064-.041.302-.103.367-.083.065.042.173.186.28.104.087-.062.303-.372.368-.392.065-.021.194-.083.237-.042.044.042.195.083.216.02 0-.061.26 0 .346.063.086.062.26.289.28.268.022-.02.217 0 .346.062.151.083.562.31.605.413.043.124.432.412.648.536.238.124.302.516.346.537.064.02.324.062.432.103.108.041.345.227.41.227s.345.02.453.062c.108.041.324.227.368.186.064-.042.237.144.302.31v.33c-.022.102-.065.226-.065.288-.021.041-.216.268-.259.33-.043.042-.13.29-.151.31-.022.02-.13.082-.13.144 0 .062-.108.33-.13.516-.02.186-.107.722-.172.743-.065.041-.41.186-.454.248-.043.062-.194.289-.194.35 0 .062-.086.31-.173.372-.086.062-.194.454-.237.495-.044.041-.152.207-.173.207-.022 0-.108.061-.195.061-.086 0-.259.062-.216.145.044.082-.021.475-.108.536-.086.062-.453.207-.475.33-.021.145-.367.29-.324.455.043.165-.021.495.022.536.043.041.043.31.021.372-.021.061-.216.185-.259.247-.065.062-.043.392.022.413.065.02.108.268.151.33.043.041.151.145.043.165-.108.02-.453.041-.496 0a.997.997 0 0 0-.216-.103s-.022-.02-.044-.062c-.021-.041-.064-.248-.108-.371-.064-.124-.259-.454-.28-.599-.022-.144-.087-.701-.108-.784 0-.082.043-.289 0-.31-.065-.02.043-.226.13-.268.086-.02.064-.289.02-.268-.064.02-.194-.33-.194-.598 0-.269.26-.826.216-.99-.021-.187.065-.62.065-.661-.021-.042-.086-.165-.065-.227a.948.948 0 0 0 0-.434c-.064-.144-.28-.577-.388-.68zm.452-15.4c-.11 0-.374.044-.528.044.088-.09.198-.202.308-.291.33-.292.66-.56 1.012-.83.374-.269.748-.538 1.144-.784.374-.202.682-.359.704-.359.044 0-.022.157-.132.202-.132.067-.44.246-.418.291.022.045-.11.247-.198.27-.088.022-.308.246-.418.313-.11.067-.55.202-.616.291-.066.09-.198.494-.264.494h-.088c.044.044.044.179.022.224-.022.045-.33.112-.528.134zm-.971 2.463c.028-.042.142-.168.17-.147.029.021.257.168.27.21.015.041-.042.02-.127-.063-.086-.063-.185.293-.256.293-.057 0-.086-.252-.057-.293zm7.921-3.17c-.042.04-.148.06-.021.08.106.02.127.278.042.278-.085 0-.254.24-.19.458.063.22-.298.458-.255.498.042.04 0 .239-.043.22-.042-.04-.085-.04 0 .019.085.06-.127.2-.233.16-.106-.04-.424-.1-.445-.08-.043.02-.085.1.02.159.107.06.234.04.15.1-.086.06-.255.358-.361.437-.106.06-.488.22-.53.26-.043.04-.213.179-.276.198-.064.04-.34 0-.361.06-.021.04-.19.578-.255.697-.063.1-.17.239-.212.279-.042.04-.17.14-.19.08-.043-.06-.276-.12-.34-.12s-.233-.22-.233-.478c0-.259-.318-.776-.255-.836.085-.06.043-.22.106-.259.064-.04.149-.199.021-.239-.127-.04-.19-.299-.084-.299.084 0 .106-.139.063-.1-.042.06-.276-.079-.276-.138 0-.08 0-.319-.042-.379s-.148-.358-.276-.378c-.127-.02-.424-.1-.445-.06-.021.04-.297.02-.403-.02-.106-.04-.127-.278 0-.278s.403-.06.34-.08c-.064-.02-.319-.04-.383-.08-.063-.04-.148.04-.17 0-.042-.04-.169-.08-.105-.139.063-.06.34-.08.466-.12.106-.04.297-.199.234-.199-.064 0 .106-.278.318-.398.212-.12 1.06-.278 1.209-.278.148-.02.657 0 .636-.08-.02-.08.064-.279.17-.299.106-.02.594-.04.806-.04.212 0 .636-.119.7-.119.064 0 .233.08.318.06.085-.02.446.04.594.04.149 0 .255.199.127.219-.127.04-.212.298-.106.258.085-.04.425 0 .467.04.042.04.276.1.36.08.085-.02.043.179-.042.199-.085.02-.297.12-.34.18-.042.039-.233.099-.211.138.02.04-.022.26-.064.3zm10.773 12.659c.064-.105.15-.147.213-.084.064.063.128.314.106.377-.02.042-.383-.189-.319-.293zm5.743-.143c-.027-.051-.265-.281-.318-.281-.053 0-.053-.077 0-.153.053-.077.291-.128.291-.23-.026-.102.132-.256.212-.23.08.025.212.306.317.332.106.025.027.383-.105.408-.16.026-.37.205-.397.154zM140 29.208a12.684 12.684 0 0 1-1.668 3.472c-.045.02-.068.04-.113.04-.135.04-.54.141-.586.1-.045-.04-.202-.221-.157-.403l-.023-.242-.022-.121c-.09-.081-.158-.263-.158-.424 0-.162.022-.545.112-.565.09-.02.339-.303.429-.525l.135-.141.113-.101c.067.08.112.1.112.02 0-.081.18-.202.27-.242.09-.04.316-.02.361-.101.023-.081.226-.344.316-.384.09-.04.383-.161.383-.222 0-.06.293-.161.496-.161zm-11.28 2.066c-.021-.108-.127-.519-.064-.605.043-.065.085-.281.064-.346-.021-.065.063-.39.126-.476.064-.086.36-.324.402-.432.021-.108.148-.281.148-.173 0 .108.169.756.148.886-.043.151-.085.26-.106.281a.525.525 0 0 0-.063.195c0 .065-.022.28-.043.389-.042.086-.232.454-.295.475-.064.022-.296-.064-.317-.194zm9.791-4.33c.095.023.151.323.114.347-.057.023-.114.323-.057.415.057.092.057.162 0 .139-.057-.024-.208-.093-.246-.047-.02.047-.076.07-.133-.184-.057-.254.227-.693.322-.67zm.045-2.044c-.043.08-.192.281-.256.221-.064-.06-.085-.461.064-.441.15.04.234.14.192.22zm-.427 2.242c0 .09-.05.235-.075.344-.025.108-.253.253-.227.27.025.019.025.037-.026.055-.05 0-.15.072-.252.018-.1-.054-.63-.108-.706-.18-.076-.073.025-.416.277-.525.253-.09.631-.668.732-.632.126.018.353.18.328.235 0 .054-.025.325-.05.415zm.218-3.337c.064-.084.192.272.15.356-.065.062-.128.062-.15 0-.021-.084-.064-.272 0-.356zm-1.983 4.638c.024-.062.238-.167.452-.104.19.063.855.335.902.376.048.042-.095.021-.356-.041-.261-.063-1.022-.168-.998-.23z"/>
        <path fill="#CB2026" d="M162.98 40.483l4.845-11.44c.288-.68.804-1.043 1.546-1.043 1.093 0 1.629.575 1.629 1.725 0 .235-.041.47-.144.725l-6.392 14.549c-.31.66-.784 1.001-1.464 1.001-.68 0-1.175-.34-1.464-1.001l-6.392-14.55a1.89 1.89 0 0 1-.144-.724c0-1.15.536-1.725 1.629-1.725.742 0 1.258.34 1.546 1.044l4.804 11.439zM192 44.14c0 1.247-.626 1.86-1.9 1.86-1.275 0-1.902-.613-1.902-1.86v-7.922c0-3.232-1.533-4.838-4.6-4.838-1.47 0-2.658.465-3.522 1.416-.82.908-1.253 2.05-1.253 3.465v7.88c0 1.246-.648 1.859-1.922 1.859-1.275 0-1.901-.613-1.901-1.86V30.07c0-1.267.626-1.901 1.9-1.901 1.275 0 1.923.634 1.923 1.901v1.268c1.167-2.218 3.11-3.338 5.811-3.338 2.29 0 4.104.76 5.422 2.26 1.274 1.458 1.922 3.38 1.922 5.768v8.113H192z"/>
        <circle cx="149" cy="44" r="2" fill="#CB2026"/>
    </g>
</svg>
