<svg id="Layer_1" data-name="Layer 1" xmlns="http://www.w3.org/2000/svg" xmlns:xlink="http://www.w3.org/1999/xlink" viewBox="0 0 848 552"><defs><style>.cls-1,.cls-3{fill:none;}.cls-2{clip-path:url(#clip-path);}.cls-3{stroke:#d74b4b;stroke-linecap:round;stroke-linejoin:round;stroke-width:3px;stroke-dasharray:7 6;opacity:0.7;}.cls-3,.cls-8,.cls-9{isolation:isolate;}.cls-4{fill:#fff;}.cls-5{opacity:0.5;}.cls-6{stroke:#c5423b;stroke-miterlimit:10;fill:url(#linear-gradient);}.cls-7{clip-path:url(#clip-path-2);}.cls-8{fill:#567ada;fill-rule:evenodd;opacity:0.08;}.cls-10{fill:#c5423b;}</style><clipPath id="clip-path"><rect class="cls-1" width="848" height="552"/></clipPath><linearGradient id="linear-gradient" x1="424.46" y1="1086.25" x2="421.63" y2="1526.22" gradientTransform="matrix(1, 0, 0, -1, 0, 1439.54)" gradientUnits="userSpaceOnUse"><stop offset="0" stop-color="#e0f0ff"/><stop offset="1" stop-color="#fdffff"/></linearGradient><clipPath id="clip-path-2"><circle class="cls-1" cx="423" cy="127" r="214.02"/></clipPath></defs><title>main-graphic-lading-page-destop</title><g class="cls-2"><path class="cls-3" d="M424,548.08c231.94,0,420.08-188.14,420.08-420.08S655.94-292.08,424-292.08,3.92-103.94,3.92,128,192.06,548.08,424,548.08Z"/><circle class="cls-4" cx="425.99" cy="128" r="326.5"/><circle id="m" cx="425" cy="127" r="281.71"/><circle class="cls-4" cx="425" cy="127" r="281.71"/><g class="cls-5"><circle class="cls-6" cx="423" cy="127" r="214.02"/></g><g class="cls-7"><path class="cls-8" d="M538.08-6.78c-1.59,0-3.58,0-2,.4,1.59.2,1,1.59,4,.8s2.39-.8,4.38-1.19.8-.2-1.59-.6c-1.59-.2-3.19.6-4.78.6ZM324.65,35.42c-.4.4.8,1.19,1.79,1s1.19,0,1.79-.2.6-.6,0-1-.4-.6-.4-.6a3,3,0,0,0-3.19.8ZM486.51,98.34s-.2.2,1-.6c1.19-1-.6,0-1.19-.2s-.8-.6-.6-1.39,0-.8-.8-2c0,0-.4-.2-1.19.2s-1.19-.4-2.19-.2c-1,.4-2,.2-2.39,1.59-.6,1.39-1.19.6-1.39,1.59-.2,1.19-2,1.79-2,1.79a15.29,15.29,0,0,0,1.19,1.39c.6.6.2.2.6,2.39.6,2.19.8,2,1.59,2.19.8.4,1.79,1,1.79,1s-.6-.4-.6.8-1,2-1,3.58c.2,1.79-1.39,3.19-.2,3.38s.8.8,2.19,1.19a12.4,12.4,0,0,0,4.18.6c2,0,1-.8.6-2-.2-1.19-.4-2-.6-3.19,0-1.39-.6-1-.8-1.79-.4-.8.2-1.19,1.19-1.19s1,0,.6-1c-.6-.8-.2-1.19-.8-1.59s-1,1.19-1,1.19-.4-.4-.2-2,.2-.8-.2-1.19-.8,0-1.39-1,0-.8-.8-2.19-.4-.6.4-.6.4-.2,0-.6-.6-1,.4-1,2.39.4,3,.4l.6.4ZM685.4,59.51a6.93,6.93,0,0,1-2.79-.2,3,3,0,0,1-.6,1.79,1.46,1.46,0,0,0-.2,1.19s-1.59-.6-2.39-1c-1-.4-1.79,0-2.19-1.39-.6-1.39-2-1.19-3.19-1.19s-.8-1.59-.8-1.59h-.8c-.8,0-.6,1.79-1.59,2.39a16,16,0,0,1-4,1s2,1.39,2.19,2.39a8.09,8.09,0,0,0,1.19,2.19s-.2.6-2.39,0c-2.19-.4-2.19.4-4.58,1.39s-5.18,2.59-6,3c-.6.6-.8.2-3-.2-2.19-.6-2.59.6-3.19.8s-.4-1.19-.4-1.19a5.33,5.33,0,0,0-1.79.4c-9.76,5-3,4.78-3.38,5.77l-1,4c-1.39,4.38-2.39,2-3.58,5.38-4,10.75-6.17-1.59-6.17-4.58,0-1.79-.4-4,.8-4.58,9.56-4.58,1-.6,10-6.77,3-2,1.39-3.19,2-3.78a3.57,3.57,0,0,1,1.59-.8l-1.59-.2c-1.59-.2-1.59.2-3,1.59s-2.19,1.59-2,.6.4-2.19-.6-1.59-1.39.4-3.19.8a8.65,8.65,0,0,0-5.18,3.19c-1.59,2-.6,1.79-.2,2.19.6.4-2.59.4-4,.2s-.6-.4.2-.6-1.19-.6-3.19-1-1.19.4-2.19.8c-1.19.4-1-.4-1.59-.6s-3-.2-4.78-.4-1.59.2-2.19.8c-.4.6-3.78,3.58-5.18,5.18s-3.19,2-4.78,3.58-1.79,1.39-.6,1.59,1.39.2,1.59,1.39S607.56,83,609,83s1,.4,1.19-.6-.4-2.19.8-1.39c1.19,1,2.19,1.59,2.39,3,.4,1.39,0,2.19-.6,4.58-.6,2.19-.8,5.38-1.59,7s-1.39,2.79-2.39,4.58-5.38,6.17-6.37,6.57-1.59.4-2.19-.4c-.4-.8-.8-.8-2,.2a4.93,4.93,0,0,0-2,3.19c-.4,1.59-1.39,1.59-2.39,2.79s-1.19,1-.6,2.19c.8,1.39,2,2.79,2,4.18.2,1.39-.6,3.19-1,4.18-.4.8-2.79,1.19-2.59.8v-3.58c0-1.19-1-1.19-.6-1.59s1.59-1,.6-1.79-1.59-.2-2-1.19.2-1.79,0-2.19-.8-.8-2.19-.8c-1.39-.2-1.59,1.19-2,0-.2-1.19.2-1.19-.4-1.79-.6-.4-1.19-.2-2.59,1.19-1.59,1.39-1.79,1-3.19,1.59-1.19.6-1.19.8-1,1.39.4.4,1.39,2.39,2.19,2.59,1,.2,1.59-.4,3-.4s1.59.2,1.19.8-1.19,1-3,2.79-1.19,1.39-.6,2a11.2,11.2,0,0,1,2,2.79c.6,1.39,0,1.79,0,2.59a3.74,3.74,0,0,0,1,3.19c1.19,1.19.4.8.2,1.19s-2,4-3,5.57c-.8,1.79-.8,1.79-3.58,3.78s-4,2.19-5.57,2.39a24.07,24.07,0,0,0-3.58,1c-.8.4-.4,1-.6,1.39,0,.4-.8,0-.6-.6a.89.89,0,0,0-.4-1.19,2.34,2.34,0,0,0-2.79.6c-1.19,1.19-2.79,1.19-3.19,2.79-.6,1.59-.4,1,.2,1.59a32.77,32.77,0,0,1,4,4.58,8.91,8.91,0,0,1,.8,4c0,1.59-3.19,4.38-4.58,5.18-1.39,1-1.59,1.79-1.39.4s-.6-2.19-1.59-3.38a11,11,0,0,0-4.58-2c-.6-.2.2-1-.2-1s-1.19-.2-1.19,1.19c.2,1.39-1,1-1.19,2.39s-.4,2.79.4,2.79c1-.2.8,1.19,1.39,2.79s.4.6,2.19,2,1.19,1.19,1.59,2.59.2,2.19,1.19,3.58c.8,1.19,1,1.59-.6.8a11,11,0,0,1-3.19-2.39c-.6-.8-1-3.19-1.19-4.18-.4-1.19-2.59-2.39-3.38-3.19s-.4-1.39,0-3.19-.2-3.58-.4-4.78a53.37,53.37,0,0,0-1.39-5.38c-.4-1-.2-1-1,0-.6,1-1.19,1.39-1.79,1.39s-1.59-.2-1.59-.6.8-2,.6-2.59-.8-2.59-1.79-3.19a6.12,6.12,0,0,1-2.59-3.19c-.6-1.59-.8-1.19-1.79-.2-1.19.8-3.78,1-5,1-1.19.2-.2.8-.6,1.39s-1.79,1.39-4.58,4.38c-3,3-3.38,3.19-4.18,3.38-.8.4-1.19.2-1.19,1.39a14.93,14.93,0,0,1,0,3,4.59,4.59,0,0,1-.8,2.19,18.49,18.49,0,0,0-.8,2.59c0,.6-.8,1.39-1.79,2.19-1,.6-1,.6-1.39-.4s-2.59-4.78-4.58-8.36c-1.79-3.58-1.39-4.18-1.59-5.38-.2-1-.2-7.37-.2-7.76,0-.2-.8.8-1.19,1.19-.2.6-.2,1.19-1.19,1.19s-1.19.2-2.19-.8-1.39-1.59-1.19-1.59a16.67,16.67,0,0,0,2-.4c.6-.4.4-.6.4-.6a7.46,7.46,0,0,0-1.59.2c-.8,0-.4-.2-1.59-.6s-1.39-.4-1.59-1-.4-1-.6-1.59l-.4-.8c-.2-.4-.8,0-2,.2a6,6,0,0,0-2.39.6c-1.39.6-1.59.4-3.19.4a11.23,11.23,0,0,1-3.58-1c-.8-.2-1-.2-2.19-.4s-1-.8-1.19-1.19c-.2-.6-.8-.6-2.39-.6a5,5,0,0,1-2.59-.2c-.8-.2-1-.6-1.79-1.39s-.6-.2-1-.6a5.68,5.68,0,0,1-1.39-2,7.81,7.81,0,0,0-.8-1.79c-.4-.4-.4-.4-1.79-.4s-.8,0-1,.2c-.2,0-.6.8-1,1.19s.4,1.19.8,1.79c.6.6,0,.6,1,1.59s.6.8,1.19,2.19a14.67,14.67,0,0,0,1.19,2.19c.2.4.2-.2.4-.6a5.27,5.27,0,0,0,0-1.79s.2.6.6,1.59c.2,1,0,1,.2,1.59s0,.6,1,.6a16.09,16.09,0,0,0,3-.2c1.19-.2,1.79-1.39,2.19-1.59.6-.4.6-1.39,1-1.39.4.2,0,1.39.4,2.19s.4.6,1.19.8a6,6,0,0,0,2,.8c.8.4.2.4.8,1.19.4.8.4.4.8.6s.2,0,0,1a3.58,3.58,0,0,1-1.19,1.79c-.8.8-.8.6-.8.6-.2,0-.4-.6-.4-.6a11.85,11.85,0,0,0-.6,2.19c0,1.19.4.8-1,1.19a22.53,22.53,0,0,0-2.79,1.19c-.6.4-.6,1-.8,1.39-.2.2-.8,0-1.59.4a3.21,3.21,0,0,0-1.39.8c-.8.6,0,.6-1,1a29,29,0,0,1-3.78,1.39c-1,0-.8.4-1,.6-.2.4-.2.6-1.39.6-1.19.2-2.59.4-3.38.6-.8.4-1.79,1.19-2.39,1-.8-.2-.6-.2-.8-.8a6.15,6.15,0,0,1-.4-2.19,12,12,0,0,0-1.19-3.78,13.39,13.39,0,0,0-1.39-2.19,6.16,6.16,0,0,0-1.79-2.39c-.6-.4-1-.4-1.19-.8a19.27,19.27,0,0,1-.4-2.39,14.44,14.44,0,0,0-1-2.39,26.87,26.87,0,0,1-1.79-2.19c-.6-1.19-.6-1.19-1.59-3a16.48,16.48,0,0,0-1.79-3c-.6-1.19-.2-1-.4-1.59s-.8,1.19-1.19,1.39c-.4.4-.6.2-1-.8s-.6-2-1-1.59a2.32,2.32,0,0,0-.2,1.79c.4,1,.6.8,1,1.79a50.4,50.4,0,0,0,2.39,4.58c.6,1,.4.6.8,2.19a4.91,4.91,0,0,0,1.39,2.39c.6.6.6.4.8,1.39a8.22,8.22,0,0,1,.2,3c0,.6.4,1,1.19,1.59s.4.4.8,1.19a20.73,20.73,0,0,1,1,2.39c.2.6.4,1.19,1.19,1.39a4.22,4.22,0,0,0,1.39.6c.6.2.4.4.8,1s1.19,1,1.79,1.79.2.6.2,1.39-.2.4,0,.8A15.74,15.74,0,0,0,468,162c1,.8.2.2,1.19.2a4.54,4.54,0,0,0,2.19-.6c1-.2,2.39-.6,3.78-1,1.19-.4,2.59-.6,3.19-.8s.6.6.2,1.59a31,31,0,0,0-1.19,3,14.44,14.44,0,0,1-1,1.79c-.4.8-2.39,3.78-2.79,4.78a11.29,11.29,0,0,1-1.59,2.59,28.43,28.43,0,0,1-3.58,3,5,5,0,0,0-1.39,1.59c-.8.8-2.79,3.38-3.38,4.18a12.09,12.09,0,0,0-1.39,2c-.4.8-1.59,2.19-1.79,2.79,0,.6-.8.8-.2,1.19.6.6.8.6,1,1.39.2.6-.6,1.39,0,2.79.4,1.19.2.4.8,1.39.8,1,.8,1.59.8,3.19a26.43,26.43,0,0,1,0,4c-.2,1-.6,1.59-.8,2.39-.4.8-2.19,1.39-3.19,2-1,.4-1,.2-1.59.8-.4.6-2,1.79-2.39,2.79s-.8.8-.6,1.39.6,1.39,1,2.39.2,1,0,2,0,.8-.2,2-1.39,1.19-3,1.79-1,.2-1.19,1.19c-.2.8,0,2.39-.2,3.38,0,1-.6.6-1.39,1.79s-1.19,1.79-2,3.19-.8,1.19-2,2.19c-1.19.8-2,1.19-2.39,2.19s-1,.4-3.38,1.19-.6.4-3,.6a41,41,0,0,0-4.18.6c-1.19.2-1,0-1.79-.8a6.35,6.35,0,0,1-1.19-1.39c-.4-.6,0-.8-.2-2a4.71,4.71,0,0,0-.6-2l-1-2a13.26,13.26,0,0,0-1.19-2.39c-.6-.8-.8-.6-1.19-1a2.43,2.43,0,0,1-.6-1.79c-.2-.8-.2-2.39-.6-4.38-.2-1.79,0-.8-.4-1.59-.4-1-.8-1.79-1.19-2.79a18.42,18.42,0,0,0-1-2,21.7,21.7,0,0,0-1.19-2.19c-.4-1.19-.6-.6-.6-1s.2-1.19.2-2a18.56,18.56,0,0,1,.4-2.79c.2-1.19-.2-1.19.2-2s1-1.59,1.39-2.39.2-1,.2-2c0-1.19-.2-1-.4-2a34.19,34.19,0,0,1-.8-3.58c-.4-1.59-.4-1.39-.4-2-.2-1-.4-1.79-.6-2.79-.2-.8-.4-.4-1-1l-.8-.8c-.6-.6-.4-.8-1-1.39a3.57,3.57,0,0,1-1-1.39c-.4-.8-.2-.2-.2-1.39a44.7,44.7,0,0,1,.6-4.78c.2-1.39.2-1.19-.2-1.79-.6-.6-.8-1.39-1.19-1.39-.4-.2-1.39.2-2.79.2s-1.39-.4-2-1-1.39-1.59-1.59-1.79-.8-.2-3,0a10.88,10.88,0,0,0-2.39.4c-1.59.2-2.19,1-3.38,1.39s-1.59.4-3.58-.2a5.06,5.06,0,0,0-4.18,1,2.51,2.51,0,0,1-2.39-.2,12.39,12.39,0,0,0-2.39-1.59c-1.19-.6-1-1-2.19-1.39-1.19-.6-.8-.6-1.79-1.59s-1-1.79-1.79-2.79a16.24,16.24,0,0,0-2.19-3.38,19.26,19.26,0,0,1-2.19-3.58c-.4-.6-.8-.6-.8-1,0-.2.8-2,1.19-3a7.22,7.22,0,0,0,.6-1.39,5.73,5.73,0,0,0-.6-3,24.07,24.07,0,0,1-1-3.58c-.2-.8.2-.8.4-1.39.4-.6,1.19-1.59,2-3a16.48,16.48,0,0,1,1.79-3,18.91,18.91,0,0,1,2-3.38,28.49,28.49,0,0,1,3-2.19c.6-.4,1.19-.6,1.39-.8.2-.4.4-3,.6-4,.2-1.19,0-1.79.8-2.19s2.19-1.19,2.79-1.59a4,4,0,0,0,1.19-1.79c.4-.8.4-1.79,1-2.19s.4.2,1,.6a6.54,6.54,0,0,0,1.19.6c.4.2.6-.2,1.39-.2a1.68,1.68,0,0,1,1.39.4c.4.2.2.2,1.59-.6a20.39,20.39,0,0,1,4.18-2c1.79-.6,3-1,3.78-1.19.8,0,.4,0,1.39.4s1,.6,1.19.2c.2-.2.8-1,1.19-1a16.21,16.21,0,0,1,1.79.4,2.32,2.32,0,0,0,1.79-.2c.4-.2,1-.6,1-.6a5.39,5.39,0,0,1,1.59.6c.6.2.8.2.6.4a2.08,2.08,0,0,0-.6,1.19c-.4.8-.2.4.2,1.19s.6.8.4,1.39a4.79,4.79,0,0,1-1.19,1.59c-.4.6-.4.6.8,1.39a21.72,21.72,0,0,0,2.19,1.19,13.1,13.1,0,0,0,3,.8c1.59.4,1.39.6,1.79,1.19.6.6.6,1.19,1.39,1.59,1,.4,2,.4,2.39.6a7,7,0,0,0,1.59,1c.8.2.8.2,1-.2a3.08,3.08,0,0,0,.6-1.19c-.2-.2-.6-.6-.4-1a11.74,11.74,0,0,1,.8-1.59c.2-.4.6-.4,1.79-.4s2-.2,2.19.4.2.4,1,.8a6.33,6.33,0,0,0,1.79.6c.8.2.4.6.8.6a5,5,0,0,1,1.59.2,10.52,10.52,0,0,0,3.38.8,4.83,4.83,0,0,0,2-.4c.2,0,1.19-1.19,1.79-.4s1.19.8,2.79.8c1.39,0,1.39-.2,1.79-.6a8,8,0,0,0,1.39-2.59c.2-1,1-3,1.19-4a7.92,7.92,0,0,0,0-2.19,4.38,4.38,0,0,1,.2-1.59c.2-.6-.6-.2-1-.2-.4.2-.4-.2-.8-.2s-.6-.2-1,.4-.2,1-1.39.8c-1.39,0-1-.2-1.59-.6a4.92,4.92,0,0,0-1.79-.8c-.6-.2-.6-.2-.6.2s0,.6-.4.8a3.21,3.21,0,0,1-2.19-.4,5.49,5.49,0,0,1-1.79-1.39c-.8-.8-.6-.8-1-2a4.07,4.07,0,0,1-.2-2.59c.2-.4.4-.4-.2-.2s-1,.2-.6-.6c.4-1,.8-1,1.19-1a5,5,0,0,1,2-.2,3.78,3.78,0,0,0,1.79-.6c.2-.2.8-.4.6-.4-.4,0-1.19-.2-1-.4s.2-.2.8-.2a8.25,8.25,0,0,0,2-.2c.6,0,1,0,1.19-.4s.4-1,1-1.19c.6-.4,1-.2,2.39-.2s1.19.2,1.59.6.8.2,1.19.2c.6.2.2.4.6.6a10.57,10.57,0,0,0,2.19.6c1,.4.4.2,1.59.2a5.55,5.55,0,0,0,2-.2,4.67,4.67,0,0,0,2-1c.6-.4.2-1.39,0-2.19s-1.19-1.19-1.79-1.59l-2-2c-.6-.4-1.19-.6-1.79-1s-1.59-.8-1.79-1.39c0-.4.2-.4,1.19-.6.8-.2.6-.4.8-.8s.2-.4,1-.8c.8-.2-.8-.8-1-1.19s.4-.2,1.19-.4.8-.6.8-.8,0-.4-.8-.4a15.78,15.78,0,0,0-3.38.8c-1.39.4-.8.4-1.59,1s-1,.4-.8.8a1.79,1.79,0,0,0,1,1.19c.8.4.6.4.8.6.2,0,.8.2.6.2s-.6.6-1,.6-.6.4-1.19.8a13.72,13.72,0,0,1-1.59.6c-.6,0-.8,0-.8-1,0-.8-.2-.2-.8-.4a2.18,2.18,0,0,1-.8-.4,2.91,2.91,0,0,0,1-.6,1.94,1.94,0,0,0,1-1.19c.2-.6-.6-.2-1.19-.4-.6,0-.4-.2-1-.2a.89.89,0,0,1-.8-.6s.2.2.8,0c.6,0,.4-.2.6-.4s.4-.2.2-.2h-2.39c-.6,0-.4.4-.8.6s-.4.4-.6.8-.4.4-.4.6c-.2.2-.2,1-.2,1.39s-.2.6-.4,1-.2.2-.8.4c-.4.2-.2.4-.2.8s-.2.6-.2,1.19-.2.6-.6,1-.6.4-.6.8a3.14,3.14,0,0,0,0,1.39c.2.8.4.6,1,1.39s1,.6.8,1-.2.2-1,.2-1,0-1.39.6c-.6.6-.6.8-1,1s-.2-.4-.4-.6a9.93,9.93,0,0,0-2.39-.6c-1-.2-1.19-.4-1.39-.4a4,4,0,0,0-1.59.4c-1,.6-.8.8-.6,1.59,0,.6.8.8.6,2.39s.8.8,1.19,1.79,0,1-.2,1-.6,1-.8,1.79,0,1-.2.8c-.2,0-.6.2-1-.6-.4-.6-.8,0-.8-.4s-.6-1-.4-2c.2-.8.6-1-.2-1.39s-.6-.6-1-1.39a4.13,4.13,0,0,0-1.19-2c-.8-.8-.6-.6-.4-1.39a3.84,3.84,0,0,0,0-2.59,13,13,0,0,0-3.78-3c-1.39-.8-1.79-.2-2.39-1.39s-1-2.59-2-3.38-.6-.8-1.59-.4-1,.6-1,.8c0,.4.4.8.2,1.59s-.4.6.8,1.19c1,.6.6.6,1.19,1.59.6,1.19.6,1.39,1,1.79s.6,1,1.59,1.19,1,0,1.19.2-.8.4-.6.4a6,6,0,0,0,1.39,1,6.1,6.1,0,0,1,2,1.59c.2.4,1,2.19-.2.8-1.19-1.19-1.19-.6-1.59.2s.2,1.39.2,2.19c0,.6-.6.4-1,.8-.4.6-.6,1.19-1,1.39-.4.4-.4-.4-.6-.4s-.4.2-.6.8c-.4.6,0,.8.2,1.59s.4.8-.4.8-.6-.8-1.39-1.39-1.19-.4-1.79-.8.2-.6,2-.8a4,4,0,0,0,2.39-.8,3.06,3.06,0,0,0,.8-1.19c.6-.8,0-1-.4-2a3.88,3.88,0,0,0-1.19-1.59l-1.19-1.19c-.4-.6-1-.6-1.79-.8s-.6-1-1.19-1.19a11.54,11.54,0,0,1-2-1.79c-1-1-.6-1.59-1.19-2.59a2.17,2.17,0,0,0-2-1.39c-1,0-1.79.8-2.79,1.79s-.8,1.39-2,.8c-1.19-.8-1.59-.6-2.59,0a3.23,3.23,0,0,0-1,2.79c0,1.39-1,.8-1.79,1.19s-1.59,1.39-2.79,3.78,0,1.19-.2,2,0,1.39-1,2.39c-1.19,1-.6-.2-1.39.8a3.29,3.29,0,0,1-3.19,1.39c-1.59-.2-1.19.4-2.19.6s-1.59.6-1.39-.6,0-1-2-1-2.59.6-2.59.4c.2-.2.2-.8.4-1.79.2-1.19.6-1.39.2-1.39s-1,.2-.4-1.79c.4-2,.6-2.39.4-3.58s0-2.79-.2-3.38.6-1.39.2-1.79-.8-.8-.4-.8a18.93,18.93,0,0,1,2.79.2,18.28,18.28,0,0,0,3.58-.2,24.42,24.42,0,0,1,4.18.8c1.79.2,1.59-.2,1.59-2.79-.2-2.59.2-3.78-.4-4.18-.6-.6-1-.4-1.59-1.19-.6-.6-.2-1.59-1.39-2s-2.59,0-2-.4c.6-.2,1-.4.2-.8-.6-.6-.8-1-.4-1.19h2a.64.64,0,0,0,1,.4c.8-.4,1.79-.6,1.59-1.19s-.6-1.19-.4-1.19a2.5,2.5,0,0,0,2,.8c1.59,0,1.59-.2,1.39-1-.2-.6,1-.6,2-1.19.8-.6-.4-1.19-.2-1.79s1.19-.8,2.79-1,1.39-.4,1.19-.6,0-1,.2-2.19c.2-1-.2-1.39.8-2,.8-.6.6-.4,2.39-.4,1.79-.2.6-.6,1-.6a14.66,14.66,0,0,0,2.79-.8c.4-.2.4-.2,0-.8-.4-.8-.8-1.19-1.19-4.78s-.4-3.58,1.79-4.18,1.59-.4,1.59,1.59c-.2,2-1.19,2-1.39,3.38a5.29,5.29,0,0,0,.8,3.78c1,1.59.8.8,2.79.8s1.59.4,2.79,1c1.19.4.8-.8,2.19-1.19,1.19-.4,1,.2,4-.2a11.85,11.85,0,0,1,1.59-.2s-.4,0,0-.2c.6-.4.8-1.19,1.79-1.19,1-.2,1.59.2,1.59-1.19,0-1.59-.6-1.19-.4-2.39a5,5,0,0,0,.2-1.59c0-1-.2-1,1.19-1.39,1.19-.4.4,1.19,2,1.39,1.59.4,1.19.6,1.59-.6.2-1.19,1-2.79.4-2.59-.8,0-1,0-1.59-1.19s-1.19-1.39-.6-1.39a31.72,31.72,0,0,1,4.38-.4c2.19,0,3,.2,3,0,.2-.2-.4-.4.4-1,.8-.4,3.38.2,3-.2a7.35,7.35,0,0,0-4.18-.8c-1.59.2-5.18.6-5.77.6a2.52,2.52,0,0,1-1.79-.8,1.81,1.81,0,0,1-1-1.79c0-1.39.4-1.79-.4-3.19-.8-1.19,1.39-2.39,3-3.78s1.19-2.39,2-2.59c1,0,1.19-.6.8-1a10.46,10.46,0,0,0-2.79-2.19c-.8-.2-2-1-3.19,1s0,2.19.4,3.38c.2,1-1.59,1.79-3.19,2.79-1.39,1-2,.8-2.39,3.38s-.8,2.59.8,3.58c1.59.8,2,1.39,1.19,2-.8.8-2.19.8-3.19,2.59s-.6,2.59-1,3.58c-.4.8-1.59,1.19-2,2s-.4,2.39-1.79,2c-1.39-.2-.6-2.19-1.19-3.19s-1.19-1.79-2-3.19c-.8-1.19-.2-2.39-1-3a3.48,3.48,0,0,1-1-2l-.2.6A6.72,6.72,0,0,1,417,66.48a4.06,4.06,0,0,1-4.78,1.39c-1-.4-1-1.39-1-2.79a44.56,44.56,0,0,1,0-5.18c.2-2,.8-2,3.19-3.19,2.19-1.39,2.39-1.19,2.79-2.19a23.33,23.33,0,0,1,3.19-3c1-.8,2.59-3.78,3.38-6s2.39-3.58,4-5.77A17,17,0,0,1,435.55,34c3.58-1.39,3-1.59,3.78-2.79s1.19-.4,2.59-.8c1.39-.2,1.19,0-.2,1.39s-2,2.79-.8,1.79,2-2.39,3.78-2.19c1.79,0,1,0,2.79.8s2,.8,1,1.59a4.81,4.81,0,0,1-2.59.4,2.87,2.87,0,0,0,2.19,1.59c1.59.2,2.59-1.19,3.58-.8,1,.6,1.39,1,0,.8s-2,.8,0,1.39a12.93,12.93,0,0,0,4.38,1c2.39.4,3.38,2,5.18,2.79s4,.2,3.38,1.79.4,3.19-2.59,4-3-.2-5.77-1c-2.59-.8-4.58-1.59-4.58-1.59a7.56,7.56,0,0,0,2,2c1.19,1.19,1.39,2.19,1.19,4.18s-.6,2.59,1.39,3.58,1.79.8,2.39.6,1.79-.4,1.39-.6a1.77,1.77,0,0,0-1.19-1.19c-.6-.4-.8-1,0-1.39.6-.4,1.39.4,2.79.2,1.59,0,0-.6.8-1.39s.8-2,2.59-2.79c1.79-.6,3.58.4,4.18-.4.4-.8,1-1.59,0-2.79S467.4,42.59,468,42s1.79-2,2.39-1.19,2,1.79.2,1.59-.6,2.59,1,2.59c1.59-.2,1.59-.6,2.79-1.39,1.39-.6,4-2.79,5.77-3.38a4,4,0,0,1,3-.2c.8.4.8,1,2.79.6s2.59-.8,4.58-1.19-.2.6.8,1c.8.2,1,.6,1.59,0,.6-.4,2.79-1.19,1.79-1.79-.6-.4-1-.8-1.59-1.19A2.4,2.4,0,0,1,495.67,36c1.79.2,4.58,1.79,6.37,3a25.11,25.11,0,0,1,4,3.78,5,5,0,0,0,.2-3.58c-.6-2.19-2.19-1.59-2.19-3.78s-1.59-1.59-1-3,2-2,2.39-4c.4-1.79.8-3.38,2-3.38a41.79,41.79,0,0,1,4.18.4,13.49,13.49,0,0,1-1,4.38c-1,2.59.6,2.79.4,6s-.4,3.58.4,4.18c.8.8,2.19,1.59,1.59,3s-.8,2.19-2.79,3-4.38.4-3.58,1A8.67,8.67,0,0,0,510,48.36c1.19.2.6,0,1.59-1,1-.8,3.38-2.59,3.19-3.38,0-.8-1.39-2-.4-2.59.8-.6,1.19-1.59,2.59-.8s2.59,3.58,2.59,3.58a7.84,7.84,0,0,0-1.79-4.38c-1.59-1.59-4.18,0-4.18-1.39s.8-3.38.6-4.78c-.2-1.59-.8-3,.2-4.38a4.58,4.58,0,0,0,1-2.39,5.42,5.42,0,0,1,0,2.79c-.4,1.59.2,2.39,1,2.39s4,0,2.19-.4c-1.79-.6-2.19-1-.6-2,1.79-1,1.59-.4,4.18.2s3.19,1,4,1,.8-.2.4-.8c-.2-.8-.6-1.19-1.59-1.79-.8-.6-1.39.2-1.59-.6s-.8-2.79-1-3.58.6-.2,2-.2,5.18-.2,8-.2c3,0,0-3-.2-5.18s5.38-2.19,8-2.59c2.79-.4,5.77-.2,10.95-1.39s1.79-1,2.59-2.39,2-1.59,3.58-1.59,3,.2,2.39.4-2.19,1,.4,1.59,2,.6.6,1-.2,1.39,2.39,1.39,1-.2.6-1.19c-.4-.8.4-.6,2.59-.2a7.42,7.42,0,0,1,4.18,1.79c1.19,1.19,1.39.8,1.79,2.39s0,1.39-2,2.79c-1.79,1.39-3,1.39-5.57,3.19-2.59,1.59-2,2.59-3.58,3.78-1.39,1.19-1,.8,2,0,3.19-.8,4.78-1.39,6.37-1.19s2.39.8,3.58.8a26,26,0,0,0,3.78.2c3.78,0,3.19,0,1.79,1s.2,1.39,2,1.39a46.75,46.75,0,0,0,5.38-.2c1.59-.2.2-1.39,2-1.39s2.39-.2,4.38-.2,1.39.8,2,1.59,1.59,1.19,1,2.59-1,1.39-.6,3.38S596,37.61,597.21,38s1.19-1.79,2.39-2.39c1.19-.8,1.39,1.39,2.79,1.19a6.72,6.72,0,0,1,4,.2,6,6,0,0,0,3.78.2c1.59-.4,1.19-1,.6-2s-.6-1,.4-2,1.79-.6,5.18.4c3.38.8,2.19.8,4.18,1.39s1.19.4,4.18,1.79,2.39,2.79,3.58,3.78,1.39,0,4.18-.2c2.59-.2,2.59.4,5.57,1,3,.8,2.19,1.79,2.19,2.59s-.8,1.39,1,1.79,2.59.8,4.18.4.2.4,3.58.4,2.19-.4,3.38.4c1,.8,1.19,2.19,3,2,1.59-.2,1.59-.2.8-1.59-.6-1.39-1.19-1.79-.2-1.59,1,0,3,.4,6.77,1s3.78,1.19,7,3.19c3,2,4,2,6.17,3.78a11.47,11.47,0,0,1,1,.8,5,5,0,0,1,1.19.4c2.39,1.19,2,.8,4,1.79a15.14,15.14,0,0,1,3.78,2.39c1,0,1.19.2-.4.4ZM308.73,94.35c0-.8-.6,1,.2,1.39.6.4,1,.6,1.39,0s0-.2-.6-.4c-.6,0-1-.2-1-1Zm3.58-3a11.56,11.56,0,0,0-3.38-1.19c-.8,0,.2,1,1.59,1.59,1.19.8,2.59,0,1.79-.4ZM510.8,22.88c-.6-.4-1-.8-1.19-.2s.8,1.39,1.59,1.59c.8.4.2-1-.4-1.39Zm-18.71,9.56c-.4,0-.6,0,.2,1,.8.8,1.59,1.59,1.39.4-.4-1.19-1.19-1.39-1.59-1.39ZM506,10.74c-.6-.8-1,.2-6.77,2.79-5.57,2.39-5.57.4-10.95,4.58s-4.18,3.58-4.38,6.17c-.4,2.59-1.59,1.39-2,3.78-.4,2.19-3.19,2.39-1.79,4.38a10.75,10.75,0,0,0,6,3.78c2.79.8,3.58,0,3-.4-.6-.2-2.79-3.58-2.39-7.57s1.79-3.19,3-4.78c1.19-1.39,4.38-5.18,6.57-6.37,2-1.19,7.37-3,10.15-3.78h.2c2.19-2.59,0-1.59-.6-2.59ZM477.36,34.43c-1.39.4-2.19,1.39-1.19,1.79s1,.2,2.79-.6c1.79-.6-.2-1.39-1.59-1.19Zm.6,169.23c-1.19,2.39-3.78,1.19-5.77,3s-1.79,1.19-.2,3.58-1.19,2.19-2,5,.8,2.39,1.59,4.78,1.19,1.59,2.79,1.39a10.38,10.38,0,0,0,2.59-1,25.43,25.43,0,0,1,1.19-5.18,41.79,41.79,0,0,0,2-7.37c.2-2,.4-3.58,1-2.79.6.6.6.6.6-.4s-.6-3.78-1.59-4.38c-1.79-1.39-1,1-2.19,3.38ZM158.22,72.85c-.6.6-1.19-.2-.8.4s.8,1,1.39,1c.4-.2.6-.2.6-.6a1.79,1.79,0,0,1-.2-1c-.2-.6-.4-.4-1,.2ZM177.73,74c-.6.4-.8.6-.2.6.6-.2.6-.6,1-.4h.6S178.33,73.65,177.73,74Zm.4.4a2.64,2.64,0,0,0-2.19.2c-.8.4-1,.8-.6,1.39s.2.2,1.19-.2c1-.6.6-.6,1.79-.8s1-.6,1-.6Zm33,15.93a13.55,13.55,0,0,0,3.38,2.19A16.09,16.09,0,0,0,218.94,94c2,.4,2.79-.2,1.59-1s-.2-.8-2.59-1.19-2.79-.2-4-.8C212.77,90.77,210.38,89.78,211.17,90.37Zm-4.18-8a5.41,5.41,0,0,0,1.59,3.38c.6.6.6.2.2-1s0-1.19-.2-2S207,82,207,82.41Zm114.48,0a14.66,14.66,0,0,0-3.58,4,12.45,12.45,0,0,1-2.59,3.38c-1.39,1.19-.6,1,3.58,1.79,4.38.8,4,1.39,5,1,1-.2,1.19.4,1.19,1.19s1,.4,1.39-.8-.4-3.38-1.39-4.78c-1-1.19-1.19-1.19-2.39-1-1.39.4-1-.2-1.39-1.19-.6-1-1.39-.2-.2-1.59,1-1.59,1.39-2.59.4-2Zm87.6,29.66c-1.19.4-1.19,1.19-.4,1.79s.8,0,1.19-1c.6-.8-.4-.8-.8-.8Zm44,8.36c-1.79-.4-1.39,2,.6,1.59s1.19.2,2-1.39C456.45,119.24,455.06,120.83,453.07,120.43Zm-11.95-.2c-1.39-.2-2,1.19.4,1.39a10.41,10.41,0,0,0,4.18.2c.8-.4.2,0-1-1.19s-2-.2-3.58-.4ZM418,108.49c-1.79.6-1.79,1-2,1.79s1.39.2,1,1,0,1.19,1.79.4.8-1.39,1-2.39c.4-.8.6-1.59-1.79-.8Zm1.39-3.78c-.2.4.2,1.19-1,1.59-1.19.6.6,1,.8,1.59.4.6.8-1.79.8-3-.2-1-.2-1.19-.6-.2Zm-25.28-34c-2.79,1-2,1.59-1.59,2s1.39-.4-1.39,1-2.79,2.79-1.39,3.19c1.39.2,1.19-.8-.2,1.79-1.59,2.39-2.59,4.18.6,3.58,3-.6,3.78-2,5.38-2.19,1.39-.2,1.79-1.19,1.79-2.79s-1-1.59.2-2.79,1.19-2.59-1-3.19c-2.39-1-.6-1.39-2.39-.6Zm1-2c-.6,1.79-1.79,2.59-.4,2.19,1.19-.6,2.59-2,2.39-.8,0,1.39-1.39,1.19-1,2.39s0,1.19,2.19,1.59.4.4,1,1.59.8,1.59.4,2c-.6.4-2.19-1.19-2.19-.6a4.45,4.45,0,0,0,.6,2c.4.8-.2,1.39-1.39,2s-.2,1,.8.8c1,0,3.38-.6,3,.4-.4.8-1.59-.2-2.39,1.19S394.34,86,395.93,86s1.39-.6,6-1.19,1.39,0,4.38-1,2-1.19.4-1,1.19-1.59.8-3.38-1.39,0-2.19-1.19-.6-1.39.8-1,1.19-.2-1.39-2-1-1.39-2.19-2.79a4,4,0,0,0-3.19-1.19,6.11,6.11,0,0,0,1.39-1.59,21.73,21.73,0,0,0,1.19-2.19c.6-1.19-.6-1.19-2-.8s-1.79.4-1.59-.2.4-.8,1.19-1.39c.6-.8.8-1-.4-.8a4.88,4.88,0,0,0-2.39.8c-2,.8-1,1.79-1.59,3.58ZM500.85-8.18c-1,.2-1.19.2-1.19.6,0,.2.2.2,1.39,0a7,7,0,0,0,2.39-.6c.8-.4-.2-1.19-.2-1.19,0-.2-1,.4-1.39.6C501.64-8.57,502.24-8.18,500.85-8.18ZM491.49-7c-1.39-.8-1.39-.4-2.59-.4s-1.59,1.19-.8,1.59a2.94,2.94,0,0,0,1.79.2c.6-.2.6-.4.2-.6s2.19-.2,1.39-.8Zm-7.57-.4c-1,0-3.58,1.19-1.39,1.59s2,.6,2.79,0c1-.6-.2-1.59-1.39-1.59Zm-9.76,0a12,12,0,0,1,3.78,0c1.19.2.6,1.19-1.39,1.59-2,.2.2.6,1.59.6s.6-1.59,1.79-2c1.19-.6,2-.2,3.38-.8s-.8-1.19-2.39-1.19a21.5,21.5,0,0,1-3.58,0c-1.39-.2-2.59.6-4,1-3.19.4-.6.8.8.8ZM486.51-9c-1,.6-1,.6,0,1,1,.6,3.19,1,4.38,0s1.19-.8-.4-1-3-.8-4,0Zm6,2c-1.19.4-1,.8-.6,1.19s1.19-.2,1.39.2.4.2,1.39-.4c1.19-.6.8-.4.2-1-.2-.6-.2-.6-2.39,0ZM490.1-9.17c-1.39.4-1,.6-2,1.19s-.4.8,1.79.4a18,18,0,0,0,3.38-1c1.39-.4-1-1.19-3.19-.6ZM557,.58A5.43,5.43,0,0,0,554.4,2a12,12,0,0,1-2.59,1.79c-.8.4-.6.4.6.8a11.18,11.18,0,0,0,4-.6c.6,0,1,.6,3,.4s5-.4,3.38-1a27.7,27.7,0,0,1-2.59-1.19,9.21,9.21,0,0,0-3.58-.8s3.19-.8,2.39-.8ZM545.64-6.58c-.4.4-2.19.2-3.19,1.79-1,1.79-1.59.6-2.19,1.59a11.83,11.83,0,0,0-1,2.39s.8,1.19,1.79,1A4.47,4.47,0,0,1,544.65,2c1,1.39,1.59,1.39,3.78,1.79s1.19.8,2.39.6,2.79.2,2.39-.6a2.74,2.74,0,0,1-.4-2.39c.2-1.19,1.19-1.19,0-2s-2-.2-2-.4,1-.6.6-.6S549-1.81,548.83-3c-.2-1.39.6-1.39,1-1.39s.2-.2-.8-1.19a29.93,29.93,0,0,0-2.79-2c-.8.6-.2.8-.6,1ZM621.1,24.08s-1.19-.8-3-1.79c-1.79-1.19-2.39-1.39-3-1.39s-.6.6-.8,1.19-.4.4-1.39,0-1.79-1.19-2.79-1.39-1.59.6-2.59,1.59-.4,1.39.8,3c1.39,1.59,1.79,1.59,3,1,1-.6.8-1,1.59-.8a15.19,15.19,0,0,0,3.38-.2s-.2,1.39,1,1a7.31,7.31,0,0,0,2.79-1.19l1-1Zm-7.37,2.59c-.8.2-.8.4.2,1,.8.6.6.4.2.8s0,0,1.19.4,1.79,1.19,2.59,1.39a2.71,2.71,0,0,0,1.39,0,4.09,4.09,0,0,0-1-1.39c-.8-.8-2.39-1-2.59-1.79a1.5,1.5,0,0,0-2-.4Zm7.37-3.19c0,.6,2.79,2.19,3.58,2.59,1,.4,1.79.2,3.78,0s2.19-1,2.39-1.59c.2-.4-1-.4-2.39-.6s-2.59.2-3,0,.8-.4-.4-1c-1.19-.4-1.59.2-1.79,0a1.24,1.24,0,0,0-1-.6c-.4.2-1.19.8-1.19,1.19Zm49,18.91c-.8.2-1.19-.4-1,.8s.6,1.19,2.79,1,.6,0,3.58-.2a20.2,20.2,0,0,0,3.58-.4,4.57,4.57,0,0,0-1.39-1.19c-1-.6-2.39.4-4.78,0ZM685,62.7c-1.59-.2-2-.6-2.19,0-.2.4-.4.6.6.8s1.39-.2,2.39.4,1.19.6,1.79.4c.8,0,1-.4,1-.4A23.8,23.8,0,0,0,685,62.7Zm-80.83,59.73a20.66,20.66,0,0,0-2.39.6.83.83,0,0,0-.6,1.19,7.39,7.39,0,0,1,.4,1.79c0,.4.4,0,1-.4s.6-1.39,1-1.39.4.8,1-.2c.8-1,.2-1.19.2-1.59.2-.8-.6,0-.6,0Zm10.35-11.35a2.4,2.4,0,0,0-.6,1.59c0,.8.8,0-.2,2.39-.8,2.39-1.19,3-2,3.58a2,2,0,0,1-2,.4c-.4-.2,0-.8.4-.8.2-.2-.8-.2-1.19-.2s0,.6,0,1-.8,1.39-.8,1.79,0,.6-.4.8c-.6.2-.8-.4-1-.4a15.37,15.37,0,0,1-2,.2,1.73,1.73,0,0,0-1.59,1.19c-.4.8-1.39.8-2.19,1.19-.8.2-.4,1.39-1.19,1.79a1.46,1.46,0,0,0-.8,1.59c0,.6.4.2.6.2,0,0,0-.8.6-.6.4,0,.6.2.2.6-.2.6-.4.8-.6,1.39-.2.4,0,.8.4,1.19s.8-.2,1.59-1a2,2,0,0,0,.8-2c0-1-.4-1-1-1.19s-.8,0,0-.8,1,0,1.39-.4,1.59-.4,2.59-.6,2-.6,2-.2.4,1.59.4,1.79.8-.4,1.39-.6,0-.4,0-.8a1.39,1.39,0,0,1,.4-.8s.4.8,1.39.2c1.19-.6,1.19-.8,1.59-.6.2,0,.4.4,1,0,.4-.4.6,0,.4.2,0,.2,1.39-.4,1.59-.6.4-.2.2,0,0-.8s-.6-1-.2-2a6.86,6.86,0,0,0,.2-1.79.86.86,0,0,1,.4-.8c.2,0,.2-1,.6-1.39s.2-.8.2-1.79c0-1.19-.6-1-.6-1.79a7.53,7.53,0,0,1,.2-1.59s-1.19.4-1.39.8l-.2.2c.2-.6,0-.8-.4-.6Zm1.19-10.55c0,.8.2,1.39-.4,2.19s-.2,1-.4,2.19-1.79,0-1.79.2a2.65,2.65,0,0,1-.6,1.39c-.4.2-1.59.4-1.19,1.39a21.11,21.11,0,0,0,1,2.39s.8-.6,1-.8l.8-.2a1.47,1.47,0,0,0-1-.6,1,1,0,0,1-.6-1.39c.2-.2,1.19,0,1.79,0s1.19-.4,2,.2a5.31,5.31,0,0,0,2,.8,8.8,8.8,0,0,1,.6-1.59c.4-.6,1.39-.4,2.59-.6,1-.2,2-.4,1.59-.8s-.4-1.39-.6-2c-.2-.8-1,0-1.59.2a2.59,2.59,0,0,1-2-.4,11.36,11.36,0,0,1-2.59-2.79c0-.2-.8-.4-.6.2Zm.4-19.51c.2.8.4,1.79,0,2a2.19,2.19,0,0,0-.8,1.79,3,3,0,0,0,.2,2.59c.4.6.2.6.2,1.19a6.84,6.84,0,0,1-.2,2.79,5.81,5.81,0,0,0-.4,1.79,7.92,7.92,0,0,1,0,2.19v2.79c0,.4.4-.2.6-.4a1.26,1.26,0,0,1,1.39.2l.4.4s.6.2-.2-1.59-1-1.39-.8-3.19.4-1.79,1.19-2c1-.2,1.39,1,1.39,1.19.2.2,0-.4-.4-1.39a8,8,0,0,1-.8-2.59c-.2-1.19-.4-2.19-1-2.59-.4-.4-.2-1,0-1.39a5.55,5.55,0,0,0,.2-2,14.7,14.7,0,0,1-.4-2.39c-.2-.4-.6.2-.6.2V81Zm-30.26,57.14c-2.19.8-3.19.8-2.39,2a7.83,7.83,0,0,0,1.59,1.79c.2.2.6-.2,1.19-1,.6-1,.6-2,1-2.39.2-.6-.6-.8-1.39-.4Zm49.37,44,.4.8c.4.6.8.6,1.19.8s0-.2-.2-.6a3.5,3.5,0,0,0-.8-1c-.4-.4-1.19-.6-.6,0Zm-5.57,1.79c0,.8.2,1-.4,1.59a4.17,4.17,0,0,1-2.19.8c-.8.2-.2-.2-1-.2-1,0-1.19,0-.8.6s.4,1,1.59,1a6.68,6.68,0,0,0,3.19-1.19,1.34,1.34,0,0,0,.8-1.39c.2-.4-1-2-1.19-1.19Zm-49-24.09c-.2,0-.4.2-.6.8a3.57,3.57,0,0,1-1,1.39c-.4.4-1.79,1.39-1.79,1.59s0,0,.8-.2c1-.4,1.79-.8,1.79-1.39.2-.6-.2-.2.8-.6.8-.4.4-.4.4-1,.2-.4,0-.6-.4-.6Zm9-2s-.6,0,0,.4c.6.6,1,.6,1,1s0,.4-.4.4c-.2,0-.4-.2-.6-.2s-.2.2,0,.4c0,.2,0,0,.4.4a1.79,1.79,0,0,1,.2,1c0,.4.2.2.2.2v-1.39c0-.2,0-.8.2-.6.4.2.2.8.4.2a2.18,2.18,0,0,0,0-1.59c-.2-.6-.4-.6-1-.6l-.4.4Zm-1.19,1.39s0-.2-.6-.8c-.6-.4-.6-.6-1.39-.8s-1.59,0-1.19.8.4.8,1,1a2.42,2.42,0,0,0,1-.2s0,.2-.6.4a.85.85,0,0,0-.2,1.39c.4.4.4.6.8.4.2-.2.4-1,1-1.39.6-.6.6-.6.6-1.19v-1l-.4,1.39Zm4.78,3.58c.2.6-.8-.2-1,.2-.4.4-.6.2-1,.4a11.48,11.48,0,0,0-1.79,1v-.6c0-.2-.4-.8-.8-.4a5.51,5.51,0,0,1-1.59,1,3.64,3.64,0,0,0-1.59,1.19c-.2.6.6.6.6.6a4.42,4.42,0,0,0,1-.8c.6-.6.6-.6,1.79-.6,1,0,1,0,1.39.4s0,1,.2,1.39c0,.4,0,1,1,1.19s.6,0,1.59,0,1,0,.8-.4-.4-.6-.6-1c0-.4.6-.6.8-.6s.4.4.6,1,.4.4.6.2a4.75,4.75,0,0,0,.4-1.79,2.52,2.52,0,0,1-.2-1.19,1.32,1.32,0,0,0-.8-1,12.2,12.2,0,0,0-1.19-.8.44.44,0,0,0-.2.6Zm-8.16-14.93c-.4-.6-.8,1.19-.8,2.19a4,4,0,0,0,0,2.19,3.14,3.14,0,0,1,.2.8l-.6-.8a7.53,7.53,0,0,0-.2,1.59c0,.8-.2,1,.6,1.59s1,.2,1.19,1,.2,1.19.6,1.39c.6.2,1.19.4,1.39,1,.2.4.2-1.39.4-1.19a2.54,2.54,0,0,1,1,1.39c0,.8.4.8.4.8s-.6-1.39-.4-1.59.4-.4-.4-1c-.6-.6-1.19-.4-1.79-.6s-.6.6-1-1a6.12,6.12,0,0,1,0-2.79c0-.4.2.6.6-.6a6.78,6.78,0,0,0,.4-2.79c0-1,.4-1.39,0-1.39-.2.2-1.39.2-1.59-.2Zm-16.52.2h-1.79c-.4,0-.8.4-1.19.6s-.4.4-.2.8.6.4,1.39.6.4-.2,1-.4.6-.4.8-.8c.2-.2.4-.4.6-.4s-.4-.4-.4-.4c.2-.2-.2,0-.2,0Zm25.28,32.05c-.4,0-.8.8-.6,1.39.2.4.4.2,1.19,0s.6-.6,1.59-.6a15,15,0,0,1,3,.6s.4-.4-1.19-1.19c-1.39-.8-2-.8-4-.2Zm-1.39-.2c-.8-.6-1.19-.2-1.19.6s0,1.19.8,1.19c1,0,2-.6.4-1.79Zm2.79-6.17c.2-.4-1.39,1.19-1.79,1.59s0,.8.2,1.19a9.69,9.69,0,0,1,.2,2.39c0,.4,1,.6,1,.6A6.4,6.4,0,0,1,595,178a6.64,6.64,0,0,0,0-2c0-.8-.4-1,.2-2.19ZM589,177.57c-.8.6-1,.2-1.59-.2s-.4.8-1.79.2-2-1-3.58.2-.6,1.59-.6,2.39a10.9,10.9,0,0,1-1.79,3.78c-.4.8-.4,1.19-.2,1.59.4.6.8.4,1,.6a8,8,0,0,1-.2,3c-.2.6.6.8,1.59.6.8-.2.2-.2.2-1s.4-1,.4-2.39v-2s.2-.2.6.4a26.66,26.66,0,0,1,1.19,2.39c.4.6.8,1.19,1.39.6a9.31,9.31,0,0,0,1.19-1s-1.19-.4-1.19-.8.6-.8-.4-2-1.19-1.39-.2-1.39,1-1,1.59-1.39A5.25,5.25,0,0,1,588,181a1.82,1.82,0,0,0-1.59-.4,9.86,9.86,0,0,0-2.59.8c-.8.4-1.39.6-1.59-.2a6.14,6.14,0,0,1-.2-2c.2-1,1.39-.2,2.19-.6a7.08,7.08,0,0,1,3,0c2,.2,2.19-.4,2.79-1.19a9,9,0,0,0,1-1.79,17.51,17.51,0,0,1-2,2Zm15.13,3.78c-1,.2-1.39-.6-2.19-2.19s-1.39-1.79-3.38-1c-2,.6-1.59.6-.4,1a14.33,14.33,0,0,1,1.59.6c.2,0,2,.2,1.59.6-.4.2-2.19.6-1,1.19,1.19.8.6.2,3.58,1.59s3.38.4,4.38,2.19,1,1.59.2,2-1.79,1-1.39,1,1.19.2,3.19.4.2,1.19,2.39,1.19a4.26,4.26,0,0,0,3.78-1.59c.8-1,1-.4,3,0s2.59,2,5,2.59,3.38,1.39,2,.2a37.48,37.48,0,0,0-4-3.78c-2-1.59-2.19-1.59-2.79-2.79s-2.59-2.59-5-3.38-3.58-1-6.37-1.79c-2.79-1-3.38,1.79-4.18,2Zm15.73,58.73c-1.19-.2-1,.6-.8,1.19a4,4,0,0,0,.8,1.59,2.44,2.44,0,0,0,2.59.4c.6-.2,1-1,1.59-1.79a3.69,3.69,0,0,0,.8-2c-.2-.4-.8.4-1.39.6a3.61,3.61,0,0,1-2.19.4c-.6,0-1-.4-1.39-.4Zm34.64,5.57c-1-.6-1.39.4-1.39,1.39-.2,1,.4.2,1.39-.2.8-.6.4-1,0-1.19Zm8.36-8.16s-.8.8-1.59,1.79a4.51,4.51,0,0,0-1,2c-.2.6-1,1.19-2.39,2a6.52,6.52,0,0,0-2.39,1.79,26.25,26.25,0,0,1-2.39,3.19c-.2.2.8.6,1.79.6s2.59,1,3.58,0a47.51,47.51,0,0,0,2.39-4.38,9.39,9.39,0,0,1,2-2c.8-.8,2.39-2.39,2.39-3a5.8,5.8,0,0,0-.4-1.59,1.37,1.37,0,0,1-1,.6C662.71,238.49,662.91,237.5,662.91,237.5Zm-3.58-11.95c-.4-.2-.6,0,.2.8s.8.6,1.19.6.8,1.59,1.19,2a5.45,5.45,0,0,0,.8,1,10.66,10.66,0,0,1,0,2.59c-.2.8-.8,1.19-.8,1.79-.2.8.8.6,1.39.8s.4.2.2.8a2.2,2.2,0,0,1-1,1c0,.2,1.39.8,2,0s1.79-2,2-2.79-.6-.4.4-1a4.19,4.19,0,0,0,1.39-1c.4-.8,1-1.59.4-2s-1.19.6-1.59.6c-.4.2-.8.2-1.59-.2-.6-.4-.8-.4-1-1-.2-.4-.4-.6-.6-1,0,0-.2,1-.6.6a6.19,6.19,0,0,1-.8-1.19,6.54,6.54,0,0,1-.6-1.19c-.2-.4,0-1.19-1.19-1.39-1.39.4-1.19.4-1.39.2ZM576.3,168c-.4.6.4.4-.2,1s-1,.2-1.59,1a6,6,0,0,1-1.79,1.59,5.62,5.62,0,0,0-2.19,1.39.74.74,0,0,0,.2,1.19s-.4.2-1.19-.2a2.2,2.2,0,0,1-1-.8s-.6,0-1,1-.6,1,0,1.59-.4.6-.2,1,.2,1.19.6,1.19.4-.4,1,.2c.4.6,0,2.39.6,2.39a4.28,4.28,0,0,1,1.59,0,2.12,2.12,0,0,0,1.59.2,2.66,2.66,0,0,1,1.79.2,7.06,7.06,0,0,0,2.19.6c.6,0,.8.2.8-.8.2-1,0-1.79.8-2.39.8-.8.8-.8.8-1.39a2.62,2.62,0,0,1,.6-2c.4-.6.8.4,1-.2s.4-.6.4-.8c-.2-.2-.8-.2-1-.8-.2-.4,0-.8-.2-1.79-.4-1-.6-.6,0-1.19.4-.6.8-.6.8-1.19,0-.4.2-.4.8-.8s0-.2-.6-.6-1.59-2-2.19-2c-.8.2-2,1.79-2.39,2.39Zm8.36,24.29c-.6-.6-1.19-.6-1.19-.2s-.4.4.4.8c.8.6,1.59,1.19,1.59.4a2.16,2.16,0,0,0-.8-1Zm5.18-1.59h0c-.6.4-.6.4-.6.6v.4a2.15,2.15,0,0,0,1.39-.6c.6-.6.6-.6,1.19-.6a6.4,6.4,0,0,0,1.39-.8h-1a2.83,2.83,0,0,0-1.19.4c-.2.2,0,.2-1.19.6Zm-7.57-.6c-1.19.2-1.19.6-.2,1a4.77,4.77,0,0,0,2.79.4c.8-.2.8-.6,2.19-1a17.67,17.67,0,0,1,3-.4l1.19-.2s-.2-.4-.8-.2h-2c-.8,0-2,1-2.59,1s-1.59-.6-1.79-.2c-.4.2-.4-.6-1.79-.4Zm-6,1.39c-.4.2-1.39.4-1,.4.4.2,0,.2,1.39.2a6.15,6.15,0,0,0,2.59-.4c.2-.2-.2,0-.8-.2s-.4,0-1.19.2a2.42,2.42,0,0,1-1-.2ZM563,187.93c-.6,0-1-.4-1.39.4-.4,1-.4,1,.2,1s.6.4.6.6-.4,0,1,.6,2.39.4,2.59.2.6.6,2.39,1,2.79-.2,4,.2,1-.2,0-1-.8-.4-1.59-1a3.57,3.57,0,0,0-2.59-.8c-.6-.2.4.8-1.19.4-1.79-.2-1,.2-2-.4-.8-.6-.8-.8-1.39-1ZM546,171.8c-.6,0-1-.2-.2.6l1.59,1.59c.8.6,1-.4,1.39.8.6,1.19.4,1.19.8,1.59.6.4,1,.6,1.19,1a3.52,3.52,0,0,0,1,1.59c.6.4.6.4,1,1.39a26.58,26.58,0,0,1,1.19,2.39c.2.8,1.79,1.59,2.79,2.59.8,1,2.19,2.39,2.39,2s.8,0,1.19-.2.6-.8.8-2.19a2.48,2.48,0,0,0-.6-2.39c-.4-.4-1.19-.4-1.39-.6s-.6-1.39-1-1.59c-.4-.4-.6,0-.6-.8s.6-.8-.2-1.19-.8-.8-1-1-1.79-.6-2.19-1-2-1.19-2.79-1.79c-.8-.8-1.59-1.39-2-1.79,0-.2-.8-.6-3.38-1Zm39,35.24h0c-1.19,1.19-2.39,1-4.38,1.59s-5.77,2.79-6,3.78,0,1-.2,1a7.94,7.94,0,0,0-.8-.6,4.06,4.06,0,0,0-.4,2.19,11.28,11.28,0,0,1,.6,3c0,1.39-.6,2-.4,3,0,1,1.59,2.59,2,3.58a5.79,5.79,0,0,1,.8,2.79c.2,2,1.19,3,.2,4s-1.79.8-.6,1.79,2.19,1.79,4.18,1c2-.6,1.39-1.39,3-1.59a24.76,24.76,0,0,1,3.19-.8c1.39,0,2.19,0,2.79-.8.4-1,.2-1,1.39-1.59,1.39-.6,1.19-.8,2-1s1.39.4,2.59-.4c1.19-1,.4-1,3-1a15.32,15.32,0,0,1,4.58.6,8.48,8.48,0,0,1,3,1.79c.4.6,1,1.39,1,1.39.2,0,.4,0,1-.6a23.81,23.81,0,0,1,2.39-1.79s0,1.39-.4,1.79a2.15,2.15,0,0,0-.4,1.39c0,.2,1-.8,1.19-.8s.2,1.79.4,2,.6,0,1,.6a8.58,8.58,0,0,1,1.39,2,4.7,4.7,0,0,0,3.19,2.19,6.58,6.58,0,0,0,2.79,0c.8-.2.8-1,1.59-.6s0,1.19,2,1a4.75,4.75,0,0,0,3.19-1.39c.8-.6.8.8,1.79-.6s1.19-1,1.39-2.79a8.11,8.11,0,0,1,1-3.58c1-1.59,1.19-.8,1.79-3.19s1.39-4.58,1.39-6.37c0-2,0-.6-.4-2.79s-.2-2-1.59-2.79-1.79-.6-2.19-2c-.4-1.19,0-1.59-.6-1.59s-1.19.2-1.59-.6a9.3,9.3,0,0,0-1-2c-.8-.8-1.39-.6-2.79-1.19s-.6-.8-.6-1.79,0-2.19-1-2.59-.4.2-.4-1.39c0-1.79,0-1.59-.8-1.79a2,2,0,0,1-1.79-1.39c-.6-1.19-1-2.39-1.59-3.58-.2-.8-.6,0-1,.6a5.15,5.15,0,0,0-.8,2.79c0,1,.4,1.59.4,3a6.63,6.63,0,0,1-1.59,3.58c-.6.8-1.19,0-1.59-.2-.6-.2-.6-1-1.79-1.59s-3.19-1-4-1.79c-1-.8-.2-.8,0-1.79a5.15,5.15,0,0,1,1.39-2.19c.8-.6.4-.8-.4-1.19a9,9,0,0,0-3.58-.6c-1.39,0-2.39-.2-2.19.8,0,.8,1,1.19-.2,1s-2.39-.4-2.79.2c-.6.6-.6,1-1,2.19s0,1.39-.4,1.39a14.12,14.12,0,0,1-3.19-1.39,1.58,1.58,0,0,0-1.79.4,30.76,30.76,0,0,1-4.78,3.78c-1.19.6-1.39.2-2.59,3.58Zm-61.72-45.39c0,.2.2.2.2.4.2.2.2,0,0-.2l-.2-.2Zm.4,4.38c0,.4-.2.8-.2,1.59V170c0,.8,0,1.39.4,1.59.2.2.4.4,1,0a1.61,1.61,0,0,0,.6-1.79,11.51,11.51,0,0,0-1-2.79c-.2-.8-.6-1.59-.8-1ZM378.81,45.78c-2.19.8-2.79.4-3.19,1.79s-1.19.6-1.79.8c-.4.2-1.19,4.18-1.59,3.58a17.24,17.24,0,0,1-1-2.39c-.4-1.39.2-1.19-.8-2.59s-2.79-1.19-3-.6,1.19,1.19.8,1.79a18.77,18.77,0,0,1-2,2c-.4.4.8.2,1.59,0s1.39.8,1.59,1.59c.4.8-.4,1.39-.8,1.79s1.19.2,1.79.4,1,.8.6,1.79,1.79.2,3,0c1.19,0,1.59,1.19,3.38.4s2.79-.8,4.38-2.39,1.59-1.19,2.59-2.39c1.19-1,.8-1.39,1-2.59,0-1.19.8.4.4-1.39-.2-1.79-1.59-1.39-2.59-1.39-1-.2-1-1.19-1.39-1.39-.2-.4-.8.4-3,1.19ZM256,1c-1.79.4-1.39.6.8,1.39,2.19.6,2.19.4,2-.8C258.36.19,257,.78,256,1Zm10.95,10.55c-2.19,0-5.38.8-3.58.8a52.45,52.45,0,0,0,6.17.2c3-.2,3.19-.4,3.19-1.59S270.7,11.33,266.92,11.53Zm19.91,49c-.4.2-.4.8,0,1.59.4.6,1.19-.2,1.59-1C288.82,60.11,288.22,60.11,286.83,60.51Zm-5.57-2.19c-2.19.2-2.79.4-2.59,1.19.4,1,1,.8,2.39.2,1.59-.4,2.59-1.59.2-1.39Zm10.35-13.74c-.8.6-1.39.8-.6,2.19S292.2,49,292.4,48,293,43.59,291.61,44.58Zm11.55,111.49c-.6-.4-.8.6-.4,1.39s1,.6,1.59.4-.2-1.19-1.19-1.79Zm-14.73-3.19c-.8-1.19-1.79-1.39-1.79-.4s.2,1,1,1.19c.8.4,1.39,0,.8-.8Zm3.58,1.19a1.8,1.8,0,0,1,.6,1.79c0,.4-1,0-2.79-.2-1.79-.4-1.39-.2,0,.4,1.59.6,2.39.4,2.39,1.39,0,.8,1.39,0,2-.4s.6,0,3.19.2c2.79.4,3.19.6,2.79-.2-.4-1,1.19-.8-1.19-1.79-2.19-.8-8-2-7-1.19Zm-4.58-8.16a5.41,5.41,0,0,0-3.78-3.78c-2.79-.6-3.78.6-4.78,1.19-1,.4,1,.6,2.19,0,1.39-.6,2.39-.2,2.59.2s-.4.4-.6.2c-.2-.4-.2.8,1.19,1.39s1.79,1,2,1.79.2,1.19.4,2c.4.6.4,1-.2,1.19s-.4.2,0,.6a5.22,5.22,0,0,0,2.59,1.19c1.39.2,1.79.4.8-1A40.11,40.11,0,0,0,287.43,145.92Zm-9.16-97a20.49,20.49,0,0,0-1,4.38,5,5,0,0,1-.6,2.59c-.2,1,.8-.2,1.39,1.19s.4,1.79,1.59.2a3.34,3.34,0,0,1,4.18-1.39c1.79.6,3,1,2.39-.4-.6-1.19-1.39-1.19-2.59-2.79A6.85,6.85,0,0,0,280.06,50c-1-.6-1.19-2.59-1.79-1Zm5-22.5c-2,.2,1.19,2,3.78,2a41.06,41.06,0,0,0,5.38-.6c.8-.2-6-1.59-9.16-1.39Zm-2.79.2c-2.79-.2-6.77-1-7.57,1.39a60.11,60.11,0,0,0-2.19,8.56c-.2,1,3.38,2.39,5.77,2.59s6.17.2,5.38-.4-.2-.8,2.19-.8c2.19.2,2.39-.4,2.39-1,0-.4.4.6,2,1.39s2.79,3.19,4.18,4.38C294,44.18,297,46,296.38,47s.6,4.58-4.18,5.38-5,.2-5,1.39c0,1,.2,1.59,2.19,1.59,1.79,0,4.38-1.59,5.38-.4a5,5,0,0,0,2.79,1.79c.8.2-1,.8-1.39.8-.4.2,1,.4,3.58,1.59,2.79,1.19,6,1.39,4.38.6-1.59-1-2.39-2.59-3.19-3.19s0-.2,1.19.2a13.05,13.05,0,0,1,3,1.79c.6.4.8-.2,1.19-2s-.2-1.79-2.39-3.19-2.79-2.59-3-3.58,1.19-1.19,1.59-2c.6-.8,2.19,1.19,3.19,2.39s2,3.19,2.79,1.79a18.54,18.54,0,0,0,1.59-5.57c0-.8-.8,0-4.38-1.59-3.58-1.79-5.38-2.39-5.77-2.39s1-.6,2.39-1.39c1.59-.8,2.19-.6-1.19-3.78s-4.18-3.78-6.37-4S292,30.84,290.41,30s-5.18,1-6.17,1.19-.8.6-2-1.19a10.28,10.28,0,0,0-1.79-3.38Zm34-38c-1.79-.4-8.36-1.79-10.55-1.19-2.19.4-2-1-5-.8-3,.4-7.57.2-9,.4s.8.8,1.39,1.39c.8.4-3.58-.6-7,.4s-5.57,1.39-2,2.79,4,1.79,4,1.79a47.26,47.26,0,0,1-6.57-1.59c-2-.8-.8-.8-4.58.4-3.58,1-7.17,1.59-7,2.59s3,2.59,4.78,3,5.57-.6,6-.6l-1.39,1.39s1.79-.4,4-1,3.78-1.19,5.77-1.79c2-.8,2.39-1,2.39-1a31,31,0,0,1-6,3.58,22.54,22.54,0,0,1-7,1.59c-1.39,0-1.19,1,.2,1.79s2.59,2.39,3.38,3a1.88,1.88,0,0,1,.8,1.39,4.09,4.09,0,0,0-4.78,0c-2.59,1.79-2.19,2.79-1.59,3s2.79.4,3.38,1.19c.4.8,3.38-.8,3.38-.8s-1.39,1.79-2.79,1.79-1.39-1.19-3.38-1-2,.8-1,1.39c.8.8,1.59,1,0,1.59-1.59.8-2.19,1-2.39,1.79,0,.8,2,.8,3.38.8s2.59-.2,5-.2,2-.8,3-.8c.8,0,1.79.2,1.39,1.19-.4.8.4.4,3-.6s1.39-2.39,1.19-2.79-1.19-.6-1.79-1c-.6-.2,1.79-2.59,1.39-3.38s3-.2,4.38-2c1.39-2,1-3.38-.2-3.58-1-.4,2-.2,3-.6,1-.6,3-1.19,3.78-2.19s1.19-1.39-.8-1.19S301.56-2,304-3.6s5-3.38,5.57-3.78,1.19-.2-1.59,0-6-.2-4.18-.4,7.17-.8,8.56-2c1.59-1.19,2.19-1.59,2.19-1.59ZM260.95,9.14c-.4.2-1.59.2-.8.8s.6.6,1.79.2a8.46,8.46,0,0,0,2.79-1.39c.2-.2-1.19-.8-2-1a22.53,22.53,0,0,0-3.19-1.19C257,6,261.34,8.95,260.95,9.14Zm1.79-10.55c-1,1.39-2,2.39-.8,2.59s1.79,0,1.79.2c0,.4-.2.6-2,.6s-1.19.4-.2,1.59,1,.8,2.59.8,2-.6,3.19-.2,1.59.6.6,1c-1.19.4-3.78,1-3.19,1.59a9.52,9.52,0,0,0,3.38,2c.8.2,1-.6,2.79-.4s1.39.4,1.59-.2A21,21,0,0,1,273.89,6a2.49,2.49,0,0,1,1.79-1c1-.2,1.39-.6.4-.8-1-.4-2-.4-2-.8,0-.2.6-1,.2-1.39s-1-.4-1.59-.6S271.5.19,270.9-.21a18.42,18.42,0,0,1-2-1c-.8-.6-2.19-2.19-3.78-2-.8-.2-1.19.4-2.39,1.79ZM250.4,7c1,.4,1.39.6.2.8s-2.19,1-1,.8,2.19.2,3.78.4,1.39,0,2,.8,1.39.8,2.39.6,1.19-.2.6-1A23.86,23.86,0,0,0,256.17,7c-1-.4-1.59-1.19-2.59-1-1,0-1.19.2-2-.8S250.2,4.57,249,5a3.21,3.21,0,0,0-2,1.39c-1,.6,2.39.2,3.38.6Zm18.71,6.77c-1.59.2-1.19.6-3-.2a14.33,14.33,0,0,0-5-.8c-.6,0-.4.4.4,1.79.6,1.39.8,1.79,2.19,1.39s2.59-.8,3.58,1.19c1,1.79,1.59,2.39.8,3.19-.8.6-.4,1.79,0,3.19s1.59,1.39,3.19,1.39,11.35-.2,12.94-.6,3-2,3.78-2.79,1.19-1.79.2-2.79a6.32,6.32,0,0,0-4-1.59c-1.19,0-2.39.8-4.18,1-2,.2-1.39,1.39-3.19,1.39s-.8,1-3,0-3.58-2.39-2.59-2.59,1.79-.4,1.19-1c-.8-.8-1.79-2.39-3.38-2.19Zm-6.57,7a6.45,6.45,0,0,0-1.59,1.79c-.4.6,0,.6,1,1.39,1,.6,2.19.8,2.59.2.6-.8-.2-4.58-2-3.38Zm-11.15-2h0a2.26,2.26,0,0,0-.6,1.59c0,.6.6.2,1.59-.2.8-.6.4-2-1-1.39Zm3.38-2.39c-.8-.4-1.19-.8-2-.6s-.2.6-.2.8,1,0,1,.4.4.6-.8.6a5,5,0,0,0-2,.2c-.4.2.8,0,1.19.4s1,.4,2.19.4c1.19-.2,2.59-.4,2.59-.4a14.67,14.67,0,0,0-1.19,1,.85.85,0,0,0,.2,1.39c.6.2.6-.4,2.19-.4s2-.6,2-.6a.86.86,0,0,1-.4-.8v-.8a7.94,7.94,0,0,1,.8.6,8.37,8.37,0,0,1-.4-1c-.2-.6,0-.8-.4-1.59.2-1.19.4-1.39-.8-1.39s-2,.4-3,.4-1.39.2-.6.4.8.6,1.19,1,.2,1.19.2,1a14.44,14.44,0,0,1-1.79-1Zm-3-1.79c-.4-.2-.8.2-1,.4s0,.4.2.8c.2.6,0,.6.8.8.8,0,1-.2,1-.8S252.19,14.72,251.79,14.52Zm-2.79-4c-.2.2-.2.4,0,.8s.2.2.6.4.8.4.8.6.2.2.4-.2,0-.4-.6-.8c-.4-.4-.8-1-1.19-.8Zm-10.95-1a2.08,2.08,0,0,0-1.19,1c-.2.2,1-.2,1.39-.2.6-.2.6.2,1.19-.2s1.59,0,2.39-.2c1-.2,1-.6.8-1.19,0-.4-2.19,0-4.58.8Zm-3,2.79c-.2.2-.4.2.4.4s1.59.2,1.39,0a1.54,1.54,0,0,0-1.79-.4Zm4.78-1.59a9.51,9.51,0,0,0-2.79,1.19,2.15,2.15,0,0,0,.4,1.79c.4.6.4.8,2.19.2s3-1.39,2.39-1.59a9.71,9.71,0,0,1-1.39-.6c-.6,0,.4-.4,1.59-.8,1-.2,1.39-.8-2.39-.2Zm-4.58,3.58c-.6.2-.6.4.4.4.8,0,1.39-.2,1.19-.6C236.66,13.92,235.66,14.32,235.26,14.32Zm-6.37,4.18a21.83,21.83,0,0,0-2,1.59c-.2.4.2.4.8.4S228.5,19.3,228.89,18.5Zm4.78-1c-.8,0-1.19.2-2.59,1a5.41,5.41,0,0,0-2.19,3.58c-.4,1,.2,1,1.39,1.59a2.58,2.58,0,0,0,3.38-1.59c.4-1.39.8.4.6,1-.2.8.8,0,1.39-.2a13,13,0,0,1,2.19-.4,6.83,6.83,0,0,1-2.59,1.79c-1.39.6-2.39.8-2.79,1-.4,0,.4.8,2,1.19s2.59-1.19,4.78-2.19,2.19-1.19,3-1,1.59-.4,2.39-.8c1-.2,1.19.2,1.79-1.59.4-1.59,1.19-3.38-.2-3.38-1.19-.2-1.39-.2-1.59,1.79s-.2.6-.2.6A20.66,20.66,0,0,0,243,17.51c-.6-.8-.8-2.19-1.39-2.79s-.8.2-1.79,1.59c-.8,1.19-.2,1.59.8,2.19.8.6,1.59,1.79,1,2.19s-1,0-2.59.2-1.59-.6-2-.8.8-.8-1-1.79-1.79-.8-2.39-.8Zm-6.77-1.39c-1.59,1.59-2,2.79-3.19,3.78s-1,1.79-.6,2.39,1.59,0,2.19-.4,1-1.19,1.39-.8c.4.6,1.79-1.79,2.39-2.59a5.59,5.59,0,0,1,1.59-1.59c.2,0-.6,1-.2,1.59.2.8,1.39.8,2.39-.6,1-1.19.2-2.39,1-3.58.8-1,1.39-.8,0-1.79a2,2,0,0,0-2.79.6c-.4.8-1,0-4.18,3ZM250.4,26.46c-1.39,0-1.79.8-1.39.8.6.2.8-.2,1.79.6.8.6,1.59,1,2,0,.2-1-.2-1.59-2.39-1.39Zm3.38,4c-1,.4-1.59,1,0,1.79s2.19,1.59,3.38,2.19,1.59,2.59,4,1.79a5.5,5.5,0,0,0,3.58-2.79c.4-1-.4-1.19-1-2s-.8-1.19-2-1a11.85,11.85,0,0,1-1.59.2,6.13,6.13,0,0,1,2.19-1.59c1.39-.6.2-1,.8-1.59s-1.59-.8-2.59-.6-1,0-2.59-.2c-1.59,0-4,1.39-4,1.79.2.4,1.19.2,2.39.8,1,.6,1.39.6.4,2.19s-1.59-.4-2-.6C254.58,30.45,254.77,29.85,253.78,30.45ZM259,42.19c-.2.2-1.39.4-2,1s1.39.2,2.19.4c.6.2,1.19.6,1.79.8a13.31,13.31,0,0,0,4.78-.2c1.19-.4,1.39-.6,1.19-.8A19,19,0,0,0,262.54,41c-1.79-.6-1.79-.6-2.19-.6C259.75,40.6,259.15,42,259,42.19ZM221.53,29.25c.4,1,.4.4-.2,1.59s-.2,1.59-.8,2.39c-.4.8-1.79,2-1.39,2.59s1.59,1,2.19,1.39,1,1.39,2,1a18.5,18.5,0,0,0,2-1,2,2,0,0,0,1.19-1.79c0-1,0-1.39.2-1.39s.6.6,1-.2a5.22,5.22,0,0,1,1-1.79c.4-.4,1.79-1,2.39-1.59s1.59-1.19,2-1.59c.2-.4-.6-.8-1-1-.6-.2-1-1-2.19-1s-1.79,1-1.79.6-.8-.6-1.19-.8a3.74,3.74,0,0,0-2.39-.2,14.8,14.8,0,0,0-3.38.6c-1.39.4,0,1.19.4,2.19Zm22.7,1.39c.4,1.39.4,3.38-.4,2.59s-1.59-2.59-2.79-2c-1.39.8-2.79.6-2.59.4s0-1-.8-1.19c-.6-.2-1.19.2-1.79.6-.8.4-3,1-2,.2s.6-1,.4-1.79c-.4-.8-2.79.6-4,1.39s-2,2.19-2.79,3-.2,1.39,1,1.79,3,.6,1.39,1c-1.59.6-2.79.8-2,1.39a6.14,6.14,0,0,0,3.38.4,11.62,11.62,0,0,1,4.58,0,14.42,14.42,0,0,0,3.38.6,13.92,13.92,0,0,1-2.19.8c-1.39.2-4,0-5.38.2s-3.38.6-3,1a7.27,7.27,0,0,0,2.79,1.79c1.79.6,2.19,0,3.38.2s.6,1.39.8,1.59,2.39-.2,4.38-.6c2.19-.4,1.39-.6,3-1s1.79-1.59,2.59-1.79c1-.2.2.6,1.39.8s.6.4,1.79.6,1,.6,2.19.6,2.59-.8,2.39-1a.79.79,0,0,1-.2-1c.2-.6-1.19.2-1.59.4s-.4-.8.6-1.19a5.61,5.61,0,0,1,2.59,0c.6,0,0-1.59-1-1.79s-1.59-.8-3.19-1.79c-1.59-.8-.8-1.19-1.19-2.19s-1.59-4.38-2.39-4.78c-.8-.6-1.79-.4-2.79-1C244,28.46,243.83,29.25,244.22,30.65ZM307.73-2.8a5.79,5.79,0,0,1-4,4c-3.19.8-9,3.38-9.16,3.38-.2.2.4,2,1.19,2.79A12.5,12.5,0,0,1,298,9.74c.8.8,2,.8,3,1.79s1.59.6,4.38.6a42.12,42.12,0,0,1,4.78.4c3,.2,6,.4,7,1.19s2.39,4.18,3.38,6.37,2.59,5.38,2.59,5.77-1,2.79-1,3.19.6,1,1,1.59.2,1,.2,1.59a12.37,12.37,0,0,0,.6,2c0,.2,1.39-1.19,2.19-1.59.8-.2,3,1.39,3,2.59,0,2.59.8,1.79-3.58,4.78-.6.4-1.19,3.58-.8,5,.4,1.59,1.59,3.19,2.39,5.38s3.38,5.18,4,6.57c.8,1.39,1,3.19,2.79,3.78,1.79.4,3.38,1,4.78,1.39,1.19.2,2.19.6,2.79-.4.6-1.19,1.79-5.57,2.79-8.56,1-3.19,0-4.18,2.19-4.78,2.39-.8,4.78-1.59,7.17-2.59,1-.4.8-3.58,3-4.58a22.45,22.45,0,0,1,4.78-1.59A28.75,28.75,0,0,0,368.85,36c2.19-1.59,2.79-.8,3.58-2.19s-.8-3.38-1-5.38.8-2.19,1.19-4,.6-3,2.39-4.38c1.79-1.19,2.59-2,2.39-3.19a16.53,16.53,0,0,1-1.19-4.18c0-1.39.4-.6-.4-2.39s-.8-2,0-3.78c.6-1.79,2.39-1.19,2.19-2s-2.79-2-2.79-4c0-2.19.4-2.79,1-3.19.4-.6,5-4,5.18-4.18.4-.4,0-1.19,2.19-2.19s3-1.79,3.78-2c.8-.4,2.19-.2-.4-1s-3.19-1-4.78-.8S380-11.56,377-11.36a24.13,24.13,0,0,0-6.37,1.59,1.25,1.25,0,0,0,.2-1.79c-.8-.8,2.19-3.58,2.79-3.78.6-.4-4.18-1.39-6.57-1.79s-7.17-1.79-10-1.59-6.77.2-8.16.6-1.19,2.19-2.79,2.19-4.38-.8-6.57-.6c-2.19.4-5.77,1.79-6.17,1.79s1.39,1.19,2.59,1.39c1-.2,2.39,2,2.39,2s-3-1-6.17-1.79a16.12,16.12,0,0,0-8,.4,21.69,21.69,0,0,1-5.57,1.19c-2.59.2-5.38,2.19-7,3-1.39,1-6,3.38-7.17,4s-.8.8.6,1.19a26.28,26.28,0,0,0,2.59.6ZM204.41,44.58c1,0,1.19.4,2.19,0s3.58-2.19,4.58-2.39,1.39,0,.2.8c-1.39.8-4,2.39-3.58,2.19s1.79-.8,3.78-1.59c2-1,1.79-.6,2.19-1.39l.8-1.39s3,3.19,3.38,3.19c.2.2.4,0,.6-.4s.4-1,1-.8c.4.2,0,1,.4,1,.2.2.6,0,1.39-.2s.4-.8.4-.8l.8-.2A21.67,21.67,0,0,1,227.3,44a30.91,30.91,0,0,0,4.18.8c.8.2,1-.4,2,.2s1.79,1.19,1,1.59-2.59.6-1.59,1a18.85,18.85,0,0,0,3.78.6c1.39,0,4-.6,4.78-.6s1.19.4,2,1.79c.8,1.19,1.39,1.79,1.59,1.79.2.2-.2-.6-.2-1.19a3.94,3.94,0,0,0-.4-2.19c-.2-.4,0-.6-.4-1.19s-1-.4.2-1c1-.6,1.79-1.19,3-1s1.59,1.79,2.59,1.79A8.87,8.87,0,0,0,253,47c1.79.2,1,0,3.19.2,2,.2,1.39-.2,1.79-1.19s1-1.19,1.39-1.19c.6,0,2.19.2,2.19.6,0,.2-.8,1.39-.4,2a7.23,7.23,0,0,0,1.79,1.39,12.69,12.69,0,0,1-.4-1.39c0-.2-.2-1.19.2-1.39.2-.2,1.39.2,2.19-1.39s-.6-1.39-.6-1.39-.4,0-.2-.6,1.59-1,1.59-1v-.2c-.2-.6-1-.4-2-.4s-1.59-.2-1.79-1a21.68,21.68,0,0,1-.2-3.78c0-1.19,1-.8,1.19-1.39a17.68,17.68,0,0,0-.2-4.58c-.2-.6.4-2.19.4-3,.2-1,1-.6,1-.6-.2-.4.2-1.19,1.59-1.59a11.15,11.15,0,0,1,3.78,0s-.2,0-.8.8-.2,2.19-1.19,3.19-3.19.6-3.19.6.8,1.59.4,2.19a3.42,3.42,0,0,0-.4,1.59s2,.6,2.19,1.79,1.19,1.59,1.39,2.79-1,2.19-.8,2.39.4.2,1,.4a11,11,0,0,1,1.79.2,1.12,1.12,0,0,0,0,1.19c.4.6,0,1,.2,1.79,0,.6.4,1.19.6,1.19a10.65,10.65,0,0,0,1.19-2.59q.3-1.19.6-1.19c.4,0,1.59,1,1.59,1.39.2.4.2,1-.4,2s-.6,1.59,0,2,.6.2,1.59.8c1,.4.8.4,1.39.2s-.2-1.79-.2-1.79,1.39-.2,1.19-1c-.4-.8-.6-1.19,0-1.59l1.19-.8c-.2-.6-.4-.6-.8-1.79-.4-1.39.4-1,2.19-.8s2,.8,3,1.19c1,.6.4.6.6,1.39.4.8-.8,1-.8,1s-.8.2-.6.8.6,1.39,1,2.39c.6,1-.2,1.59-1,2.39a3.73,3.73,0,0,1-2.79,1c-1,0-1.39.4-1.39.2a.82.82,0,0,0-1-.4c-.6.2-1.79.6-1.39.8s1.59.2,1.19,1-.8.8-1.79.8a11.43,11.43,0,0,0-2.39-.2c-.6,0-3.58-.2-3.58-.2a27.08,27.08,0,0,0,3.58,1.79,6,6,0,0,0,3.19.2s-.6,1.19-1.39,2.59c-.8,1.19-1.59.8-2.19.8s-1,.6-2.19.8-3.78-.4-3.38-.2.6.6,1.19.6a3.58,3.58,0,0,1,1.79.8c.6.6-.4.6-1.19.8s-1,.2-1.39.8-1.79,2.39-2.19,3a7.47,7.47,0,0,0-1,2.79c-.2,1.19-1.19,2.59-.8,3s2.19.4,2.79.8,1.59,2.59,2,3.38c.6.8,1,1.39,1.59.8s1.79-.4,3,0a15.34,15.34,0,0,1,4.18,2.79c.8.8,2,.6,3.38.8s1.59.8,1.59.8,1.39,0,.8.8-.8,0-.2,1a4.61,4.61,0,0,1,.4,3.19c-.2.8,2,.4,2.79.8.8.6,1,2.59,1.39,2.39s1.19-.8,1.19-1.19A8.93,8.93,0,0,0,288,84a8.47,8.47,0,0,0-.8-3.38c-.4-.8.8-1,.6-1.19-.2-.4-.2-1,.8-1.19s1,0,1.39-.4c.6-.4.6-2.19.6-2.79a11.65,11.65,0,0,0-.4-2.59c-.2-.6-1.19-2.19-1.39-2.59-.4-.4-.8-.4.2-1.59.8-1.19.4-.8.2-1.19a5,5,0,0,1-.4-2c-.2-.8.4-1.59,0-2.79-.4-1-.6-.8-.6-1s2.19-.2,3.58,0a6.92,6.92,0,0,0,2.59-.2,4.51,4.51,0,0,1,2,1c.8.6,1.19.4,1.59,1s.6,1,1.59,1a5.88,5.88,0,0,1,1.79.4,1.87,1.87,0,0,0-.6,1.59,9,9,0,0,1-.2,2.59c0,.6.2.6.6.6s1.59,1,2.59,1.39c1.19.4,1.39.2,1.79-.6.4-1,.4-.8,1-1,.4,0,.6.2.8-.2.2-.2-.4-.6-.2-1.19a10.55,10.55,0,0,1,1.19-2c.6-.4.8.4,1.39,1.39s2,3.78,2.39,4.78,1,1,.4,1.79-.8,1.19,0,1.59,1.59,1.19,1.59,1.79-.2.6,0,.8,1.19-.4,2,0A7.73,7.73,0,0,1,318.28,79c.6.6.4.8-.2,1a7.8,7.8,0,0,0-1.79.8c-.4.2-1,.6-1,1s-.2,1,.4.4a7.36,7.36,0,0,1,2.19-1c.6-.2.2,0,.8-.2a19.28,19.28,0,0,1,2.19.6c.8.2.6.8.4,1.19-.2.6-.4,1,0,1.59s-.2,1-1,1.79a5.06,5.06,0,0,1-2.59,1A4.74,4.74,0,0,0,315.1,89c-.8.8-1.19.6-2.59.6-1.19,0-.8-.6-1.19-.4a3,3,0,0,1-1.59.6,38.87,38.87,0,0,0-4.58.4c-1,.4-.8,1-1,1.59s-.6.4-1.39.6-1.79,1.39-2.59,3A11.91,11.91,0,0,1,298,97.94a5.76,5.76,0,0,0,2.19-1.59,31,31,0,0,1,4-3.19c.8-.6,2.59-1.39,3-1.19s1.39,1,1.39,1.39-.4.8-1,1.39c-.8.6-1.79,0-1.59.2a1.57,1.57,0,0,0,1.19,1c.6.2.6.8.6,1.19s-.4.8,1,1.79a4.58,4.58,0,0,0,3.19,1.19c1,0,.4.4.8.2.4,0,.4-.8.6-1.39a4.76,4.76,0,0,1,.6-1.39c.4-.2.6-.8.8.2a2.67,2.67,0,0,1-.8,2.39c-.4.2-.4.6-.4,1,0,.2-.6.4-2,1-1.39.8-1.79,1-2,.8s-.8.2-1.39.8-1.39,1.39-1.79,1.39-.8-.2-.2-.8.8-1.59,1.59-2a1.84,1.84,0,0,1,1.39-.2c.6,0,.2-.4.8-.6.4-.4-.4-.2-1-.4-.8-.2-.2-.8-.2-.8l-.8.4a9.71,9.71,0,0,1-1.39.6c-.4,0-.2.2-.4.4,0,.2-1.19.2-1.19.2s-.6,1.19-1.39,1.39-.2.2-.8.4-.4-.2-.6-.2a2.24,2.24,0,0,1-1,.8c-.8.4-1,.6-1.59,2.59a5.42,5.42,0,0,0,0,2.79c0,.2-.8-.2-1,0a4.32,4.32,0,0,1-1.39,1.19c-.6.2-2.19.6-2.39,1-.4.4-.4.8-.6,1.59a17.24,17.24,0,0,1-1,2.39,1.22,1.22,0,0,0-.4-1.19.89.89,0,0,1-.4-1,2.71,2.71,0,0,0,0,1.39,3.94,3.94,0,0,1,.4,2.19,4.67,4.67,0,0,1-1,2c-.4.2.2-.6.2-1.19s-.4-.6-.6-1-.2-1,.2-2.19c.4-1-.4-.4-.8.2a2.78,2.78,0,0,0,0,2.79c.6.8-.4.8,0,2a2.22,2.22,0,0,1-.4,2c.2.2.6,0,.8.6s-.4.4-.6.4c-.2.2-.2.4,0,.8s.4.2.2.2a1.24,1.24,0,0,1-1,.6c-.6.2-.6-.2-1,.4-.4.4-.6.8-1,1.19a2.65,2.65,0,0,1-1,.6l-1,1a14.52,14.52,0,0,0-2.19,1.79c-.6.8-.4,1-.8,2.19-.2,1.19.8,3.38,1.39,5.57s.8,1.59.8,2.19a4.2,4.2,0,0,1-.8,2c-.4.4-.8-.4-1.39-.8s-.2-.8-.8-1.79a3.11,3.11,0,0,1-.6-2,8.56,8.56,0,0,0-.4-2.39c-.4-.8-1-1.79-2-1.39s-.8.2-1.39,0-2-.8-2.79-.4-3.19-.2-3.58,0-.8.2-.8.6-.2.4.6.6.8.6.6.8c0,.4-.8-.2-1-.4-.4-.2-.6.2-1.19.2s-.8-.6-1.19-.6a2.16,2.16,0,0,1-1.19-.2,6.33,6.33,0,0,0-1.79-.6c-.6,0-3,1.59-4,2.39a4.8,4.8,0,0,0-2.19,2.39c-.2.6-.2.8.6,1.79s.4.8.4,1.39c-.2.6-.6,1.19-1.39,2.79-.6,1.39-.2,2.19.4,3.58a15.2,15.2,0,0,0,2,3c.6.6,1,1.19,1.59,1.39a1.35,1.35,0,0,1,.8.6c.2.2.2.4,1,.2a10.73,10.73,0,0,1,2-.6c.6,0,1.19,0,1.39.4.4.2.4.2.4,0a2.1,2.1,0,0,1,.4-1c0-.2.8-1.19,1-1.79s.2-1.79.8-1.79c.8,0,2.39-.4,3.78-.4,1.39.2.8.8.4,1.59s-.6.8-.6,1.39.2.6-.2,1-.2-.2-.4.2a2.8,2.8,0,0,1-.8.8,4.05,4.05,0,0,1,.2,1v1.19c0,.8-1.59,1.59-1.59,1.59a2.75,2.75,0,0,0,1.39.4,5.88,5.88,0,0,1,2.59.4c.8.4,2.59-.4,3.78.2s.8,1,.8,1.59.2,2.59.2,3a15.75,15.75,0,0,1-1,2.59c-.4.8.8,1.59,2,2.19a7.1,7.1,0,0,0,2.59,1.19c.6.2,1.59-.8,3.58-.8a3.07,3.07,0,0,1,2.59,1.79,8.88,8.88,0,0,1,1-2.39c.8-1.39,1-1.79,2-2.19,1.19-.4,1.59-.6,3.38-1.19,2-.6,1.59-.2,2.59,0a19.15,19.15,0,0,1,5.57,1c2.19.6,5.77.8,7.17,1.39s2,2.19,3.38,3.38,3.19,2.39,3.78,3c.8.6,4.78,1.19,5.77,1.59a3.85,3.85,0,0,1,2.19,2.79c0,.8,1,1.39,2.19,1.79,1.19.6,1.59,1.19,2.39,2.79s.6,2,1.59,2.39c1.19.4,9,2.59,10.75,3.19,2,.8,4.38,2.79,5,3s1.79-.2,2.39,0-.4,1.79.4,3,.6,1.19.4,2c-.4.8-2,2.79-2.59,3.78a7.54,7.54,0,0,1-2.59,2c-.8.4-1.39,0-.8.8s0,1.39-.6,2.19,0,.6-.2,3,0,4.78-.2,5.77-1.79-.8-3.58,1.19c-1.79,2.19-2.19,3.78-3.19,4a12.06,12.06,0,0,0-4.18,2.19,6.24,6.24,0,0,0-1.59,2.19c-.6,1.19-1,3.38-1.59,4.78s-1.39,2.19-3.58,4.18-3,3.78-4.38,5.38c-1.39,1.39-1,1.19-1.19,1.39-.8.8-3.58-1.19-3-.2.6.8-.4,0,.2.8.4.8.8,1-.2,2.39-1,1.19-2.19,1-3,1.19s-2-.8-2.19-.4a3.46,3.46,0,0,1-1.19,2.19c-.6.4-2.39.8-2.39,1,.8,3.78,2.39,4.18.8,4-4.78-.4-1.39-1.59-4.78,5.38-.6,1-1,.6-1,1.79a4.76,4.76,0,0,0,.6,3c.6.8.2.8-1,1.79a10.2,10.2,0,0,0-2.39,2.59c-1,1.59-2.19,1.59-1.79,2.79s.4,3.19,1.19,5c.6,1.79,2,1.59,4.18,2.79s2.39.6,3.38,1-.8.4-2.59.8a11.58,11.58,0,0,1-4.38.4,19.77,19.77,0,0,1-5.38-2.79c-1-.8-2.79-2.19-3.38-3.38-.6-1.39-1-2.59-1.79-4.38s-.2-3,.2-7,.6-7.17,1.19-9.16c.6-2.19,2.19-11.55,2.79-14.14.4-2.39,2.59-12.34,2.79-13.94s.4-2.79.6-4.38a23.15,23.15,0,0,0,.2-5,12.66,12.66,0,0,1-.6-1.79,4.21,4.21,0,0,0-2.39-2.79c-1-.6-2.19-1.39-3-2a17.19,17.19,0,0,1-2.79-2.59c-.8-1-1.59-3.38-2.19-4.18a38.13,38.13,0,0,0-3.58-6.17c-1.39-2.19-1.59-2.19-2.19-4.58-.8-2.39.6-2.39,1-3.58.2-1.19,1.19-2.59,2-4.38,1-1.79,2.19-2.39,3-4s.2-1.59,0-3.19,0-1.39-.4-2.19a10.8,10.8,0,0,0-1.19-2.19c-.4-.2-1-.4-1.39,0s-1,1.79-1.59,1.79c-.4,0-.6-.4-.8-.6s-1.59-.2-1.79-.6a9.71,9.71,0,0,0-1.39-.6,16.45,16.45,0,0,1-2.59-1.39,3.8,3.8,0,0,1-1-2.39c0-1-1-1.39-3-3a12.82,12.82,0,0,0-5.38-2.19c-2.39-.6-3.38-2.39-4.18-2.79s-.8-1-2.59-.8-4-.8-5.38-1.39-3.78-1-4.78-1.59-2.79-1-3.58-2.59-.6-1-.4-2.39-1.79-2.59-3-4-2.19-1.59-2.79-3.19-1.59-1.59-2.79-2.79-1.19-2.79-1.79-4.18-4-3.38-4-3.38,1,2.39,1.19,3.19a21.12,21.12,0,0,0,2.39,4.78c1,1.59,2,2,2.79,3.78,1,1.59,0,2.59-.4,2s-1.79-1-1.79-1.59a6.33,6.33,0,0,0-.6-1.79c-.2-.6-1.59-1.19-3-2.39s-2.19-1.59-1.39-1.59,2,.8,1.79.2c-.2-.4-1.59-2-2.39-3a20.44,20.44,0,0,1-1.59-4c-.6-1.79-3.19-3.38-4.58-3.58-1.19-.2-1.59-.8-2-2s-.6-2.59-1-3.58c-.6-1-3-4.38-3-5.57s-.8-5,.2-7.17c.8-2.19.6-6.77.6-7.76-.2-1-1.59-2.79-1.59-3.38s1-.2,1.59,0,2.19.8,2.19.8A19.72,19.72,0,0,0,220.33,94c-.6-.8-2.79-1.59-3.58-1.79A5.21,5.21,0,0,1,214.16,91a25.38,25.38,0,0,0-1.39-2.39c-.4-.6-1.79-1.39-2.19-2.19-.4-.6-.2-2-.8-2.79a1.89,1.89,0,0,0-2-.8c-.8.2-1-.4-1.59-1.39a5,5,0,0,0-2.39-1.59A5.44,5.44,0,0,1,202,77.43a13.31,13.31,0,0,0-2.79-3.19c-.6-.4-7.37-2.59-7.57-2.59s-2.19.2-2.59.2c-.6-.2-2.19-1.59-3.19-2s-1.59.4-2,1.39-2.59,2.79-3.78,3.58-2.19.8-2,.4a4.78,4.78,0,0,1,.4-2c.4-1,.6-1.19,1.79-1.79s1.19-.6.6-.6c-.4,0-.8,0,.2-.6s1.39-.6,1.19-1.19c0-.4-2,.6-3.38,1.59a11.37,11.37,0,0,0-3.19,3.58c-1.19,1.79.2,1.19-.8,2.39s-4.18,3.58-5.18,4.58a21.62,21.62,0,0,1-6.37,3.38,5.24,5.24,0,0,0-3,1.39c-.8.8-2.79.8-2,.4.6-.4,1.79-1.39,2.59-2,.8-.4,3-1.39,3.58-1.59A13.4,13.4,0,0,0,168,80.42a15.21,15.21,0,0,0,2.19-3.19c.6-1,.8-1.39-.6-1a5.67,5.67,0,0,1-3.19,0c-.6-.2-2.39.8-3,.4s0-1.39-.4-1.79-1.79-.2-2.59-.4-2-.8-2-2-.8-2.19-.4-3.19,1.19-1.19,2-1.59a9.91,9.91,0,0,1,3.38-1.19,2.53,2.53,0,0,0,1.39-.8c.4-.4-1-1.79-1-1.79a2.18,2.18,0,0,1,.8-.4c.6-.4.2-1-.8-.8s-2.79,1-4,1.39-2.79.2-2.79-.4.4-.8-.2-1.19c-.4-.4-.8-.8-.4-1l3.19-1.59a4.84,4.84,0,0,0,2,1.19c1,.2,3.19-1.79,3.19-1.79-1.39-.8-1-1-1-1a8.34,8.34,0,0,1-2.79-.4c-.6-.4-.6-1-.8-1.59s-2.39-1-1.79-2,1.79-1.19,2.39-2.19c.8-1,1.39-2.59,3.58-3.58A58.4,58.4,0,0,0,170.16,46c1.19-.8,1.59,0,2,0,.4.2,3.19-.2,4.18-.2s1.19,1.19,1.59,1.39,9.36.6,9.36.6,7.76.2,9.36.6A39.66,39.66,0,0,1,201,50c2.59-3.19,2.39-5.38,3.38-5.38Z"/></g><g class="cls-9"><path class="cls-10" d="M307.54,191.44H289.18l-3.81,12.21H273.51L292.61,147h11.63l19,56.62H311.39ZM292,182.54h12.79l-6.26-19.95h-.23Z"/><path class="cls-10" d="M336.51,161.58l.47,5.56a14.14,14.14,0,0,1,5.07-4.69,14.59,14.59,0,0,1,7.06-1.65,12.86,12.86,0,0,1,6.92,1.79,11,11,0,0,1,4.35,5.4,14.58,14.58,0,0,1,5.06-5.29,13.72,13.72,0,0,1,7.31-1.91,12,12,0,0,1,9.82,4.41q3.6,4.41,3.6,13.47v25H374.81v-25q0-5.05-1.56-7a5.52,5.52,0,0,0-4.63-2,7.93,7.93,0,0,0-4.18,1.07,7.79,7.79,0,0,0-2.82,3q0,.74,0,1.26t0,1.07v27.65H350.39v-25q0-4.94-1.56-7a5.5,5.5,0,0,0-4.67-2,8.8,8.8,0,0,0-4,.88,7.71,7.71,0,0,0-2.86,2.47v30.68H326V161.58Z"/><path class="cls-10" d="M419.68,203.65a23.76,23.76,0,0,1-1.07-3,21,21,0,0,1-.64-3.27,15.56,15.56,0,0,1-4.63,5.09,11.6,11.6,0,0,1-6.84,2q-6.61,0-10.19-3.4t-3.58-9.27a11.09,11.09,0,0,1,4.76-9.58q4.76-3.4,13.9-3.4h6.38v-3.34a6.54,6.54,0,0,0-1.59-4.7,6.26,6.26,0,0,0-4.74-1.67,6.17,6.17,0,0,0-4.26,1.34,4.68,4.68,0,0,0-1.5,3.67H394.76l-.08-.23q-.27-5.33,4.65-9.2t12.85-3.87q7.58,0,12.27,3.81t4.69,10.93v17.38a32.85,32.85,0,0,0,.45,5.56,27.85,27.85,0,0,0,1.42,5.17Zm-10.38-7.58a9.67,9.67,0,0,0,5.29-1.48,8,8,0,0,0,3.19-3.42v-5.95H411.4a7.56,7.56,0,0,0-5.46,1.79,5.88,5.88,0,0,0-1.85,4.39,4.39,4.39,0,0,0,1.38,3.4A5.46,5.46,0,0,0,409.3,196.07Z"/><path class="cls-10" d="M450.32,194.94h20.84v8.71h-35V197l20-26.6h-19.4v-8.79H470.5v6.49Z"/><path class="cls-10" d="M475.95,182.23q0-9.41,5.25-15.42t14.54-6q9.33,0,14.62,6t5.29,15.44V183q0,9.49-5.27,15.46t-14.56,6q-9.33,0-14.6-6T475.95,183Zm11.31.82a18.3,18.3,0,0,0,2,9.24,7.77,7.77,0,0,0,13,0,18.18,18.18,0,0,0,2-9.22v-.82a18,18,0,0,0-2.06-9.14,7,7,0,0,0-6.49-3.54,6.89,6.89,0,0,0-6.44,3.56,18.16,18.16,0,0,0-2,9.12Z"/><path class="cls-10" d="M533,161.58l.51,6a15.39,15.39,0,0,1,5.17-5,13.43,13.43,0,0,1,6.88-1.79q6.38,0,10,4.1t3.58,13v25.78H547.73V177.91q0-4.51-1.57-6.4a5.81,5.81,0,0,0-4.72-1.89,9.92,9.92,0,0,0-4.45,1,8.7,8.7,0,0,0-3.17,2.63v30.45H522.45V161.58Z"/></g><g class="cls-9"><path class="cls-10" d="M276.6,122.46h.14l10.85-27.6h5.72v34h-4.6V103.37l-.14,0-10.29,25.48h-3.2l-10.59-26.32-.14,0v26.29h-4.6v-34h6Z"/><path class="cls-10" d="M326.31,94.86v22.56a11,11,0,0,1-3.64,8.75,13.82,13.82,0,0,1-9.38,3.15,13,13,0,0,1-9.05-3.16,11.14,11.14,0,0,1-3.52-8.74V94.86h4.6v22.56a8.2,8.2,0,0,0,2.23,6.1,7.83,7.83,0,0,0,5.75,2.2,8.51,8.51,0,0,0,6.08-2.2,8,8,0,0,0,2.34-6.1V94.86Z"/><path class="cls-10" d="M350.62,120.08H337.84l-3,8.75h-4.69l12.25-34h3.94l12,34h-4.69Zm-11.46-3.85h10.15l-4.95-14.58h-.14Z"/><path class="cls-10" d="M400.86,128.83h-4.6v-15H379.77v15h-4.6v-34h4.6v15.35h16.49V94.86h4.6Z"/><path class="cls-10" d="M426.75,120.08H414l-3,8.75h-4.69l12.25-34h3.94l12,34h-4.69Zm-4.46-28.6h-3.69l-5.83-6.07.07-.14h5.37Zm-7,24.75h10.15l-4.95-14.58h-.14Z"/><path class="cls-10" d="M465.11,128.83h-4.6l-16.35-25.94-.14,0v25.9h-4.6v-34H444l16.35,25.92.14,0V94.86h4.6Z"/><path class="cls-10" d="M497.49,124.26a10.93,10.93,0,0,1-4.21,3.48,16.6,16.6,0,0,1-7.78,1.59,13.1,13.1,0,0,1-9.73-3.9,13.73,13.73,0,0,1-3.85-10.08v-7a14,14,0,0,1,3.71-10.08,12.62,12.62,0,0,1,9.57-3.9q5.67,0,9,3a9.7,9.7,0,0,1,3.2,7.69l0,.14H492.9a7.12,7.12,0,0,0-2-5.17A7.57,7.57,0,0,0,485.2,98a7.7,7.7,0,0,0-6.28,2.92,11.32,11.32,0,0,0-2.38,7.4v7a11,11,0,0,0,2.52,7.45,8.11,8.11,0,0,0,6.44,2.93,12,12,0,0,0,4.77-.78,6.87,6.87,0,0,0,2.63-1.85v-7.65h-7.7v-3.59h12.3Z"/><path class="cls-10" d="M541,98.48h-11.2v30.35h-4.6V98.48H514.2V94.86H541Z"/><path class="cls-10" d="M570.94,94.86V99l.14,0a5.24,5.24,0,0,0,3.08-2.53,9.72,9.72,0,0,0,1.07-4.82h4.43l.07.12a11.13,11.13,0,0,1-2.24,7.34,10.54,10.54,0,0,1-6.56,3.63v14.63a11,11,0,0,1-3.64,8.75,13.82,13.82,0,0,1-9.38,3.15,13,13,0,0,1-9.05-3.16,11.14,11.14,0,0,1-3.52-8.74V94.86h4.6v22.56a8.2,8.2,0,0,0,2.23,6.1,7.83,7.83,0,0,0,5.75,2.2,8.51,8.51,0,0,0,6.08-2.2,8,8,0,0,0,2.34-6.1V94.86Zm-10.85-3.38H556.4l-5.83-6.07.07-.14H556Z"/></g></g></svg>