<svg xmlns="http://www.w3.org/2000/svg" width="97" height="150" viewBox="0 0 97 150">
    <defs>
        <filter id="a" width="201.2%" height="165.9%" x="-50.6%" y="-32.9%" filterUnits="objectBoundingBox">
            <feOffset dx="7" dy="2" in="SourceAlpha" result="shadowOffsetOuter1"/>
            <feGaussianBlur in="shadowOffsetOuter1" result="shadowBlurOuter1" stdDeviation="7"/>
            <feColorMatrix in="shadowBlurOuter1" result="shadowMatrixOuter1" values="0 0 0 0 0 0 0 0 0 0 0 0 0 0 0 0 0 0 0.2 0"/>
            <feMerge>
                <feMergeNode in="shadowMatrixOuter1"/>
                <feMergeNode in="SourceGraphic"/>
            </feMerge>
        </filter>
        <radialGradient id="b" cx="50.018%" cy="49.978%" r="51.358%" fx="50.018%" fy="49.978%" gradientTransform="matrix(1 0 0 .94985 0 .025)">
            <stop offset="0%" stop-color="#B24347"/>
            <stop offset="36%" stop-color="#AE4447"/>
            <stop offset="72%" stop-color="#A14648"/>
            <stop offset="100%" stop-color="#934949"/>
        </radialGradient>
    </defs>
    <g fill="none" fill-rule="evenodd" filter="url(#a)" transform="translate(1 11)">
        <path fill="#B24347" fill-rule="nonzero" d="M50.725 89.07s16.756 3.654 20.774-.308c4.017-3.962 2.092-8.118-1.635-7.116-3.728 1.001-19.446 3.804-19.446 3.804l.307 3.62z"/>
        <path fill="#231F20" fill-rule="nonzero" d="M71.499 88.736c-4.018 3.962-20.774.307-20.774.307l-.132-1.493c5.38.755 19.833 2.539 21.1-3.515a3.038 3.038 0 0 0-.423-2.591c2.743.351 3.693 3.9.229 7.292z" opacity=".05"/>
        <path fill="#246398" fill-rule="nonzero" d="M73.116 82.682a9.858 9.858 0 0 0-1.283-.57 1.161 1.161 0 0 0-.615-.071.193.193 0 0 0-.132.167 1.16 1.16 0 0 1-.15.369 2.638 2.638 0 0 1-1.248.79l-.668.238a1.284 1.284 0 0 0-.607.316c.097-.228.36-.325.554-.448l.642-.307a2.98 2.98 0 0 0 1.099-.747c.058-.085.1-.18.123-.281a.466.466 0 0 1 .307-.343c.261-.049.53-.009.765.114.44.197.85.457 1.213.773z"/>
        <path fill="#B24347" fill-rule="nonzero" d="M28.72 88.147s-17.054 1.836-20.623-2.53c-3.57-4.367-1.205-8.303 2.4-6.906 3.604 1.397 18.927 5.87 18.927 5.87l-.703 3.566z"/>
        <path fill="#231F20" fill-rule="nonzero" d="M8.105 85.617c3.57 4.393 20.625 2.53 20.625 2.53l.281-1.467c-5.433.176-19.991.395-20.624-5.72a3.039 3.039 0 0 1 .703-2.53c-2.734-.018-4.061 3.418-.985 7.187z" opacity=".05"/>
        <path fill="#246398" fill-rule="nonzero" d="M7.147 79.388a4.898 4.898 0 0 1 1.284-.642c.25-.087.523-.087.773 0a.466.466 0 0 1 .273.378c.011.101.04.2.088.29a2.98 2.98 0 0 0 1.01.879l.607.377c.185.141.431.264.502.501a1.284 1.284 0 0 0-.572-.386l-.642-.308A2.637 2.637 0 0 1 9.32 79.6a1.16 1.16 0 0 1-.106-.387.193.193 0 0 0-.114-.176 1.161 1.161 0 0 0-.615 0c-.454.086-.9.204-1.337.352z"/>
        <path fill="url(#b)" fill-rule="nonzero" d="M27.675 83.42s-8.466 25.918 3.103 38.227a2.638 2.638 0 0 0 1.925.835h5.978a1.653 1.653 0 0 0 1.583-1.24c.529-2.117.678-4.313.44-6.483a21.295 21.295 0 0 0 8.79-2.038c2.787 3.988 4.106 5.324 5.275 5.543 3.983-2.126 5.846-2.082 8.484-5.192a.878.878 0 0 0-.062-1.23c-2.18-2.1-4.518-5.219-5.275-12.625-1.002-9.445-10.197-17.571-10.197-17.571L27.675 83.42z"/>
        <path fill="#F6F1EB" fill-rule="nonzero" d="M29.073 84.888s-8.15 32.999 14.84 27.86c22.988-5.14 2.513-31.454.711-32.719-1.802-1.265-16.642 1.828-15.551 4.859z"/>
        <path fill="#231F20" fill-rule="nonzero" d="M30.048 84.343c-.255-.712.378-1.423 1.504-2.082-1.759.79-2.805 1.695-2.48 2.635 0 0-8.149 33 14.84 27.86 3.912-.879 6.558-2.364 8.255-4.235a16.216 16.216 0 0 1-7.429 3.453c-22.76 5.087-14.69-27.631-14.69-27.631z" opacity=".05"/>
        <path fill="#246398" fill-rule="nonzero" d="M27.007 83.543s1.696 5.043 12.852 5.043 12.888-3.075 13.68-5.043c.79-1.968-20.88-5.939-26.532 0z"/>
        <ellipse cx="38.251" cy="90.774" fill="#246398" fill-rule="nonzero" rx="3.156" ry="3.075"/>
        <path fill="#F6F1EB" fill-rule="nonzero" d="M41.319 90.159v-.105l-.106.07a.053.053 0 0 0 0 .044v.052c0 .01 0 0 .062-.043H41.389l-.07-.018zM36.044 90.695s0-.009 0 0zM38.505 92.347a1.09 1.09 0 0 0 .132-.14.325.325 0 0 0 .044-.115.105.105 0 0 1 .053-.044s.053-.167.088-.21a.597.597 0 0 0 .07-.273.878.878 0 0 1 0-.211.281.281 0 0 1 .07-.088l.133-.184a.395.395 0 0 0 .052-.167h-.079a.211.211 0 0 1-.088 0s-.061-.097-.088-.115c-.026-.017-.052-.131-.061-.149l-.07-.088v-.088c0-.017 0 0 0 0 .028.053.06.102.096.15l.088.167h.176a.264.264 0 0 0 .088-.062s.061 0 .079-.053c.017-.052 0-.088.044-.096.044-.01 0-.08 0-.097a.114.114 0 0 0-.088 0s0-.044-.053-.061c-.053-.018-.061-.044-.061-.062 0-.017 0 0 0 0a.404.404 0 0 1 .123.088c.023.03.044.063.061.097.029.01.06.01.088 0h.158a.15.15 0 0 1 .044.079v.061c0 .009.053.088.062.114a.711.711 0 0 0 .053.106.255.255 0 0 1 0 .079c.014.006.03.006.044 0 0 0 .052-.106.061-.15a.114.114 0 0 1 .044-.07h.053c.009 0 0-.079 0-.096l.097-.053s.07 0 .079.053a.167.167 0 0 1 0 .079s0 .052.052.052c.053 0 0 0 0 .044v.062a.14.14 0 0 1 0 .07.228.228 0 0 0 0 .08.8.8 0 0 0 .124.122s.043-.053 0-.07l-.08-.097a.193.193 0 0 1 0-.096h.062a.132.132 0 0 1 0 .052s.114-.052.114-.114a.676.676 0 0 1 .044-.158s0-.053.044-.053.106-.079.123-.114a.255.255 0 0 1 .062-.062.562.562 0 0 0 0-.114.334.334 0 0 0 0-.096.316.316 0 0 0 0-.07.14.14 0 0 1 0-.062v-.053c0-.053 0 0 0 0s0 .088.053.097c.052.009.087-.088.079-.14a.184.184 0 0 1 0-.141.281.281 0 0 0 .061-.07 3.074 3.074 0 0 0-.395-1.266.08.08 0 0 1-.062-.061l-.105-.097h-.097-.044H39.824l-.044.044h-.053v.062h-.043-.044c-.044 0 0 0 0 0h-.106c-.053 0-.07.052-.097.079a.273.273 0 0 1-.15 0v.052h-.078a.545.545 0 0 0-.15.053h-.044c-.044 0 0 .07-.052.088-.053.017 0-.062-.088-.07l-.132-.062a.264.264 0 0 1-.07-.061.202.202 0 0 0-.088 0 .281.281 0 0 0-.097.043h-.044l-.097.088a.79.79 0 0 0-.088.123.062.062 0 0 1-.044 0s-.079.044-.088.08a.781.781 0 0 0 0 .14s0 .08.053.08 0 .043 0 .06c0 .018 0 0 0 0h-.07a.123.123 0 0 0-.044.053h-.07a.061.061 0 0 0 0-.052v-.115l-.053-.061h-.053c-.053 0 0 .097 0 .123a.079.079 0 0 0 0 .061v.176h-.088.053-.08l-.06.053s0 .061.052.07c.053.009 0 0 0 .053h-.123s-.07.07-.07.096a.57.57 0 0 0 0 .115H37.803s.052-.062.06-.097c.01-.035.08-.088.089-.114.008-.027.088 0 .105 0 .018 0 0 .053 0 .088 0 .035.08 0 .07 0-.008 0 0-.044 0 0s.07 0 .08.061c.008.062 0 .062 0 .062v.052c0 .053 0-.052.052-.061.053-.009 0 0 0-.044a.378.378 0 0 0-.061-.097h.044v.097a.334.334 0 0 1 0 .079c.014.005.03.005.044 0v-.088-.053.07a.176.176 0 0 0 0 .053h.176c.043 0 0 0 0 0v.088c0 .027-.141 0-.194 0a.238.238 0 0 0-.15 0s-.096 0-.131-.052c-.035-.053-.07-.08-.08-.088-.008-.01 0 0 0 0h-.325a.185.185 0 0 1-.096 0s-.053 0-.07.052c-.018.053 0 .07-.053.141v.044a.703.703 0 0 0-.115.167.764.764 0 0 0 .062.448c.036.049.08.09.132.123.05.008.1.008.15 0a.097.097 0 0 0 .078-.062h.062s.07 0 .079.053a.14.14 0 0 0 .07 0v.14a.641.641 0 0 0 0 .185s.053.132.053.167a1.58 1.58 0 0 1 0 .185.711.711 0 0 0 .062.184.632.632 0 0 1 0 .14s.061.133.07.185c.009.053.396.492.44.475zM36.211 90.546s.018 0 0 0zM36.114 90.669h.132c.062 0 0-.07 0-.07h-.264a.097.097 0 0 0-.07 0h.062a.158.158 0 0 1 .096 0 .08.08 0 0 0 .07 0s-.026.052-.026.07zM36.132 90.493s.009 0 0 0zM36.308 90.695h.052c.01 0 0 0 0 0h-.052z"/>
        <path fill="#F6F1EB" fill-rule="nonzero" d="M36.132 91.767c.033.043.06.09.079.14a.228.228 0 0 1 0 .088v.044a.755.755 0 0 0 0 .14v.677a.878.878 0 0 0 .053.123v.08h.14v-.071-.088l.053-.053v-.079-.114c0-.035.062-.07.07-.096.01-.027.08-.062.097-.07a.176.176 0 0 0 0-.115h.044s0-.088.053-.105a.14.14 0 0 0 0-.08.246.246 0 0 1 0-.07l.097-.052a.544.544 0 0 0 0-.159 1.098 1.098 0 0 1 0-.105.702.702 0 0 1 0-.07.334.334 0 0 0 .052-.07v-.132s-.052-.08-.061-.07c-.009.008-.053 0-.08 0h-.096l-.088-.045h-.088s0-.088-.07-.114a.492.492 0 0 1-.132-.114l-.123-.088a.106.106 0 0 0-.07 0s0-.044-.053-.061c-.053-.018-.07 0-.07 0h-.088c-.044 0-.053.07-.08.087-.026.018 0 0-.052 0h-.08s-.043-.07 0-.105c.045-.035 0-.105-.061-.105-.062 0 0-.08 0-.106 0-.026-.053-.044-.07-.044-.018 0-.053 0-.062.053-.009.053-.15 0-.132-.105a.369.369 0 0 1 .097-.176c.04-.01.083-.01.123 0h.097s.053.088.079.105c.026.018 0-.052 0-.07a.158.158 0 0 0 0-.07.228.228 0 0 1 .07-.132.158.158 0 0 0 .07-.08v-.105l.097-.061a.079.079 0 0 0 0-.07s.053-.062.088-.07c.035-.01.062 0 .053 0h.07v-.062-.062-.052c0-.053.07 0 .097 0 .026 0 0 .052 0 .079h.053s-.044-.044-.053-.062a1.097 1.097 0 0 1 0-.14v-.053s0-.053-.044-.07a.079.079 0 0 1 0-.053s-.053-.062-.062-.088c-.008-.026 0 0 0 0h-.052c-.053 0 0-.062 0-.08 0-.017-.07 0-.08 0h-.061a.07.07 0 0 0-.053 0v.203c0 .044 0 .08-.052.08-.053 0 0 0 0 0v.078c0 .035 0 0 0 0v-.061c0 .008 0 0 0 0s-.07 0-.097-.044c-.027-.044 0-.088-.053-.097-.053-.009 0 0 0 0s.044-.053.062-.07a.879.879 0 0 1 .088-.097.088.088 0 0 0 0-.061h.114l.053-.097a.079.079 0 0 0 0-.061h.132l.087.052v.132c-.07 0-.096.08-.07.08a.607.607 0 0 1 .176.07l.053-.053a.132.132 0 0 0 0-.088h.052c.053 0 0 0 0 0v-.062c0-.008 0 0 0 0h-.07c-.018 0 0 0 0-.052v-.062c0-.009-.062 0-.08 0-.017 0 0 0-.043-.044h-.097s-.053-.053-.079 0c-.026.053-.061 0-.07 0-.009 0-.08.062-.08.114a.14.14 0 0 0 0 .097v.061c0 .018 0 0 0 0v-.087a.158.158 0 0 0-.06 0l-.045.052a.097.097 0 0 1 0 .053l-.184.237v.062l-.106.167-.044.079-.105.21-.062.141v.088l-.053.167v.044a3.012 3.012 0 0 0-.079.413v.053s.062.044.07.052c.01.01 0-.052 0-.07 0-.018 0 0 0 0a.422.422 0 0 0 .062.08s0 .14.044.157a.58.58 0 0 0 .202.088.246.246 0 0 1 .115.07h.079l.052.053s.08 0 .097.053v.061a.105.105 0 0 1 0 .07.817.817 0 0 1 0 .097c-.01.05-.01.1 0 .15.012.031.034.059.062.079v.123c0 .017.052.061.052.07 0 .009.08-.422.106-.404zM36.211 88.499c.035.006.07.006.105 0 0 0 0-.08.053-.097a.8.8 0 0 1 .123-.053l.08-.061v-.053c0-.009.061-.044.079-.053.017-.009 0 0 0 0l-.141.07-.229.15-.202.158-.061.053.193-.114zM36.044 89v.06s.053-.078.08-.06l-.089-.045s.009.035.009.044z"/>
        <path fill="#F6F1EB" fill-rule="nonzero" d="M37.662 88.323a.114.114 0 0 0 0-.07h.07v-.044h-.07a.194.194 0 0 0-.097 0v-.053-.044h-.185a1.355 1.355 0 0 1-.14 0h-.167v.061c0 .01-.097 0-.132 0-.087.01-.173.031-.255.062-.044 0-.08.088-.07.088.008 0 0 0-.053.044s-.08 0-.097 0c-.018 0 0 0 0 0h.08-.071v.061c0 .009.079 0 .079 0h.097c.026 0 .052.07.052.088a.21.21 0 0 1 0 .08h.062c.009 0 0 0 0 0V88.761c0 .053.053.123.053.185 0 .061 0 .105.052.105h.07c.01 0 0 0 0 0l.045-.062c.02-.048.037-.098.052-.149h.132l.115-.053s.061-.079.079-.096c.017-.018 0 0 0 0h.149c-.009 0 0 0 0 0v-.044c0-.044.062-.062.053-.114-.009-.053 0-.097 0-.097v-.061c0-.01.088-.044.097-.053zM41.213 91.248h.123c.01 0-.123-.052-.123 0zM39.93 90.976s.061.07.07.062a.132.132 0 0 0 0-.08s-.053-.008-.07.018zM41.116 90.94h.062c.062 0 0-.06 0-.07 0-.008 0-.052-.053-.052-.052 0 0 0 0 0h-.052c-.053 0 0 0 0 0l.043.123zM40.589 91.301a.378.378 0 0 0-.097-.114s-.061-.053-.061-.062c0-.008 0 0 0 0h.053c.052.08.099.161.14.246 0 0-.026 0-.035-.07zM41.319 91.609h-.097s-.062 0-.08.044a.246.246 0 0 0-.06.087h-.071c-.018 0-.053 0-.053.053a.237.237 0 0 1-.088.114v.123a.158.158 0 0 0 0 .097v.08a.097.097 0 0 0 0 .087h.115a3.03 3.03 0 0 0 .334-.747v.062z"/>
        <path fill="#F6F1EB" fill-rule="nonzero" d="M41.319 91.284h-.062c-.009 0 0 0 0 0h.08v-.088l-.018.088zM38.971 92.048h.07a.264.264 0 0 0 .062-.097.448.448 0 0 0 0-.079.123.123 0 0 0 0-.052 1.458 1.458 0 0 0 0-.176l-.088.088a.184.184 0 0 0 0 .096.14.14 0 0 1 0 .07.694.694 0 0 0-.044.15zM41.046 91.196s-.088.079-.079.123c.009.044 0 .044 0 0s.044 0 .062 0c.017 0 0 0 0 0a.088.088 0 0 1 0-.08s.044-.035.017-.043zM41.055 90.686v-.044.097c0 .009-.009-.035 0-.053zM40.94 91.204v-.096c0-.009 0-.053-.052-.062-.053-.008-.088.132-.132.15a.123.123 0 0 0-.053.123H40.87c.044 0 0 0 0 0v-.062l.07-.053zM40.94 90.493v.07c0 .009 0 0 0 0s.018-.114 0-.07zM40.598 91.45s.14 0 .184.044h.062l-.167-.079a.07.07 0 0 0-.08.035z"/>
        <path fill="#231F20" fill-rule="nonzero" d="M38.215 93.708a2.963 2.963 0 0 1-2.269-4.808 2.964 2.964 0 0 1 2.955-1.043c.275.032.544.1.8.202a3.245 3.245 0 0 0-1.081-.325 3.098 3.098 0 0 0-3.199 4.304 3.097 3.097 0 0 0 2.487 1.846 3.22 3.22 0 0 0 1.828-.325 3.105 3.105 0 0 1-1.52.15z" opacity=".05"/>
        <path fill="#CA464A" fill-rule="nonzero" stroke="#CA464A" stroke-linecap="round" stroke-linejoin="round" stroke-width="1.23" d="M41.556 101.695c-4.923 1.098-9.108 1.581-10.048 1.195.014.523.079 1.044.193 1.555 1.099 4.884 6.444 7.854 11.956 6.615 5.512-1.239 9.09-6.185 7.983-11.079a8.123 8.123 0 0 0-.493-1.484c-.677.782-4.668 2.1-9.591 3.198z" opacity=".2"/>
        <path fill="#F6F1EB" d="M32.167 105.666l-.185.079.132.307.185-.079zM31.965 105.121l-.194.062c.027.108.063.213.106.316l.193-.07a2.046 2.046 0 0 1-.105-.308zM31.807 104.55l-.194.053.088.325.194-.062zM33.002 107.22l-.167.115.194.281.158-.123zM32.686 106.729l-.176.105c.05.1.105.197.167.29l.167-.105a2.521 2.521 0 0 1-.158-.29zM32.404 106.21l-.184.097.167.29.176-.097zM34.145 108.574l-.14.14.246.229.131-.15zM33.732 108.152l-.15.14c.08.08.141.176.229.247l.14-.14c-.078-.08-.149-.168-.22-.247zM33.345 107.704l-.158.132.22.255.158-.132zM35.534 109.663l-.114.167.29.176.097-.167zM35.042 109.33l-.123.166.272.202.114-.166zM34.576 108.97l-.132.157.272.202.124-.158zM37.099 110.48l-.08.185.317.123.07-.193zM36.563 110.234l-.088.185.299.15.079-.185zM36.044 109.97l-.097.177.3.149.096-.185zM38.787 111.016l-.044.194.325.061.044-.202z"/>
        <path fill="#F6F1EB" fill-rule="nonzero" d="M38.166 111.063l.055-.195.322.091-.055.195z"/>
        <path fill="#F6F1EB" d="M37.653 110.7l-.07.193c.103.042.208.077.316.106l.061-.194a2.55 2.55 0 0 1-.307-.105zM40.545 111.254v.202h.334v-.203c-.123.01-.228.018-.334 0zM39.956 111.2l-.026.203.334.026.017-.202zM39.367 111.122v.202c.114 0 .22.044.334.052v-.202c-.14-.008-.22-.035-.334-.052zM42.312 111.21l.018.193.334-.027-.027-.202zM41.723 111.254l.009.202.334-.027-.018-.202zM41.134 111.262v.202h.334l-.009-.202zM44.053 110.885l.052.193.326-.088-.062-.193zM43.481 111.025v.202l.326-.07-.044-.193zM42.901 111.13l.035.203.326-.062-.036-.202zM45.732 110.313l.079.185.299-.15-.088-.184zM45.178 110.524l.07.194.317-.115-.08-.193zM44.624 110.726l.062.194.316-.115-.07-.184zM47.288 109.47l.114.167c.097-.053.185-.132.273-.193l-.115-.167c-.087.07-.175.14-.272.193zM46.778 109.778l.106.175.29-.175-.115-.167zM46.268 110.05l.088.184c.097-.052.202-.087.299-.149l-.097-.176a4.382 4.382 0 0 1-.29.14zM48.686 108.39l.14.149c.087-.071.17-.147.247-.229l-.141-.15c-.077.082-.16.159-.246.23zM48.246 108.776l.123.158.255-.22-.132-.158zM47.771 109.127l.124.167.272-.193-.123-.158zM49.881 107.09l.159.122.202-.264-.167-.114zM49.512 107.546l.158.132.211-.264-.158-.123zM49.116 107.976l.141.141.229-.246-.15-.132zM50.822 105.596l.185.087.149-.298-.185-.088zM50.55 106.114l.175.105c.053-.096.106-.202.159-.298l-.176-.097-.159.29zM50.224 106.606l.176.114.176-.281-.167-.105zM51.455 103.944l.202.052.088-.325-.193-.044zM51.297 104.55l.193.07c0-.105.062-.21.097-.325l-.194-.061c-.035.061-.061.175-.096.316zM51.077 105.05l.185.08.123-.308-.185-.07zM51.745 102.204l.202.009.018-.334h-.202zM51.701 102.793h.202a2.634 2.634 0 0 0 0-.334h-.202c.007.111.007.223 0 .334zM51.596 103.373l.202.035.053-.334-.194-.026zM51.648 100.447l.194-.035-.053-.334-.193.044zM51.727 101.036h.203a2.151 2.151 0 0 0 0-.334h-.203c.01.111.01.223 0 .334zM51.754 101.616l.202-.01-.009-.333-.21.009zM48.51 99.85l-.07-.194-.335.115.062.193zM49.108 99.63l-.07-.193-.335.123.07.193zM49.697 99.393l-.08-.185-.325.123.08.194zM46.681 100.438l-.052-.193-.343.105.061.194z"/>
        <path fill="#F6F1EB" fill-rule="nonzero" d="M46.89 100.162l.335-.106.061.193-.335.106z"/>
        <path fill="#F6F1EB" d="M47.895 100.052l-.062-.194-.334.115.061.193zM44.844 100.965l-.053-.202-.343.097.053.193z"/>
        <path fill="#F6F1EB" fill-rule="nonzero" d="M45.062 100.693l.339-.094.054.195-.339.094z"/>
        <path fill="#F6F1EB" d="M46.066 100.623l-.053-.194-.343.097.053.193z"/>
        <path fill="#F6F1EB" fill-rule="nonzero" d="M42.59 101.33l.342-.082.048.196-.342.083z"/>
        <path fill="#F6F1EB" fill-rule="nonzero" d="M42.891 101.294l.341-.085.049.197-.341.084z"/>
        <path fill="#F6F1EB" d="M44.22 101.132l-.053-.202-.343.088.053.193z"/>
        <path fill="#F6F1EB" fill-rule="nonzero" d="M40.736 101.737l.344-.075.043.197-.344.075z"/>
        <path fill="#F6F1EB" d="M41.74 101.73l-.043-.202-.343.079.044.202z"/>
        <path fill="#F6F1EB" fill-rule="nonzero" d="M41.972 101.46l.343-.08.046.197-.343.08z"/>
        <path fill="#F6F1EB" d="M39.244 102.248l-.035-.193-.352.061.044.202z"/>
        <path fill="#F6F1EB" fill-rule="nonzero" d="M39.48 101.996l.344-.07.04.199-.345.07zM40.103 101.869l.344-.072.041.197-.344.073z"/>
        <path fill="#F6F1EB" d="M37.363 102.59l-.036-.201-.351.061.035.194z"/>
        <path fill="#F6F1EB" fill-rule="nonzero" d="M37.611 102.342l.346-.06.035.198-.346.061z"/>
        <path fill="#F6F1EB" d="M38.62 102.371l-.044-.202-.343.062.035.202zM35.464 102.872l-.018-.202-.351.044.017.202z"/>
        <path fill="#F6F1EB" fill-rule="nonzero" d="M35.727 102.628l.348-.05.028.2-.348.05z"/>
        <path fill="#F6F1EB" d="M36.73 102.696l-.035-.202-.343.053.026.202zM33.565 103.065l-.018-.202-.351.018.008.202zM34.198 103.013l-.018-.203-.351.036.017.202zM34.83 102.951l-.026-.202-.351.035.026.202zM51.675 99.744l-.202.053-.062-.246-.08-.246.194-.062.08.246zM51.182 98.356l.106.246.097.246-.185.07-.08-.193-.008.009h-.035l-.009.009-.009.008-.052.036-.088.061-.115-.176.106-.07.026-.017.027-.018.044-.044.096-.08.044-.043.018-.026.009-.01zM50.453 98.883l.096.176-.061.035-.053.026-.123.062-.237.114-.088-.184.237-.115.114-.052.062-.035zM32.844 102.933v.202l-.132.01h-.123l-.14-.01h-.124v-.202h.264l.123.01zM31.446 102.775l.053.018.035.017.018.01h.008l.115.034.061.018h.035l.027.009.123.017-.026.202-.106-.017-.053-.009h-.026l-.026-.009-.01.009-.026.018v.026l.01.053.008.096-.202.018-.018-.264-.009-.132v-.105zM31.499 103.707l.202-.027.035.255.044.246-.193.044-.053-.264z"/>
        <ellipse cx="33.479" cy="104.816" fill="#F6F1EB" fill-rule="nonzero" rx="1.055" ry="1.054" transform="rotate(-12.63 33.48 104.816)"/>
        <ellipse cx="50.313" cy="101.053" fill="#F6F1EB" fill-rule="nonzero" rx="1.055" ry="1.054" transform="rotate(-12.63 50.313 101.053)"/>
        <path fill="#B24347" d="M29.591.931c-11.595 1.652-3.35 35.793 4.94 34.616C42.823 34.37 41.188-.72 29.592.931z"/>
        <path fill="#246398" d="M30.444 6.537c-7.402 1.054-1.029 27.358 4.264 26.603C40 32.384 37.802 5.482 30.444 6.537z"/>
        <path fill="#B24347" d="M67.886 12.906c3.279 1.757 4.817 5.272 4.44 6.554-3.034 10.078-13.522 22.132-18.462 19.505-5.16-2.75-.202-19.505 6.936-27.315 1.512-1.626 3.807-.492 7.086 1.256z"/>
        <path fill="#246398" d="M67.692 13.1c6.594 3.514-8.395 26.058-13.107 23.545-4.712-2.513 6.479-27.069 13.107-23.546z"/>
        <path fill="#B24347" d="M72.607 18.819c1.45 5.017 1.82 13.275-2.321 14.136-8.3 1.757-15.016-13.68-9.67-21.085 2.962-4.05 10.54 1.932 11.99 6.949z"/>
        <path fill="#B24347" d="M72.607 18.819c1.45 5.017 1.82 13.275-2.321 14.136-8.3 1.757-15.016-13.68-9.67-21.085 2.962-4.05 10.54 1.932 11.99 6.949z"/>
        <ellipse cx="40.188" cy="59.349" fill="#B24347" fill-rule="nonzero" rx="27.535" ry="35.103" transform="rotate(-80 40.188 59.349)"/>
        <ellipse cx="40.559" cy="57.207" fill="#F6F1EB" fill-rule="nonzero" rx="23.204" ry="30.461" transform="rotate(-80 40.56 57.207)"/>
        <path fill="#231F20" fill-rule="nonzero" d="M44.589 34.36c-16.563-2.916-31.807 4.947-34.04 17.564-2.233 12.616 9.398 25.215 25.97 28.114 16.571 2.9 31.806-4.947 34.03-17.572 2.225-12.625-9.389-25.188-25.96-28.105zM37.363 79.3c-15.93-2.812-27.112-14.936-24.967-27.051 2.145-12.116 16.79-19.69 32.72-16.887 15.93 2.803 27.113 14.936 24.968 27.052C67.938 74.529 53.292 82.103 37.363 79.3z" opacity=".05"/>
        <ellipse cx="59.803" cy="66.554" fill="#CA464A" fill-rule="nonzero" opacity=".05" rx="2.319" ry="6.136" transform="rotate(-80 59.803 66.554)"/>
        <ellipse cx="19.272" cy="59.409" fill="#CA464A" fill-rule="nonzero" opacity=".05" rx="2.319" ry="6.136" transform="rotate(-80 19.272 59.41)"/>
        <ellipse cx="28.74" cy="47.779" fill="#231F20" fill-rule="nonzero" opacity=".05" rx="5.632" ry="3.71" transform="rotate(-79.32 28.74 47.78)"/>
        <ellipse cx="29.001" cy="47.778" fill="#231F20" fill-rule="nonzero" rx="5.306" ry="3.493" transform="rotate(-79.028 29.001 47.778)"/>
        <ellipse cx="29.458" cy="43.98" fill="#FFF" fill-rule="nonzero" rx="1" ry="1" transform="rotate(-79.32 29.458 43.98)"/>
        <ellipse cx="54.598" cy="53.007" fill="#231F20" fill-rule="nonzero" opacity=".05" rx="5.614" ry="3.698" transform="rotate(-76.661 54.598 53.007)"/>
        <ellipse cx="54.593" cy="52.421" fill="#231F20" fill-rule="nonzero" rx="5.316" ry="3.499" transform="rotate(-76.76 54.593 52.42)"/>
        <ellipse cx="55.611" cy="49.027" fill="#FFF" fill-rule="nonzero" rx="1" ry="1" transform="rotate(-76.76 55.611 49.027)"/>
        <path fill="#231F20" d="M29.626 38.886a3.36 3.36 0 0 0-3.718.878 9.5 9.5 0 0 1 3.718-.878zM57.213 43.753a3.358 3.358 0 0 1 3.191 2.1 9.495 9.495 0 0 0-3.19-2.1z"/>
        <path fill="#B24347" fill-rule="nonzero" d="M27.842 117.535a19.381 19.381 0 0 0 2.927 4.112 2.638 2.638 0 0 0 1.926.835h5.986a1.653 1.653 0 0 0 1.583-1.24c.32-1.225.494-2.484.518-3.75a21.111 21.111 0 0 1-12.94.043zM63.209 111.86a14.937 14.937 0 0 1-2.682-3.4 18.594 18.594 0 0 1-9.538 6.37c1.758 2.389 2.84 3.285 3.789 3.46 3.982-2.125 5.846-2.081 8.484-5.192a.878.878 0 0 0-.053-1.238z"/>
        <path fill="#ECE3DD" fill-rule="nonzero" d="M35.842 61.614s3.2 3.207 7.12 1.6c-2.074 6.922-4.07 9.707-5.714 9.338-1.863-.421-2.364-5.104-1.406-10.938z"/>
        <path fill="#CA464A" fill-rule="nonzero" d="M37.547 72.869c-.12.013-.24.013-.36 0-2.312-.519-2.48-6.036-1.627-11.272a.29.29 0 0 1 .194-.229.281.281 0 0 1 .29.07s3.112 3.058 6.804 1.538a.29.29 0 0 1 .387.351c-1.916 6.326-3.815 9.542-5.688 9.542zm-1.503-10.701c-.818 5.456-.299 9.752 1.266 10.103.72.167 2.637-.369 5.213-8.6-2.963.93-5.52-.739-6.479-1.503z"/>
    </g>
</svg>
