<svg xmlns="http://www.w3.org/2000/svg" width="64" height="111" viewBox="0 0 64 111">
    <defs>
        <radialGradient id="a" cx="52.264%" cy="10.824%" r="105.816%" fx="52.264%" fy="10.824%" gradientTransform="matrix(1 0 0 .88889 0 .012)">
            <stop offset="0%" stop-color="#B24347"/>
            <stop offset="36%" stop-color="#AE4447"/>
            <stop offset="72%" stop-color="#A14648"/>
            <stop offset="100%" stop-color="#934949"/>
        </radialGradient>
    </defs>
    <g fill="none" fill-rule="evenodd" transform="rotate(9 17.085 54.635)">
        <path fill="#B24347" fill-rule="nonzero" d="M40.822 70s12.659 9.896 12.164 15.12c-.495 5.225-4.662 6.292-6.16 3.019C45.325 84.866 38 71.913 38 71.913L40.822 70z"/>
        <path fill="#231F20" fill-rule="nonzero" d="M52.987 85.123C53.432 79.898 42.048 70 42.048 70L41 70.786c3.38 3.426 12.297 12.753 9.05 17.235-.623.857-1.29 1.197-1.936 1.222 1.652 1.796 4.49.386 4.873-4.12z" opacity=".05"/>
        <path fill="#246398" fill-rule="nonzero" d="M49 91a4.917 4.917 0 0 1-1.317-.4 1.162 1.162 0 0 1-.56-.472.393.393 0 0 1 .067-.421c.055-.062.055-.08.088-.12.033-.042.033-.084.051-.121a2.5 2.5 0 0 0-.11-1.197c-.055-.207-.11-.414-.158-.624a3.14 3.14 0 0 1-.052-.324.482.482 0 0 1 .048-.321c-.016.211.03.422.133.61.077.2.161.4.235.604.189.419.247.879.17 1.327a.668.668 0 0 1-.082.173 2.169 2.169 0 0 1-.11.145.161.161 0 0 0-.04.179c.1.164.249.299.426.39.389.217.793.409 1.211.572z"/>
        <path fill="#B24347" fill-rule="nonzero" d="M22.178 70S9.519 79.896 10.014 85.12c.495 5.225 4.662 6.292 6.16 3.019C17.675 84.866 25 71.913 25 71.913L22.178 70z"/>
        <path fill="#231F20" fill-rule="nonzero" d="M10.013 85.123C9.568 79.898 20.952 70 20.952 70l1.048.786c-3.38 3.426-12.297 12.754-9.05 17.235.623.858 1.29 1.198 1.936 1.223-1.652 1.796-4.49.382-4.873-4.12z" opacity=".05"/>
        <path fill="#246398" fill-rule="nonzero" d="M14 91a9.689 9.689 0 0 0 1.21-.572c.178-.091.326-.226.428-.39a.161.161 0 0 0-.04-.18c0-.02-.075-.096-.111-.144a.668.668 0 0 1-.081-.173 2.274 2.274 0 0 1 .169-1.327c.074-.207.158-.404.235-.604.103-.188.15-.399.133-.61.053.1.07.212.048.32 0 .111-.03.218-.052.325-.048.21-.103.42-.158.624a2.5 2.5 0 0 0-.11 1.197c.018.037.022.09.051.12.03.031.033.055.088.12.104.119.13.28.067.422-.127.21-.323.376-.56.472-.415.194-.86.328-1.317.4z"/>
        <path fill="url(#a)" fill-rule="nonzero" d="M21.818 71.017S9.512 98.144 20.694 106.56c.385.286.851.439 1.33.437h5.004a1.82 1.82 0 0 0 1.705-1.15c.38-.956.738-2.646.603-5.552 2.665.845 5.387 0 5.387 0s-.23 3.384.616 5.556c.27.694.938 1.15 1.68 1.149 1.88 0 3.993 0 5.026-.017.463-.001.912-.156 1.277-.44 2.343-1.858 9.832-8.102-1.13-35.543l-20.374.017z"/>
        <path fill="#F6F1EB" fill-rule="nonzero" d="M24.33 71.285S10.667 99 31.88 99c21.214 0 8.41-27.462 7.074-28.943-1.335-1.481-14.988-1.686-14.624 1.228z"/>
        <path fill="#231F20" fill-rule="nonzero" d="M24.849 71.258c-.206-1.54 3.83-2.199 7.844-2.254-4.407-.06-9.287.579-9.06 2.279 0 0-14.62 27.713 8.08 27.713 2.139.046 4.27-.275 6.287-.947a19.912 19.912 0 0 1-5.16.61c-22.446 0-7.991-27.4-7.991-27.4z" opacity=".05"/>
        <path fill="#246398" fill-rule="nonzero" d="M20 72.684S21.533 77 31.622 77s11.639-2.632 12.359-4.316c.72-1.684-18.866-5.088-23.981 0z"/>
        <path fill="#B24347" d="M12.614.249c-9.751 3.353 2.563 33 9.524 30.615 6.961-2.385.227-33.968-9.524-30.615z"/>
        <path fill="#246398" d="M13.995 4.13c-6.05 2.08 3.186 24.276 7.504 22.8 4.318-1.477-1.454-24.88-7.504-22.8z"/>
        <path fill="#B24347" d="M49.114 6.02c3.126 1.011 5.014 3.885 4.88 5.023-1.093 9.247-8.384 21.358-13.07 19.825-4.917-1.607-3.177-16.962 1.844-24.861C43.81 4.363 45.985 5 49.114 6.02z"/>
        <path fill="#246398" d="M49.005 4.13c6.05 2.08-3.185 24.285-7.505 22.799-4.32-1.487 1.47-24.878 7.505-22.798z"/>
        <path fill="#B24347" d="M53.742 9.182c2.088 4.389 3.741 11.934.16 13.398C46.708 25.51 38.24 12.416 41.867 4.747c2.012-4.243 9.776.032 11.875 4.435z"/>
        <path fill="#B24347" d="M53.742 9.182c2.088 4.389 3.741 11.934.16 13.398C46.708 25.51 38.24 12.416 41.867 4.747c2.012-4.243 9.776.032 11.875 4.435z"/>
        <ellipse cx="31.5" cy="49.5" fill="#B24347" fill-rule="nonzero" rx="31.5" ry="24.5"/>
        <ellipse cx="31.5" cy="48.5" fill="#F6F1EB" fill-rule="nonzero" rx="27.5" ry="20.5"/>
        <path fill="#231F20" fill-rule="nonzero" d="M31.5 28C16.314 28 4 37.18 4 48.498 4 59.818 16.32 69 31.5 69S59 59.82 59 48.502C59 37.182 46.69 28 31.5 28zm.62 40.21c-14.602 0-26.441-8.827-26.441-19.712s11.839-19.71 26.44-19.71 26.44 8.825 26.44 19.71c0 10.885-11.835 19.711-26.44 19.711z" opacity=".05"/>
        <ellipse cx="49.5" cy="53.5" fill="#CA464A" fill-rule="nonzero" opacity=".05" rx="5.5" ry="2.5"/>
        <ellipse cx="13.5" cy="53.5" fill="#CA464A" fill-rule="nonzero" opacity=".05" rx="5.5" ry="2.5"/>
        <path stroke="#B24347" stroke-linecap="round" stroke-linejoin="round" stroke-width="1.49" d="M28 52.248c.86 1.771 2.344 2.813 3.918 2.75 1.635-.091 3.144-1.2 4.082-2.998"/>
        <ellipse cx="19.476" cy="41.703" fill="#231F20" fill-rule="nonzero" opacity=".05" rx="5.056" ry="3.317" transform="rotate(-89.427 19.476 41.703)"/>
        <ellipse cx="19.7" cy="41.496" fill="#231F20" fill-rule="nonzero" rx="4.769" ry="3.126" transform="rotate(-89.32 19.7 41.496)"/>
        <ellipse cx="19.548" cy="38.323" fill="#FFF" fill-rule="nonzero" rx="1" ry="1" transform="rotate(-89.32 19.548 38.323)"/>
        <ellipse cx="43.159" cy="42.158" fill="#231F20" fill-rule="nonzero" opacity=".05" rx="5.056" ry="3.317" transform="rotate(-86.76 43.159 42.158)"/>
        <ellipse cx="42.986" cy="41.864" fill="#231F20" fill-rule="nonzero" rx="4.769" ry="3.126" transform="rotate(-86.76 42.986 41.864)"/>
        <ellipse cx="43.352" cy="38.705" fill="#FFF" fill-rule="nonzero" rx="1" ry="1" transform="rotate(-86.76 43.352 38.705)"/>
        <ellipse cx="32" cy="78.5" fill="#246398" fill-rule="nonzero" rx="3" ry="3.5"/>
        <path fill="#F6F1EB" fill-rule="nonzero" d="M34.674 77.543c0-.1 0-.19-.07-.28h-.06l-.27.19a.13.13 0 0 0 0 .13v.15c0 .03.11-.1.16-.12a.24.24 0 0 1 .14 0 .38.38 0 0 0 .17 0l-.07-.07zM29.418 78.507h.15c.03 0 0 0 0 0s-.15-.03-.15 0zM31.216 79.988c.05-.044.095-.093.135-.146a.325.325 0 0 0 .047-.115.112.112 0 0 1 .054-.046s.055-.173.094-.208a.6.6 0 0 0 .073-.28.861.861 0 0 1 .031-.216.285.285 0 0 1 .07-.092c.048-.06.092-.121.132-.185a.382.382 0 0 0 .05-.17c0-.022-.065-.038-.077-.026a.215.215 0 0 1-.09.023s-.061-.096-.088-.115c-.028-.02-.05-.131-.066-.15a.971.971 0 0 0-.07-.085v-.089c0-.019.027 0 .03.035.028.052.06.103.094.15.02.03.078.13.093.165.016.035.14 0 .179 0a.264.264 0 0 0 .093-.061s.066-.039.085-.054c.02-.015.035-.085.047-.096.012-.012 0-.08-.023-.1a.117.117 0 0 0-.09-.03s-.038-.047-.05-.066c-.012-.02-.058-.046-.066-.058-.008-.011 0-.035.02-.038a.412.412 0 0 1 .124.088c.023.03.044.062.062.096.03.011.063.011.093 0a.027.027 0 0 1 .039 0h.101a.15.15 0 0 1 .046.081c.007.019.021.034.04.042 0 0 .026.054.03.066.004.011.05.088.059.119a.717.717 0 0 0 .058.108.26.26 0 0 1 0 .077c.007.02.025.035.046.038 0 0 .055-.112.062-.15a.111.111 0 0 1 .047-.073v-.03c0-.009.047 0 .05 0 .004 0 0-.085.036-.093.03-.02.06-.038.093-.054.02 0 .074.035.085.058a.171.171 0 0 1 0 .08s.027.054.055.05c.027-.003.034.035.034.047 0 .011.04.05.047.065a.137.137 0 0 1 0 .07.229.229 0 0 0 0 .084.815.815 0 0 0 .12.123c.032.027.047-.05.032-.077a.72.72 0 0 0-.086-.096.194.194 0 0 1 0-.1s.047 0 .066.023a.135.135 0 0 1 .043.054s.112-.05.116-.12a.676.676 0 0 1 .047-.157s0-.042-.02-.042c-.019 0 0-.05.051-.05.05 0 .109-.081.128-.116a.258.258 0 0 1 .058-.065.569.569 0 0 0 .035-.116.336.336 0 0 0-.019-.1.322.322 0 0 0-.039-.065.137.137 0 0 1 0-.065s.031 0 .035-.023c.004-.024.035-.043.035-.058 0-.016.02.02.035.03.016.012.031.093.05.1.02.008.094-.084.086-.146a.183.183 0 0 1 .039-.142.29.29 0 0 0 .058-.07 3.105 3.105 0 0 0-.816-1.238.077.077 0 0 1-.062-.061l-.108-.096h-.035a.254.254 0 0 1-.097-.031s-.047 0-.05.027c-.005.027-.067.027-.07.042-.005.016-.04 0-.047 0-.008 0-.066.02-.094.023a.508.508 0 0 0-.097.031.15.15 0 0 0-.05.046l-.055.039c-.011.007 0 .057 0 .065h-.046c-.02 0-.043.023-.047.035-.004.011-.023 0-.023-.023s-.047-.027-.054 0c-.008.027-.04 0-.055 0a.382.382 0 0 0-.097.077.274.274 0 0 1-.151.03c-.02 0-.04.046-.024.05h-.077a.555.555 0 0 0-.177.068.027.027 0 0 1-.021-.01l-.047-.027c-.008-.004-.031.07-.05.085-.02.015-.043-.058-.09-.07-.046-.011-.116-.053-.136-.057a.271.271 0 0 1-.074-.058.207.207 0 0 0-.089-.023.292.292 0 0 0-.093.046h-.05l-.101.089a.8.8 0 0 0-.09.127.062.062 0 0 1-.046.026v.031c0 .008-.078.046-.086.081a.762.762 0 0 0 0 .142c0 .027.027.085.05.085.024 0 0 .046 0 .061v.039c0 .011-.054.027-.07.035a.123.123 0 0 0-.046.057s-.054.02-.074.035v-.035a.057.057 0 0 0 0-.057s0-.097-.023-.116a.386.386 0 0 0-.054-.058v-.042c0-.011-.043 0-.059 0-.015 0-.019.096-.027.123 0 .026.011.05.031.066v.046s-.03.065-.023.08c.008.016 0 .043-.023.05-.024.008.066 0 .1 0h.059c-.004 0-.066 0-.078.027-.011.027-.054.043-.062.054-.008.012 0 .035.031.035s.039.061.05.07c.012.007 0 .041 0 .05 0 .007-.089 0-.124 0s-.073.072-.073.095a.571.571 0 0 0 0 .116c0 .019.07.03.085.042.016.012.078 0 .093 0 .016 0 .059-.062.066-.096.008-.035.078-.092.09-.112.011-.019.089 0 .104-.03.016-.031 0 .053 0 .088 0 .035.078.03.07 0-.007-.03 0-.05 0-.035 0 .016.07.039.082.058.012.02 0 .058 0 .058v.05c0 .007.039-.05.054-.058.016-.008.031-.042.024-.046-.008-.004 0-.035.023-.023a.384.384 0 0 0-.066-.096c-.027-.027 0 0 .046.027l.04.05s0 .038.023.046a.335.335 0 0 1 0 .08c.007.021.025.036.046.039h.027c-.003 0 0 .035.031.035.032 0 .024-.043 0-.043-.023 0 0-.065 0-.092v-.05.07a.18.18 0 0 0 0 .057l.043.03h.132.047c.004 0 0 0 0 0s-.039.062-.043.09c-.004.026-.14 0-.198 0a.247.247 0 0 0-.151.03s-.098-.039-.14-.054c-.043-.015-.074-.077-.082-.085-.008-.007 0-.026 0-.038s-.097 0-.128 0a.935.935 0 0 0-.202.038.188.188 0 0 1-.1 0s-.055.043-.075.05c-.019.008-.042.074-.054.143l-.027.05v.03a.707.707 0 0 0-.113.174c-.018.08-.027.163-.027.246a.764.764 0 0 0 .066.207c.036.049.081.09.132.124a.482.482 0 0 0 .155 0 .093.093 0 0 0 .078-.062h.066c0 .023.07.046.086.054.024.006.05.006.073 0 0 0 .028.111 0 .146a.64.64 0 0 0 .031.185c0 .034.05.13.055.165a1.586 1.586 0 0 1-.027.188.718.718 0 0 0 .066.193.633.633 0 0 1 .027.142c0 .02.062.135.074.18.011.047.295.059.334.035z"/>
        <path fill="#F6F1EB" fill-rule="nonzero" d="M30.58 78.524s-.08-.08-.11-.09c-.03-.01-.06.05-.06.08 0 0 .06.07.11.05.05-.02.09-.04.06-.04zM29.654 78.606s.148.06.178.08c.03.02.1 0 .149 0 .05 0 0-.19-.11-.18-.108.01-.158-.08-.187-.09l-.159-.1a1.296 1.296 0 0 0-.347 0 .257.257 0 0 0-.178.11h.168a.403.403 0 0 1 .258.07c.047.048.113.07.178.06.06-.08.03.01.05.05zM30.54 77.445a.12.12 0 0 0-.08 0v.09c0 .09.09-.07.08-.09z"/>
        <path fill="#F6F1EB" fill-rule="nonzero" d="M30.426 78.535h.14c.02 0 0-.07 0-.07s-.14.04-.14.07z"/>
        <path fill="#F6F1EB" fill-rule="nonzero" d="M29.94 78.818c.034.04.06.082.08.127a.177.177 0 0 1 0 .082v.045a.589.589 0 0 0 0 .123c0 .034-.044.137-.044.185 0 .048.028.116.04.113.012-.004 0 .048 0 .051 0 .004-.04.048-.028.048s0 .041 0 .058 0 .124.024.148a.727.727 0 0 0 .06.113c0 .02 0 .061.024.068l.047.017c.035.005.07.005.104 0 .024 0 0-.02 0-.03 0-.01 0-.059-.032-.062-.032-.004 0-.065 0-.079 0-.014.052-.034.056-.045.004-.01 0-.061 0-.071v-.103c0-.031.064-.062.068-.086.004-.024.083-.051.103-.065.021-.03.03-.065.024-.1 0 0 .028-.026.048-.026h.044l.036-.038c.008-.007.031-.082.051-.096a.122.122 0 0 0 .036-.072.214.214 0 0 1 .04-.065.472.472 0 0 1 .1-.044.437.437 0 0 0 .04-.14.874.874 0 0 1 .027-.097s.024-.02.028-.027a.59.59 0 0 1 .032-.062.3.3 0 0 0 .052-.065.333.333 0 0 1 0-.055v-.065c0-.03-.052-.068-.064-.058-.012.01-.056-.027-.08-.034a.542.542 0 0 0-.095 0s-.068-.034-.088-.041l-.091-.02s-.024-.08-.072-.103a.5.5 0 0 1-.14-.1c0-.02-.1-.065-.127-.075a.133.133 0 0 0-.076 0s-.04-.041-.06-.051c-.02-.01-.071-.024-.075 0-.004.024-.04 0-.048 0h-.048c-.012 0-.06.061-.08.075-.02.014-.043 0-.06-.017a.176.176 0 0 0-.079.017s-.048-.062-.04-.093c.008-.03-.036-.095-.067-.095-.032 0-.044-.069-.036-.093.008-.024-.06-.04-.076-.04s-.056.033-.064.047c-.008.014-.155-.024-.135-.096a.334.334 0 0 1 .103-.157.314.314 0 0 1 .132 0 .04.04 0 0 0 .044 0 .328.328 0 0 1 .103 0c.024 0 .056.082.08.092.024.01.032-.048.036-.062a.121.121 0 0 0 0-.058.197.197 0 0 1 .076-.116.15.15 0 0 0 .071-.075s.028 0 .036-.021c.008-.02 0-.075 0-.092a.434.434 0 0 1 .104-.059.064.064 0 0 0 .028-.061s.055-.055.087-.062c.032-.007.06 0 .052.02l.072-.034c.024 0 0-.048 0-.058v-.055c0-.006.032-.037.028-.044-.004-.007.071 0 .1 0 .027 0 0 .044 0 .068a.024.024 0 0 0-.004.03c.006.01.018.016.031.015 0 0 .028 0 .032.02s.032 0 .052 0c.02 0 .032-.02.032-.034 0-.014-.048-.04-.052-.058a.85.85 0 0 1 0-.13c0-.02-.032-.052-.044-.045-.012.007-.032-.051-.048-.061a.06.06 0 0 1 0-.048s-.056-.058-.068-.079c-.011-.02-.031-.017-.031 0s-.04 0-.056 0-.028-.051-.028-.072c0-.02-.072-.024-.084-.038-.012-.013-.06 0-.063-.02a.087.087 0 0 0-.056 0v.178c0 .034-.044.068-.06.068s0 .028 0 .024a.187.187 0 0 0-.032.069c-.004.027-.04 0-.044-.028-.004-.027-.04-.061-.044-.05-.004.01-.027 0-.04 0-.011 0-.071-.032-.099-.042-.028-.01-.04-.079-.056-.082-.016-.004 0 0 0-.024s.048-.048.064-.062a.826.826 0 0 1 .092-.089.077.077 0 0 0 .035-.055.65.65 0 0 1 .12-.037c.028 0 .048-.069.052-.086 0-.02-.01-.04-.028-.055H30.163l.088.045v.12c-.076.027-.1.072-.072.072a.699.699 0 0 1 .184.065c.035.02.043-.031.055-.048a.104.104 0 0 0 0-.076h.092c.012 0 0-.044.02-.054.02-.01-.024-.017-.024-.028 0-.01-.056-.03-.072-.037-.016-.007-.02-.038 0-.045.02-.007 0-.044 0-.058 0-.014-.067-.024-.083-.024s-.04-.038-.048-.041a.347.347 0 0 0-.104 0s-.052-.045-.083-.028c-.032.018-.064-.017-.076-.024-.012-.006-.084.059-.084.103a.117.117 0 0 0 .04.093v.054c0 .014-.044 0-.032-.024.012-.023-.032-.058-.044-.078a.175.175 0 0 0-.067-.035l-.048.045a.077.077 0 0 1 0 .048c0 .027-.04.03-.04.02 0-.01 0 0-.028 0-.066.069-.13.139-.191.21l-.04.05c-.04.049-.076.1-.112.151l-.047.069c-.04.061-.076.127-.112.192-.036.065-.04.085-.06.13l-.036.082c-.02.051-.04.103-.055.154v.044a2.37 2.37 0 0 0-.084.374.17.17 0 0 1 .04.048c0 .024.06.04.068.044.008.003 0-.048 0-.062 0-.013 0-.02 0 0 .017.026.039.05.063.072 0 0 .032.124.048.144a.663.663 0 0 0 .207.079.262.262 0 0 1 .116.065l.083.024c.012.003.044.041.06.048a.06.06 0 0 1 .024.034s.084.03.104.051a.05.05 0 0 0 .06 0l.031.052a.083.083 0 0 1 0 .058.659.659 0 0 1-.031.089.303.303 0 0 0-.036.134c.012.027.033.05.06.068 0 0 0 .1.023.113.024.014.056.058.052.065-.004.007-.056-.007-.032.01zM30.196 75.974a.359.359 0 0 0 .166-.061.2.2 0 0 0 0-.096s.059-.174.082-.217c.061-.051.125-.095.19-.13.042-.05.085-.097.13-.14 0 0 .066-.104.06-.121-.006-.018.089-.105.13-.122.042-.017.053-.087.042-.087l-.22.157c-.122.11-.24.226-.355.347a6.857 6.857 0 0 0-.32.366L30 76l.196-.026z"/>
        <path fill="#F6F1EB" fill-rule="nonzero" d="M30.32 75.48s0 .16.05.16.14-.2.21-.16c.07.04.11.06.1 0a2 2 0 0 0-.23-.12l-.13.12zM31.904 75.253a.125.125 0 0 0 0-.062s.03-.017.032-.027a.144.144 0 0 1 .055-.034s.02-.041 0-.041a.098.098 0 0 1-.055 0 .123.123 0 0 0-.075 0c-.014 0 0-.045.017-.048.018-.003 0-.041-.02-.041h-.092a.144.144 0 0 1-.05 0 .88.88 0 0 1-.109.02.681.681 0 0 0-.127 0c-.017 0-.029.045-.026.059.003.013-.075 0-.101 0a.737.737 0 0 0-.19.054c-.035.02-.061.079-.05.079.012 0-.02.034-.037.04-.018.008-.064 0-.073.025-.008.024 0 .02.015.027.014.007.017 0 .029 0h.008c-.02 0-.014.048 0 .055.015.007.058 0 .064 0h.072c.023 0 .038.061.043.075a.218.218 0 0 1 0 .072s.038.037.044.027c.006-.01 0 .02 0 .02v.106c0 .01 0 .038-.018.052-.017.013.04.112.04.164 0 .051.03.095.038.095.01 0 .05 0 .052.02.003.021.023 0 .03 0l.034-.054c.015-.044.029-.09.04-.136h.055l.046-.038s.07-.038.084-.051c.015-.014.043-.072.058-.086.014-.013 0 0-.023-.02a.022.022 0 0 1-.008-.017c0-.007.003-.014.008-.017a.166.166 0 0 1 .07 0c.016 0 .048-.02.037-.031-.012-.01 0 0 0 0v-.041c0-.007.049-.055.04-.1-.009-.044.015-.088.029-.091.014-.004 0-.052 0-.055 0-.004.006.007.014 0zM29.53 77.47s-.06 0-.06.06c0 0 .06-.05.06-.06zM34.34 78.555c.1.07.31 0 .32-.09.01-.09-.32-.05-.32.09zM32.415 78.443c0 .06.16.19.17.16a.34.34 0 0 0-.06-.21s-.08-.01-.11.05z"/>
        <path fill="#F6F1EB" fill-rule="nonzero" d="M34.458 78.697s.11-.06.17-.06c.06 0 .1-.17.05-.18-.05-.01-.11-.13-.14-.15-.03-.02-.1.05-.1.1s-.11.07-.13.11c-.02.04 0 .07 0 .06 0-.01.14.09.15.12zM33.743 78.716a1 1 0 0 0-.26-.29v-.13c0-.08-.16-.14-.17-.16-.01-.02 0 .07-.09 0l.13.09a5.5 5.5 0 0 1 .38.64s.09-.04.01-.15zM35 79c-.078 0-.177.024-.177.044 0 .02-.107.048-.142.058a.355.355 0 0 0-.12.107s-.1 0-.135.029c-.036.029-.1.044-.1.068 0 .024 0 0-.042 0l-.043.029-.05.039a.345.345 0 0 1-.156.145s-.035.112-.035.156c0 .042.02.083.057.116V79.893c-.008.04.013.08.056.107.075-.001.149-.01.22-.024h.043c.27-.303.477-.63.617-.971L35 79z"/>
        <path fill="#F6F1EB" fill-rule="nonzero" d="M34.626 78.4h-.16c-.01 0 0 0-.07.06s0 .07 0 .05c0-.02.11 0 .2.09.09.09 0-.15 0-.22l.03.02zM32.34 78.914c0 .05.14.093.18.085a.577.577 0 0 0 .16-.213.847.847 0 0 0 0-.17.131.131 0 0 1 0-.085.255.255 0 0 0 .05-.12 2.812 2.812 0 0 0-.08-.39c0-.051-.07 0-.09.076-.02.077-.19.153-.23.196a.368.368 0 0 0-.06.212.262.262 0 0 1 0 .154c.015.086.038.172.07.255z"/>
        <path fill="#F6F1EB" fill-rule="nonzero" d="M34.575 78.28c-.06 0-.23.2-.2.33s.07.12.09.09c.02-.03.12 0 .15 0s0 0 0-.07a.23.23 0 0 1 0-.2s.03-.14-.04-.15z"/>
        <path fill="#F6F1EB" fill-rule="nonzero" d="M34.59 78.493s0-.1-.11-.12c-.11-.02-.07.22 0 .25s.08-.08.11-.13zM33.813 78.484v-.26c0-.03-.1-.13-.15-.15-.05-.02-.22.34-.34.4a.33.33 0 0 0-.13.33s.28.08.33.11c.05.03.09 0 .12 0 0 0 .09-.11.1-.17.01-.06.06-.21.07-.26zM34.447 77.398v.19c0 .04 0 0 .08 0s-.04-.23-.08-.19z"/>
        <path fill="#F6F1EB" fill-rule="nonzero" d="M33.167 78.465s.36.09.49.13c.13.04.2 0 .17 0l-.45-.2a.19.19 0 0 0-.21.07z"/>
        <path fill="#231F20" fill-rule="nonzero" d="M31.414 81.863c-1.692-.215-2.903-1.88-2.706-3.718.198-1.838 1.73-3.155 3.422-2.94.286.036.567.113.834.229a3.185 3.185 0 0 0-1.128-.367c-1.185-.256-2.402.233-3.149 1.265-.747 1.032-.897 2.432-.39 3.623.508 1.191 1.588 1.972 2.796 2.02A3.127 3.127 0 0 0 33 81.608c-.5.228-1.046.316-1.586.255z" opacity=".05"/>
        <path fill="#CA464A" fill-rule="nonzero" stroke="#CA464A" stroke-linecap="round" stroke-linejoin="round" stroke-width="2.84" d="M31.5 89.87c-4.692 0-8.582-.373-9.358-.87A6.284 6.284 0 0 0 22 90.319C22 94.563 26.252 98 31.5 98s9.5-3.437 9.5-7.681c0-.443-.048-.885-.142-1.319-.772.49-4.666.87-9.358.87z" opacity=".2"/>
        <path fill="#F6F1EB" d="M22.695 90.02l-.53.09.15.87.52-.11zM22.72 88.06h-.53c.007.295.037.59.09.88l.53-.07a5.38 5.38 0 0 1-.09-.81zM21.74 88.055l-.53.01.05.88.53-.03zM22.58 92l-.49.188.33.812.49-.218z"/>
        <path fill="#F6F1EB" d="M22.625 92l-.51.16c.072.285.162.566.27.84l.5-.18a6.62 6.62 0 0 1-.26-.82zM22.64 91.01l-.52.13.25.85.51-.15zM23.475 93l-.44.284.5.716.43-.304zM23.515 92l-.46.252c.15.243.27.515.44.748l.45-.272c-.17-.223-.29-.485-.43-.728z"/>
        <path fill="#F6F1EB" d="M23.53 92l-.48.228.42.772.48-.248zM24.38 95.005l-.38.38.63.61.37-.38z"/>
        <path fill="#F6F1EB" d="M24.42 95l-.4.343c.19.216.37.451.57.657l.39-.353c-.2-.206-.37-.431-.56-.647zM23.43 95l-.42.32.57.68.41-.34zM25.294 96.04l-.294.43.716.49.284-.45z"/>
        <path fill="#F6F1EB" d="M25.33 96.015l-.33.42.68.55.32-.43zM24.343 96.02l-.343.4c.216.2.441.37.667.56l.333-.41c-.216-.18-.441-.36-.657-.55zM27.218 96.085l-.218.48.792.35.208-.49zM26.255 96.06l-.255.47.765.41.235-.47z"/>
        <path fill="#F6F1EB" d="M25.275 96.055l-.275.45c.239.163.488.31.745.44l.255-.46a6.539 6.539 0 0 1-.725-.43zM28.15 97.14l-.14.51c.28.1.57.14.85.21l.13-.52c-.24-.06-.52-.11-.84-.2zM28.175 96.11l-.17.5.84.28.15-.51zM27.205 96.09l-.2.49c.27.11.53.25.81.33l.18-.5c-.27-.07-.53-.21-.79-.32zM30.105 97.18l-.06.52.87.12.04-.53z"/>
        <path fill="#F6F1EB" d="M30.115 97.18l-.09.52.87.12.08-.53zM29.14 97.14l-.12.52.86.2.1-.53zM31.05 97.255l.02.53.88-.04-.04-.53z"/>
        <path fill="#F6F1EB" d="M31.06 97.227v.53c.293.022.587.022.88 0v-.53a5.76 5.76 0 0 1-.88 0zM30.085 97.215l-.03.53.87.04.02-.53zM33.02 97.335l.1.52.86-.19-.12-.52zM32.025 97.29l.07.53.88-.12-.09-.52z"/>
        <path fill="#F6F1EB" d="M32.04 97.29l.05.53.87-.12-.06-.52zM34.005 96.41l.18.5c.28-.09.54-.22.81-.33l-.2-.49c-.26.1-.52.23-.79.32z"/>
        <path fill="#F6F1EB" d="M34.005 96.385l.15.5.84-.27-.17-.5zM34.01 97.34l.13.52c.28-.07.58-.11.85-.21l-.15-.51c-.22.09-.55.13-.83.2zM37 96.485l.262.46c.255-.13.501-.277.738-.44l-.272-.45c-.233.16-.476.303-.728.43zM36 96.47l.238.47.762-.42-.248-.46zM35 96.425l.206.49.794-.35-.225-.48zM38 96.57l.333.41c.226-.19.451-.36.667-.56l-.353-.4c-.206.19-.431.36-.647.55z"/>
        <path fill="#F6F1EB" d="M37 96.555l.31.43.69-.56-.33-.41z"/>
        <path fill="#F6F1EB" d="M37 96.515l.284.45.716-.49-.294-.44zM38.01 95.66l.41.34.57-.67-.42-.33z"/>
        <path fill="#F6F1EB" d="M38.02 95.647l.39.353c.2-.206.38-.441.57-.657l-.4-.343c-.19.225-.37.441-.56.647z"/>
        <path fill="#F6F1EB" d="M38 95.605l.37.39.63-.62-.38-.37zM39.055 92.752l.47.248.42-.772-.48-.228z"/>
        <path fill="#F6F1EB" d="M39.055 92.728l.45.272c.17-.233.29-.495.44-.748l-.46-.252c-.15.214-.26.476-.43.728zM39.035 93.696l.43.304.5-.716-.44-.284zM40.12 91.835l.51.15.25-.85-.52-.12z"/>
        <path fill="#F6F1EB" d="M39.115 92.82l.5.18a7 7 0 0 0 .27-.84l-.51-.16a6.67 6.67 0 0 1-.26.82z"/>
        <path fill="#F6F1EB" d="M39.09 92.792l.49.208.33-.812-.49-.188zM40.21 88.915l.53.03.05-.88-.53-.01z"/>
        <path fill="#F6F1EB" d="M40.19 88.87l.53.07a5.66 5.66 0 0 0 .09-.88h-.53a5.42 5.42 0 0 1-.09.81zM40.165 90.865l.53.11.14-.87-.52-.08zM37.99 88.71l-.06-.53-.92.11.05.53zM38.995 88.705l-.07-.53-.92.12.07.53z"/>
        <path fill="#F6F1EB" d="M39 88.685l-.09-.52-.91.15.08.52zM36.985 88.735l-.04-.53-.93.06.04.53z"/>
        <path fill="#F6F1EB" fill-rule="nonzero" d="M36.937 88.91l.086-.008-.086.008z"/>
        <path fill="#F6F1EB" d="M37.99 88.72l-.06-.53-.92.09.05.53zM34.975 88.745l-.02-.53-.93.04.02.53z"/>
        <path fill="#F6F1EB" fill-rule="nonzero" d="M34.75 88.84l.08-.004-.08.004z"/>
        <path fill="#F6F1EB" d="M35.985 88.735l-.04-.53-.93.06.03.53z"/>
        <path fill="#F6F1EB" fill-rule="nonzero" d="M32.482 88.906l.08-.001-.08.001zM33.042 88.898l.08-.002-.08.002z"/>
        <path fill="#F6F1EB" d="M33.975 88.75l-.02-.53-.93.02.01.54z"/>
        <path fill="#F6F1EB" fill-rule="nonzero" d="M30.908 89.318h.08z"/>
        <path fill="#F6F1EB" d="M31.97 88.765l-.01-.53h-.92l-.01.53z"/>
        <path fill="#F6F1EB" fill-rule="nonzero" d="M31.905 88.914h.08-.08z"/>
        <path fill="#F6F1EB" d="M29.955 88.775l.02-.53-.93-.02-.02.53z"/>
        <path fill="#F6F1EB" fill-rule="nonzero" d="M29.624 88.89l.08.001zM30.195 88.911l.08.001z"/>
        <path fill="#F6F1EB" d="M27.95 88.795l.03-.54-.93-.05-.03.53z"/>
        <path fill="#F6F1EB" fill-rule="nonzero" d="M27.917 88.833l.08.004z"/>
        <path fill="#F6F1EB" d="M28.96 88.785l.02-.53-.93-.04-.03.53zM25.94 88.81l.05-.53-.93-.09-.05.53z"/>
        <path fill="#F6F1EB" fill-rule="nonzero" d="M26.214 88.72l.08.006z"/>
        <path fill="#F6F1EB" d="M26.95 88.795l.03-.53-.92-.06-.04.53zM23.91 88.835l.09-.52-.91-.15-.09.52zM24.925 88.825l.07-.53-.92-.12-.07.53z"/>
        <path fill="#F6F1EB" d="M24.935 88.82l.06-.53-.92-.11-.07.53zM40.81 88.993l-.53.007-.03-.482-.06-.482.54-.036.05.496zM40.833 87l.087.472.08.472-.377.056-.065-.368h-.022l-.058-.007-.007.007-.022.007-.021.014-.102.034-.188.07-.138-.34.225-.084.05-.02.058-.028.102-.056.203-.11.101-.063.05-.035.015-.007v-.007h.008zM39.903 87.085l.097.51-.11.05-.118.04-.234.08-.469.15-.069-.52.455-.15.228-.07.11-.04zM24 87.395l-.076.52-.227-.07-.235-.08-.234-.08-.118-.04-.11-.04.09-.52.117.05.11.03.228.08.227.08zM22.177 87l.1.07.056.036.022.015.02.014.2.106.099.057.014.007.014.007.028.007.05.021.22.086-.135.354-.184-.07-.092-.036-.05-.022-.05-.02v.013l-.007.007-.05.008v.007l-.014.05-.014.092-.028.191-.376-.057.085-.482.043-.241.02-.12.015-.057v-.022l.007-.007zM22.28 88l.53.036-.05.482-.04.482-.53-.007.03-.497z"/>
        <circle cx="24" cy="89" r="1" fill="#F6F1EB" fill-rule="nonzero"/>
        <circle cx="40" cy="89" r="1" fill="#F6F1EB" fill-rule="nonzero"/>
        <path fill="#B24347" fill-rule="nonzero" d="M16 100.023c.624 2.539 1.738 4.763 3.209 6.404.346.374.766.575 1.198.573H24.9c.676.008 1.286-.588 1.536-1.501.285-1.042.554-2.756.563-5.499h-.025a22.48 22.48 0 0 1-10.975.023zM45 100.023c-.624 2.539-1.738 4.763-3.209 6.404-.346.374-.766.575-1.198.573H36.1c-.676.008-1.286-.588-1.536-1.501-.285-1.042-.554-2.756-.563-5.499h.025a22.48 22.48 0 0 0 10.975.023z"/>
        <path fill="#231F20" d="M20 33.034s-2.723-.314-4 .966c1.403-.444 1.998-.73 4-.966zM43 33.034s2.723-.314 4 .966c-1.394-.444-1.99-.73-4-.966z"/>
    </g>
</svg>
