<?xml version="1.0" standalone="no"?>
<!DOCTYPE svg PUBLIC "-//W3C//DTD SVG 1.1//EN" "http://www.w3.org/Graphics/SVG/1.1/DTD/svg11.dtd" >
<svg xmlns="http://www.w3.org/2000/svg">
<metadata>Generated by IcoMoon</metadata>
<defs>
<font id="fd" horiz-adv-x="1024">
<font-face units-per-em="1024" ascent="960" descent="-64" />
<missing-glyph horiz-adv-x="1024" />
<glyph unicode="&#x20;" horiz-adv-x="512" d="" />
<glyph unicode="&#xe900;" glyph-name="fd-cate-all" d="M26.947 892.632h958.787c14.883 0 26.947-12.065 26.947-26.947s-12.065-26.947-26.947-26.947h-958.787c-14.883 0-26.947 12.065-26.947 26.947s12.065 26.947 26.947 26.947zM26.947 50.526h958.787c14.883 0 26.947-12.065 26.947-26.947s-12.065-26.947-26.947-26.947h-958.787c-14.883 0-26.947 12.065-26.947 26.947s12.065 26.947 26.947 26.947zM26.947 223.528h958.787c14.883 0 26.947-12.065 26.947-26.947s-12.065-26.947-26.947-26.947h-958.787c-14.883 0-26.947 12.065-26.947 26.947s12.065 26.947 26.947 26.947zM26.947 396.261h958.787c14.883 0 26.947-12.065 26.947-26.947s-12.065-26.947-26.947-26.947h-958.787c-14.883 0-26.947 12.065-26.947 26.947s12.065 26.947 26.947 26.947zM26.947 569.263h958.787c14.883 0 26.947-12.065 26.947-26.947s-12.065-26.947-26.947-26.947h-958.787c-14.883 0-26.947 12.065-26.947 26.947s12.065 26.947 26.947 26.947zM26.947 742.265h958.787c14.883 0 26.947-12.065 26.947-26.947s-12.065-26.947-26.947-26.947h-958.787c-14.883 0-26.947 12.065-26.947 26.947s12.065 26.947 26.947 26.947z" />
<glyph unicode="&#xe901;" glyph-name="fd-cate-dien-tu" d="M964.608 908.8h-905.216c-32.768 0-59.392-26.624-59.392-59.392v-624.64c0-32.768 26.624-59.392 59.392-59.392h313.344v-49.152c0-43.008-34.816-77.824-77.824-77.824h-69.632c-12.288 0-20.48-10.24-20.48-20.48 0-12.288 10.24-20.48 20.48-20.48h573.44c12.288 0 20.48 10.24 20.48 20.48 0 12.288-10.24 20.48-20.48 20.48h-67.584c-43.008 0-77.824 34.816-77.824 77.824v49.152h313.344c32.768 0 59.392 26.624 59.392 59.392v624.64c-2.048 32.768-28.672 59.392-61.44 59.392zM634.88 44.544l4.096-4.096h-253.952l4.096 4.096c16.384 20.48 24.576 47.104 24.576 73.728v49.152h196.608v-49.152c0-28.672 8.192-53.248 24.576-73.728zM40.96 351.744h942.080v-126.976c0-10.24-8.192-18.432-18.432-18.432h-905.216c-10.24 0-18.432 8.192-18.432 18.432v126.976zM59.392 867.84h905.216c10.24 0 18.432-8.192 18.432-18.432v-456.704h-942.080v456.704c0 10.24 8.192 18.432 18.432 18.432zM532.48 278.016c0-10.18-8.252-18.432-18.432-18.432s-18.432 8.252-18.432 18.432c0 10.18 8.252 18.432 18.432 18.432s18.432-8.252 18.432-18.432zM372.736 542.208c-4.096 0-8.192 2.048-12.288 6.144-6.144 6.144-6.144 18.432 0 24.576l165.888 165.888c4.096 4.096 8.192 6.144 12.288 6.144s8.192-2.048 12.288-6.144 6.144-8.192 6.144-12.288c0-4.096-2.048-8.192-6.144-12.288l-165.888-165.888c-4.096-4.096-8.192-6.144-12.288-6.144zM571.392 546.304c-4.096 0-8.192 2.048-12.288 4.096-4.096 4.096-6.144 8.192-6.144 12.288s2.048 8.192 6.144 12.288l65.536 65.536c4.096 4.096 8.192 6.144 12.288 6.144s8.192-2.048 12.288-6.144 6.144-8.192 6.144-12.288c0-4.096-2.048-8.192-6.144-12.288l-65.536-65.536c-4.096-2.048-8.192-4.096-12.288-4.096z" />
<glyph unicode="&#xe902;" glyph-name="fd-cate-do-choi" d="M512-64c-159.744 0-305.152 30.72-462.848 98.304-40.96 18.432-61.44 65.536-43.008 106.496 12.288 30.72 43.008 49.152 75.776 49.152 8.192 0 18.432-2.048 26.624-4.096l14.336-4.096v102.4l-16.384-12.288c-24.576-18.432-55.296-28.672-86.016-28.672-10.24 0-20.48 8.192-20.48 20.48v247.808c0 77.824 63.488 143.36 143.36 143.36 8.192 0 16.384 0 24.576-2.048 38.912-6.144 73.728-28.672 96.256-63.488l4.096-6.144 8.192 2.048c18.432 4.096 36.864 8.192 55.296 8.192h184.32c22.528 0 40.96 18.432 40.96 40.96v61.44c-4.096 145.408 114.688 264.192 262.144 264.192 45.056 0 81.92-36.864 81.92-81.92v-55.296l4.096-4.096c2.048-2.048 6.144-4.096 8.192-6.144l88.064-86.016c16.384-14.336 24.576-34.816 24.576-57.344v-36.864c0-45.056-36.864-81.92-81.92-81.92h-104.448v-397.312l14.336 6.144c20.48 8.192 32.768 12.288 49.152 20.48l6.144 2.048c10.24 4.096 20.48 6.144 32.768 6.144 32.768 0 63.488-20.48 77.824-49.152 18.432-40.96-2.048-90.112-43.008-106.496-157.696-65.536-305.152-96.256-464.896-96.256zM81.92 151.040c-16.384 0-30.72-10.24-36.864-24.576-8.192-20.48 0-45.056 22.528-53.248 149.504-67.584 290.816-96.256 444.416-96.256s294.912 30.72 446.464 94.208c20.48 8.192 30.72 32.768 22.528 53.248-6.144 14.336-22.528 24.576-38.912 24.576-6.144 0-12.288-2.048-16.384-4.096-143.36-59.392-270.336-86.016-413.696-86.016s-272.384 26.624-413.696 88.064c-6.144 2.048-12.288 4.096-16.384 4.096zM389.12 241.152c-57.344 0-102.4-45.056-102.4-102.4v-14.336l8.192-2.048c69.632-16.384 143.36-24.576 215.040-24.576 53.248 0 104.448 4.096 155.648 12.288l8.192 2.048v26.624c0 57.344-45.056 102.4-102.4 102.4h-182.272zM573.44 282.112c77.824 0 143.36-63.488 143.36-143.36v-18.432l12.288 2.048c20.48 4.096 40.96 10.24 61.44 16.384l8.192 2.048v430.080c0 10.24 8.192 20.48 20.48 20.48h122.88c22.528 0 40.96 18.432 40.96 40.96v36.864c0 10.24-4.096 20.48-12.288 28.672l-88.064 86.016c-8.192 8.192-18.432 12.288-28.672 12.288h-34.816c-57.344 0-102.4-45.056-102.4-102.4v-61.44c0-34.816-22.528-65.536-55.296-75.776l-6.144-2.048v-108.544c0-45.056-36.864-81.92-81.92-81.92h-184.32c-45.056 0-81.92 36.864-81.92 81.92v106.496l-12.288-2.048c-75.776-16.384-133.12-86.016-133.12-163.84v-221.184l8.192-4.096c20.48-8.192 43.008-14.336 63.488-22.528l12.288-4.096v12.288c4.096 75.776 67.584 133.12 143.36 133.12h184.32zM143.36 613.888c-57.344 0-102.4-45.056-102.4-102.4v-227.328l14.336 4.096c40.96 14.336 67.584 53.248 67.584 96.256 0 55.296 22.528 106.496 61.44 145.408 10.24 10.24 22.528 20.48 36.864 28.672l10.24 6.144-8.192 8.192c-16.384 20.48-38.912 32.768-61.44 36.864-8.192 4.096-14.336 4.096-18.432 4.096zM348.16 445.952c0-22.528 18.432-40.96 40.96-40.96h184.32c22.528 0 40.96 18.432 40.96 40.96v106.496h-266.24v-106.496zM819.2 919.040c-124.928 0-225.28-100.352-225.28-225.28v-61.44c0-10.24-2.048-18.432-4.096-26.624l-4.096-14.336h49.152c22.528 0 40.96 18.432 40.96 40.96v61.44c0 77.824 63.488 143.36 143.36 143.36h40.96v40.96c0 22.528-18.432 40.96-40.96 40.96z" />
<glyph unicode="&#xe903;" glyph-name="fd-cate-dong-ho" horiz-adv-x="694" d="M114.688 192c8.192-8.192 14.336-18.432 16.384-30.72l24.576-153.6c6.144-43.008 43.008-71.68 86.016-71.68h210.944c22.528 0 45.056 8.192 61.44 24.576 12.288 12.288 20.48 28.672 24.576 47.104l24.576 153.6c2.048 12.288 8.192 22.528 16.384 30.72 4.096 4.096 8.192 8.192 12.288 12.288 65.536 65.536 102.4 151.552 102.4 245.76 0 98.304-40.96 190.464-114.688 256-8.192 8.192-14.336 18.432-16.384 30.72l-24.576 153.6c-8.192 38.912-43.008 69.632-86.016 69.632h-210.944c-22.528 0-45.056-8.192-61.44-24.576-12.288-12.288-20.48-28.672-24.576-47.104l-26.624-153.6c-2.048-12.288-8.192-22.528-16.384-30.72-4.096-4.096-8.192-8.192-12.288-12.288-63.488-65.536-100.352-151.552-100.352-243.712 0-98.304 40.96-190.464 114.688-256v0zM241.664-23.040c-22.528 0-40.96 16.384-45.056 38.912l-24.576 153.6c-4.096 20.48-14.336 38.912-28.672 53.248-65.536 57.344-102.4 139.264-102.4 225.28 0 81.92 30.72 157.696 88.064 215.040 4.096 4.096 6.144 8.192 10.24 10.24 16.384 14.336 26.624 32.768 28.672 55.296l24.576 151.552c4.096 10.24 8.192 18.432 16.384 24.576 8.192 8.192 20.48 14.336 32.768 14.336h210.944c22.528 0 40.96-16.384 45.056-38.912l24.576-153.6c4.096-20.48 14.336-38.912 28.672-53.248 63.488-57.344 100.352-141.312 100.352-225.28 0-81.92-32.768-157.696-90.112-215.040-4.096-4.096-8.192-8.192-12.288-10.24-14.336-12.288-24.576-32.768-28.672-53.248l-24.576-153.6c-2.048-10.24-6.144-18.432-12.288-24.576-8.192-8.192-20.48-14.336-32.768-14.336h-208.896zM301.056 628.224c4.096 0 6.144 2.048 8.192 4.096 4.096 4.096 6.144 10.24 4.096 16.384-2.048 8.192-12.288 14.336-20.48 12.288s-14.336-12.288-12.288-20.48c2.048-10.24 10.24-16.384 20.48-12.288v0zM526.336 402.944c-2.048-8.192 4.096-18.432 12.288-20.48 6.144-2.048 12.288 0 16.384 4.096 2.048 2.048 4.096 4.096 4.096 8.192 2.048 10.24-4.096 18.432-12.288 20.48-10.24 2.048-18.432-4.096-20.48-12.288v0zM292.864 253.44c-2.048-10.24 4.096-18.432 14.336-20.48 6.144-2.048 12.288 0 14.336 4.096 2.048 2.048 4.096 6.144 4.096 8.192 2.048 10.24-4.096 18.432-14.336 20.48-8.192 2.048-16.384-4.096-18.432-12.288v0zM176.128 339.456c2.048 0 2.048 2.048 4.096 2.048 6.144 6.144 6.144 14.336 2.048 20.48-4.096 8.192-14.336 12.288-22.528 6.144-8.192-4.096-12.288-14.336-6.144-22.528 4.096-8.192 14.336-10.24 22.528-6.144v0zM215.040 294.4c6.144 6.144 6.144 18.432 0 24.576s-18.432 6.144-24.576 0c-6.144-6.144-6.144-18.432 0-24.576 8.192-8.192 18.432-8.192 24.576 0v0zM174.080 517.632c2.048 2.048 2.048 4.096 4.096 4.096 4.096 8.192 0 18.432-8.192 22.528s-18.432 0-22.528-8.192c-4.096-8.192 0-18.432 8.192-22.528 6.144-2.048 12.288 0 18.432 4.096v0zM368.64 263.68c-10.24-2.048-16.384-10.24-14.336-18.432 2.048-10.24 10.24-16.384 18.432-14.336 4.096 0 8.192 2.048 10.24 4.096 4.096 4.096 6.144 8.192 4.096 14.336-2.048 10.24-10.24 16.384-18.432 14.336v0zM157.696 460.288c2.048 2.048 4.096 6.144 4.096 10.24 2.048 8.192-4.096 16.384-14.336 18.432s-18.432-6.144-18.432-14.336c-2.048-10.24 6.144-18.432 14.336-18.432 6.144-2.048 10.24 0 14.336 4.096v0zM151.552 394.752c4.096 0 6.144 2.048 8.192 4.096 4.096 4.096 6.144 10.24 4.096 16.384-2.048 8.192-10.24 16.384-20.48 14.336s-16.384-10.24-14.336-20.48c4.096-10.24 12.288-16.384 22.528-14.336v0zM503.808 351.744c-4.096-8.192-2.048-18.432 6.144-22.528 6.144-4.096 16.384-2.048 20.48 2.048 0 0 2.048 2.048 2.048 2.048 4.096 8.192 2.048 18.432-6.144 22.528-6.144 6.144-18.432 4.096-22.528-4.096v0zM249.856 605.696c2.048 0 2.048 2.048 4.096 2.048 6.144 6.144 6.144 14.336 2.048 20.48-4.096 8.192-16.384 10.24-22.528 6.144-8.192-4.096-10.24-16.384-6.144-22.528 4.096-8.192 14.336-10.24 22.528-6.144v0zM260.096 284.16c-8.192 4.096-18.432 2.048-22.528-6.144s-2.048-18.432 6.144-22.528c6.144-4.096 14.336-2.048 20.48 2.048 2.048 2.048 2.048 2.048 2.048 4.096 6.144 8.192 2.048 18.432-6.144 22.528v0zM421.888 280.064c-8.192-4.096-12.288-14.336-8.192-22.528s14.336-12.288 22.528-8.192c2.048 0 4.096 2.048 4.096 4.096 4.096 4.096 6.144 12.288 4.096 18.432-4.096 8.192-14.336 12.288-22.528 8.192v0zM468.992 308.736c-6.144-6.144-8.192-16.384-2.048-24.576 6.144-6.144 16.384-8.192 24.576-2.048v0c6.144 6.144 6.144 16.384 0 22.528-6.144 10.24-16.384 10.24-22.528 4.096v0zM206.848 568.832v0c6.144 8.192 6.144 18.432 0 24.576s-18.432 6.144-24.576-2.048c-6.144-6.144-6.144-18.432 2.048-24.576 6.144-4.096 16.384-4.096 22.528 2.048v0zM548.864 441.856c4.096 0 8.192 2.048 10.24 4.096 4.096 4.096 6.144 8.192 4.096 12.288-6.144 110.592-96.256 200.704-206.848 206.848-10.24 0-18.432-6.144-18.432-16.384s6.144-18.432 16.384-18.432c94.208-4.096 169.984-81.92 174.080-174.080 2.048-8.192 10.24-14.336 20.48-14.336v0z" />
<glyph unicode="&#xe904;" glyph-name="fd-cate-me-va-be" horiz-adv-x="870" d="M389.12 280.064c0-57.344 45.056-102.4 102.4-102.4s102.4 45.056 102.4 102.4-45.056 102.4-102.4 102.4c-55.296 0-102.4-47.104-102.4-102.4zM552.96 280.064c0-34.816-26.624-61.44-61.44-61.44s-61.44 26.624-61.44 61.44 26.624 61.44 61.44 61.44 61.44-28.672 61.44-61.44zM561.152 585.216l-8.192 2.048-6.144-4.096c-69.632-34.816-151.552-34.816-221.184 0l-6.144 4.096-8.192-2.048c-186.368-43.008-311.296-174.080-311.296-325.632 0-143.36 116.736-272.384 288.768-321.536 6.144-2.048 12.288-2.048 18.432-2.048 28.672 0 55.296 18.432 65.536 47.104l2.048 6.144c6.144 18.432 4.096 36.864-6.144 55.296-10.24 16.384-26.624 28.672-47.104 32.768-38.912 8.192-75.776 22.528-104.448 40.96 24.576 4.096 49.152 8.192 63.488 14.336s26.624 16.384 30.72 30.72c6.144 14.336 6.144 28.672 0 43.008-6.144 16.384-14.336 34.816-10.24 73.728 0 6.144 6.144 10.24 12.288 10.24s10.24-4.096 10.24-10.24c6.144-94.208 75.776-161.792 165.888-161.792 83.968 0 153.6 63.488 165.888 143.36 2.048 12.288-8.192 22.528-20.48 22.528v0c-10.24 0-18.432-8.192-20.48-18.432-8.192-61.44-61.44-108.544-124.928-108.544-57.344 0-118.784 40.96-124.928 122.88-2.048 20.48-14.336 38.912-34.816 47.104-32.768 10.24-65.536-10.24-69.632-40.96-6.144-49.152 6.144-77.824 12.288-94.208 2.048-4.096 0-6.144 0-10.24-2.048-4.096-4.096-6.144-8.192-8.192-18.432-6.144-67.584-14.336-94.208-16.384-28.672 30.72-47.104 67.584-47.104 106.496 0 106.496 122.88 190.464 274.432 190.464 155.648-2.048 278.528-88.064 278.528-194.56 0-24.576-6.144-49.152-20.48-71.68-24.576-43.008-16.384-98.304 22.528-126.976 40.96-28.672 96.256-20.48 126.976 16.384 43.008 53.248 65.536 116.736 65.536 180.224 0 153.6-124.928 284.672-309.248 327.68zM774.144 103.936c-16.384-20.48-45.056-24.576-67.584-12.288-24.576 14.336-32.768 47.104-16.384 71.68 18.432 30.72 28.672 61.44 28.672 96.256 0 129.024-141.312 231.424-315.392 231.424s-315.392-104.448-315.392-231.424c0-102.4 94.208-194.56 227.328-223.232 8.192-2.048 14.336-6.144 18.432-14.336 4.096-6.144 4.096-14.336 2.048-20.48l-2.048-6.144c-4.096-14.336-18.432-22.528-32.768-18.432-155.648 45.056-260.096 157.696-260.096 282.624 0 129.024 110.592 243.712 272.384 284.672 77.824-36.864 167.936-36.864 245.76 0 159.744-40.96 272.384-155.648 272.384-284.672-2.048-55.296-20.48-108.544-57.344-155.648zM436.224 570.88c106.496 0 192.512 88.064 192.512 194.56s-86.016 194.56-192.512 194.56-192.512-88.064-192.512-194.56 86.016-194.56 192.512-194.56zM436.224 919.040c83.968 0 151.552-69.632 151.552-153.6s-67.584-153.6-151.552-153.6c-83.968 0-151.552 69.632-151.552 153.6-2.048 83.968 67.584 153.6 151.552 153.6z" />
<glyph unicode="&#xe905;" glyph-name="fd-cate-my-pham" horiz-adv-x="979" d="M274.432 486.912h-10.24v90.112c0 10.24-8.192 20.48-20.48 20.48h-2.048v186.368c0 8.192-4.096 14.336-10.24 18.432l-151.552 73.728c-6.144 4.096-12.288 4.096-18.432 0s-10.24-10.24-10.24-16.384v-262.144c-10.24 0-20.48-8.192-20.48-20.48v-90.112h-10.24c-10.24 0-20.48-8.192-20.48-20.48v-512c0-10.24 8.192-20.48 20.48-20.48h253.952c10.24 0 20.48 8.192 20.48 20.48v514.048c0 10.24-10.24 18.432-20.48 18.432v0zM90.112 828.928l112.64-55.296v-174.080h-112.64v229.376zM69.632 558.592h153.6v-71.68h-153.6v71.68zM253.952-25.088h-215.040v473.088h215.040v-473.088zM958.464 167.424h-634.88c-10.24 0-20.48-8.192-20.48-20.48 0-10.24 8.192-20.48 20.48-20.48h602.112l-2.048-6.144c-24.576-51.2-77.824-83.968-133.12-83.968h-464.896c-10.24 0-20.48-8.192-20.48-20.48 0-10.24 8.192-20.48 20.48-20.48h464.896c71.68 0 137.216 40.96 167.936 106.496l18.432 36.864c2.048 6.144 2.048 12.288-2.048 18.432-2.048 8.192-8.192 10.24-16.384 10.24v0zM280.576 816.64c73.728 67.584 167.936 104.448 266.24 104.448 217.088 0 393.216-176.128 393.216-393.216 0-116.736-51.2-227.328-141.312-301.056-8.192-6.144-10.24-18.432-2.048-26.624 4.096-4.096 10.24-6.144 14.336-6.144s8.192 2.048 12.288 4.096c98.304 81.92 155.648 202.752 155.648 331.776 0 235.52-194.56 430.080-432.128 430.080-108.544 0-212.992-40.96-292.864-114.688-8.192-8.192-8.192-20.48-2.048-28.672 8.192-6.144 20.48-8.192 28.672 0v0zM546.816 839.168c172.032 0 311.296-139.264 311.296-311.296s-139.264-311.296-311.296-311.296c-77.824 0-151.552 28.672-208.896 79.872-8.192 8.192-20.48 6.144-26.624-2.048-8.192-8.192-6.144-20.48 2.048-26.624 63.488-57.344 147.456-90.112 235.52-90.112 192.512 0 350.208 157.696 350.208 350.208-2.048 194.56-159.744 350.208-352.256 350.208-110.592 0-217.088-53.248-282.624-143.36-6.144-8.192-4.096-20.48 4.096-26.624s20.48-4.096 26.624 4.096c59.392 79.872 153.6 126.976 251.904 126.976v0zM761.856 681.472l-356.352-356.352c-8.192-8.192-8.192-20.48 0-26.624 4.096-4.096 8.192-6.144 14.336-6.144 4.096 0 10.24 2.048 14.336 6.144l356.352 356.352c8.192 8.192 8.192 20.48 0 26.624-8.192 8.192-20.48 8.192-28.672 0v0zM514.048 323.072c-8.192-8.192-8.192-20.48 0-26.624 4.096-4.096 8.192-6.144 14.336-6.144 4.096 0 10.24 2.048 14.336 6.144l268.288 268.288c8.192 8.192 8.192 20.48 0 26.624-8.192 8.192-20.48 8.192-26.624 0l-270.336-268.288z" />
<glyph unicode="&#xe906;" glyph-name="fd-cate-nha-cua" d="M1024 681.472l-34.816 260.096c-2.048 10.24-10.24 18.432-20.48 18.432h-188.416c-10.24 0-18.432-8.192-20.48-18.432l-34.816-260.096c-2.048-12.288 8.192-22.528 20.48-22.528h108.544v-722.944h40.96v722.944h108.544c12.288 0 22.528 10.24 20.48 22.528zM798.72 919.040h153.6l28.672-219.136h-212.992l30.72 219.136zM727.040 415.232c-4.096 0-6.144 0-10.24 0v61.44c0 86.016-69.632 155.648-155.648 155.648h-278.528c-86.016 0-155.648-69.632-155.648-155.648v-61.44c-4.096 0-8.192 0-12.288 0-61.44 0-112.64-51.2-112.64-112.64 0-43.008 30.72-81.92 73.728-92.16v-215.040c0-32.768 26.624-59.392 59.392-59.392h575.488c32.768 0 59.392 26.624 59.392 59.392v215.040c40.96 10.24 71.68 47.104 71.68 92.16 0 61.44-51.2 112.64-114.688 112.64zM167.936 476.672c0 63.488 51.2 114.688 114.688 114.688h278.528c63.488 0 114.688-51.2 114.688-114.688v-71.68c-51.2-20.48-83.968-71.68-83.968-124.928v-75.776h-342.016v75.776c0 53.248-32.768 102.4-81.92 124.928v71.68zM591.872 161.28v-63.488h-342.016v63.488h342.016zM749.568 249.344h-8.192c-8.192-2.048-14.336-10.24-14.336-18.432v-233.472c0-10.24-8.192-18.432-18.432-18.432h-575.488c-10.24 0-18.432 8.192-18.432 18.432v231.424c0 10.24-6.144 18.432-16.384 20.48v0h-8.192c-26.624 2.048-49.152 24.576-49.152 53.248 0 38.912 32.768 71.68 71.68 71.68 51.2 0 94.208-43.008 94.208-94.208v-202.752c0-12.288 10.24-20.48 20.48-20.48h385.024c12.288 0 20.48 10.24 20.48 20.48v202.752c0 51.2 43.008 94.208 94.208 94.208 38.912 0 71.68-32.768 71.68-71.68 0-28.672-22.528-51.2-49.152-53.248z" />
<glyph unicode="&#xe907;" glyph-name="fd-cate-o-to" d="M512-64c-282.624 0-512 229.376-512 512s229.376 512 512 512 512-229.376 512-512-229.376-512-512-512zM512 916.992c-260.096 0-471.040-210.944-471.040-468.992s210.944-468.992 471.040-468.992c260.096 0 471.040 210.944 471.040 468.992s-210.944 468.992-471.040 468.992zM612.352 65.024c-10.24-2.048-20.48 4.096-24.576 14.336 0 0-2.048 24.576-2.048 26.624l10.24 69.632c14.336 98.304 92.16 174.080 188.416 188.416l69.632 10.24c4.096 0 26.624 0 26.624 0 10.24-2.048 18.432-14.336 14.336-26.624-34.816-135.168-145.408-245.76-282.624-282.624zM847.872 329.216l-57.344-8.192c-79.872-12.288-141.312-73.728-153.6-153.6l-8.192-55.296c100.352 38.912 182.272 118.784 219.136 217.088zM411.648 65.024c-137.216 36.864-247.808 147.456-284.672 284.672-2.048 12.288 4.096 22.528 14.336 26.624 0 0 22.528 0 26.624 0l69.632-10.24c96.256-14.336 174.080-92.16 188.416-188.416l10.24-69.632c0-4.096-2.048-26.624-2.048-26.624-2.048-12.288-12.288-18.432-22.528-16.384zM176.128 329.216c36.864-100.352 116.736-180.224 217.088-215.040l-8.192 55.296c-10.24 77.824-73.728 141.312-153.6 153.6l-55.296 6.144zM512 341.504c-59.392 0-106.496 49.152-106.496 106.496s47.104 106.496 106.496 106.496c59.392 0 106.496-49.152 106.496-106.496s-47.104-106.496-106.496-106.496zM512 513.536c-36.864 0-65.536-28.672-65.536-65.536s28.672-65.536 65.536-65.536c36.864 0 65.536 28.672 65.536 65.536s-28.672 65.536-65.536 65.536zM849.92 550.4c-63.488 28.672-192.512 77.824-337.92 77.824s-274.432-49.152-337.92-77.824c-2.048-2.048-24.576 2.048-24.576 2.048-10.24 4.096-16.384 16.384-12.288 26.624 55.296 157.696 206.848 266.24 374.784 266.24s319.488-108.544 374.784-266.24c4.096-10.24-2.048-22.528-12.288-26.624 0 0-22.528-4.096-24.576-2.048zM512 802.304c-135.168 0-260.096-79.872-319.488-198.656 73.728 30.72 188.416 67.584 319.488 67.584 129.024 0 245.76-36.864 319.488-67.584-59.392 118.784-184.32 198.656-319.488 198.656z" />
<glyph unicode="&#xe908;" glyph-name="fd-cate-sach" d="M579.584 534.016c4.096-6.144 10.24-10.24 18.432-10.24 4.096 0 6.144 0 8.192 2.048 0 0 100.352 51.2 149.504 67.584 4.096 2.048 10.24 4.096 12.288 10.24 2.048 4.096 2.048 10.24 2.048 14.336-2.048 8.192-10.24 14.336-18.432 14.336-2.048 0-4.096 0-6.144 0-49.152-14.336-137.216-59.392-155.648-69.632-12.288-8.192-16.384-20.48-10.24-28.672zM1003.52 644.608c-10.24 0-20.48-8.192-20.48-20.48v-540.672c0-26.624-20.48-47.104-47.104-47.104h-403.456v34.816c26.624 8.192 88.064 28.672 149.504 28.672 147.456 0 247.808-32.768 247.808-32.768 2.048 0 4.096 0 6.144 0 4.096 0 8.192 2.048 12.288 4.096 6.144 4.096 8.192 10.24 8.192 16.384v620.544c0 10.24-6.144 18.432-16.384 20.48 0 0-14.336 2.048-36.864 6.144-2.048 0-2.048 0-4.096 0-10.24 0-18.432-6.144-20.48-16.384s6.144-20.48 16.384-22.528c8.192-2.048 14.336-2.048 18.432-4.096v-581.632c-40.96 10.24-124.928 26.624-233.472 26.624-73.728 0-147.456-24.576-167.936-32.768-22.528 10.24-81.92 32.768-153.6 32.768-112.64 0-204.8-16.384-251.904-28.672v585.728c38.912 10.24 135.168 28.672 251.904 28.672 59.392 0 110.592-18.432 133.12-26.624v-542.72c0-8.192 4.096-14.336 10.24-18.432 2.048-2.048 6.144-2.048 10.24-2.048s8.192 0 10.24 2.048c6.144 4.096 172.032 102.4 317.44 151.552 8.192 2.048 14.336 10.24 14.336 18.432v573.44c0 6.144-4.096 12.288-8.192 16.384-4.096 2.048-8.192 4.096-12.288 4.096-2.048 0-4.096 0-6.144-2.048-131.072-49.152-260.096-126.976-274.432-137.216-10.24-6.144-12.288-18.432-6.144-26.624 4.096-6.144 10.24-10.24 16.384-10.24 4.096 0 8.192 2.048 10.24 2.048s116.736 73.728 241.664 122.88v-530.432c-112.64-38.912-231.424-104.448-282.624-133.12v524.288c0 8.192-4.096 14.336-10.24 18.432-8.192 4.096-75.776 36.864-161.792 36.864-155.648 0-272.384-34.816-278.528-34.816-8.192-2.048-14.336-10.24-14.336-20.48v-624.64c0-6.144 2.048-12.288 8.192-16.384 4.096-2.048 8.192-4.096 12.288-4.096 2.048 0 4.096 0 6.144 0 4.096 2.048 120.832 32.768 266.24 32.768 59.392 0 110.592-18.432 133.12-26.624v-34.816h-405.504c-26.624 2.048-47.104 24.576-47.104 49.152v540.672c0 10.24-8.192 20.48-20.48 20.48-10.24 0-20.48-8.192-20.48-20.48v-540.672c0-49.152 38.912-88.064 88.064-88.064h847.872c49.152 0 88.064 38.912 88.064 88.064v540.672c0 10.24-8.192 20.48-20.48 20.48zM595.968 624.128c4.096 0 6.144 0 8.192 2.048 0 0 100.352 51.2 149.504 67.584 4.096 2.048 10.24 4.096 12.288 10.24 2.048 4.096 2.048 10.24 2.048 14.336-2.048 8.192-10.24 14.336-18.432 14.336-2.048 0-4.096 0-6.144 0-49.152-16.384-137.216-59.392-155.648-69.632-10.24-4.096-14.336-16.384-8.192-26.624 2.048-8.192 10.24-12.288 16.384-12.288zM579.584 431.616c4.096-6.144 10.24-10.24 18.432-10.24 4.096 0 6.144 0 10.24 2.048 10.24 6.144 102.4 51.2 149.504 65.536 10.24 4.096 16.384 14.336 12.288 24.576-2.048 8.192-10.24 14.336-18.432 14.336-2.048 0-4.096 0-6.144 0-49.152-14.336-137.216-59.392-155.648-69.632-12.288-4.096-16.384-16.384-10.24-26.624zM428.032 595.456c-2.048 4.096-8.192 8.192-12.288 8.192-26.624 6.144-57.344 10.24-90.112 10.24-75.776 0-139.264-16.384-141.312-18.432-10.24-2.048-16.384-14.336-14.336-24.576 2.048-8.192 10.24-14.336 18.432-14.336 2.048 0 4.096 0 6.144 0 0 0 61.44 16.384 131.072 16.384 28.672 0 55.296-2.048 79.872-8.192 2.048 0 2.048 0 4.096 0 10.24 0 16.384 6.144 20.48 16.384 0 4.096 0 8.192-2.048 14.336zM579.584 329.216c4.096-6.144 10.24-10.24 18.432-10.24 4.096 0 6.144 0 10.24 2.048 10.24 6.144 102.4 51.2 149.504 65.536 4.096 2.048 10.24 4.096 12.288 10.24 2.048 4.096 2.048 10.24 2.048 14.336-6.144 10.24-14.336 16.384-22.528 16.384-2.048 0-4.096 0-6.144 0-49.152-14.336-137.216-59.392-155.648-69.632-10.24-6.144-14.336-18.432-8.192-28.672zM190.464 454.144c2.048 0 4.096 0 6.144 0 0 0 61.44 16.384 131.072 16.384 28.672 0 55.296-2.048 79.872-8.192 2.048 0 2.048 0 4.096 0 10.24 0 16.384 6.144 20.48 16.384 2.048 6.144 0 10.24-2.048 14.336s-8.192 8.192-12.288 8.192c-26.624 6.144-57.344 10.24-90.112 10.24-75.776 0-139.264-16.384-141.312-18.432-10.24-2.048-16.384-14.336-14.336-24.576 0-8.192 8.192-14.336 18.432-14.336zM415.744 298.496c-26.624 6.144-57.344 10.24-90.112 10.24-75.776 0-139.264-16.384-141.312-18.432-10.24-2.048-16.384-14.336-14.336-24.576 2.048-8.192 10.24-14.336 18.432-14.336 2.048 0 4.096 0 6.144 0 0 0 61.44 16.384 131.072 16.384 28.672 0 55.296-2.048 79.872-8.192 2.048 0 2.048 0 4.096 0 10.24 0 16.384 6.144 20.48 16.384 2.048 8.192-4.096 20.48-14.336 22.528zM428.032 390.656c-2.048 4.096-8.192 8.192-12.288 8.192-26.624 6.144-57.344 10.24-90.112 10.24-75.776 0-139.264-16.384-141.312-18.432-10.24-2.048-16.384-14.336-14.336-24.576 2.048-8.192 10.24-14.336 18.432-14.336 2.048 0 4.096 0 6.144 0 0 0 61.44 16.384 131.072 16.384 28.672 0 55.296-2.048 79.872-8.192 2.048 0 2.048 0 4.096 0 10.24 0 16.384 6.144 20.48 16.384 0 4.096 0 10.24-2.048 14.336z" />
<glyph unicode="&#xe909;" glyph-name="fd-cate-suc-khoe" d="M1005.568 468.48h-77.824c26.624 38.912 38.912 86.016 38.912 133.12 0 65.536-26.624 126.976-71.68 174.080-47.104 47.104-108.544 71.68-174.080 71.68s-126.976-24.576-174.080-71.68l-34.816-36.864-30.72 30.72c-40.96 40.96-96.256 69.632-153.6 75.776-75.776 8.192-147.456-18.432-198.656-69.632-47.104-47.104-71.68-108.544-71.68-174.080 0-47.104 12.288-92.16 36.864-129.024h-75.776c-10.24 0-18.432-8.192-18.432-18.432v0c0-10.24 8.192-18.432 18.432-18.432h104.448c2.048-2.048 4.096-6.144 6.144-8.192l370.688-370.688c6.144-6.144 18.432-6.144 26.624 0l370.688 370.688c2.048 2.048 2.048 2.048 4.096 4.096h106.496c10.24 0 18.432 8.192 18.432 18.432v0c-2.048 10.24-10.24 18.432-20.48 18.432zM94.208 601.6c0 55.296 22.528 108.544 61.44 147.456 45.056 45.056 108.544 67.584 174.080 59.392 47.104-6.144 92.16-28.672 124.928-63.488l38.912-38.912c12.288-12.288 24.576-12.288 30.72-4.096l49.152 47.104c38.912 38.912 92.16 61.44 147.456 61.44s108.544-22.528 147.456-61.44c38.912-38.912 61.44-92.16 61.44-147.456 0-49.152-16.384-96.256-49.152-133.12h-129.024l-53.248 184.32c-4.096 16.384-26.624 18.432-34.816 2.048l-151.552-315.392-155.648 315.392c-6.144 12.288-24.576 14.336-32.768 0l-106.496-184.32h-77.824c-30.72 38.912-45.056 83.968-45.056 131.072zM512 95.744l-339.968 339.968h65.536l100.352 172.032 157.696-319.488c6.144-14.336 26.624-14.336 32.768 0l151.552 307.2 47.104-163.84h120.832l-335.872-335.872z" />
<glyph unicode="&#xe90a;" glyph-name="fd-cate-thoi-trang" horiz-adv-x="690" d="M346.112-64c-36.864 0-75.776 2.048-112.64 6.144l-217.088 22.528c-6.144 0-10.24 4.096-14.336 8.192-2.048 6.144-2.048 12.288-2.048 16.384 61.44 210.944 131.072 344.064 178.176 419.84v90.112l-71.68 249.856c0 2.048 0 6.144 0 8.192l24.576 186.368c2.048 10.24 10.24 16.384 20.48 16.384h94.208v-202.752h2.048c38.912-16.384 71.68-43.008 96.256-79.872v0h4.096l2.048 2.048c24.576 36.864 57.344 63.488 96.256 79.872h2.048v200.704h94.208c10.24 0 18.432-6.144 20.48-16.384l24.576-184.32c0-2.048 0-6.144 0-8.192l-75.776-251.904v-88.064c49.152-77.824 118.784-210.944 178.176-419.84 2.048-6.144 0-10.24-2.048-16.384-4.096-4.096-8.192-8.192-14.336-8.192l-215.040-22.528c-36.864-6.144-75.776-8.192-112.64-8.192zM210.944 382.464c-63.488-100.352-116.736-227.328-161.792-376.832v-2.048l188.416-22.528c36.864-4.096 71.68-6.144 108.544-6.144s73.728 2.048 108.544 6.144l188.416 20.48v2.048c-45.056 151.552-100.352 278.528-161.792 378.88h-38.912l45.056-118.784c2.048-10.24-6.144-20.48-16.384-22.528-2.048 0-2.048 0-4.096 0-10.24 0-18.432 8.192-20.48 18.432l-47.104 124.928h-34.816v-202.752c0-12.288-10.24-20.48-20.48-20.48s-20.48 10.24-20.48 20.48v200.704h-34.816l-47.104-124.928c-2.048-10.24-10.24-18.432-20.48-18.432-2.048 0-2.048 0-4.096 0-10.24 2.048-18.432 12.288-16.384 24.576l45.056 118.784h-34.816zM219.136 425.472h251.904v55.296h-251.904v-55.296zM215.040 521.728h258.048l65.536 212.992h-2.048c-36.864 0-104.448-12.288-153.6-81.92-8.192-12.288-22.528-18.432-36.864-18.432s-28.672 6.144-36.864 18.432c-49.152 69.632-116.736 79.872-153.6 81.92h-2.048l61.44-212.992zM487.424 771.584h2.048c16.384 2.048 30.72 4.096 47.104 4.096h2.048l-16.384 143.36h-34.816v-147.456zM151.552 775.68h2.048c16.384 0 30.72-2.048 47.104-4.096h2.048v147.456h-34.816l-16.384-143.36z" />
<glyph unicode="&#xe90b;" glyph-name="fd-cate-trang-suc" horiz-adv-x="823" d="M520.192 742.912l63.488 77.824c4.096 6.144 6.144 14.336 2.048 22.528l-59.392 108.544c-4.096 4.096-10.24 8.192-16.384 8.192h-194.56c-6.144 0-14.336-4.096-16.384-10.24l-59.392-108.544c-4.096-6.144-4.096-16.384 2.048-22.528l63.488-77.824c-176.128-45.056-305.152-204.8-305.152-393.216 0-227.328 184.32-411.648 411.648-411.648s411.648 184.32 411.648 411.648c0 188.416-129.024 348.16-303.104 395.264zM479.232 753.152c-16.384 2.048-32.768 4.096-49.152 4.096v57.344h98.304l-49.152-61.44zM536.576 851.456h-81.92l51.2 55.296 30.72-55.296zM464.896 921.088l-55.296-59.392-55.296 59.392h110.592zM317.44 908.8l51.2-57.344h-81.92l30.72 57.344zM292.864 814.592h98.304v-55.296c-16.384 0-32.768-2.048-47.104-4.096l-51.2 59.392zM411.648-23.040c-204.8 0-370.688 165.888-370.688 370.688s165.888 370.688 370.688 370.688c204.8 0 370.688-165.888 370.688-370.688s-165.888-370.688-370.688-370.688zM411.648 658.944c-172.032 0-311.296-139.264-311.296-311.296s139.264-311.296 311.296-311.296 311.296 139.264 311.296 311.296c0 169.984-141.312 311.296-311.296 311.296zM411.648 77.312c-149.504 0-270.336 120.832-270.336 270.336s120.832 270.336 270.336 270.336c149.504 0 270.336-120.832 270.336-270.336s-120.832-270.336-270.336-270.336z" />
<glyph unicode="&#xe90c;" glyph-name="fd-cart" horiz-adv-x="1106" d="M464.386 136.306c-55.361 0-100.24-44.879-100.24-100.24s44.879-100.24 100.24-100.24c55.361 0 100.24 44.879 100.24 100.24v0c0 55.361-44.879 100.24-100.24 100.24v0zM464.386-2.992c-21.667 0-39.232 17.565-39.232 39.232s17.565 39.232 39.232 39.232c21.667 0 39.232-17.565 39.232-39.232v0c0-21.667-17.565-39.232-39.232-39.232v0zM803.473 136.306c-55.361 0-100.24-44.879-100.24-100.24s44.879-100.24 100.24-100.24c55.361 0 100.24 44.879 100.24 100.24v0c0 55.361-44.879 100.24-100.24 100.24v0zM803.473-2.992c-21.667 0-39.232 17.565-39.232 39.232s17.565 39.232 39.232 39.232c21.667 0 39.232-17.565 39.232-39.232v0c0-21.667-17.565-39.232-39.232-39.232v0zM440.536 584.274h386.614c0.688-0.055 1.489-0.086 2.298-0.086 16.895 0 30.59 13.696 30.59 30.59s-13.696 30.59-30.59 30.59c-0.809 0-1.61-0.031-2.403-0.093l0.105 0.007h-386.614c-0.688 0.055-1.489 0.086-2.298 0.086-16.895 0-30.59-13.696-30.59-30.59s13.696-30.59 30.59-30.59c0.809 0 1.61 0.031 2.403 0.093l-0.105-0.007zM806.238 505.119h-344.617c-15.877-1.232-28.293-14.418-28.293-30.504s12.416-29.272 28.188-30.497l0.105-0.007h344.617c15.877 1.232 28.293 14.418 28.293 30.504s-12.416 29.272-28.188 30.497l-0.105 0.007zM1093.131 764.187c-10.572 13.012-26.573 21.258-44.5 21.258-0.031 0-0.063 0-0.094 0h-837.687l-16.246 79.5c-3.961 18.607-16.486 33.639-33.16 40.988l-0.369 0.145-118.386 51.33c-3.552 1.563-7.694 2.472-12.047 2.472-16.895 0-30.59-13.696-30.59-30.59 0-3.934 0.743-7.694 2.095-11.149l-0.072 0.208c2.911-7.785 8.707-13.918 16.054-17.206l0.192-0.077 116.831-50.293 130.139-632.028c5.698-26.303 28.741-45.731 56.334-45.799h646.208c16.895 0 30.59 13.696 30.59 30.59s-13.696 30.59-30.59 30.59h-643.262l-14.517 69.131h663.137c27.6 0.068 50.644 19.496 56.272 45.418l0.069 0.381 75.525 366.393c0.821 3.638 1.291 7.816 1.291 12.104 0 13.97-4.993 26.774-13.291 36.725l0.075-0.092zM1044.221 724.264l-73.97-359.307h-672.816l-73.97 359.307z" />
<glyph unicode="&#xe90d;" glyph-name="fd-filter" d="M1000.96 815.36c0 89.6-245.76 136.96-487.68 136.96s-486.4-47.36-486.4-136.96c0-20.48 12.8-38.4 34.56-53.76l335.36-459.52v-341.76c0-8.96 5.12-15.36 12.8-19.2l12.8-5.12 207.36 207.36v158.72l335.36 458.24c23.040 16.64 35.84 34.56 35.84 55.040v0zM514.56 912.64c273.92 0 448-57.6 448-97.28 0-7.68-7.68-16.64-21.76-26.88h-1.28c-55.040-34.56-209.92-70.4-426.24-70.4s-371.2 35.84-426.24 70.4v0l-6.4 5.12c-8.96 7.68-15.36 14.080-15.36 21.76 0 39.68 175.36 97.28 449.28 97.28v0zM591.36 160l-154.88-156.16v285.44h156.16v-129.28zM601.6 327.68h-175.36l-290.56 398.080c93.44-30.72 236.8-47.36 378.88-47.36s284.16 16.64 378.88 47.36l-291.84-398.080z" />
<glyph unicode="&#xe90e;" glyph-name="fd-heart" horiz-adv-x="1178" d="M615.394-52.767c-6.666-6.673-15.879-10.801-26.056-10.801s-19.39 4.128-26.055 10.801v0l-469.924 469.556c-57.579 57.581-93.193 137.128-93.193 224.993 0 175.733 142.46 318.193 318.193 318.193 13.114 0 26.043-0.793 38.742-2.335l-1.528 0.151c76.156-10.017 142.754-44.885 192.732-96.057l0.062-0.064 40.879-41.063 46.035 46.219c57.884 59.528 138.736 96.462 228.215 96.462 175.733 0 318.193-142.46 318.193-318.193 0-89.524-36.972-170.414-96.479-228.232l-0.076-0.074zM589.247 13.339l449.669 449.485c45.798 45.775 74.126 109.025 74.126 178.892 0 139.687-113.239 252.926-252.926 252.926-69.821 0-133.034-28.291-178.801-74.035l0.001 0.001-66.29-66.474c-6.666-6.673-15.879-10.801-26.056-10.801s-19.39 4.128-26.055 10.801v0l-60.766 61.134c-39.929 41.112-93.076 69.191-152.57 77.369l-1.37 0.154c-8.902 1.055-19.212 1.657-29.663 1.657-0.124 0-0.247 0-0.371 0h0.019c-0.093 0-0.203 0-0.314 0-139.529 0-252.639-113.111-252.639-252.639 0-69.934 28.415-133.231 74.33-178.976l0.008-0.008z" />
<glyph unicode="&#xe90f;" glyph-name="fd-user" horiz-adv-x="871" d="M432 408.32h6.72c1.383-0.035 3.012-0.055 4.645-0.055 57.311 0 108.868 24.638 144.655 63.9l0.139 0.155c81.6 92 68 249.76 66.56 264.8-5.28 112.96-58.72 167.040-102.88 192-32.789 19-72.053 30.399-113.941 30.879l-0.139 0.001h-3.68c-0.141 0-0.308 0-0.475 0-41.67 0-80.82-10.793-114.806-29.735l1.201 0.614c-44.48-25.28-98.88-80-104.16-193.12-1.44-15.040-15.040-172.8 66.56-264.8 35.795-39.414 87.242-64.060 144.445-64.060 1.7 0 3.395 0.022 5.085 0.065l-0.25-0.005zM272 732.48s0 1.28 0 1.76c7.040 152 114.88 168.32 161.12 168.32h2.56c57.28-1.28 154.56-24.64 161.12-168.32-0.062-0.264-0.098-0.568-0.098-0.88s0.036-0.616 0.103-0.907l-0.005 0.027c0-1.44 15.040-145.76-52.32-221.6-25.532-28.049-62.192-45.584-102.947-45.584-2.227 0-4.442 0.052-6.644 0.156l0.311-0.012h-2.080c-1.859-0.089-4.038-0.14-6.229-0.14-40.688 0-77.279 17.537-102.628 45.465l-0.103 0.115c-66.24 75.52-52.16 220.32-52.16 221.6zM870.88 146.56v0c0 1.76 0 3.36 0 5.28-1.28 41.92-4 140.16-96 171.52h-2.080c-66.925 18.686-125.468 46.048-178.21 81.394l2.21-1.394c-4.332 2.772-9.615 4.419-15.284 4.419-15.817 0-28.64-12.823-28.64-28.64 0-9.191 4.329-17.37 11.060-22.611l0.064-0.048c55.549-37.723 119.965-67.999 188.946-87.364l4.654-1.116c49.44-17.6 54.88-70.4 56.32-118.72-0.053-0.789-0.084-1.711-0.084-2.64s0.030-1.851 0.090-2.764l-0.007 0.124c0.036-1.964 0.056-4.28 0.056-6.601 0-20.825-1.65-41.266-4.825-61.197l0.289 2.198c-34.4-17.92-169.44-85.44-373.76-85.44s-339.68 67.68-374.080 87.040c-2.908 17.285-4.57 37.198-4.57 57.499 0 2.848 0.033 5.689 0.098 8.522l-0.008-0.421c0 1.76 0 3.36 0 5.28 1.44 48 7.040 101.12 56.48 118.72 73.633 20.58 138.037 50.846 195.957 89.981l-2.357-1.501c8.077 5.156 13.356 14.072 13.356 24.221 0 15.817-12.823 28.64-28.64 28.64-6.627 0-12.728-2.251-17.58-6.029l0.064 0.048c-50.516-34.069-109.075-61.444-171.742-78.982l-4.258-1.018h-2.080c-92-32.32-94.72-130.4-96.32-172.16 0.052-0.789 0.081-1.711 0.081-2.64s-0.029-1.851-0.087-2.765l0.006 0.125c-0.137-3.522-0.215-7.658-0.215-11.812 0-29.942 4.049-58.938 11.631-86.47l-0.536 2.282c2.214-5.597 6.051-10.157 10.926-13.214l0.114-0.066c6.4-4.32 158.88-101.44 413.92-101.44s407.52 97.28 413.92 101.44c4.938 3.181 8.756 7.721 10.971 13.092l0.069 0.188c6.642 25.169 10.456 54.065 10.456 83.851 0 4.272-0.078 8.527-0.234 12.761l0.018-0.612z" />
<glyph unicode="&#xe910;" glyph-name="fd-filter-asc" d="M473.6 151.040h-110.080v784.64c0 5.12-1.28 10.24-5.12 12.8-3.84 3.84-7.68 5.12-12.8 5.12h-110.080c-5.12 0-10.24-1.28-12.8-5.12-3.84-3.84-5.12-7.68-5.12-12.8v-784.64h-108.8c-8.96 0-14.080-3.84-16.64-11.52s-1.28-14.080 3.84-20.48l181.76-183.040c3.84-3.84 8.96-5.12 12.8-5.12 5.12 0 8.96 1.28 12.8 5.12l183.040 183.040c3.84 5.12 5.12 8.96 5.12 14.080s-1.28 10.24-5.12 12.8c-3.84 2.56-7.68 5.12-12.8 5.12v0zM872.96 316.16c-30.72 35.84-70.4 53.76-116.48 53.76-40.96 0-75.52-14.080-103.68-42.24-26.88-28.16-40.96-61.44-40.96-101.12 0-38.4 12.8-71.68 38.4-98.56s58.88-40.96 98.56-40.96c16.64 0 33.28 2.56 48.64 7.68s26.88 12.8 34.56 21.76h1.28c-6.4-33.28-19.2-60.16-38.4-83.2-19.2-21.76-44.8-33.28-76.8-33.28-14.080 0-28.16 2.56-42.24 7.68-6.4 1.28-11.52 3.84-17.92 6.4l-21.76-64c6.4-2.56 15.36-5.12 24.32-8.96 17.92-6.4 38.4-8.96 61.44-8.96 26.88 0 49.92 5.12 72.96 14.080 21.76 8.96 40.96 21.76 56.32 37.12s28.16 33.28 38.4 55.040c10.24 20.48 17.92 42.24 23.040 65.28s7.68 46.080 7.68 69.12c-1.28 58.88-16.64 106.24-47.36 143.36v0zM819.2 166.4c-12.8-10.24-29.44-15.36-48.64-15.36-25.6 0-46.080 7.68-60.16 21.76-12.8 14.080-19.2 32-19.2 53.76s6.4 39.68 17.92 53.76c11.52 14.080 28.16 20.48 47.36 20.48 23.040 0 42.24-10.24 58.88-30.72s25.6-42.24 25.6-66.56c-1.28-14.080-7.68-26.88-21.76-37.12v0zM710.4 832c6.4 6.4 11.52 12.8 15.36 17.92l3.84 6.4h1.28v-8.96c0-1.28 0-5.12 0-10.24s0-7.68 0-10.24v-247.040h-94.72v-65.28h267.52v65.28h-94.72v373.76h-70.4l-110.080-104.96 47.36-48.64 34.56 32z" />
<glyph unicode="&#xe911;" glyph-name="fd-filter-desc" d="M473.6 149.76h-110.080v787.2c0 5.12-1.28 10.24-5.12 12.8-3.84 3.84-7.68 5.12-12.8 5.12h-110.080c-5.12 0-10.24-1.28-12.8-5.12-3.84-3.84-5.12-7.68-5.12-12.8v-785.92h-110.080c-8.96 0-14.080-3.84-16.64-11.52s-1.28-14.080 3.84-20.48l183.040-183.040c3.84-3.84 8.96-5.12 12.8-5.12 5.12 0 8.96 1.28 12.8 5.12l183.040 181.76c3.84 5.12 5.12 8.96 5.12 14.080s-1.28 10.24-5.12 12.8c-3.84 3.84-7.68 5.12-12.8 5.12v0zM808.96 369.92h-70.4l-110.080-106.24 47.36-48.64 35.84 33.28c6.4 6.4 11.52 12.8 15.36 17.92l3.84 6.4h1.28v-8.96c0-1.28 0-5.12 0-10.24s0-7.68 0-10.24v-247.040h-96v-65.28h267.52v65.28h-94.72v373.76zM872.96 901.12c-30.72 35.84-70.4 53.76-117.76 53.76-40.96 0-75.52-14.080-103.68-42.24-26.88-28.16-40.96-61.44-40.96-101.12 0-38.4 12.8-71.68 38.4-98.56s58.88-40.96 98.56-40.96c16.64 0 33.28 2.56 48.64 7.68s26.88 12.8 34.56 21.76h1.28c-6.4-33.28-19.2-61.44-38.4-83.2s-44.8-33.28-76.8-33.28c-14.080 0-28.16 2.56-42.24 7.68-6.4 1.28-11.52 3.84-17.92 6.4l-21.76-64c6.4-2.56 15.36-5.12 24.32-8.96 17.92-6.4 38.4-8.96 61.44-8.96 26.88 0 51.2 5.12 72.96 14.080s40.96 21.76 56.32 37.12c15.36 15.36 28.16 33.28 38.4 55.040 10.24 20.48 17.92 42.24 23.040 65.28s7.68 46.080 7.68 69.12c1.28 58.88-14.080 107.52-46.080 143.36v0zM820.48 751.36c-12.8-10.24-29.44-15.36-48.64-15.36-25.6 0-46.080 7.68-60.16 21.76s-20.48 32-20.48 53.76c0 21.76 6.4 39.68 17.92 53.76s28.16 21.76 47.36 21.76c23.040 0 42.24-10.24 58.88-30.72s25.6-42.24 25.6-66.56c-1.28-15.36-7.68-28.16-20.48-38.4v0z" />
<glyph unicode="&#xe912;" glyph-name="fd-filter-hightlight" d="M1003.52 486.4c20.48 19.2 26.88 48.64 19.2 75.52-8.96 26.88-32 46.080-58.88 49.92l-248.32 35.84c-10.24 1.28-19.2 7.68-24.32 17.92l-112.64 226.56c-12.8 25.6-38.4 40.96-66.56 40.96s-53.76-15.36-66.56-40.96l-111.36-225.28c-5.12-8.96-14.080-16.64-24.32-17.92l-248.32-37.12c-28.16-3.84-51.2-23.040-58.88-49.92-8.96-26.88-1.28-56.32 19.2-75.52l180.48-175.36c7.68-7.68 11.52-17.92 8.96-29.44l-42.24-248.32c-5.12-28.16 6.4-55.040 29.44-71.68s52.48-19.2 78.080-5.12l222.72 116.48c8.96 5.12 20.48 5.12 30.72 0l222.72-116.48c11.52-5.12 23.040-8.96 34.56-8.96 15.36 0 30.72 5.12 43.52 14.080 23.040 16.64 34.56 43.52 29.44 71.68l-42.24 248.32c-1.28 10.24 1.28 21.76 8.96 28.16l176.64 176.64zM774.4 275.2l42.24-247.040c2.56-12.8-2.56-24.32-12.8-32s-23.040-8.96-34.56-2.56l-222.72 116.48c-10.24 5.12-23.040 8.96-34.56 8.96s-23.040-2.56-34.56-8.96l-221.44-116.48c-11.52-6.4-24.32-5.12-34.56 2.56s-15.36 19.2-12.8 32l42.24 247.040c3.84 24.32-3.84 48.64-21.76 65.28l-179.2 175.36c-8.96 8.96-11.52 21.76-7.68 33.28s14.080 20.48 25.6 21.76l248.32 35.84c24.32 3.84 44.8 17.92 55.040 39.68l111.36 225.28c6.4 12.8 16.64 20.48 29.44 20.48s23.040-6.4 29.44-17.92l111.36-226.56c10.24-21.76 32-37.12 55.040-39.68l248.32-35.84c12.8-1.28 21.76-10.24 25.6-21.76s1.28-24.32-7.68-33.28l-179.2-176.64c-17.92-16.64-25.6-40.96-20.48-65.28v0z" />
<glyph unicode="&#xe913;" glyph-name="fd-filter-top-new" d="M512 832c-28.2 0-51.2-23-51.2-51.2s23-51.2 51.2-51.2c28.2 0 51.2 23 51.2 51.2s-23 51.2-51.2 51.2zM512 695.4c-47 0-85.4 38.2-85.4 85.4s38.2 85.4 85.4 85.4 85.4-38.2 85.4-85.4-38.4-85.4-85.4-85.4zM843.4 579.2c-1.8 1.2-173.8 125.2-272.2 187.2l18.2 28.8c99.2-62.4 272.2-187 274-188.4l-20-27.6zM180.6 579.2l-20 27.6c1.8 1.2 174.6 125.8 274 188.4l18.2-28.8c-98.4-62-270.4-186-272.2-187.2zM67.6 576c-18.4 0-33.4-15-33.4-33.4v-445c0-18.4 15-33.4 33.4-33.4h888.8c18.4 0 33.4 15 33.4 33.4v445c0 18.4-15 33.4-33.4 33.4h-888.8zM956.4 29.8h-888.8c-37.2 0-67.6 30.4-67.6 67.6v445.2c0 37.2 30.4 67.6 67.6 67.6h888.8c37.2 0 67.6-30.4 67.6-67.6v-445c0-37.4-30.4-67.8-67.6-67.8v0zM119.4 29.8c-9.4 0-17 7.6-17 17v546.2c0 9.4 7.6 17 17 17s17-7.6 17-17v-546.2c0.2-9.2-7.4-17-17-17zM904.6 29.8c-9.4 0-17 7.6-17 17v546.2c0 9.4 7.6 17 17 17s17-7.6 17-17v-546.2c0-9.2-7.6-17-17-17zM68.2 285.8c-9.4 0-17 7.6-17 17v85.4c0 9.4 7.6 17 17 17s17-7.6 17-17v-85.4c0.2-9.2-7.4-17-17-17zM68.2 217.6c-9.4 0-17 7.6-17 17v17c0 9.4 7.6 17 17 17s17-7.6 17-17v-17c0.2-9.4-7.4-17-17-17zM955.8 354.2c-18.8 0-34.2-15.4-34.2-34.2s15.4-34.2 34.2-34.2c18.8 0 34.2 15.4 34.2 34.2s-15.4 34.2-34.2 34.2zM955.8 251.8c-37.6 0-68.2 30.6-68.2 68.2s30.6 68.2 68.2 68.2c37.6 0 68.2-30.6 68.2-68.2s-30.6-68.2-68.2-68.2zM239 217.6c-9.4 0-17 7.6-17 17v170.6c0 9.4 7.6 17 17 17s17-7.6 17-17v-170.6c0-9.4-7.6-17-17-17zM341.4 217.6c-9.4 0-17 7.6-17 17v170.6c0 9.4 7.6 17 17 17s17-7.6 17-17v-170.6c0-9.4-7.6-17-17-17zM341.4 217.6c-5.8 0-11.4 3-14.6 8.2l-102.4 170.6c-4.8 8-2.2 18.6 5.8 23.4s18.6 2.2 23.4-5.8l102.4-170.6c4.8-8 2.2-18.6-5.8-23.4-2.8-1.6-5.8-2.4-8.8-2.4zM631.4 217.6c-7.4 0-14.2 4.8-16.4 12.2l-51 170.6c-2.6 9 2.4 18.6 11.4 21.2 9 2.8 18.6-2.4 21.2-11.4l51.2-170.6c2.6-9-2.4-18.6-11.4-21.2-1.6-0.6-3.4-0.8-5-0.8zM631.4 217.6c-1.6 0-3.2 0.2-4.8 0.8-9 2.8-14.2 12.2-11.4 21.2l51.2 170.6c2.6 9 12.2 14.2 21.2 11.4 9-2.6 14.2-12.2 11.4-21.2l-51.2-170.6c-2.2-7.4-9-12.2-16.4-12.2zM733.8 217.6c-7.4 0-14.2 4.8-16.4 12.2l-51.2 170.6c-2.6 9 2.4 18.6 11.4 21.2 9 2.8 18.6-2.4 21.2-11.4l51.2-170.6c2.6-9-2.4-18.6-11.4-21.2-1.4-0.6-3.2-0.8-4.8-0.8zM733.8 217.6c-1.6 0-3.2 0.2-4.8 0.8-9 2.8-14.2 12.2-11.4 21.2l51.2 170.6c2.6 9 12.2 14.2 21.2 11.4 9-2.6 14.2-12.2 11.4-21.2l-51.2-170.6c-2.2-7.4-9-12.2-16.4-12.2zM426.6 217.6c-9.4 0-17 7.6-17 17v170.6c0 9.4 7.6 17 17 17s17-7.6 17-17v-170.6c0.2-9.4-7.4-17-17-17zM495 217.6h-68.2c-9.4 0-17 7.6-17 17s7.6 17 17 17h68.2c9.4 0 17-7.6 17-17s-7.6-17-17-17zM495 388.2h-68.2c-9.4 0-17 7.6-17 17s7.6 17 17 17h68.2c9.4 0 17-7.6 17-17 0-9.2-7.6-17-17-17zM495 303h-68.2c-9.4 0-17 7.6-17 17s7.6 17 17 17h68.2c9.4 0 17-7.6 17-17s-7.6-17-17-17z" />
<glyph unicode="&#xe914;" glyph-name="fd-filter-top-sale" d="M1020.16 424.96c-2.56 6.4-7.68 11.52-14.080 11.52l-134.4 19.2-60.16 116.48c-6.4 11.52-24.32 11.52-30.72 0l-60.16-116.48-134.4-19.2c-6.4-1.28-11.52-5.12-14.080-11.52s0-12.8 5.12-17.92l96-90.88-23.040-128c-1.28-6.4 1.28-12.8 6.4-16.64 2.56-2.56 6.4-3.84 10.24-3.84 2.56 0 5.12 0 7.68 1.28l120.32 60.16 120.32-60.16c6.4-2.56 12.8-2.56 17.92 1.28s7.68 10.24 6.4 16.64l-23.040 128 96 90.88c7.68 6.4 10.24 12.8 7.68 19.2v0zM888.32 335.36c-3.84-3.84-6.4-10.24-5.12-15.36l17.92-103.68-97.28 48.64c-2.56 1.28-5.12 1.28-7.68 1.28s-5.12 0-7.68-1.28l-97.28-48.64 17.92 103.68c1.28 5.12-1.28 11.52-5.12 15.36l-76.8 72.96 107.52 15.36c5.12 1.28 10.24 3.84 12.8 8.96l48.64 94.72 48.64-94.72c2.56-5.12 7.68-8.96 12.8-8.96l107.52-15.36-76.8-72.96zM660.48 704c0-37.12 30.72-67.84 67.84-67.84s67.84 30.72 67.84 67.84c0 37.12-30.72 67.84-67.84 67.84s-67.84-30.72-67.84-67.84v0zM761.6 704c0-17.92-15.36-33.28-33.28-33.28s-33.28 15.36-33.28 33.28c0 17.92 15.36 33.28 33.28 33.28s33.28-15.36 33.28-33.28v0zM550.4 892.16h212.48l171.52-170.24v-222.72h34.56v236.8l-192 190.72h-240.64l-540.16-538.88 432.64-433.92 134.4 128-413.44 409.6 400.64 400.64zM513.28 81.92l-83.2-79.36-384 386.56 79.36 79.36 387.84-386.56z" />
<glyph unicode="&#xe915;" glyph-name="fd-sort-grid" d="M992 576h-192c-17.92 0-32-14.080-32-32v-192c0-17.92 14.080-32 32-32h192c17.92 0 32 14.080 32 32v192c0 17.92-14.080 32-32 32v0zM992 960h-192c-17.92 0-32-14.080-32-32v-192c0-17.92 14.080-32 32-32h192c17.92 0 32 14.080 32 32v192c0 17.92-14.080 32-32 32v0zM224 960h-192c-17.92 0-32-14.080-32-32v-192c0-17.92 14.080-32 32-32h192c17.92 0 32 14.080 32 32v192c0 17.92-14.080 32-32 32v0zM224 576h-192c-17.92 0-32-14.080-32-32v-192c0-17.92 14.080-32 32-32h192c17.92 0 32 14.080 32 32v192c0 17.92-14.080 32-32 32v0zM992 192h-192c-17.92 0-32-14.080-32-32v-192c0-17.92 14.080-32 32-32h192c17.92 0 32 14.080 32 32v192c0 17.92-14.080 32-32 32v0zM224 192h-192c-17.92 0-32-14.080-32-32v-192c0-17.92 14.080-32 32-32h192c17.92 0 32 14.080 32 32v192c0 17.92-14.080 32-32 32v0zM608 576h-192c-17.92 0-32-14.080-32-32v-192c0-17.92 14.080-32 32-32h192c17.92 0 32 14.080 32 32v192c0 17.92-14.080 32-32 32v0zM608 960h-192c-17.92 0-32-14.080-32-32v-192c0-17.92 14.080-32 32-32h192c17.92 0 32 14.080 32 32v192c0 17.92-14.080 32-32 32v0zM608 192h-192c-17.92 0-32-14.080-32-32v-192c0-17.92 14.080-32 32-32h192c17.92 0 32 14.080 32 32v192c0 17.92-14.080 32-32 32v0z" />
<glyph unicode="&#xe916;" glyph-name="fd-sort-vertical" d="M974.080 74.24h-684.8c-28.16 0-51.2 23.040-51.2 51.2s23.040 51.2 51.2 51.2h684.8c28.16 0 51.2-23.040 51.2-51.2-1.28-28.16-23.040-51.2-51.2-51.2v0zM974.080 395.52h-684.8c-28.16 0-51.2 23.040-51.2 51.2s23.040 51.2 51.2 51.2h684.8c28.16 0 51.2-23.040 51.2-51.2-1.28-28.16-23.040-51.2-51.2-51.2v0zM974.080 716.8h-684.8c-28.16 0-51.2 23.040-51.2 51.2s23.040 51.2 51.2 51.2h684.8c28.16 0 51.2-23.040 51.2-51.2-1.28-29.44-23.040-51.2-51.2-51.2v0zM138.24 762.88c0-38.4-30.72-69.12-69.12-69.12s-69.12 30.72-69.12 69.12c0 38.4 30.72 69.12 69.12 69.12s69.12-30.72 69.12-69.12v0zM138.24 446.72c0-38.4-30.72-69.12-69.12-69.12s-69.12 30.72-69.12 69.12c0 38.4 30.72 69.12 69.12 69.12s69.12-30.72 69.12-69.12v0zM138.24 129.28c0-38.4-30.72-69.12-69.12-69.12s-69.12 30.72-69.12 69.12c0 38.4 30.72 69.12 69.12 69.12s69.12-30.72 69.12-69.12v0z" />
<glyph unicode="&#xe917;" glyph-name="fd-angle-double-left" d="M165.445 427.614l483.031-483.031c11.373-11.373 29.613-11.373 40.986 0s11.373 29.613 0 40.986l-462.431 462.431 462.431 462.431c11.373 11.373 11.373 29.613 0 40.986-5.579 5.579-13.090 8.583-20.386 8.583s-14.806-2.79-20.386-8.583l-483.031-483.031c-11.373-11.158-11.373-29.613-0.215-40.771zM334.324 427.614l483.031-483.031c11.373-11.373 29.613-11.373 40.986 0s11.373 29.613 0 40.986l-462.431 462.431 462.431 462.431c11.373 11.373 11.373 29.613 0 40.986-5.579 5.579-13.090 8.583-20.386 8.583s-14.806-2.79-20.386-8.583l-483.031-483.031c-11.373-11.158-11.373-29.613-0.215-40.771z" />
<glyph unicode="&#xe918;" glyph-name="fd-angle-double-right" d="M858.34 427.614l-483.031-483.031c-11.373-11.373-29.613-11.373-40.986 0s-11.373 29.613 0 40.986l462.431 462.431-462.431 462.431c-11.373 11.373-11.373 29.613 0 40.986 5.579 5.579 13.090 8.583 20.386 8.583s14.806-2.79 20.386-8.583l483.031-483.031c11.373-11.158 11.373-29.613 0.215-40.771zM689.676 427.614l-483.031-483.031c-11.373-11.373-29.613-11.373-40.986 0s-11.373 29.613 0 40.986l462.431 462.431-462.431 462.431c-11.373 11.373-11.373 29.613 0 40.986 5.579 5.579 13.090 8.583 20.386 8.583s14.806-2.79 20.386-8.583l483.031-483.031c11.373-11.158 11.373-29.613 0.215-40.771z" />
<glyph unicode="&#xe919;" glyph-name="fd-angle-left" d="M249.777 427.614l483.031-483.031c11.373-11.373 29.613-11.373 40.986 0s11.373 29.613 0 40.986l-462.431 462.431 462.431 462.431c11.373 11.373 11.373 29.613 0 40.986-5.579 5.579-13.090 8.583-20.386 8.583s-14.806-2.79-20.386-8.583l-483.031-483.031c-11.373-11.158-11.373-29.613-0.215-40.771z" />
<glyph unicode="&#xe91a;" glyph-name="fd-angle-right" d="M774.008 468.386l-483.031 483.031c-11.373 11.373-29.613 11.373-40.986 0s-11.373-29.613 0-40.986l462.431-462.431-462.431-462.431c-11.373-11.373-11.373-29.613 0-40.986 5.579-5.579 13.090-8.583 20.386-8.583s14.806 2.79 20.386 8.583l483.031 483.031c11.373 11.158 11.373 29.613 0.215 40.771z" />
<glyph unicode="&#xe91b;" glyph-name="fd-angle-down" d="M532.386 185.992l483.031 483.031c11.373 11.373 11.373 29.613 0 40.986s-29.613 11.373-40.986 0l-462.431-462.431-462.431 462.431c-11.373 11.373-29.613 11.373-40.986 0-5.579-5.579-8.583-13.090-8.583-20.386s2.79-14.806 8.583-20.386l483.031-483.031c11.158-11.373 29.613-11.373 40.771-0.215z" />
<glyph unicode="&#xe91c;" glyph-name="fd-angle-up" d="M491.614 710.223l-483.031-483.031c-11.373-11.373-11.373-29.613 0-40.986s29.613-11.373 40.986 0l462.431 462.431 462.431-462.431c11.373-11.373 29.613-11.373 40.986 0 5.579 5.579 8.583 13.090 8.583 20.386s-2.79 14.806-8.583 20.386l-483.031 483.031c-11.158 11.373-29.613 11.373-40.771 0.215z" />
<glyph unicode="&#xe91d;" glyph-name="fd-add-cart" d="M429.92 160c-51.252 0-92.8-41.548-92.8-92.8s41.548-92.8 92.8-92.8c51.252 0 92.8 41.548 92.8 92.8v0c0 51.252-41.548 92.8-92.8 92.8v0zM429.92 31.040c-20.059 0-36.32 16.261-36.32 36.32s16.261 36.32 36.32 36.32c20.059 0 36.32-16.261 36.32-36.32v0c0.004-0.19 0.006-0.415 0.006-0.64 0-20.059-16.261-36.32-36.32-36.32-0.002 0-0.004 0-0.006 0v0zM743.84 160c-51.252 0-92.8-41.548-92.8-92.8s41.548-92.8 92.8-92.8c51.252 0 92.8 41.548 92.8 92.8v0c0 51.252-41.548 92.8-92.8 92.8v0zM743.84 31.040c-20.059 0-36.32 16.261-36.32 36.32s16.261 36.32 36.32 36.32c20.059 0 36.32-16.261 36.32-36.32v0c0.004-0.19 0.006-0.415 0.006-0.64 0-20.059-16.261-36.32-36.32-36.32-0.002 0-0.004 0-0.006 0v0zM476 512h85.44v-85.44c3.080-11.317 13.264-19.501 25.36-19.501s22.28 8.184 25.317 19.317l0.043 0.184v85.44h85.44c11.269 1.63 19.83 11.223 19.83 22.815 0 0.925-0.054 1.837-0.16 2.733l0.010-0.109c0.096 0.788 0.15 1.7 0.15 2.625 0 11.592-8.561 21.185-19.706 22.801l-0.124 0.015h-85.44v85.44c-3.080 11.317-13.264 19.501-25.36 19.501s-22.28-8.184-25.317-19.317l-0.043-0.184v-85.44h-85.44c-11.269-1.63-19.83-11.223-19.83-22.815 0-0.925 0.054-1.837 0.16-2.733l-0.010 0.109c-0.096-0.788-0.15-1.7-0.15-2.625 0-11.592 8.561-21.185 19.706-22.801l0.124-0.015zM1012 740.64c-9.787 12.046-24.601 19.68-41.197 19.68-0.029 0-0.058 0-0.087 0h-775.515l-15.2 73.76c-3.681 17.132-15.204 30.973-30.54 37.785l-0.34 0.135-109.6 48c-3.324 1.476-7.202 2.335-11.28 2.335-15.693 0-28.415-12.722-28.415-28.415 0-11.615 6.969-21.602 16.953-26.008l0.182-0.072 108.16-46.88 120.48-585.12c5.275-24.351 26.608-42.337 52.153-42.4h598.247c14.698 1.141 26.193 13.348 26.193 28.24s-11.495 27.099-26.096 28.234l-0.097 0.006h-595.52l-13.44 64.8h613.92c25.552 0.063 46.885 18.049 52.096 42.047l0.064 0.353 69.92 339.2c0.675 3.177 1.062 6.827 1.062 10.567 0 12.859-4.569 24.652-12.173 33.842l0.072-0.089zM898.24 371.2h-622.88l-68.48 332.8h759.84z" />
<glyph unicode="&#xe91e;" glyph-name="fd-dollar-circle" d="M512 960c-282.77 0-512-229.23-512-512s229.23-512 512-512c282.77 0 512 229.23 512 512v0c0 282.77-229.23 512-512 512v0zM512-6.88c-251.312 0-455.040 203.728-455.040 455.040s203.728 455.040 455.040 455.040c251.312 0 455.040-203.728 455.040-455.040 0-0.056 0-0.112 0-0.168v0.008c-0.273-251.201-203.838-454.767-455.013-455.040h-0.027zM577.6 485.92l-33.6 7.68s-61.6 12.32-74.080 16.96c-38.88 14.4-57.92 36.64-57.92 66.88 0 40.64 31.040 65.28 72.48 70.56 0 0 134.080 16 134.080-76.96h93.44c-2.080 84.96-68.48 145.44-166.72 155.52v52.16h-62.24v-52c-94.72-9.28-169.12-61.28-169.12-156.64 0-89.76 64.8-134.56 136.96-150.72l33.44-8 59.68-11.36 9.6-2.4c50.72-14.88 70.88-38.72 70.88-74.080 0-44.32-32.96-74.24-80-76.16-14.88 0-44.8 0-59.68 0-55.040 4.32-83.84 39.52-86.24 80h-96c1.28-74.56 52-150.24 180.48-160v-50.4h60.96v51.2c106.4 10.080 177.6 67.68 177.6 164.32 0.32 94.24-62.24 134.88-144 153.44z" />
<glyph unicode="&#xe91f;" glyph-name="fd-clock" d="M700.16 454.4h-125.44c-6.4 24.32-25.6 43.52-49.92 49.92v177.92c0 10.24-7.68 17.92-17.92 17.92s-17.92-7.68-17.92-17.92v-177.92c-30.72-7.68-52.48-34.56-52.48-67.84 0-38.4 32-70.4 70.4-70.4 32 0 60.16 21.76 67.84 52.48h125.44c10.24 0 17.92 7.68 17.92 17.92s-8.96 17.92-17.92 17.92v0zM506.88 401.92c-19.2 0-34.56 15.36-34.56 34.56s15.36 34.56 34.56 34.56c19.2 0 34.56-15.36 34.56-34.56 1.28-19.2-14.080-34.56-34.56-34.56v0zM876.8 793.6l71.68-71.68c3.84-3.84 7.68-5.12 12.8-5.12s8.96 1.28 12.8 5.12c55.040 55.040 55.040 145.92 0 200.96s-145.92 55.040-200.96 0c-3.84-3.84-5.12-7.68-5.12-12.8s1.28-8.96 5.12-12.8l79.36-79.36-29.44-29.44c-84.48 75.52-194.56 120.32-314.88 120.32-121.6 0-231.68-44.8-316.16-120.32l-29.44 29.44 80.64 80.64c3.84 3.84 5.12 7.68 5.12 12.8s-1.28 8.96-5.12 12.8c-55.040 55.040-145.92 55.040-200.96 0s-55.040-145.92 0-200.96c3.84-3.84 7.68-5.12 12.8-5.12s8.96 1.28 12.8 5.12l71.68 71.68 29.44-29.44c-83.2-85.76-134.4-202.24-134.4-328.96 0-172.8 93.44-325.12 232.96-407.040l-52.48-52.48c-6.4-6.4-6.4-17.92 0-24.32 3.84-3.84 7.68-5.12 12.8-5.12 3.84 0 8.96 1.28 12.8 5.12l60.16 60.16c62.72-30.72 133.12-48.64 207.36-48.64s144.64 17.92 207.36 48.64l60.16-60.16c3.84-3.84 7.68-5.12 12.8-5.12s8.96 1.28 12.8 5.12c6.4 6.4 6.4 17.92 0 24.32l-52.48 52.48c139.52 81.92 232.96 234.24 232.96 407.040 0 126.72-49.92 241.92-131.84 327.68l26.88 29.44zM948.48 898.56c37.12-37.12 40.96-96 11.52-138.24l-149.76 149.76c42.24 29.44 101.12 25.6 138.24-11.52v0zM55.040 760.32c-29.44 40.96-26.88 99.84 11.52 138.24 37.12 37.12 96 40.96 138.24 11.52l-149.76-149.76zM506.88-1.28c-240.64 0-437.76 195.84-437.76 437.76 1.28 241.92 197.12 437.76 437.76 437.76 241.92 0 437.76-195.84 437.76-437.76 0-240.64-195.84-437.76-437.76-437.76v0zM506.88 788.48c10.24 0 17.92 7.68 17.92 17.92v17.92c0 10.24-7.68 17.92-17.92 17.92s-17.92-7.68-17.92-17.92v-17.92c1.28-10.24 8.96-17.92 17.92-17.92v0zM506.88 88.32c-10.24 0-17.92-7.68-17.92-17.92v-17.92c0-10.24 7.68-17.92 17.92-17.92s17.92 7.68 17.92 17.92v17.92c0 10.24-7.68 17.92-17.92 17.92v0zM875.52 421.12h17.92c10.24 0 17.92 7.68 17.92 17.92s-7.68 17.92-17.92 17.92h-17.92c-10.24 0-17.92-7.68-17.92-17.92s7.68-17.92 17.92-17.92v0zM139.52 455.68h-16.64c-10.24 0-17.92-7.68-17.92-17.92s7.68-17.92 17.92-17.92h17.92c10.24 0 17.92 7.68 17.92 17.92-1.28 10.24-8.96 17.92-19.2 17.92v0zM768 723.2l-12.8-12.8c-6.4-6.4-6.4-17.92 0-24.32 3.84-3.84 7.68-5.12 12.8-5.12 3.84 0 8.96 1.28 12.8 5.12l12.8 12.8c6.4 6.4 6.4 17.92 0 24.32-7.68 6.4-19.2 6.4-25.6 0v0zM235.52 190.72l-12.8-12.8c-6.4-6.4-6.4-17.92 0-24.32 3.84-3.84 7.68-5.12 12.8-5.12 3.84 0 8.96 1.28 12.8 5.12l12.8 12.8c6.4 6.4 6.4 17.92 0 24.32-7.68 7.68-19.2 7.68-25.6 0v0zM779.52 190.72c-6.4 6.4-17.92 6.4-24.32 0s-6.4-17.92 0-24.32l12.8-12.8c3.84-3.84 7.68-5.12 12.8-5.12 3.84 0 8.96 1.28 12.8 5.12 6.4 6.4 6.4 17.92 0 24.32l-14.080 12.8zM247.040 723.2c-6.4 6.4-17.92 6.4-24.32 0s-6.4-17.92 0-24.32l12.8-12.8c3.84-3.84 7.68-5.12 12.8-5.12s8.96 1.28 12.8 5.12c6.4 6.4 6.4 17.92 0 24.32l-14.080 12.8z" />
<glyph unicode="&#xe920;" glyph-name="fd-comment" d="M170.24 526.080h221.44c8.96 0 16.64 7.68 16.64 16.64s-7.68 16.64-16.64 16.64h-221.44c-8.96 0-16.64-7.68-16.64-16.64 0-10.24 7.68-16.64 16.64-16.64v0zM614.4 456.96h-444.16c-8.96 0-16.64-7.68-16.64-16.64s7.68-16.64 16.64-16.64h444.16c8.96 0 16.64 7.68 16.64 16.64s-7.68 16.64-16.64 16.64v0zM614.4 354.56h-444.16c-8.96 0-16.64-7.68-16.64-16.64s7.68-16.64 16.64-16.64h444.16c8.96 0 16.64 7.68 16.64 16.64s-7.68 16.64-16.64 16.64v0zM922.88 916.48l-582.4 1.28c-56.32 0-101.12-44.8-101.12-101.12v-87.040h-138.24c-56.32 0-101.12-46.080-101.12-102.4v-360.96c0-55.040 44.8-99.84 101.12-99.84h103.68v-170.24c0-6.4 3.84-12.8 11.52-15.36 2.56-1.28 3.84-1.28 6.4-1.28 5.12 0 8.96 2.56 12.8 5.12l165.12 181.76 284.16 1.28c56.32 0 101.12 44.8 101.12 101.12v1.28l89.6-98.56c3.84-3.84 7.68-5.12 12.8-5.12 2.56 0 3.84 0 6.4 1.28 6.4 2.56 11.52 8.96 11.52 15.36v170.24h17.92c56.32 0 101.12 44.8 101.12 101.12v360.96c-1.28 56.32-46.080 101.12-102.4 101.12v0zM751.36 268.8c0-37.12-30.72-66.56-66.56-66.56l-291.84-1.28c-5.12 0-8.96-2.56-12.8-5.12l-140.8-154.88v142.080c0 8.96-7.68 16.64-16.64 16.64h-121.6c-37.12 0-66.56 30.72-66.56 66.56v360.96c0 37.12 30.72 66.56 66.56 66.56h154.88l427.52 1.28c37.12 0 66.56-30.72 66.56-66.56v-359.68zM989.44 454.4c0-37.12-30.72-66.56-66.56-66.56h-35.84c-8.96 0-16.64-7.68-16.64-16.64v-143.36l-85.76 93.44v307.2c0 56.32-44.8 101.12-101.12 101.12h-410.88v87.040c0 37.12 30.72 66.56 66.56 66.56h583.68c37.12 0 66.56-30.72 66.56-66.56v-362.24z" />
<glyph unicode="&#xe921;" glyph-name="fd-trash" d="M873.6 838.4h-156.8v41.6c0 44.8-36.8 81.6-81.6 81.6h-246.4c-44.8 0-81.6-36.8-81.6-81.6v-41.6h-156.8c-41.6 0-73.6-33.6-73.6-73.6v-30.4c0-41.6 33.6-73.6 73.6-73.6h17.6v-592c0-73.6 60.8-134.4 134.4-134.4h422.4c73.6 0 134.4 60.8 134.4 134.4v592h17.6c41.6 0 73.6 33.6 73.6 73.6v30.4c-1.6 41.6-35.2 73.6-76.8 73.6zM363.2 880c0 14.4 11.2 25.6 25.6 25.6h246.4c14.4 0 25.6-11.2 25.6-25.6v-41.6h-297.6v41.6zM801.6 68.8c0-43.2-35.2-78.4-78.4-78.4h-422.4c-43.2 0-78.4 35.2-78.4 78.4v592h577.6v-592zM892.8 734.4c0-9.6-8-17.6-17.6-17.6h-724.8c-9.6 0-17.6 8-17.6 17.6v30.4c0 9.6 8 17.6 17.6 17.6h723.2c9.6 0 17.6-8 17.6-17.6v-30.4zM326.4 46.4c14.4 0 25.6 11.2 25.6 25.6v404.8c0 14.4-11.2 25.6-25.6 25.6s-25.6-11.2-25.6-25.6v-404.8c0-14.4 11.2-25.6 25.6-25.6zM697.6 46.4c14.4 0 25.6 11.2 25.6 25.6v404.8c0 14.4-11.2 25.6-25.6 25.6s-25.6-11.2-25.6-25.6v-404.8c1.6-14.4 12.8-25.6 25.6-25.6zM512 46.4c14.4 0 25.6 11.2 25.6 25.6v404.8c0 14.4-11.2 25.6-25.6 25.6s-25.6-11.2-25.6-25.6v-404.8c0-14.4 11.2-25.6 25.6-25.6z" />
<glyph unicode="&#xe922;" glyph-name="fd-check" d="M287 87l-272 272c-20 20-20 52.4 0 72.4s52.4 20 72.4 0l235.8-235.8 613.4 613.4c20 20 52.4 20 72.4 0s20-52.4 0-72.4l-649.6-649.6c-20-20-52.4-20-72.4 0z" />
<glyph unicode="&#xe923;" glyph-name="fd-cate-nuoc-hoa" d="M789.094 273.92l-182.272 315.392c-2.602 4.528-7.396 7.538-12.897 7.578h-36.87v79.053c0 8.257-6.694 14.95-14.95 14.95h-50.586v63.078c41.454-3.626 79.285-16.328 112.412-36.097l-1.205 0.666c66.56-37.478 160.768-122.88 231.014-314.573 2.156-5.83 7.667-9.91 14.131-9.91 8.301 0 15.030 6.729 15.030 15.030 0 1.837-0.33 3.597-0.933 5.224l0.034-0.104c-29.646 84.443-69.965 157.584-120.318 222.558l1.329-1.784c-34.483 43.992-76.134 80.551-123.495 108.453l-2.047 1.115c-36.137 21.649-79.048 35.868-124.945 39.463l-1.007 0.063v37.478c0.008 0.187 0.013 0.407 0.013 0.628 0 8.257-6.694 14.95-14.95 14.95-0.221 0-0.44-0.005-0.659-0.014l0.031 0.001h-125.542c-8.257 0-14.95-6.694-14.95-14.95v0-130.458h-51.2c-8.257 0-14.95-6.694-14.95-14.95v0-79.258h-39.526c-5.506-0.039-10.3-3.049-12.864-7.505l-0.038-0.073-44.851-78.029c-1.255-2.145-1.995-4.724-1.995-7.475 0-8.284 6.716-15 15-15 5.533 0 10.366 2.996 12.966 7.454l0.038 0.071 40.96 70.042h346.317l172.442-300.646-172.442-300.442h-346.931l-173.466 300.442 105.677 183.091c1.255 2.145 1.995 4.724 1.995 7.475 0 8.284-6.716 15-15 15-5.533 0-10.366-2.996-12.966-7.454l-0.038-0.071-109.978-190.464c-1.259-2.144-2.003-4.723-2.003-7.475s0.744-5.331 2.041-7.546l-0.038 0.071 182.067-315.392c2.602-4.528 7.396-7.538 12.897-7.578h364.345c5.506 0.039 10.3 3.049 12.864 7.505l0.038 0.073 182.067 315.392c1.324 2.186 2.107 4.828 2.107 7.653 0 2.681-0.705 5.196-1.941 7.372l0.039-0.074zM526.95 596.89h-12.902v64.102h12.902zM355.328 660.992v-64.307h-12.902v64.307zM385.229 660.992h12.902v-64.307h-12.902v64.307zM428.237 660.992h12.902v-64.307h-12.902v64.307zM471.245 660.992h12.902v-64.307h-13.107zM365.568 806.605h95.232v-115.507h-95.232v115.507zM299.418 660.992h12.902v-64.307h-12.902zM152.986 847.77l61.44-20.48c1.376-0.461 2.961-0.727 4.608-0.727 8.263 0 14.961 6.698 14.961 14.961 0 6.616-4.294 12.229-10.247 14.203l-0.106 0.030-61.44 20.48c-1.376 0.461-2.961 0.727-4.608 0.727-8.263 0-14.961-6.698-14.961-14.961 0-6.616 4.294-12.229 10.247-14.203l0.106-0.030zM220.365 794.317l-57.549-29.491c-4.857-2.542-8.115-7.547-8.115-13.312 0-8.271 6.705-14.976 14.976-14.976 2.506 0 4.868 0.615 6.943 1.703l-0.082-0.039 57.549 29.491c4.857 2.542 8.115 7.547 8.115 13.312 0 8.271-6.705 14.976-14.976 14.976-2.506 0-4.868-0.615-6.943-1.703l0.082 0.039zM248.013 880.538c2.542-4.857 7.547-8.115 13.312-8.115 8.271 0 14.976 6.705 14.976 14.976 0 2.506-0.615 4.868-1.703 6.943l0.039-0.082-28.877 57.549c-2.542 4.857-7.547 8.115-13.312 8.115-8.271 0-14.976-6.705-14.976-14.976 0-2.506 0.615-4.868 1.703-6.943l-0.039 0.082zM942.080 208.998v42.598c0 8.257-6.694 14.95-14.95 14.95v0h-22.118c-7.987 32.973-17.818 69.018-27.648 100.557-1.976 6.149-7.646 10.522-14.336 10.522-8.299 0-15.027-6.728-15.027-15.027 0-1.609 0.253-3.159 0.721-4.612l-0.030 0.106c9.011-28.672 18.022-61.44 25.395-91.75h-20.48c-8.257 0-14.95-6.694-14.95-14.95v0-42.598c-30.248-18.165-50.176-50.796-50.176-88.082 0-56.554 45.846-102.4 102.4-102.4s102.4 45.846 102.4 102.4c0 37.285-19.928 69.917-49.713 87.824l-0.463 0.258zM867.738 236.646h44.442v-25.805h-44.442v25.805zM889.856 50.688c-0.176-0.002-0.385-0.002-0.593-0.002-39.475 0-71.475 32.001-71.475 71.475 0 24.393 12.219 45.931 30.87 58.829l0.238 0.156h80.077c18.889-13.054 31.108-34.592 31.108-58.985 0-39.475-32.001-71.475-71.475-71.475-0.209 0-0.417 0.001-0.625 0.003h0.032zM405.299 781.21c-8.257 0-14.95-6.694-14.95-14.95v0-25.395c0-8.257 6.694-14.95 14.95-14.95s14.95 6.694 14.95 14.95v0 25.395c0 8.257-6.694 14.95-14.95 14.95v0zM517.12 270.438c8.257 0 14.95 6.694 14.95 14.95s-6.694 14.95-14.95 14.95v0h-207.872c-8.257 0-14.95-6.694-14.95-14.95s6.694-14.95 14.95-14.95v0zM309.248 66.867c-8.257 0-14.95-6.694-14.95-14.95s6.694-14.95 14.95-14.95v0h207.872c8.257 0 14.95 6.694 14.95 14.95s-6.694 14.95-14.95 14.95v0zM194.355 215.552c0-8.257 6.694-14.95 14.95-14.95v0h407.757c8.257 0 14.95 6.694 14.95 14.95s-6.694 14.95-14.95 14.95v0h-407.757c-8.257 0-14.95-6.694-14.95-14.95v0z" />
<glyph unicode="&#xe924;" glyph-name="fd-cate-san-hang-hot" d="M361.472-62.566c1.449-0.746 3.163-1.184 4.979-1.184 6.108 0 11.059 4.951 11.059 11.059 0 2.186-0.634 4.223-1.728 5.939l0.027-0.045c-25.717 38.967-41.026 86.773-41.026 138.155 0 41.076 9.784 79.868 27.148 114.171l-0.664-1.446c83.558 186.982 134.554 283.853 134.554 283.853 22.328-81.322 56.736-152.428 101.741-215.448l-1.389 2.047c70.656-96.666 109.363-218.317 46.899-319.693-0.958-1.603-1.524-3.536-1.524-5.602 0-6.108 4.951-11.059 11.059-11.059 1.746 0 3.397 0.405 4.866 1.125l-0.065-0.029c77.21 39.526 163.84 118.579 173.466 276.070 0.364 7.405 0.571 16.082 0.571 24.807 0 62.923-10.786 123.328-30.609 179.465l1.161-3.773c-34.611 107.725-77.414 158.106-102.4 179.61-1.92 1.648-4.435 2.652-7.184 2.652-6.108 0-11.059-4.951-11.059-11.059 0-0.212 0.006-0.423 0.018-0.633l-0.001 0.029c7.168-116.326-36.454-145.818-61.44-79.258-10.19 33.89-16.056 72.836-16.056 113.151 0 5.366 0.104 10.708 0.31 16.024l-0.024-0.765c0.013 1.272 0.021 2.776 0.021 4.281 0 98.682-32.538 189.763-87.471 263.102l0.819-1.143c-15.787 21.147-33.511 39.521-53.282 55.458l-0.581 0.453c-1.855 1.455-4.222 2.334-6.795 2.334-6.108 0-11.059-4.951-11.059-11.059 0-0.317 0.013-0.631 0.039-0.941l-0.003 0.040c4.71-63.078 0.614-244.122-159.13-460.186-143.36-200.499-88.064-354.509-68.403-396.288 29.894-66.267 79.131-119.399 140.457-153.364l1.675-0.851z" />
<glyph unicode="&#xe925;" glyph-name="fd-cate-the-thao" d="M1008.845 538.317h-71.68v75.366c0 22.622-18.338 40.96-40.96 40.96v0h-49.152c-3.956-0.042-7.756-0.637-11.349-1.713l0.29 0.075v15.155c0 22.622-18.338 40.96-40.96 40.96v0h-80.691c-22.622 0-40.96-18.338-40.96-40.96v0-130.458h-322.355v131.072c0 22.622-18.338 40.96-40.96 40.96v0h-80.691c-22.622 0-40.96-18.338-40.96-40.96v0-15.974c-3.303 1.001-7.104 1.597-11.037 1.638h-49.174c-22.622 0-40.96-18.338-40.96-40.96v0-75.571h-72.090c-8.37 0-15.155-6.785-15.155-15.155v0-117.35c0-8.37 6.785-15.155 15.155-15.155v0h71.68v-75.571c0-22.622 18.338-40.96 40.96-40.96v0h49.152c3.956 0.042 7.756 0.637 11.349 1.713l-0.29-0.075v-15.155c0-22.622 18.338-40.96 40.96-40.96v0h80.282c22.622 0 40.96 18.338 40.96 40.96v0 130.458h322.765v-130.458c0-22.622 18.338-40.96 40.96-40.96v0h80.691c22.622 0 40.96 18.338 40.96 40.96v0 15.155c3.303-1.001 7.104-1.597 11.037-1.638h48.56c22.622 0 40.96 18.338 40.96 40.96v0 75.981h71.68c8.37 0 15.155 6.785 15.155 15.155v0 117.35c0 0.010 0 0.022 0 0.035 0 8.010-6.214 14.568-14.084 15.118l-0.048 0.003zM30.31 420.966v87.040h56.525v-87.040zM176.947 304.64h-48.742c-6.108 0-11.059 4.951-11.059 11.059v0 297.984c0 6.108 4.951 11.059 11.059 11.059v0h48.742c6.108 0 11.059-4.951 11.059-11.059v0-298.598c-0.335-5.838-5.15-10.445-11.042-10.445-0.006 0-0.012 0-0.018 0h0.001zM320.307 260.608c0-6.108-4.951-11.059-11.059-11.059v0h-79.872c-6.108 0-11.059 4.951-11.059 11.059v0 409.6c0 6.108 4.951 11.059 11.059 11.059v0h80.282c6.108 0 11.059-4.951 11.059-11.059v0-409.6zM350.618 421.376v86.63h322.355v-87.040zM805.478 260.608c0-6.108-4.951-11.059-11.059-11.059v0h-80.077c-6.108 0-11.059 4.951-11.059 11.059v0 409.6c0 6.108 4.951 11.059 11.059 11.059v0h80.282c6.108 0 11.059-4.951 11.059-11.059v0-409.6zM906.65 315.699c0-6.108-4.951-11.059-11.059-11.059v0h-48.538c-6.108 0-11.059 4.951-11.059 11.059v0 297.984c0 6.108 4.951 11.059 11.059 11.059h48.538c6.108 0 11.059-4.951 11.059-11.059v0-298.598zM993.485 421.376h-56.32v86.63h56.525z" />
<glyph unicode="&#xe926;" glyph-name="fd-cate-thoi-trang-nam" d="M972.39 536.064l-40.96 251.494c-7.009 40.656-37.483 72.643-76.731 81.786l-0.683 0.134-161.178 37.274-30.72 46.080c-2.501 3.835-6.517 6.503-11.18 7.158l-0.084 0.010h-277.709c-4.716-0.615-8.726-3.209-11.228-6.907l-0.036-0.056-30.72-46.285-160.358-36.864c-39.931-9.277-70.406-41.264-77.328-81.318l-0.086-0.602-40.96-251.494c-0.154-0.832-0.242-1.79-0.242-2.769 0-6.697 4.121-12.431 9.965-14.806l0.107-0.038 160.973-64.307v-502.579c0-8.822 7.152-15.974 15.974-15.974v0h546.406c8.822 0 15.974 7.152 15.974 15.974v0 502.374l160.973 64.307c5.934 2.421 10.040 8.147 10.040 14.831 0 0.91-0.076 1.802-0.222 2.671l0.013-0.094zM663.962 892.416l-70.042-111.821-56.934 44.237 108.544 94.208zM512 845.517l-94.208 81.92h188.416zM493.773 789.197l18.227 14.541 18.227-14.541v-152.986c0-0.566-0.458-1.024-1.024-1.024h-34.406c-0.566 0-1.024 0.458-1.024 1.024v0zM378.47 919.040l108.544-95.027-55.501-43.622-71.475 112.026zM125.133 782.234c4.676 27.897 25.5 49.89 52.369 56.227l0.469 0.093 155.443 35.84 69.222-110.797c4.967-7.883 12.969-13.466 22.328-15.126l0.2-0.029h5.53c7.506 0.048 14.412 2.581 19.945 6.817l-0.080-0.058 10.24 8.192v-127.386c0-18.323 14.854-33.178 33.178-33.178v0h34.202c18.323 0 33.178 14.854 33.178 33.178v0 127.59l10.24-8.192c5.572-4.443 12.708-7.14 20.474-7.168h5.536c9.558 1.689 17.561 7.273 22.447 15.018l0.081 0.137 69.222 110.797 155.443-35.84c27.338-6.43 48.162-28.423 52.782-55.914l0.056-0.406 29.082-174.49-126.362-50.586v95.846c0 8.879-7.198 16.077-16.077 16.077s-16.077-7.198-16.077-16.077v0-616.243h-513.843v616.243c0 8.879-7.198 16.077-16.077 16.077s-16.077-7.198-16.077-16.077v0-96.051l-126.157 50.995zM85.197 543.642l5.325 31.744 131.686-52.634v-33.792zM254.362-31.846v36.25h515.277v-36.25zM801.587 488.96v33.792l131.686 52.634 5.325-31.744z" />
<glyph unicode="&#xe927;" glyph-name="fd-cate-do-dien-gia-dung" d="M973.414 726.733c-6.746 52.12-47.467 92.981-98.942 99.878l-0.591 0.065c-5.343 31.183-25.423 56.743-52.675 69.594l-0.573 0.243c-85.781 40.094-186.253 63.489-292.19 63.489-0.453 0-0.906 0-1.358-0.001h-30.24c-0.382 0.001-0.835 0.001-1.289 0.001-105.936 0-206.408-23.395-296.53-65.301l4.34 1.812c-27.825-13.094-47.905-38.654-53.169-69.279l-0.079-0.558c-52.066-6.962-92.787-47.822-99.471-99.364l-0.061-0.579c-29.186-7.242-50.493-33.171-50.586-64.092v-81.93c0.088-30.524 20.901-56.162 49.102-63.59l0.46-0.103v-399.36c0.177-67.046 50.121-122.373 114.83-130.998l0.677-0.074v-50.586h132.301v49.562h430.080v-49.562h132.301v50.586c65.387 8.699 115.33 64.026 115.507 131.054v398.764c28.306 7.833 48.742 33.361 48.742 63.662 0 0.011 0 0.022 0 0.032v-0.002 81.92c-0.092 30.931-21.399 56.86-50.13 64.007l-0.455 0.096zM49.562 550.4c-9.941 5.863-16.521 16.491-16.589 28.662v81.93c0.023 12.192 6.619 22.839 16.432 28.587l0.157 0.085zM217.088 866.406c82.081 38.632 178.254 61.258 279.693 61.44h30.374c101.502-0.182 197.676-22.808 283.883-63.176l-4.126 1.736c15.838-7.611 27.707-21.353 32.658-38.068l0.11-0.435h-36.25c-2.667 3.568-6.105 6.414-10.077 8.326l-0.163 0.071c-77.738 36.343-168.79 57.55-264.796 57.55-0.508 0-1.015-0.001-1.523-0.002h-30.027c-0.9 0.005-1.965 0.007-3.030 0.007-95.314 0-185.746-20.903-266.962-58.374l3.957 1.637c-4.166-1.927-7.616-4.785-10.189-8.323l-0.051-0.074h-36.25c5.263 16.818 17.085 30.245 32.396 37.524l0.372 0.159zM724.787 827.904h-425.574c58.888 20.897 126.807 32.973 197.546 32.973 0.030 0 0.060 0 0.090 0h30.306c0.025 0 0.055 0 0.086 0 70.739 0 138.658-12.076 201.807-34.278l-4.261 1.305zM264.192-31.027h-65.946v16.589h65.946zM825.754-31.027h-65.946v16.589h65.946zM942.080 117.658c0.001-0.183 0.002-0.4 0.002-0.616 0-54.744-44.379-99.123-99.123-99.123-0.217 0-0.433 0.001-0.65 0.002h-660.652c-0.183-0.001-0.4-0.002-0.616-0.002-54.744 0-99.123 44.379-99.123 99.123 0 0.217 0.001 0.433 0.002 0.65v-0.033 495.411h860.16zM942.080 646.246h-860.16v65.946c0 45.243 36.677 81.92 81.92 81.92v0h695.091c45.243 0 81.92-36.677 81.92-81.92v0zM991.642 580.096c-0.056-12.125-6.648-22.698-16.431-28.383l-0.158-0.085v139.674c9.97-5.833 16.566-16.48 16.589-28.669v-0.003zM423.526 84.685h176.947c23.903 0.083 43.846 16.936 48.683 39.403l0.059 0.329c17.614 84.925 27.75 182.561 27.853 282.545v41.039c0 0 0 0 0 0 0 27.3-22.073 49.445-49.346 49.561h-231.435c-27.284-0.116-49.357-22.261-49.357-49.561 0 0 0 0 0 0v0-40.96c0.103-100.063 10.239-197.699 29.453-292.033l-1.601 9.409c4.897-22.796 24.84-39.648 48.733-39.731h0.009zM616.653 130.97c-1.496-7.633-8.131-13.312-16.093-13.312-0.030 0-0.060 0-0.090 0h-176.942c-0.025 0-0.056 0-0.086 0-7.962 0-14.598 5.68-16.076 13.208l-0.017 0.104c-12.263 58.169-21.321 127.223-25.233 197.65l-0.163 3.668h260.096c-4.074-74.095-13.132-143.15-26.965-210.461l1.57 9.143zM396.288 464.589h231.424c9.073-0.116 16.384-7.498 16.384-16.588 0 0 0-0.001 0-0.001v0-40.96c0-14.131 0-28.058-1.024-42.189h-262.144c0 14.131-1.024 28.058-1.024 42.189v40.96c0 0 0 0.001 0 0.001 0 9.090 7.311 16.472 16.373 16.587h0.011zM479.027 150.63h65.946c18.277 0.115 33.062 14.901 33.178 33.167v81.931c-0.116 18.235-14.925 32.973-33.177 32.973 0 0 0 0-0.001 0h-65.946c0 0 0 0-0.001 0-18.251 0-33.061-14.738-33.177-32.962v-81.931c0.115-18.277 14.901-33.062 33.167-33.178h0.011zM544.973 183.808h-65.946v16.384h65.946zM479.027 265.728h65.946v-32.973h-65.946zM412.877 431.411h66.15v-32.973h-66.15v32.973zM544.973 431.411h66.15v-32.973h-66.15v32.973z" />
<glyph unicode="&#xe928;" glyph-name="fd-cate-kinh-do-thoi-trang" d="M847.053 223.949h-686.080l-71.27 304.947c-50.584 1.836-90.893 43.286-90.893 94.15 0 52.030 42.178 94.208 94.208 94.208s94.208-42.178 94.208-94.208c0-25.857-10.417-49.281-27.283-66.304l0.007 0.007c113.664-122.88 207.462-113.254 294.298 32.973-22.209 17.322-36.355 44.085-36.355 74.151 0 51.803 41.995 93.798 93.798 93.798s93.798-41.995 93.798-93.798c0-32.024-16.048-60.3-40.541-77.223l-0.313-0.205c74.957-143.36 170.598-151.142 295.731-29.901-14.715 16.462-23.71 38.309-23.71 62.257 0 51.69 41.903 93.594 93.594 93.594s93.594-41.903 93.594-93.594c0-51.491-41.581-93.27-92.996-93.592h-0.031zM194.355 264.909h620.749l71.885 258.458c-151.962-145.613-282.214-121.651-368.64 61.44l-7.987 16.589-9.011-16.179c-102.4-184.32-230.195-207.462-366.797-63.898zM910.541 570.88l9.011-1.843c3.331-0.759 7.156-1.194 11.082-1.194 28.729 0 52.019 23.29 52.019 52.019s-23.29 52.019-52.019 52.019c-28.729 0-52.019-23.29-52.019-52.019 0-18.215 9.362-34.243 23.536-43.535l0.198-0.122zM93.594 673.28c-25.574-3.334-45.12-24.984-45.12-51.2s19.546-47.866 44.86-51.172l0.26-0.028c1.318-0.101 2.854-0.158 4.403-0.158s3.086 0.057 4.606 0.17l-0.203-0.012 8.602 1.638 7.987 4.506c15.752 8.882 26.214 25.504 26.214 44.569 0 0.027 0 0.054 0 0.081v-0.004c0 28.503-23.106 51.61-51.61 51.61v0zM512 714.24c-0.112 0.001-0.243 0.001-0.375 0.001-28.39 0-51.405-23.015-51.405-51.405 0-21.127 12.746-39.278 30.968-47.182l0.332-0.128 18.637-8.397 20.48 7.373c19.961 7.363 33.937 26.222 33.937 48.346 0 28.39-23.015 51.405-51.405 51.405-0.411 0-0.821-0.005-1.23-0.014l0.061 0.001zM822.886 139.776h-638.566c-11.594 0-20.992 9.398-20.992 20.992s9.398 20.992 20.992 20.992v0h638.566c11.65 0 21.094-9.444 21.094-21.094s-9.444-21.094-21.094-21.094v0z" />
<glyph unicode="&#xe929;" glyph-name="fd-cate-thuc-pham" d="M11.264 302.387c51.222-121.76 136.193-220.913 243.189-288.281l2.571-1.511v-26.419c-0.004-0.247-0.007-0.538-0.007-0.83 0-26.901 21.522-48.776 48.287-49.345l0.053-0.001h413.286c27.259 0 49.357 22.098 49.357 49.357v0 27.238c109.513 68.86 194.467 167.929 244.229 285.514l1.531 4.073 5.53 13.517c3.237 4.749 5.169 10.614 5.169 16.93 0 4.713-1.076 9.174-2.995 13.153l0.079-0.181c-2.999 6.521-8.072 11.661-14.361 14.668l-0.18 0.078v46.694c-1.015 22.833-19.772 40.96-42.763 40.96-0.014 0-0.028 0-0.042 0h0.002c-0.001 0-0.002 0-0.002 0-4.637 0-8.397 3.759-8.397 8.397 0 0.072 0.001 0.144 0.003 0.215v-0.011 16.998c-0.116 23.551-19.235 42.598-42.803 42.598 0 0 0 0 0 0h-22.733c-4.011 0.101-7.332 2.933-8.181 6.701l-0.011 0.057-7.987 31.949c-2.403 8.768-7.99 15.955-15.41 20.394l-0.155 0.086c-4.987 3.095-11.038 4.93-17.517 4.93-2.944 0-5.8-0.379-8.521-1.090l0.234 0.052c-2.438-0.617-5.236-0.971-8.117-0.971-6.785 0-13.112 1.964-18.442 5.355l0.14-0.083c-7.622 4.926-13.073 12.655-14.913 21.696l-0.037 0.217v3.686l212.173 156.877c12.479 9.441 20.458 24.26 20.458 40.944 0 25.522-18.674 46.683-43.105 50.564l-0.291 0.038c-2.561 0.463-5.509 0.728-8.518 0.728-11.299 0-21.726-3.735-30.113-10.037l0.129 0.093-225.28-163.84c-6.056 1.783-13.064 2.959-20.296 3.27l-0.184 0.006h-27.238c-0.133-0.001-0.291-0.002-0.448-0.002-3.918 0-7.715 0.524-11.322 1.506l0.301-0.070 154.419 185.958c7.339 8.798 11.795 20.224 11.795 32.691 0 25.209-18.218 46.162-42.206 50.413l-0.309 0.045c-2.65 0.49-5.7 0.771-8.815 0.771-15.694 0-29.725-7.118-39.042-18.302l-0.066-0.082-200.909-242.688c-3.849-1.032-8.267-1.625-12.824-1.625-10.468 0-20.205 3.129-28.327 8.503l0.191-0.119c-15.848 10.618-35.339 16.96-56.31 16.998h-7.383c-0.115 0.001-0.251 0.001-0.387 0.001-17.503 0-32.912-8.962-41.891-22.547l-0.116-0.187c-3.942-5.668-9.908-9.691-16.831-11.032l-0.168-0.027c-1.66-0.374-3.567-0.589-5.524-0.589-5.596 0-10.782 1.753-15.039 4.741l0.084-0.056c-6.041 3.707-13.356 5.903-21.184 5.903-10.923 0-20.848-4.276-28.191-11.245l0.018 0.017-15.36-15.36c-5.025-5.024-9.265-10.833-12.52-17.228l-0.178-0.385c-5.329-10.282-15.885-17.189-28.056-17.203h-0.002c-30.564-0.116-55.296-24.92-55.296-55.5 0 0 0 0 0 0v0c-0.010-1.429-0.832-2.664-2.027-3.267l-0.021-0.010-34.611-17.203c-18.626-9.825-31.11-29.052-31.13-51.197v-0.003l-20.48-13.722c-18.498-12.435-30.509-33.281-30.515-56.933v-6.555c0 0 0 0-0.001 0-18.776 0-33.997-15.221-33.997-33.997 0-0.072 0-0.144 0.001-0.216v0.011-34.202h-4.096c-0.138 0.002-0.301 0.004-0.464 0.004-16.627 0-30.106-13.479-30.106-30.106 0-6.795 2.251-13.064 6.048-18.103l-0.055 0.077zM981.197 315.085c-48.679-116.553-130.144-211.347-232.831-275.244l-2.484-1.44h-46.080c0 0-0.001 0-0.001 0-9.429 0-17.086-7.586-17.202-16.987v-0.011c0.114-9.455 7.748-17.089 17.192-17.203h34.008v-18.842c0-8.37-6.785-15.155-15.155-15.155v0h-413.286c-8.37 0-15.155 6.785-15.155 15.155v0 18.842h204.8c9.413 0.116 16.998 7.773 16.998 17.202 0 0 0 0.001 0 0.001v0c0 9.388-7.61 16.998-16.998 16.998v0h-216.883c-105.218 65.366-186.696 160.24-233.882 273.027l-1.433 3.863-5.734 14.131h949.862zM962.56 820.941c2.707 2.052 6.131 3.287 9.845 3.287 0.935 0 1.852-0.078 2.745-0.229l-0.096 0.013c4.612-0.66 8.564-3.066 11.235-6.514l0.029-0.039c2.004-2.862 3.222-6.404 3.277-10.227v-0.013c-0.068-5.599-2.769-10.553-6.919-13.69l-0.044-0.032-431.718-316.006-16.589-5.53c-1.563-0.485-3.36-0.764-5.222-0.764s-3.659 0.279-5.352 0.798l0.129-0.034-24.986 8.397h-1.638zM669.082 652.8h6.758l-122.88-89.293 81.92 97.69c9.991-4.901 21.689-7.951 34.052-8.393l0.15-0.004zM759.603 919.040c3.103 3.847 7.818 6.288 13.102 6.288 6.487 0 12.114-3.678 14.912-9.062l0.044-0.093c1.25-2.325 1.985-5.088 1.985-8.022 0-4.114-1.444-7.891-3.853-10.851l0.025 0.031-344.474-415.334-21.504-15.565c-6.37 6.33-14.412 10.983-23.407 13.238l-0.35 0.074zM68.198 397.619c18.889 0 34.202 15.313 34.202 34.202v0 6.554c0 0.010 0 0.022 0 0.034 0 11.841 6.053 22.268 15.234 28.355l0.126 0.078 20.48 13.926c9.313 6.255 15.36 16.748 15.36 28.654 0 0.006 0 0.013 0 0.019v-0.001c0.254 8.902 5.367 16.554 12.771 20.418l0.131 0.062 34.406 17.203c12.261 6.441 20.48 19.087 20.48 33.652 0 0.049 0 0.098 0 0.147v-0.008c0 11.311 9.169 20.48 20.48 20.48v0c25.31 0.121 47.238 14.481 58.195 35.476l0.173 0.364c1.779 3.468 3.966 6.439 6.552 9.009l15.362 15.362c0.951 0.635 2.121 1.013 3.379 1.013s2.428-0.378 3.402-1.027l-0.023 0.014c9.39-6.383 20.978-10.191 33.455-10.191 20.846 0 39.21 10.63 49.966 26.766l0.138 0.219c3.112 4.564 8.27 7.533 14.124 7.578h7.38c13.949-0.115 26.898-4.301 37.743-11.427l-0.264 0.163c8.803-6.034 19.201-10.467 30.412-12.616l0.513-0.082-158.925-191.488c-0.442-0.044-0.955-0.069-1.474-0.069-2.44 0-4.751 0.554-6.813 1.544l0.095-0.041c-6.624 3.389-14.45 5.375-22.739 5.375-13.985 0-26.65-5.652-35.835-14.797l-16.996-16.996c-3.065-3.105-4.958-7.373-4.958-12.083s1.893-8.978 4.96-12.085l-0.002 0.002c3.049-3.103 7.29-5.026 11.981-5.026s8.932 1.923 11.978 5.023l17 17c3.080 2.935 7.259 4.741 11.859 4.741 2.686 0 5.229-0.616 7.494-1.714l-0.102 0.045c6.572-3.46 14.361-5.491 22.625-5.491 5.684 0 11.143 0.961 16.224 2.729l-0.346-0.105 18.432 6.144c1.566 0.548 3.372 0.864 5.252 0.864 4.503 0 8.581-1.816 11.543-4.757l-0.001 0.001c9.184-9.147 21.851-14.802 35.84-14.802 10.451 0 20.166 3.157 28.241 8.569l-0.183-0.116 14.746 9.626c2.572 1.802 5.767 2.88 9.214 2.88 1.832 0 3.594-0.305 5.236-0.866l-0.114 0.034 24.986-8.397c4.766-1.655 10.258-2.611 15.974-2.611s11.209 0.956 16.327 2.716l-0.353-0.105 26.624 10.24c1.52 0.514 3.27 0.811 5.090 0.811 3.454 0 6.659-1.069 9.301-2.894l-0.055 0.036 37.478-24.986c2.361-1.298 5.175-2.062 8.167-2.062 9.501 0 17.203 7.702 17.203 17.203 0 5.36-2.451 10.147-6.294 13.302l-0.030 0.024-37.069 24.576 157.082 115.098c10.189-25.615 34.76-43.396 63.485-43.418h0.003c0.021 0 0.046 0 0.070 0 5.784 0 11.412 0.672 16.809 1.941l-0.495-0.098 8.192-31.949c4.021-18.733 20.44-32.572 40.092-32.572 0.305 0 0.61 0.003 0.913 0.010l-0.045-0.001h22.733c4.751 0 8.602-3.851 8.602-8.602v0-16.998c0 0 0 0 0 0 0-23.568 19.047-42.686 42.587-42.803h0.011c0.061 0.002 0.133 0.002 0.205 0.002 4.637 0 8.397-3.759 8.397-8.397 0-0.001 0-0.002 0-0.003v0-42.803h-904.397zM751.002 90.419c3.16 0.022 6.121 0.855 8.692 2.3l-0.091-0.047c69.556 43.185 124.508 103.99 159.464 176.271l1.099 2.52c0.881 1.987 1.394 4.305 1.394 6.743 0 3.871-1.294 7.44-3.473 10.297l0.030-0.041c-3.179 3.903-7.985 6.376-13.369 6.376-7.148 0-13.277-4.359-15.875-10.564l-0.042-0.114c-32.867-68.576-83.146-124.315-145.205-162.892l-1.636-0.948c-4.887-2.995-8.099-8.306-8.099-14.367 0-1.742 0.265-3.423 0.758-5.003l-0.032 0.119c2.176-7.133 8.677-12.241 16.378-12.288h0.006z" />
</font>
</defs>
</svg>
