<?xml version="1.0" encoding="utf-8"?>
<!-- Generator: Adobe Illustrator 21.0.2, SVG Export Plug-In . SVG Version: 6.00 Build 0)  -->
<svg version="1.1" id="Layer_1" xmlns="http://www.w3.org/2000/svg" xmlns:xlink="http://www.w3.org/1999/xlink" x="0px" y="0px"
	 viewBox="0 0 512 512" style="enable-background:new 0 0 512 512;" xml:space="preserve">
<style type="text/css">
	.st0{fill:#EBA5A5;}
	.st1{fill:#B62C2C;}
</style>
<g id="Mobile_App-Shipping-Tracking">
	<path class="st0" d="M472,88H296c-8.8,0-16,7.2-16,16v96c0,8.8,7.2,16,16,16h48v48l48-48h80c8.8,0,16-7.2,16-16v-96
		C488,95.2,480.8,88,472,88z"/>
	<path class="st0" d="M248,232v104c0,4.4-3.6,8-8,8H96c-4.4,0-8-3.6-8-8V232h56v32l24-16l24,16v-32H248z"/>
	<path class="st0" d="M192,200h56v32h-56V200z"/>
	<path class="st0" d="M224,168l24,32h-56h-48H88l24-32H224z"/>
	<path class="st0" d="M232,24v24c0,4.4-3.6,8-8,8H112c-4.4,0-8-3.6-8-8V24H232z"/>
	<path class="st0" d="M88,200h56v32H88V200z"/>
	<g>
		<path class="st1" d="M230.4,163.2c-1.5-2-3.9-3.2-6.4-3.2H112c-2.5,0-4.9,1.2-6.4,3.2l-24,32c-1,1.4-1.6,3.1-1.6,4.8v136
			c0,8.8,7.2,16,16,16h144c8.8,0,16-7.2,16-16V200c0-1.7-0.6-3.4-1.6-4.8L230.4,163.2z M116,176h104l12,16H104L116,176z M136,224H96
			v-16h40V224z M152,208h32v41l-11.6-7.7c-2.7-1.8-6.2-1.8-8.9,0L152,249V208z M200,208h40v16h-40V208z M96,336v-96h40v24
			c0,4.4,3.6,8,8,8c1.6,0,3.1-0.5,4.4-1.3l19.6-13.1l19.6,13c3.7,2.5,8.6,1.5,11.1-2.2c0.9-1.3,1.3-2.8,1.3-4.4v-24h40v96H96z"/>
		<path class="st1" d="M472,80H320V56c0-22.1-17.9-40-40-40H56c-22.1,0-40,17.9-40,40v400c0,22.1,17.9,40,40,40h224
			c22.1,0,40-17.9,40-40V224h16v40c0,4.4,3.6,8,8,8c2.1,0,4.2-0.8,5.7-2.3l45.7-45.7H472c13.3,0,24-10.7,24-24v-96
			C496,90.7,485.3,80,472,80z M112,32h112v16H112V32z M304,456c0,13.3-10.7,24-24,24H56c-13.3,0-24-10.7-24-24V56
			c0-13.3,10.7-24,24-24h40v16c0,8.8,7.2,16,16,16h112c8.8,0,16-7.2,16-16V32h40c13.3,0,24,10.7,24,24v24h-8c-13.3,0-24,10.7-24,24
			v96c0,13.3,10.7,24,24,24h8V456z M480,200c0,4.4-3.6,8-8,8h-80c-2.1,0-4.2,0.8-5.7,2.3L352,244.7V216c0-4.4-3.6-8-8-8h-48
			c-4.4,0-8-3.6-8-8v-96c0-4.4,3.6-8,8-8h176c4.4,0,8,3.6,8,8V200z"/>
		<path class="st1" d="M320,128h128v16H320V128z"/>
		<path class="st1" d="M320,160h128v16H320V160z"/>
		<path class="st1" d="M352,368h64v16h-64V368z"/>
		<path class="st1" d="M349.7,320.1l56-16l4.4,15.4l-56,16L349.7,320.1z"/>
		<path class="st1" d="M350.1,431.6l4.4-15.4l56,16l-4.4,15.4L350.1,431.6z"/>
		<path class="st1" d="M128,392h16v16h-16V392z"/>
		<path class="st1" d="M160,392h16v16h-16V392z"/>
		<path class="st1" d="M192,392h16v16h-16V392z"/>
	</g>
</g>
</svg>
