<svg xmlns="http://www.w3.org/2000/svg" xmlns:xlink="http://www.w3.org/1999/xlink" width="64" height="64" viewBox="0 0 64 64">
    <defs>
        <path id="a" d="M58.667 52.267H5.333a3.206 3.206 0 0 1-3.017-2.134h59.368a3.206 3.206 0 0 1-3.017 2.134z"/>
    </defs>
    <g fill="none" fill-rule="nonzero">
        <path fill="#B3D9FF" d="M58.667 7.467H46.933l.651 3.914a2.133 2.133 0 0 1-1.717 2.454 2.24 2.24 0 0 1-.384.032h-1.75a2.14 2.14 0 0 1-2.133-2.134 2.14 2.14 0 0 1-2.133 2.134h-2.134a2.14 2.14 0 0 1-2.133-2.134 2.14 2.14 0 0 1-2.133 2.134h-2.134a2.14 2.14 0 0 1-2.133-2.134 2.14 2.14 0 0 1-2.133 2.134h-2.134a2.14 2.14 0 0 1-2.133-2.134 2.14 2.14 0 0 1-2.133 2.134h-1.75a2.24 2.24 0 0 1-.384-.032 2.133 2.133 0 0 1-1.717-2.454l.65-3.914H5.334a4.267 4.267 0 0 0-4.266 4.266v37.334h61.866V11.733a4.267 4.267 0 0 0-4.266-4.266zm-32 37.333a2.133 2.133 0 1 1 2.133-2.133 2.14 2.14 0 0 1-2.133 2.133zm9.6 0a2.133 2.133 0 1 1 2.133-2.133 2.14 2.14 0 0 1-2.133 2.133zm6.4-13.867l-3.2 5.334H24.533l-3.2-5.334-3.2-5.333h27.734l-3.2 5.333z"/>
        <path fill="#FFF" d="M26.133 53.333l-4.8 9.6h21.334l-4.8-9.6z"/>
        <g>
            <use fill="#0080FF" xlink:href="#a"/>
            <use fill="#FFF" xlink:href="#a"/>
        </g>
        <path fill="#0080FF" d="M58.667 6.4h-10.83L46.918.89A1.067 1.067 0 0 0 45.867 0H18.133c-.52 0-.965.377-1.051.89l-.919 5.51H5.333A5.34 5.34 0 0 0 0 11.733v37.334A5.34 5.34 0 0 0 5.333 54.4h19.074l-4.028 8.057A1.067 1.067 0 0 0 21.333 64h21.334a1.067 1.067 0 0 0 .96-1.543L39.593 54.4h19.074A5.34 5.34 0 0 0 64 49.067V11.733A5.34 5.34 0 0 0 58.667 6.4zM37.333 42.667a1.067 1.067 0 1 1-2.133 0 1.067 1.067 0 0 1 2.133 0zm1.53-7.467h-1.53V32h3.45l-1.92 3.2zM35.2 26.667v3.2h-6.4v-3.2h6.4zm-8.533 3.2h-4.73l-1.92-3.2h6.65v3.2zm0 2.133v3.2h-1.53l-1.92-3.2h3.45zm2.133 0h6.4v3.2h-6.4V32zm13.263-2.133h-4.73v-3.2h6.65l-1.92 3.2zM19.2 24.533v-9.6h1.067a3.18 3.18 0 0 0 2.133-.832 3.18 3.18 0 0 0 2.133.832h2.134a3.18 3.18 0 0 0 2.133-.832 3.18 3.18 0 0 0 2.133.832h2.134a3.18 3.18 0 0 0 2.133-.832 3.18 3.18 0 0 0 2.133.832h2.134a3.18 3.18 0 0 0 2.133-.832 3.18 3.18 0 0 0 2.133.832H44.8v9.6H19.2zm27.334-12.975a1.067 1.067 0 0 1-1.052 1.242h-1.749c-.589 0-1.066-.478-1.066-1.067v-9.6h2.296l1.571 9.425zm-6 .175c0 .59-.478 1.067-1.067 1.067h-2.134c-.589 0-1.066-.478-1.066-1.067v-9.6h4.266v9.6zm-6.4 0c0 .59-.478 1.067-1.067 1.067h-2.134c-.589 0-1.066-.478-1.066-1.067v-9.6h4.266v9.6zm-6.4 0c0 .59-.478 1.067-1.067 1.067h-2.134c-.589 0-1.066-.478-1.066-1.067v-9.6h4.266v9.6zm-8.697-9.6h2.296v9.6c0 .59-.477 1.067-1.066 1.067h-1.749a1.067 1.067 0 0 1-1.052-1.242l1.57-9.425zm-16.904 9.6a3.2 3.2 0 0 1 3.2-3.2h10.474l-.447 2.674a3.16 3.16 0 0 0 1.707 3.367V25.6c0 .194.052.383.152.55l6.4 10.666c.193.32.54.517.914.517H38.4V38.4c0 .59-.478 1.067-1.067 1.067H26.667a3.2 3.2 0 1 0 3.2 3.2 3.164 3.164 0 0 0-.197-1.067h3.593a3.164 3.164 0 0 0-.196 1.067 3.2 3.2 0 1 0 6.4 0 3.165 3.165 0 0 0-.427-1.57 3.194 3.194 0 0 0 1.493-2.697v-1.838l5.937-9.895h3.663c.59 0 1.067-.478 1.067-1.067v-2.133h3.2v-2.134h-4.267c-.589 0-1.066.478-1.066 1.067v2.133h-2.134v-9.96a3.16 3.16 0 0 0 1.707-3.366l-.447-2.674h10.474a3.2 3.2 0 0 1 3.2 3.2V48H2.133V11.733zm25.6 30.934a1.067 1.067 0 1 1-2.133 0 1.067 1.067 0 0 1 2.133 0zm13.208 19.2H23.059l3.734-7.467h10.414l3.734 7.467zm17.726-9.6H5.333a3.206 3.206 0 0 1-3.017-2.134h59.368a3.206 3.206 0 0 1-3.017 2.134z"/>
        <path fill="#0080FF" d="M4.267 43.733H6.4v2.133H4.267zM8.533 43.733h6.4v2.133h-6.4z"/>
    </g>
</svg>
