<svg xmlns="http://www.w3.org/2000/svg" width="83" height="64" viewBox="0 0 83 64">
    <g fill="none" fill-rule="nonzero">
        <g fill="#0080FF">
            <path d="M73.062 49.324H58.396a.993.993 0 1 1 0-1.988h14.666a.993.993 0 1 1 0 1.988zM73.062 31.434h-9.694a.993.993 0 1 1 0-1.988h9.694a.993.993 0 1 1 0 1.988zM66.348 13.543h-2.98a.993.993 0 1 1 0-1.988h2.98a.993.993 0 1 1 0 1.988z"/>
            <path d="M73.062 49.301a.993.993 0 1 1 0-1.988c4.38 0 7.942-3.563 7.942-7.942 0-4.38-3.563-7.943-7.942-7.943a.993.993 0 1 1 0-1.988c5.476 0 9.93 4.455 9.93 9.93 0 5.477-4.455 9.931-9.93 9.931zM63.368 31.443c-5.48 0-9.94-4.46-9.94-9.942 0-5.48 4.46-9.94 9.94-9.94a.993.993 0 1 1 0 1.988c-4.384 0-7.952 3.568-7.952 7.952 0 4.386 3.568 7.954 7.952 7.954a.993.993 0 1 1 0 1.988z"/>
        </g>
        <path fill="#0080FF" d="M74.328 19.534c-4.842-7.054-5.741-7.778-5.741-10.37 0-3.552 2.865-6.43 6.399-6.43s6.399 2.878 6.399 6.43c0 2.592-.9 3.316-5.742 10.37a.798.798 0 0 1-1.315 0zm.658-7.73a2.671 2.671 0 1 0 0-5.343 2.671 2.671 0 0 0 0 5.343z"/>
        <path fill="#B3D9FF" d="M61.63 46.844v2.982c0 7.137-5.786 12.922-12.923 12.922-7.137 0-12.922-5.785-12.922-12.922v-2.982c0 7.136 5.785 12.922 12.922 12.922 7.137 0 12.922-5.786 12.922-12.922z"/>
        <path fill="#FFF" d="M61.63 46.844c0 7.136-5.786 12.922-12.923 12.922-7.137 0-12.922-5.786-12.922-12.922 0-7.137 5.785-12.922 12.922-12.922 7.137 0 12.922 5.785 12.922 12.922z"/>
        <path fill="#B3D9FF" d="M5.965 41.874h2.982v2.982H5.965zM11.929 41.874h2.982v2.982h-2.982zM17.893 41.874h2.982v2.982h-2.982zM43.737 1.12l4.97 5.963h-19.88l-.994-5.964zM21.78 1.12l-.905 5.963H.995l4.97-5.964z"/>
        <path fill="#B3D9FF" d="M27.833 1.12l.994 5.963h-7.952l.904-5.964z"/>
        <path fill="#FFF" d="M28.827 7.083v8.946l-3.976-1.988-3.976 1.988V7.083z"/>
        <path fill="#B3D9FF" d="M35.785 46.844v2.982H.995V7.083h19.88v8.946l3.976-1.988 3.976 1.988V7.083h19.88v26.839c-7.137 0-12.922 5.785-12.922 12.922zm-14.91-1.988v-2.982h-2.982v2.982h2.982zm-5.964 0v-2.982h-2.982v2.982h2.982zm-5.964 0v-2.982H5.965v2.982h2.982z"/>
        <g fill="#0080FF">
            <path d="M35.785 50.82H.995A.993.993 0 0 1 0 49.826V7.083c0-.55.445-.994.994-.994h47.713c.55 0 .994.444.994.994v26.839a.993.993 0 1 1-1.988 0V8.077H1.99v40.755h33.796a.993.993 0 1 1 0 1.988z"/>
            <path d="M48.707 60.76c-7.673 0-13.916-6.243-13.916-13.916 0-7.674 6.243-13.916 13.916-13.916 7.674 0 13.916 6.242 13.916 13.916 0 7.673-6.242 13.916-13.916 13.916zm0-25.844c-6.577 0-11.928 5.35-11.928 11.928 0 6.577 5.351 11.928 11.928 11.928 6.578 0 11.928-5.351 11.928-11.928 0-6.578-5.35-11.928-11.928-11.928z"/>
            <path d="M48.707 63.742c-7.673 0-13.916-6.243-13.916-13.916a.993.993 0 1 1 1.988 0c0 6.577 5.351 11.928 11.928 11.928 6.578 0 11.928-5.351 11.928-11.928a.993.993 0 1 1 1.988 0c0 7.673-6.242 13.916-13.916 13.916zM.994 8.077a.997.997 0 0 1-.637-.23.998.998 0 0 1-.127-1.401L5.2.482a.995.995 0 0 1 1.528 1.273L1.758 7.72a.99.99 0 0 1-.764.358zM48.708 8.077a.995.995 0 0 1-.765-.357l-4.97-5.964A.994.994 0 1 1 44.5.483l4.97 5.964a.995.995 0 0 1-.762 1.63z"/>
            <path d="M43.737 2.113H5.965a.993.993 0 1 1 0-1.988h37.772a.993.993 0 1 1 0 1.988z"/>
            <path d="M20.876 8.077a.996.996 0 0 1-.984-1.144l.9-5.963a1.001 1.001 0 0 1 1.133-.835c.542.082.916.59.834 1.132l-.9 5.964a.997.997 0 0 1-.983.846zM28.826 8.077a.994.994 0 0 1-.98-.83l-.993-5.965a.993.993 0 1 1 1.96-.326l.994 5.964a.993.993 0 0 1-.981 1.157z"/>
            <path d="M20.875 17.023a.993.993 0 0 1-.994-.994V7.083a.993.993 0 1 1 1.988 0v8.946c0 .55-.444.994-.994.994zM28.827 17.023a.993.993 0 0 1-.994-.994V7.083a.993.993 0 1 1 1.988 0v8.946c0 .55-.444.994-.994.994z"/>
            <path d="M28.826 17.023a.999.999 0 0 1-.443-.104l-3.976-1.988a.995.995 0 1 1 .89-1.778l3.975 1.988a.994.994 0 0 1-.446 1.882z"/>
            <path d="M20.876 17.023a.995.995 0 0 1-.446-1.883l3.976-1.988a.995.995 0 0 1 .89 1.778l-3.977 1.988a.99.99 0 0 1-.443.105zM8.947 45.85H5.965a.993.993 0 0 1-.994-.994v-2.982c0-.55.444-.994.994-.994h2.982c.55 0 .994.444.994.994v2.982c0 .55-.444.994-.994.994zm-1.988-1.988h.994v-.994h-.994v.994zM14.91 45.85H11.93a.993.993 0 0 1-.994-.994v-2.982c0-.55.444-.994.994-.994h2.982c.55 0 .994.444.994.994v2.982c0 .55-.444.994-.994.994zm-1.987-1.988h.994v-.994h-.994v.994zM20.875 45.85h-2.982a.993.993 0 0 1-.994-.994v-2.982c0-.55.444-.994.994-.994h2.982c.55 0 .994.444.994.994v2.982c0 .55-.444.994-.994.994zm-1.988-1.988h.994v-.994h-.994v.994zM19.88 33.922H5.966a.993.993 0 1 1 0-1.988H19.88a.993.993 0 1 1 0 1.988zM12.923 36.904H5.965a.993.993 0 1 1 0-1.988h6.958a.993.993 0 1 1 0 1.988zM35.785 50.82a.993.993 0 0 1-.994-.994v-2.982a.993.993 0 1 1 1.988 0v2.982c0 .55-.444.994-.994.994zM61.63 50.82a.993.993 0 0 1-.995-.994v-2.982a.993.993 0 1 1 1.988 0v2.982c0 .55-.444.994-.994.994zM48.707 47.837a.993.993 0 0 1-.994-.994v-6.957a.993.993 0 1 1 1.988 0v6.957c0 .55-.444.994-.994.994z"/>
            <path d="M53.627 52.757a.99.99 0 0 1-.703-.291l-4.92-4.92a.993.993 0 1 1 1.406-1.405l4.92 4.92a.994.994 0 0 1-.703 1.696z"/>
        </g>
    </g>
</svg>
