<?xml version="1.0" encoding="utf-8"?>
<!-- Generator: Adobe Illustrator 21.0.2, SVG Export Plug-In . SVG Version: 6.00 Build 0)  -->
<svg version="1.1" id="Layer_1" xmlns="http://www.w3.org/2000/svg" xmlns:xlink="http://www.w3.org/1999/xlink" x="0px" y="0px"
	 viewBox="0 0 512 512" style="enable-background:new 0 0 512 512;" xml:space="preserve">
<style type="text/css">
	.st0{fill:#EBA5A5;}
	.st1{fill:#B62C2C;}
</style>
<path class="st0" d="M456,232v48l-16-16l-16,16v-48H456z"/>
<path class="st0" d="M424,160v72H312c-8.8,0-16,7.2-16,16v192H40c-8.8,0-16-7.2-16-16V160h160v64l40-32l40,32v-64H424z"/>
<path class="st0" d="M264,96h160v64H264V96z"/>
<path class="st0" d="M380.7,31.1L424,96H24l43.3-64.9c2.9-4.5,7.9-7.1,13.3-7.1h286.9C372.8,24,377.8,26.7,380.7,31.1z"/>
<path class="st0" d="M24,96h160v64H24V96z"/>
<g>
	<path class="st1" d="M472,224h-40V96c0-1.6-0.5-3.1-1.3-4.4l-43.3-64.8C383,20,375.5,16,367.4,16H80.6c-8,0-15.5,4-19.9,10.7
		L17.3,91.6C16.5,92.9,16,94.4,16,96v328c0,13.3,10.7,24,24,24c0,0,0,0,0,0h248v24c0,13.3,10.7,24,24,24h160c13.3,0,24-10.7,24-24
		V248C496,234.7,485.3,224,472,224z M432,240h16v20.7l-2.3-2.3c-3.1-3.1-8.2-3.1-11.3,0l-2.3,2.3V240z M176,152H32v-48h144V152z
		 M192,104h64v103.4l-27-21.6c-2.9-2.3-7.1-2.3-10,0l-27,21.6V104z M272,104h144v48H272V104z M74,35.5c1.5-2.2,3.9-3.5,6.6-3.5
		h286.9c2.7,0,5.2,1.3,6.6,3.6L409,88H39L74,35.5z M40,432c-4.4,0-8-3.6-8-8V168h144v56c0,4.4,3.6,8,8,8c1.8,0,3.6-0.6,5-1.8l35-28
		l35,28c3.4,2.8,8.5,2.2,11.2-1.2c1.1-1.4,1.8-3.2,1.8-5v-56h144v56H312c-13.3,0-24,10.7-24,24v184H40z M480,472c0,4.4-3.6,8-8,8
		H312c-4.4,0-8-3.6-8-8V248c0-4.4,3.6-8,8-8h104v40c0,4.4,3.6,8,8,8c2.1,0,4.2-0.8,5.7-2.3l10.3-10.3l10.3,10.3
		c1.5,1.5,3.5,2.3,5.7,2.3c1.1,0,2.1-0.2,3.1-0.6c3-1.2,4.9-4.2,4.9-7.4v-40h8c4.4,0,8,3.6,8,8V472z"/>
	<path class="st1" d="M344,332.7l-10.3-10.3l-11.3,11.3l16,16c3.1,3.1,8.2,3.1,11.3,0l32-32l-11.3-11.3L344,332.7z"/>
	<path class="st1" d="M344,420.7l-10.3-10.3l-11.3,11.3l16,16c3.1,3.1,8.2,3.1,11.3,0l32-32l-11.3-11.3L344,420.7z"/>
	<path class="st1" d="M400,336h64v16h-64V336z"/>
	<path class="st1" d="M400,424h64v16h-64V424z"/>
	<path class="st1" d="M400,392h64v16h-64V392z"/>
	<path class="st1" d="M400,304h16v16h-16V304z"/>
	<path class="st1" d="M432,304h32v16h-32V304z"/>
</g>
</svg>
