<?xml version="1.0" encoding="utf-8"?>
<!-- Generator: Adobe Illustrator 21.0.2, SVG Export Plug-In . SVG Version: 6.00 Build 0)  -->
<svg version="1.1" id="Layer_1" xmlns="http://www.w3.org/2000/svg" xmlns:xlink="http://www.w3.org/1999/xlink" x="0px" y="0px"
	 viewBox="0 0 512 512" style="enable-background:new 0 0 512 512;" xml:space="preserve">
<style type="text/css">
	.st0{fill:#EBA5A5;}
	.st1{fill:#B62C2C;}
</style>
<g id="Discount-3">
	<path class="st0" d="M488,40v48.2H24V40c0-8.8,7.2-16,16-16h432C480.8,24,488,31.2,488,40z"/>
	<path class="st0" d="M456,336l-35,22.8l18.9,37.2l-41.7,2.2l-2.2,41.7L358.8,421L336,456l-22.8-35L276,439.9l-2.2-41.7l-41.7-2.2
		l18.9-37.2L216,336l35-22.8L232.1,276l41.7-2.2l2.2-41.7l37.2,18.9l22.8-35l22.8,35l37.2-18.9l2.2,41.7l41.7,2.2L421,313.2L456,336
		z M384,368c0-8.8-7.2-16-16-16s-16,7.2-16,16s7.2,16,16,16C376.8,384,384,376.8,384,368z M320,304c0-8.8-7.2-16-16-16
		s-16,7.2-16,16s7.2,16,16,16C312.8,320,320,312.8,320,304z"/>
	<path class="st0" d="M208,160l-13.8,82.6c-1.3,7.7-8,13.3-15.8,13.4h-85c-7.8,0-14.5-5.7-15.8-13.4L64,160H208z"/>
	<g>
		<path class="st1" d="M472,16H40c-13.3,0-24,10.7-24,24v432c0,13.3,10.7,24,24,24h432c13.3,0,24-10.7,24-24V40
			C496,26.7,485.3,16,472,16z M40,32h432c4.4,0,8,3.6,8,8v40.3H32V40C32,35.6,35.6,32,40,32z M472,480H40c-4.4,0-8-3.6-8-8V96.3h448
			V472C480,476.4,476.4,480,472,480z"/>
		<path class="st1" d="M64,48h16v16H64V48z"/>
		<path class="st1" d="M96,48h16v16H96V48z"/>
		<path class="st1" d="M128,48h16v16h-16V48z"/>
		<path class="st1" d="M290.3,370.3l80-80l11.3,11.3l-80,80L290.3,370.3z"/>
		<path class="st1" d="M368,344c-13.3,0-24,10.7-24,24s10.7,24,24,24s24-10.7,24-24S381.3,344,368,344z M368,376c-4.4,0-8-3.6-8-8
			s3.6-8,8-8s8,3.6,8,8S372.4,376,368,376z"/>
		<path class="st1" d="M328,304c0-13.3-10.7-24-24-24s-24,10.7-24,24s10.7,24,24,24S328,317.3,328,304z M296,304c0-4.4,3.6-8,8-8
			s8,3.6,8,8s-3.6,8-8,8S296,308.4,296,304z"/>
		<path class="st1" d="M460.4,329.3l-29-18.9l15.7-30.8c2-3.9,0.4-8.8-3.5-10.8c-1-0.5-2.1-0.8-3.2-0.9l-34.5-1.8l-1.8-34.5
			c-0.2-4.4-4-7.8-8.4-7.6c-1.1,0.1-2.2,0.3-3.2,0.9l-30.8,15.7l-18.9-29c-2.7-3.7-7.9-4.5-11.6-1.8c-0.7,0.5-1.3,1.1-1.8,1.8
			l-18.9,29l-30.8-15.7c-3.9-2-8.8-0.4-10.8,3.5c-0.5,1-0.8,2.1-0.9,3.2l-1.8,34.5l-34.5,1.8c-4.4,0.2-7.8,4-7.6,8.4
			c0.1,1.1,0.3,2.2,0.9,3.2l15.7,30.8l-29,18.9c-3.7,2.4-4.7,7.4-2.3,11.1c0.6,0.9,1.4,1.7,2.3,2.3l29,18.9l-15.7,30.8
			c-2,3.9-0.4,8.8,3.5,10.8c1,0.5,2.1,0.8,3.2,0.9l34.5,1.8l1.8,34.5c0.2,4.4,4,7.8,8.4,7.6c1.1-0.1,2.2-0.3,3.2-0.9l30.8-15.6
			l18.9,29c2.4,3.7,7.4,4.7,11.1,2.3c0.9-0.6,1.7-1.4,2.3-2.3l18.9-29l30.8,15.7c3.9,2,8.8,0.4,10.8-3.5c0.5-1,0.8-2.1,0.9-3.2
			l1.8-34.5l34.5-1.8c4.4-0.2,7.8-4,7.6-8.4c-0.1-1.1-0.3-2.2-0.9-3.2l-15.6-30.8l29-18.9c3.7-2.4,4.7-7.4,2.3-11.1
			C462.1,330.7,461.3,329.9,460.4,329.3L460.4,329.3z M416.7,352.1c-3.4,2.2-4.6,6.7-2.8,10.3l13.3,26.3l-29.4,1.6
			c-4.1,0.2-7.4,3.5-7.6,7.6l-1.5,29.4l-26.3-13.3c-3.6-1.9-8.1-0.7-10.3,2.8L336,441.3l-16.1-24.7c-2.2-3.4-6.7-4.6-10.3-2.8
			l-26.3,13.3l-1.6-29.4c-0.2-4.1-3.5-7.4-7.6-7.6l-29.4-1.5l13.3-26.3c1.9-3.6,0.7-8.1-2.8-10.3L230.7,336l24.7-16.1
			c3.4-2.2,4.6-6.7,2.8-10.3l-13.3-26.3l29.4-1.6c4.1-0.2,7.4-3.5,7.6-7.6l1.6-29.4l26.2,13.4c3.6,1.9,8.1,0.7,10.3-2.8l16.1-24.7
			l16.1,24.7c2.2,3.4,6.7,4.6,10.3,2.8l26.3-13.3l1.6,29.4c0.2,4.1,3.5,7.4,7.6,7.6l29.4,1.6l-13.4,26.2c-1.9,3.6-0.7,8.1,2.8,10.3
			l24.7,16.1L416.7,352.1z"/>
		<path class="st1" d="M214.1,154.8c-1.5-1.8-3.8-2.8-6.1-2.8h-22.6l6.4-38.7l-15.8-2.6l-6.9,41.3h-66.4l-6.9-41.3l-15.8,2.6
			l6.4,38.7H64c-4.4,0-8,3.6-8,8c0,0.4,0,0.9,0.1,1.3l13.8,82.6c1.9,11.6,11.9,20.1,23.7,20.1h84.9c11.7,0,21.8-8.5,23.7-20.1
			l13.8-82.6C216.3,159,215.6,156.6,214.1,154.8z M186.3,241.3c-0.6,3.9-4,6.7-7.9,6.7H93.6c-3.9,0-7.2-2.8-7.9-6.7L73.4,168h125.1
			L186.3,241.3z"/>
		<path class="st1" d="M128,184h16v48h-16V184z"/>
		<path class="st1" d="M160,184h16v48h-16V184z"/>
		<path class="st1" d="M96,184h16v48H96V184z"/>
		<path class="st1" d="M256,128h32v16h-32V128z"/>
		<path class="st1" d="M304,128h64v16h-64V128z"/>
		<path class="st1" d="M256,160h112v16H256V160z"/>
		<path class="st1" d="M80,296h32v16H80V296z"/>
		<path class="st1" d="M128,296h64v16h-64V296z"/>
		<path class="st1" d="M80,328h112v16H80V328z"/>
		<path class="st1" d="M80,360h80v16H80V360z"/>
		<path class="st1" d="M176,360h16v16h-16V360z"/>
	</g>
</g>
</svg>
