<?xml version="1.0" encoding="utf-8"?>
<!-- Generator: Adobe Illustrator 21.0.2, SVG Export Plug-In . SVG Version: 6.00 Build 0)  -->
<svg version="1.1" id="Time" xmlns="http://www.w3.org/2000/svg" xmlns:xlink="http://www.w3.org/1999/xlink" x="0px" y="0px"
	 viewBox="0 0 512 512" style="enable-background:new 0 0 512 512;" xml:space="preserve">
<style type="text/css">
	.st0{fill:#EBA5A5;}
	.st1{fill:#B62C2C;}
</style>
<path class="st0" d="M456,240c0,8-0.5,16-1.4,24h-32.2C435.8,163.1,364.9,70.5,264,57.1S70.5,114.7,57.1,215.5
	S114.7,409,215.5,422.4c16.1,2.1,32.4,2.1,48.5,0v32.2C145.4,467.9,38.6,382.5,25.3,264S97.4,38.6,216,25.3S441.4,97.4,454.7,216
	C455.6,224,456,232,456,240L456,240z"/>
<path class="st0" d="M456,264h-1.4h-32.2H296l-32,48h88h48h9.4h34.3H488L456,264z"/>
<path class="st0" d="M443.7,312h-34.3H400v18.7V352h24.7H488v-40H443.7z"/>
<path class="st0" d="M424.7,352H400v33c-1.3,1.5-2.6,2.9-4.1,4.2L376,376l-24,16v-40h-88v120c0,8.8,7.2,16,16,16h192
	c8.8,0,16-7.2,16-16V352H424.7z"/>
<path class="st0" d="M264,312h88v40h-88V312z"/>
<path class="st0" d="M217.3,240l22.6-22.6l22.6,22.6L240,262.6L217.3,240z"/>
<g>
	<path class="st1" d="M232,80h16v16h-16V80z"/>
	<path class="st1" d="M121.2,132.5l11.3-11.3l11.3,11.3l-11.3,11.3L121.2,132.5z"/>
	<path class="st1" d="M80,232h16v16H80V232z"/>
	<path class="st1" d="M121.2,347.5l11.3-11.3l11.3,11.3l-11.3,11.3L121.2,347.5z"/>
	<path class="st1" d="M232,384h16v16h-16V384z"/>
	<path class="st1" d="M384,232h16v16h-16V232z"/>
	<path class="st1" d="M336.1,132.5l11.3-11.3l11.3,11.3l-11.3,11.3L336.1,132.5z"/>
	<path class="st1" d="M248,214.1V120h-16v94.1L214.1,232H136v16h78.1l20.3,20.3c3.1,3.1,8.2,3.1,11.3,0l22.6-22.6
		c3.1-3.1,3.1-8.2,0-11.3L248,214.1z M240,251.3L228.7,240l11.3-11.3l11.3,11.3L240,251.3z"/>
	<path class="st1" d="M494.7,307.6L463,260.1c0.6-6.7,1-13.5,1-20.1c0-123.7-100.3-224-224-224C116.3,16,16,116.3,16,240
		c0,123.7,100.3,224,224,224c5.3,0,10.6-0.3,16-0.7v8.7c0,13.3,10.7,24,24,24h192c13.3,0,24-10.7,24-24V312
		C496,310.4,495.5,308.9,494.7,307.6z M344,344h-72v-24h72V344z M415.2,256H296c-2.7,0-5.2,1.3-6.7,3.6l-32,48
		c-0.9,1.3-1.3,2.9-1.3,4.4v103.2c-5.4,0.5-10.7,0.8-16,0.8c-97.2,0-176-78.8-176-176S142.8,64,240,64s176,78.8,176,176
		C416,245.3,415.7,250.6,415.2,256z M360,320h32v57.1l-11.6-7.7c-2.7-1.8-6.2-1.8-8.9,0l-11.6,7.7V320z M408,320h72v24h-72V320z
		 M278.9,304l21.3-32h151.4l21.3,32H278.9z M240,448c-114.9,0-208-93.1-208-208S125.1,32,240,32s208,93.1,208,208
		c0,5.3-0.3,10.6-0.7,16h-16.1c0.5-5.4,0.8-10.7,0.8-16c0-106-86-192-192-192S48,134,48,240s86,192,192,192c5.3,0,10.6-0.3,16-0.8
		v16.1C250.6,447.7,245.3,448,240,448L240,448z M472,480H280c-4.4,0-8-3.6-8-8V360h72v32c0,4.4,3.6,8,8,8c1.6,0,3.1-0.5,4.4-1.3
		l19.6-13.1l19.6,13c3.7,2.5,8.6,1.5,11.1-2.2c0.9-1.3,1.3-2.8,1.3-4.4v-32h72v112C480,476.4,476.4,480,472,480z"/>
</g>
</svg>
