<?xml version="1.0" encoding="utf-8"?>
<!-- Generator: Adobe Illustrator 21.0.2, SVG Export Plug-In . SVG Version: 6.00 Build 0)  -->
<svg version="1.1" id="Capa_1" xmlns="http://www.w3.org/2000/svg" xmlns:xlink="http://www.w3.org/1999/xlink" x="0px" y="0px"
	 viewBox="0 0 480 480" style="enable-background:new 0 0 480 480;" xml:space="preserve">
<style type="text/css">
	.st0{fill:#EBA5A5;}
	.st1{fill:#B62C2C;}
</style>
<g>
	<path class="st0" d="M368,176h48v8h-48V176z"/>
	<path class="st0" d="M368,280h48v8h-48V280z"/>
	<path class="st0" d="M368,184h48v96h-48V184z"/>
	<path class="st0" d="M416,176v8v96v8v24h56V152h-56V176z"/>
	<path class="st0" d="M64,280h48v8H64V280z"/>
	<path class="st0" d="M64,176h48v8H64V176z"/>
	<path class="st0" d="M64,184h48v96H64V184z"/>
	<path class="st0" d="M64,184v-8v-24H8v160h56v-24v-8V184z"/>
</g>
<g>
	<path class="st1" d="M472,144h-56c-4.4,0-8,3.6-8,8v16h-40c-4.4,0-8,3.6-8,8H120c0-4.4-3.6-8-8-8H72v-16c0-4.4-3.6-8-8-8H8
		c-4.4,0-8,3.6-8,8v160c0,4.4,3.6,8,8,8h56c4.4,0,8-3.6,8-8v-16h40c4.4,0,8-3.6,8-8h39.6l58.1,58.1c9.3,9.4,24.5,9.4,33.8,0
		c0,0,0,0,0,0l5.7-5.7c3,3,7.1,4.7,11.3,4.7c4.3,0,8.3-1.7,11.3-4.7l11.3-11.2l5.6,5.5c3,3,7.1,4.7,11.3,4.7c4.3,0,8.4-1.7,11.4-4.7
		l11.3-11.2l5.6,5.5c3,3,7.1,4.7,11.3,4.7c4.3,0,8.3-1.7,11.3-4.7l11.3-11.3l0.1-0.1c5.9-6,6.2-15.4,0.7-21.8H408v16
		c0,4.4,3.6,8,8,8h56c4.4,0,8-3.6,8-8V152C480,147.6,476.4,144,472,144L472,144z M408,192v80h-32v-80H408z M360,272h-12.7
		l-61.7-61.7c-1.5-1.5-3.5-2.3-5.7-2.3h-26.7c-2.1,0-4.2,0.8-5.7,2.3l-23.3,23.2c-1.5,1.5-3.5,2.3-5.6,2.2c-0.2,0-0.5-0.2-0.5,0
		l-0.6-0.1c-1.8-0.1-3.4-0.9-4.6-2.2c-1.3-1.3-2.1-2.9-2.2-4.7c0-0.4-0.1-0.7-0.1-1.1c0-2.1,0.9-4.1,2.4-5.6l30.2-30.2H360V272z
		 M72,272v-80h32v80H72z M56,304H16V160h40V304z M347.9,317.7l-5.6-5.5c-3-3-7.1-4.7-11.3-4.7c-4.3,0-8.4,1.7-11.4,4.7l-11.3,11.2
		l-5.6-5.6c-3-3-7.1-4.7-11.3-4.7c-4.3,0-8.3,1.7-11.3,4.7L268.6,329c-6.4-5.9-16.2-5.9-22.5,0.2l-5.7,5.7c-3.1,3-8.1,3-11.2,0
		l-60.5-60.5c-1.5-1.5-3.6-2.4-5.7-2.3h-43v-80h100.7l-18.9,18.9c-4.5,4.5-7.1,10.6-7.1,16.9c0,0.9,0.1,1.9,0.2,2.8
		c0.6,5.4,3,10.4,6.8,14.2c3.8,3.8,8.7,6.1,14,6.7c1,0.2,2,0.3,2.9,0.2c6.4,0.1,12.5-2.4,17-6.9l20.9-20.9h20.1l82.5,82.6
		L347.9,317.7z M464,304h-40V160h40V304z"/>
	<path class="st1" d="M384,200h16v16h-16V200z"/>
	<path class="st1" d="M80,200h16v16H80V200z"/>
	<path class="st1" d="M138.3,325.7l11.3-11.3l45.3,45.3l-11.3,11.3L138.3,325.7z"/>
	<path class="st1" d="M121.4,342.6l11.3-11.3l56.6,56.6l-11.3,11.3L121.4,342.6z"/>
	<path class="st1" d="M256,136h64v16h-64V136z"/>
	<path class="st1" d="M256,112h80v16h-80V112z"/>
	<path class="st1" d="M128,56h16v16h-16V56z"/>
	<path class="st1" d="M144,72h16v16h-16V72z"/>
	<path class="st1" d="M112,72h16v16h-16V72z"/>
	<path class="st1" d="M128,88h16v16h-16V88z"/>
	<path class="st1" d="M400,24h16v16h-16V24z"/>
	<path class="st1" d="M416,40h16v16h-16V40z"/>
	<path class="st1" d="M384,40h16v16h-16V40z"/>
	<path class="st1" d="M400,56h16v16h-16V56z"/>
	<path class="st1" d="M280,48h16v16h-16V48z"/>
	<path class="st1" d="M296,64h16v16h-16V64z"/>
	<path class="st1" d="M264,64h16v16h-16V64z"/>
	<path class="st1" d="M280,80h16v16h-16V80z"/>
	<path class="st1" d="M376,360h16v16h-16V360z"/>
	<path class="st1" d="M392,376h16v16h-16V376z"/>
	<path class="st1" d="M360,376h16v16h-16V376z"/>
	<path class="st1" d="M376,392h16v16h-16V392z"/>
	<path class="st1" d="M264,408h16v16h-16V408z"/>
	<path class="st1" d="M280,424h16v16h-16V424z"/>
	<path class="st1" d="M248,424h16v16h-16V424z"/>
	<path class="st1" d="M264,440h16v16h-16V440z"/>
	<path class="st1" d="M64,376h16v16H64V376z"/>
	<path class="st1" d="M80,392h16v16H80V392z"/>
	<path class="st1" d="M48,392h16v16H48V392z"/>
	<path class="st1" d="M64,408h16v16H64V408z"/>
</g>
</svg>
