<?xml version="1.0" encoding="utf-8"?>
<!-- Generator: Adobe Illustrator 21.0.2, SVG Export Plug-In . SVG Version: 6.00 Build 0)  -->
<svg version="1.1" id="Layer_1" xmlns="http://www.w3.org/2000/svg" xmlns:xlink="http://www.w3.org/1999/xlink" x="0px" y="0px"
	 viewBox="0 0 479 479" style="enable-background:new 0 0 479 479;" xml:space="preserve">
<style type="text/css">
	.st0{fill:#EBA5A5;}
	.st1{fill:#B62C2C;}
</style>
<path class="st0" d="M222.5,135.7c0,8.8-7.1,16-16,16c-8.8,0-16-7.1-16-16s7.1-16,16-16C215.4,119.7,222.5,126.9,222.5,135.7z"/>
<path class="st0" d="M286.4,199.6c0,8.8-7.1,16-16,16c-8.8,0-16-7.1-16-16c0-8.8,7.1-16,16-16C279.3,183.6,286.4,190.8,286.4,199.6z
	"/>
<path class="st0" d="M422.1,287.4l47.9,79.8H230.5l-47.9-79.8H422.1z"/>
<path class="st0" d="M422.1,367.2V463H182.6V287.4l47.9,79.8H422.1z"/>
<path class="st0" d="M182.6,287.4V463H54.9V287.4H182.6z"/>
<path class="st0" d="M54.9,287.4v79.8H7L54.9,287.4z"/>
<g>
	<path class="st1" d="M429,283.3c-1.4-2.4-4-3.9-6.8-3.9H54.9c-2.8,0-5.3,1.5-6.7,3.9l-0.1-0.1L0.1,363.1c-1.5,2.5-1.5,5.5-0.1,8
		c1.4,2.5,4.1,4.1,7,4.1h39.9V463c0,4.4,3.6,8,8,8h367.2c4.4,0,8-3.6,8-8v-87.8H470c2.9,0,5.5-1.6,6.9-4.1c1.4-2.5,1.4-5.6-0.1-8
		L429,283.3z M21.1,359.3l25.8-43v43H21.1z M174.6,455.1H62.9V295.4h111.8V455.1z M414.1,455.1H190.6V316.2l33.1,55.1
		c1.4,2.4,4,3.9,6.8,3.9h183.6V455.1z M235,359.3l-38.3-63.9h220.9l38.3,63.9H235z"/>
	<path class="st1" d="M366.2,423.1h31.9v16h-31.9V423.1z"/>
	<path class="st1" d="M334.3,423.1h16v16h-16V423.1z"/>
	<path class="st1" d="M345.1,96.9l13.8-8l8,13.8l-13.8,8L345.1,96.9z"/>
	<path class="st1" d="M366.2,159.7h16v16h-16V159.7z"/>
	<path class="st1" d="M359.9,208.5l4.1-15.4l15.4,4.1l-4.1,15.4L359.9,208.5z"/>
	<path class="st1" d="M345.1,238.4l8-13.8l13.8,8l-8,13.8L345.1,238.4z"/>
	<path class="st1" d="M323.2,263.6l11.3-11.3l11.3,11.3l-11.3,11.3L323.2,263.6z"/>
	<path class="st1" d="M131.2,263.6l11.3-11.3l11.3,11.3l-11.3,11.3L131.2,263.6z"/>
	<path class="st1" d="M110.1,232.6l13.8-8l8,13.8l-13.8,8L110.1,232.6z"/>
	<path class="st1" d="M97.6,197.1L113,193l4.1,15.4l-15.4,4.1L97.6,197.1z"/>
	<path class="st1" d="M94.8,159.7h16v16h-16V159.7z"/>
	<path class="st1" d="M97.7,138.2l4.1-15.4l15.4,4.1l-4.1,15.4L97.7,138.2z"/>
	<path class="st1" d="M110.1,102.7l8-13.8l13.8,8l-8,13.8L110.1,102.7z"/>
	<path class="st1" d="M131.2,71.7l11.3-11.3l11.3,11.3L142.5,83L131.2,71.7z"/>
	<path class="st1" d="M159.7,47.2l13.8-8l8,13.8l-13.8,8L159.7,47.2z"/>
	<path class="st1" d="M193.6,30.9l15.4-4.1l4.1,15.4l-15.4,4.1L193.6,30.9z"/>
	<path class="st1" d="M230.5,23.9h16v16h-16V23.9z"/>
	<path class="st1" d="M263.8,42.2l4.1-15.4l15.4,4.1l-4.1,15.4L263.8,42.2z"/>
	<path class="st1" d="M295.5,53l8-13.8l13.8,8l-8,13.8L295.5,53z"/>
	<path class="st1" d="M323.2,71.7l11.3-11.3l11.3,11.3L334.5,83L323.2,71.7z"/>
	<path class="st1" d="M359.9,126.8l15.4-4.1l4.1,15.4l-15.4,4.1L359.9,126.8z"/>
	<path class="st1" d="M406.2,55.9h16v-16h16v-16h-16V8h-16v16h-16v16h16V55.9z"/>
	<path class="st1" d="M30.9,199.6h16v-16h16v-16h-16v-16h-16v16H15v16h16V199.6z"/>
	<path class="st1" d="M62.9,55.9c13.2,0,24-10.7,24-24S76.1,8,62.9,8c-13.2,0-24,10.7-24,24S49.6,55.9,62.9,55.9z M62.9,23.9
		c4.4,0,8,3.6,8,8s-3.6,8-8,8s-8-3.6-8-8S58.5,23.9,62.9,23.9z"/>
	<path class="st1" d="M430.1,231.5c0,13.2,10.7,24,24,24c13.2,0,24-10.7,24-24s-10.7-24-24-24C440.8,207.6,430.1,218.3,430.1,231.5z
		 M454.1,223.5c4.4,0,8,3.6,8,8s-3.6,8-8,8s-8-3.6-8-8S449.6,223.5,454.1,223.5z"/>
	<path class="st1" d="M185,209.9l95.8-95.8l11.3,11.3l-95.8,95.8L185,209.9z"/>
	<path class="st1" d="M270.4,175.6c-13.2,0-24,10.7-24,24s10.7,24,24,24c13.2,0,24-10.7,24-24S283.7,175.6,270.4,175.6z
		 M270.4,207.6c-4.4,0-8-3.6-8-8c0-4.4,3.6-8,8-8s8,3.6,8,8C278.4,204,274.8,207.6,270.4,207.6z"/>
	<path class="st1" d="M206.6,159.7c13.2,0,24-10.7,24-24s-10.7-24-24-24c-13.2,0-24,10.7-24,24S193.3,159.7,206.6,159.7z
		 M206.6,127.7c4.4,0,8,3.6,8,8s-3.6,8-8,8s-8-3.6-8-8S202.2,127.7,206.6,127.7z"/>
	<path class="st1" d="M238.5,271.4c57.3,0,103.8-46.5,103.8-103.8S295.8,63.9,238.5,63.9s-103.8,46.5-103.8,103.8
		C134.8,224.9,181.2,271.4,238.5,271.4z M238.5,79.8c48.5,0,87.8,39.3,87.8,87.8s-39.3,87.8-87.8,87.8c-48.5,0-87.8-39.3-87.8-87.8
		C150.7,119.2,190,79.9,238.5,79.8z"/>
</g>
</svg>
