<svg xmlns="http://www.w3.org/2000/svg" width="62" height="64" viewBox="0 0 62 64">
    <g fill="none" fill-rule="nonzero">
        <path fill="#FFF" d="M60.93 13.999v5c0 2.21-1.817 4-4.058 4-2.243 0-4.057-1.79-4.057-4h-.012v-5l2.028-2 2.03 2h.011l2.029-2 2.028 2z"/>
        <path fill="#B3D9FF" d="M56.872 22.999H44.7v-18c0-2.21 1.815-4 4.057-4 2.241 0 4.046 1.79 4.046 4v14h.012c0 2.21 1.814 4 4.057 4z"/>
        <path fill="#FFF" d="M44.7 22.999v35H7.16v-53c0-2.21 1.816-4 4.057-4h37.541c-2.242 0-4.057 1.79-4.057 4v18z"/>
        <path fill="#94C1FF" d="M44.7 57.999v-5h4.057c1.116 0 2.03.9 2.03 2v6c0 1.1-.914 2-2.03 2H3.101c-1.115 0-2.028-.9-2.028-2v-6c0-1.1.913-2 2.028-2H7.16v5H44.7z"/>
        <g fill="#0080FF">
            <path d="M7.16 58.997a1.006 1.006 0 0 1-1.014-1V4c0-.553.453-1 1.015-1 .56 0 1.014.447 1.014 1v53.998c0 .553-.454 1-1.014 1zM44.7 58.997c-.56 0-1.014-.447-1.014-1V4c0-.553.454-1 1.014-1 .561 0 1.015.447 1.015 1v53.998c0 .553-.454 1-1.015 1zM39.629 17.007H37.6c-.56 0-1.014-.447-1.014-1 0-.553.453-1 1.014-1h2.029c.56 0 1.014.447 1.014 1 0 .553-.453 1-1.014 1z"/>
            <path d="M39.63 20.007c-.328 0-.65-.156-.845-.445l-2.029-3a.991.991 0 0 1 .281-1.387 1.022 1.022 0 0 1 1.407.277l2.029 3a.99.99 0 0 1-.281 1.387 1.026 1.026 0 0 1-.562.168z"/>
            <path d="M39.629 20.007H37.6c-.56 0-1.014-.447-1.014-1 0-.553.453-1 1.014-1h2.029c.56 0 1.014.447 1.014 1 0 .553-.453 1-1.014 1zM34.557 19.007h-3.04c-.562 0-1.015-.447-1.015-1 0-.553.453-1 1.014-1h3.041c.561 0 1.014.447 1.014 1 0 .553-.453 1-1.014 1zM24.412 19.007h-12.18a1.006 1.006 0 0 1-1.014-1c0-.553.453-1 1.014-1h12.18c.561 0 1.014.447 1.014 1 0 .553-.453 1-1.014 1zM39.629 9.001H37.6c-.56 0-1.014-.447-1.014-1 0-.553.453-1 1.014-1h2.029c.56 0 1.014.447 1.014 1 0 .553-.453 1-1.014 1z"/>
            <path d="M39.63 12.001c-.328 0-.65-.156-.845-.445l-2.029-3a.991.991 0 0 1 .281-1.387 1.023 1.023 0 0 1 1.407.277l2.029 3a.99.99 0 0 1-.281 1.387 1.03 1.03 0 0 1-.562.168z"/>
            <path d="M39.629 12.001H37.6c-.56 0-1.014-.447-1.014-1 0-.553.453-1 1.014-1h2.029c.56 0 1.014.447 1.014 1 0 .553-.453 1-1.014 1zM34.557 11.001h-3.04c-.562 0-1.015-.447-1.015-1 0-.553.453-1 1.014-1h3.041c.561 0 1.014.447 1.014 1 0 .553-.453 1-1.014 1zM16.29 11.001h-4.058a1.006 1.006 0 0 1-1.014-1c0-.553.453-1 1.014-1h4.057c.561 0 1.015.447 1.015 1 0 .553-.454 1-1.015 1zM39.629 25.004H37.6c-.56 0-1.014-.447-1.014-1 0-.553.453-1 1.014-1h2.029c.56 0 1.014.447 1.014 1 0 .553-.453 1-1.014 1z"/>
            <path d="M39.63 28.004c-.328 0-.65-.156-.845-.445l-2.029-3a.991.991 0 0 1 .281-1.387 1.023 1.023 0 0 1 1.407.277l2.029 3a.99.99 0 0 1-.281 1.387 1.026 1.026 0 0 1-.562.168z"/>
            <path d="M39.629 28.004H37.6c-.56 0-1.014-.447-1.014-1 0-.553.453-1 1.014-1h2.029c.56 0 1.014.447 1.014 1 0 .553-.453 1-1.014 1zM34.557 27.004h-3.04c-.562 0-1.015-.447-1.015-1 0-.553.453-1 1.014-1h3.041c.561 0 1.014.447 1.014 1 0 .553-.453 1-1.014 1zM19.334 27.004h-7.102a1.006 1.006 0 0 1-1.014-1c0-.553.453-1 1.014-1h7.102c.561 0 1.015.447 1.015 1 0 .553-.454 1-1.015 1zM39.629 33.008H37.6c-.56 0-1.014-.447-1.014-1 0-.553.453-1 1.014-1h2.029c.56 0 1.014.447 1.014 1 0 .553-.453 1-1.014 1z"/>
            <path d="M39.63 36.008c-.328 0-.65-.156-.845-.445l-2.029-3a.991.991 0 0 1 .281-1.387 1.023 1.023 0 0 1 1.407.277l2.029 3a.99.99 0 0 1-.281 1.387 1.026 1.026 0 0 1-.562.168z"/>
            <path d="M39.629 36.008H37.6c-.56 0-1.014-.447-1.014-1 0-.553.453-1 1.014-1h2.029c.56 0 1.014.447 1.014 1 0 .553-.453 1-1.014 1zM34.557 35.008h-3.04c-.562 0-1.015-.447-1.015-1 0-.553.453-1 1.014-1h3.041c.561 0 1.014.447 1.014 1 0 .553-.453 1-1.014 1zM22.381 35.008H12.232a1.006 1.006 0 0 1-1.014-1c0-.553.453-1 1.014-1h10.15c.56 0 1.014.447 1.014 1 0 .553-.454 1-1.015 1zM39.629 49.005H37.6c-.56 0-1.014-.447-1.014-1 0-.553.453-1 1.014-1h2.029c.56 0 1.014.447 1.014 1 0 .553-.453 1-1.014 1z"/>
            <path d="M39.63 52.005c-.328 0-.65-.156-.845-.445l-2.029-3a.991.991 0 0 1 .281-1.387 1.023 1.023 0 0 1 1.407.277l2.029 3a.99.99 0 0 1-.281 1.387 1.026 1.026 0 0 1-.562.168z"/>
            <path d="M39.629 52.005H37.6c-.56 0-1.014-.447-1.014-1 0-.553.453-1 1.014-1h2.029c.56 0 1.014.447 1.014 1 0 .553-.453 1-1.014 1zM34.557 51.005h-3.04c-.562 0-1.015-.447-1.015-1 0-.553.453-1 1.014-1h3.041c.561 0 1.014.447 1.014 1 0 .553-.453 1-1.014 1zM15.273 51.005h-3.04a1.006 1.006 0 0 1-1.015-1c0-.553.453-1 1.014-1h3.041c.56 0 1.014.447 1.014 1 0 .553-.453 1-1.014 1zM45.716 58.997H6.144a1.006 1.006 0 0 1-1.014-1c0-.553.453-1 1.014-1h39.572c.562 0 1.015.447 1.015 1 0 .553-.453 1-1.015 1zM52.807 5.996a1.006 1.006 0 0 1-1.015-1C51.792 3.344 50.43 2 48.755 2c-1.676 0-3.04 1.344-3.04 2.996 0 .553-.454 1-1.015 1-.56 0-1.014-.447-1.014-1C43.686 2.241 45.96 0 48.756 0c2.793 0 5.065 2.241 5.065 4.996 0 .553-.454 1-1.014 1zM56.872 23.996c-2.794 0-5.067-2.241-5.067-4.996 0-.553.453-1 1.014-1 .56 0 1.014.447 1.014 1 0 1.652 1.363 2.996 3.039 2.996 1.676 0 3.039-1.344 3.039-2.996 0-.553.454-1 1.014-1 .561 0 1.015.447 1.015 1 0 2.755-2.273 4.996-5.068 4.996zM7.165 5.996c-.561 0-1.015-.447-1.015-1C6.15 2.241 8.424 0 11.218 0c.56 0 1.014.447 1.014 1 0 .553-.453 1-1.014 1-1.676 0-3.04 1.344-3.04 2.996 0 .553-.452 1-1.013 1z"/>
            <path d="M48.755 2H11.218a1.006 1.006 0 0 1-1.014-1c0-.553.453-1 1.014-1h37.537c.562 0 1.015.447 1.015 1 0 .553-.453 1-1.015 1zM52.807 20a1.006 1.006 0 0 1-1.015-1V4.996c0-.553.454-1 1.015-1 .56 0 1.014.447 1.014 1V19c0 .553-.454 1-1.014 1zM56.872 23.996H44.694c-.56 0-1.014-.447-1.014-1 0-.553.454-1 1.014-1h12.178c.561 0 1.014.447 1.014 1 0 .553-.453 1-1.014 1zM60.925 20c-.56 0-1.014-.447-1.014-1v-5.002c0-.553.454-1 1.014-1 .561 0 1.015.447 1.015 1V19c0 .553-.454 1-1.015 1zM48.753 63.998H3.105c-1.677 0-3.043-1.346-3.043-3v-6.005c0-1.654 1.366-3 3.043-3h4.056c.56 0 1.014.447 1.014 1 0 .553-.454 1-1.014 1H3.105c-.56 0-1.014.448-1.014 1v6.005c0 .552.454 1 1.014 1h45.648c.56 0 1.015-.448 1.015-1v-6.005c0-.552-.453-1-1.01-1h-4.056c-.56 0-1.014-.447-1.014-1 0-.553.454-1 1.014-1h4.055c1.676 0 3.04 1.346 3.04 3v6.005c0 1.654-1.366 3-3.044 3zM12.232 45.008a1.006 1.006 0 0 1-1.014-1v-1c0-.552.453-1 1.014-1 .56 0 1.015.448 1.015 1v1c0 .553-.454 1-1.015 1zM15.275 45.008a1.006 1.006 0 0 1-1.014-1v-1c0-.552.453-1 1.014-1 .56 0 1.014.448 1.014 1v1c0 .553-.453 1-1.014 1zM18.318 45.008a1.006 1.006 0 0 1-1.014-1v-1c0-.552.453-1 1.014-1 .56 0 1.014.448 1.014 1v1c0 .553-.453 1-1.014 1zM21.361 45.008a1.006 1.006 0 0 1-1.014-1v-1c0-.552.453-1 1.014-1 .56 0 1.014.448 1.014 1v1c0 .553-.453 1-1.014 1zM27.45 45.008c-.56 0-1.013-.447-1.013-1v-1c0-.552.453-1 1.014-1 .561 0 1.014.448 1.014 1v1c0 .553-.453 1-1.014 1zM24.404 45.008a1.006 1.006 0 0 1-1.014-1v-1c0-.552.453-1 1.014-1 .56 0 1.014.448 1.014 1v1c0 .553-.453 1-1.014 1zM30.494 45.008c-.56 0-1.014-.447-1.014-1v-1c0-.552.453-1 1.014-1 .561 0 1.014.448 1.014 1v1c0 .553-.453 1-1.014 1zM33.537 45.008c-.56 0-1.015-.447-1.015-1v-1c0-.552.454-1 1.015-1 .56 0 1.014.448 1.014 1v1c0 .553-.453 1-1.014 1zM36.58 45.008c-.56 0-1.015-.447-1.015-1v-1c0-.552.454-1 1.015-1 .56 0 1.014.448 1.014 1v1c0 .553-.453 1-1.014 1zM39.623 45.008c-.561 0-1.015-.447-1.015-1v-1c0-.552.454-1 1.015-1 .56 0 1.014.448 1.014 1v1c0 .553-.453 1-1.014 1z"/>
            <path d="M60.925 14.998a1.02 1.02 0 0 1-.717-.293l-2.029-2a.989.989 0 0 1 0-1.414 1.023 1.023 0 0 1 1.435 0l2.028 2a.989.989 0 0 1 0 1.414 1.02 1.02 0 0 1-.717.293z"/>
            <path d="M56.872 14.995a1.02 1.02 0 0 1-.717-.293.99.99 0 0 1 0-1.414l2.024-1.997a1.023 1.023 0 0 1 1.435 0 .989.989 0 0 1 0 1.414l-2.025 1.997a1.019 1.019 0 0 1-.717.293z"/>
            <path d="M56.864 14.998c-.26 0-.52-.098-.717-.293l-2.029-2a.989.989 0 0 1 0-1.414 1.023 1.023 0 0 1 1.435 0l2.028 2a.989.989 0 0 1 0 1.414 1.02 1.02 0 0 1-.717.293z"/>
            <path d="M52.809 14.995c-.26 0-.52-.098-.717-.293a.989.989 0 0 1 0-1.414l2.026-1.997a1.023 1.023 0 0 1 1.435 0 .989.989 0 0 1 0 1.414l-2.027 1.997a1.02 1.02 0 0 1-.717.293z"/>
        </g>
    </g>
</svg>
