<svg xmlns="http://www.w3.org/2000/svg" width="69" height="64" viewBox="0 0 69 64">
    <g fill="none" fill-rule="nonzero">
        <path fill="#FFF" d="M66.133 1.6v24.533h-19.2l-5.333 3.2v-3.2h-3.2V1.6h27.733zM55.627 15.104l3.37-3.285-4.65-.672-2.08-4.214-2.08 4.214-4.65.672 3.37 3.285-.8 4.63 4.16-2.187 4.16 2.186-.8-4.629z"/>
        <path fill="#B3D9FF" d="M58.997 11.819l-3.37 3.285.8 4.63-4.16-2.187-4.16 2.186.8-4.629-3.371-3.285 4.65-.672 2.08-4.214 2.08 4.214zM64 35.755L67.2 40h-9.6l-1.067-4.245z"/>
        <path fill="#FFF" d="M51.2 40h6.4v4.277h-6.4zM56.533 35.755L57.6 40h-6.4l1.088-4.245z"/>
        <path fill="#B3D9FF" d="M52.288 35.755L51.2 40h-9.6l3.2-4.245z"/>
        <path fill="#FFF" d="M67.2 40v22.4H41.6V40h9.6v4.277h6.4V40zM33.067 25.067v4.266A13.84 13.84 0 0 1 25.6 41.632a13.796 13.796 0 0 1-6.4 1.568c-2.304 0-4.48-.565-6.4-1.568a13.84 13.84 0 0 1-7.467-12.299v-4.266l3.2-3.2S13.408 24 19.2 24s10.667-2.133 10.667-2.133l3.2 3.2z"/>
        <path fill="#B3D9FF" d="M37.333 54.933v6.4a1.07 1.07 0 0 1-1.066 1.067H2.133a1.07 1.07 0 0 1-1.066-1.067v-6.41a7.461 7.461 0 0 1 7.466-7.467v.01l4.267-.01L16 49.6l3.2-1.077 3.2 1.077 3.2-2.144 4.267.01a7.461 7.461 0 0 1 7.466 7.467z"/>
        <path fill="#FFF" d="M25.6 41.632v5.824L22.4 49.6l-3.2-1.077L16 49.6l-3.2-2.144v-5.824a13.796 13.796 0 0 0 6.4 1.568c2.304 0 4.48-.565 6.4-1.568z"/>
        <path fill="#B3D9FF" d="M8.533 21.867l-3.2 3.2v-5.334c0-7.082 5.728-12.8 12.8-12.8h8.534V11.2c3.541 0 6.4 2.859 6.4 6.4v7.467l-3.2-3.2S24.992 24 19.2 24 8.533 21.867 8.533 21.867z"/>
        <path fill="#B3D9FF" d="M33.067 25.067V17.6c0-3.541-2.859-6.4-6.4-6.4V6.933h-3.2V11.2a3.2 3.2 0 0 0 3.2 3.2c1.764 0 3.2 1.436 3.2 3.2v4.267l3.2 3.2z"/>
        <g fill="#0080FF">
            <path d="M37.333 55.998c-.59 0-1.066-.477-1.066-1.067 0-3.53-2.87-6.4-6.4-6.4a1.066 1.066 0 1 1 0-2.133c4.705 0 8.533 3.828 8.533 8.533 0 .59-.477 1.067-1.067 1.067z"/>
            <path d="M29.867 48.531l-4.268-.002a1.066 1.066 0 0 1 .001-2.133h.001l4.267.002a1.066 1.066 0 0 1-.001 2.133zM2.133 63.465A2.135 2.135 0 0 1 0 61.33a1.066 1.066 0 1 1 2.133 0v.002a1.065 1.065 0 1 1 0 2.132zM36.267 63.465a1.066 1.066 0 1 1 0-2.134h.002a1.065 1.065 0 1 1 2.131 0 2.135 2.135 0 0 1-2.133 2.134z"/>
            <path d="M37.333 62.398c-.59 0-1.066-.477-1.066-1.067v-6.4a1.066 1.066 0 1 1 2.133 0v6.4c0 .59-.477 1.067-1.067 1.067zM1.068 55.996A1.066 1.066 0 0 1 0 54.929a8.474 8.474 0 0 1 2.497-6.035 8.484 8.484 0 0 1 6.036-2.498 1.066 1.066 0 1 1 0 2.133 6.36 6.36 0 0 0-4.527 1.873 6.358 6.358 0 0 0-1.873 4.527c0 .589-.476 1.067-1.066 1.067z"/>
            <path d="M8.534 48.531a1.066 1.066 0 0 1 0-2.133l4.266-.002h.001a1.066 1.066 0 0 1 .001 2.133l-4.268.002zM1.067 62.396c-.59 0-1.067-.478-1.067-1.067l.001-6.4a1.066 1.066 0 1 1 2.133 0v6.4c0 .59-.479 1.067-1.067 1.067z"/>
            <path d="M36.267 63.465H2.133a1.066 1.066 0 1 1 0-2.134h34.134a1.066 1.066 0 1 1 0 2.134zM12.801 48.53a1.066 1.066 0 0 1-1.067-1.068v-5.827a1.066 1.066 0 1 1 2.133 0v5.827c0 .59-.476 1.067-1.066 1.067zM25.6 48.527c-.59 0-1.067-.477-1.067-1.067v-5.825a1.066 1.066 0 1 1 2.134 0v5.825c0 .59-.477 1.067-1.067 1.067z"/>
            <path d="M19.2 44.265c-8.235 0-14.933-6.7-14.933-14.934a1.066 1.066 0 1 1 2.133 0c0 7.058 5.742 12.8 12.8 12.8 7.058 0 12.8-5.742 12.8-12.8a1.066 1.066 0 1 1 2.133 0c0 8.235-6.698 14.934-14.933 14.934z"/>
            <path d="M5.333 30.398c-.59 0-1.066-.477-1.066-1.067v-9.6a1.066 1.066 0 1 1 2.133 0v9.6c0 .59-.477 1.067-1.067 1.067zM33.067 30.398c-.59 0-1.067-.477-1.067-1.067V17.598a1.066 1.066 0 1 1 2.133 0V29.33c0 .59-.476 1.067-1.066 1.067z"/>
            <path d="M33.067 18.665c-.59 0-1.067-.477-1.067-1.067a5.34 5.34 0 0 0-5.333-5.333 1.066 1.066 0 1 1 0-2.134c4.116 0 7.466 3.35 7.466 7.467 0 .59-.476 1.067-1.066 1.067z"/>
            <path d="M26.667 12.265c-.59 0-1.067-.477-1.067-1.067V6.93a1.066 1.066 0 1 1 2.133 0v4.267c0 .59-.476 1.067-1.066 1.067z"/>
            <path d="M26.667 7.998h-8.534a1.066 1.066 0 1 1 0-2.133h8.534a1.066 1.066 0 1 1 0 2.133z"/>
            <path d="M5.332 20.798c-.59 0-1.066-.477-1.066-1.067 0-7.646 6.22-13.866 13.867-13.866a1.066 1.066 0 1 1 0 2.133C11.663 7.998 6.4 13.262 6.4 19.73c0 .59-.477 1.067-1.067 1.067zM33.067 26.131c-.273 0-.546-.104-.754-.312l-3.2-3.2a1.065 1.065 0 1 1 1.508-1.509l3.2 3.2a1.065 1.065 0 0 1-.754 1.821z"/>
            <path d="M19.2 25.065c-5.946 0-10.886-2.133-11.093-2.223a1.067 1.067 0 0 1 .853-1.955c.047.02 4.756 2.044 10.24 2.044 5.504 0 10.193-2.023 10.24-2.044.539-.238 1.17.011 1.404.55.237.54-.01 1.169-.55 1.405-.208.09-5.148 2.223-11.094 2.223z"/>
            <path d="M5.332 26.131a1.065 1.065 0 0 1-.754-1.82l3.201-3.2a1.065 1.065 0 1 1 1.508 1.508l-3.2 3.2a1.064 1.064 0 0 1-.755.312zM15.999 50.665c-.203 0-.41-.06-.592-.18l-3.199-2.135a1.068 1.068 0 0 1 1.186-1.775l3.2 2.135a1.068 1.068 0 0 1-.595 1.955z"/>
            <path d="M16 50.665a1.066 1.066 0 0 1-.338-2.079l3.2-1.071a1.067 1.067 0 1 1 .677 2.023l-3.2 1.071a1.08 1.08 0 0 1-.339.056zM22.401 50.665a1.066 1.066 0 0 1-.593-1.955l3.2-2.135a1.067 1.067 0 0 1 1.184 1.775l-3.2 2.135c-.181.12-.388.18-.59.18z"/>
            <path d="M22.4 50.665c-.112 0-.226-.019-.338-.056l-3.2-1.07a1.067 1.067 0 1 1 .677-2.024l3.2 1.07a1.067 1.067 0 0 1-.339 2.08zM19.232 54.931a1.07 1.07 0 0 1-1.072-1.066c0-.59.471-1.067 1.06-1.067h.012a1.066 1.066 0 1 1 0 2.133zM19.232 59.198a1.07 1.07 0 0 1-1.072-1.067c0-.59.471-1.066 1.06-1.066h.012a1.066 1.066 0 1 1 0 2.133zM41.6 30.402a1.065 1.065 0 0 1-1.067-1.067v-2.133H38.4c-.59 0-1.067-.477-1.067-1.067V1.602c0-.59.477-1.067 1.067-1.067h27.733c.59 0 1.067.477 1.067 1.067v24.533c0 .59-.477 1.067-1.067 1.067H47.228l-5.08 3.048a1.061 1.061 0 0 1-.548.152zm-2.133-5.333H41.6c.59 0 1.067.477 1.067 1.066v1.316l3.716-2.23c.165-.101.355-.153.55-.153h18.134v-22.4h-25.6v22.4z"/>
            <path d="M48.105 20.802a1.064 1.064 0 0 1-1.051-1.248l.702-4.076-2.961-2.89a1.07 1.07 0 0 1-.27-1.093 1.07 1.07 0 0 1 .862-.725l4.095-.595 1.83-3.711c.358-.73 1.554-.73 1.913 0l1.83 3.71 4.095.596a1.067 1.067 0 0 1 .592 1.819l-2.962 2.89.695 4.077a1.066 1.066 0 0 1-1.548 1.123l-3.66-1.924-3.668 1.926a1.07 1.07 0 0 1-.494.121zm4.162-4.319c.17 0 .34.04.497.123l2.244 1.18-.427-2.502c-.06-.344.056-.697.306-.943l1.817-1.772-2.51-.365a1.066 1.066 0 0 1-.804-.584l-1.123-2.273-1.122 2.275a1.066 1.066 0 0 1-.804.584l-2.51.365 1.816 1.772c.25.245.366.6.306.946l-.43 2.499 2.248-1.181c.155-.083.326-.124.496-.124zM67.2 63.465H41.601c-.59 0-1.067-.477-1.067-1.067V40.002c0-.59.477-1.067 1.067-1.067H67.2c.59 0 1.067.477 1.067 1.067v22.396c0 .59-.477 1.067-1.067 1.067zM42.668 61.33h23.465V41.07H42.668V61.33z"/>
            <path d="M41.6 41.069a1.067 1.067 0 0 1-.851-1.708l3.199-4.25a1.066 1.066 0 1 1 1.703 1.284l-3.198 4.25c-.209.277-.529.424-.853.424zM67.201 41.069c-.324 0-.644-.147-.853-.425l-3.201-4.25a1.067 1.067 0 0 1 1.703-1.284l3.201 4.25a1.067 1.067 0 0 1-.85 1.709z"/>
            <path d="M63.999 36.82H44.8a1.066 1.066 0 1 1 0-2.134h19.199a1.066 1.066 0 1 1 0 2.133z"/>
            <path d="M51.201 41.069a1.068 1.068 0 0 1-1.035-1.33l1.085-4.25a1.068 1.068 0 0 1 2.067.527l-1.084 4.25a1.067 1.067 0 0 1-1.033.803zM57.6 41.067c-.477 0-.91-.324-1.034-.808L55.5 36.012a1.066 1.066 0 1 1 2.07-.519l1.066 4.248a1.066 1.066 0 0 1-1.036 1.326z"/>
            <path d="M51.2 45.348c-.59 0-1.067-.477-1.067-1.066v-4.28a1.066 1.066 0 1 1 2.134 0v4.28c0 .588-.477 1.066-1.067 1.066z"/>
            <path d="M57.6 45.348h-6.4a1.066 1.066 0 1 1 0-2.133h6.4a1.066 1.066 0 1 1 0 2.133z"/>
            <path d="M57.6 45.348c-.59 0-1.067-.477-1.067-1.066V40a1.066 1.066 0 1 1 2.134 0v4.282c0 .588-.477 1.066-1.067 1.066zM49.067 59.198h-3.2a1.066 1.066 0 1 1 0-2.133h3.2a1.066 1.066 0 1 1 0 2.133zM52.267 55.998h-6.4a1.066 1.066 0 1 1 0-2.133h6.4a1.066 1.066 0 1 1 0 2.133z"/>
        </g>
    </g>
</svg>
