<svg xmlns="http://www.w3.org/2000/svg" xmlns:xlink="http://www.w3.org/1999/xlink" width="64" height="64" viewBox="0 0 64 64">
    <defs>
        <path id="a" d="M14 62C7.373 62 2 56.627 2 50s5.373-12 12-12c.41 0 .825.03 1.241.07a18.609 18.609 0 0 0 10.691 10.692c.039.413.068.829.068 1.238 0 6.627-5.373 12-12 12z"/>
    </defs>
    <g fill="none" fill-rule="evenodd">
        <path fill="#FFF" d="M50 2c6.627 0 12 5.373 12 12s-5.373 12-12 12c-.41 0-.825-.03-1.241-.07a18.609 18.609 0 0 0-10.691-10.692C38.029 14.825 38 14.41 38 14c0-6.627 5.373-12 12-12zM14 26C7.373 26 2 20.627 2 14S7.373 2 14 2s12 5.373 12 12c0 .41-.03.825-.07 1.241a18.609 18.609 0 0 0-10.692 10.691c-.413.039-.829.068-1.238.068z"/>
        <g>
            <use fill="#D8D8D8" xlink:href="#a"/>
            <use fill="#D8D8D8" xlink:href="#a"/>
            <use fill="#FFF" xlink:href="#a"/>
        </g>
        <path fill="#FFF" fill-rule="nonzero" d="M54.4 54.4h-.028a5.278 5.278 0 0 0 1.095-3.2v-1.263a3.2 3.2 0 0 0 2.133-3.004V44.8c0-.59-.478-1.067-1.067-1.067H48a3.2 3.2 0 0 0-3.2 3.2V51.2a5.278 5.278 0 0 0 1.094 3.2h-.027a5.35 5.35 0 0 0-4.836 3.118 11.753 11.753 0 0 1-2.631-7.385c0-.4.029-.806.07-1.214a18.195 18.195 0 0 0 10.453-10.453c.404-.037.81-.066 1.21-.066a11.718 11.718 0 0 1 9.102 19.118A5.35 5.35 0 0 0 54.4 54.4z"/>
        <g fill="#B3D9FF" fill-rule="nonzero" transform="translate(7.467 6.4)">
            <path d="M5.44 13.13a2.107 2.107 0 0 1-.107-.671V8.672l5.334 1.995V0L2.133 3.2V16c0 .59.478 1.067 1.067 1.067h1.845a1.067 1.067 0 0 0 1.035-1.323l-.64-2.613zM46.933 49.067H38.4a4.267 4.267 0 0 0-4.267 4.213 12.818 12.818 0 0 0 17.067 0 4.267 4.267 0 0 0-4.267-4.213zM38.656 39.52c-.167.312-.255.66-.256 1.013v2.134h8.533a2.14 2.14 0 0 0 2.134-2.134V38.4h-8.534a2.146 2.146 0 0 0-1.877 1.12zM36.928 37.333c5.846-6.213 6.21-15.788.853-22.427-5.357-6.64-14.792-8.308-22.101-3.909a17.387 17.387 0 0 0-3.541 2.87c-6.379 6.653-6.323 17.168.126 23.753 6.45 6.584 16.962 6.859 23.746.62.32-.299.629-.597.917-.907z"/>
            <circle cx="10.667" cy="48" r="2.133"/>
            <circle cx="2.133" cy="39.467" r="2.133"/>
        </g>
        <path fill="#0080FF" fill-rule="nonzero" d="M50.133 19.2A2.133 2.133 0 0 1 48 17.067h-2.133a4.267 4.267 0 0 0 3.2 4.115V22.4H51.2v-1.218a4.258 4.258 0 0 0-1.067-8.382 2.133 2.133 0 1 1 2.134-2.133H54.4a4.267 4.267 0 0 0-3.2-4.116V5.333h-2.133v1.218a4.258 4.258 0 0 0 1.066 8.382 2.133 2.133 0 0 1 0 4.267z"/>
        <path fill="#0080FF" fill-rule="nonzero" d="M49.6 36.287c.711-2.814.711-5.76 0-8.574.178.006.357.02.533.02C57.792 27.733 64 21.525 64 13.867 64 6.208 57.792 0 50.133 0c-7.658 0-13.866 6.208-13.866 13.867 0 .176.014.355.02.533a17.493 17.493 0 0 0-8.574 0c.006-.178.02-.357.02-.533C27.733 6.208 21.525 0 13.867 0 6.208 0 0 6.208 0 13.867c0 7.658 6.208 13.866 13.867 13.866.176 0 .355-.014.533-.02a17.493 17.493 0 0 0 0 8.574c-.178-.006-.357-.02-.533-.02C6.208 36.267 0 42.475 0 50.133 0 57.792 6.208 64 13.867 64c7.658 0 13.866-6.208 13.866-13.867 0-.176-.014-.355-.02-.533 2.814.711 5.76.711 8.574 0-.006.178-.02.357-.02.533C36.267 57.792 42.475 64 50.133 64 57.792 64 64 57.792 64 50.133c0-7.658-6.208-13.866-13.867-13.866-.176 0-.355.014-.533.02zm-28.448 7.44a15.91 15.91 0 0 1 2.704-2.027 17.67 17.67 0 0 0 2.706 5.334 15.988 15.988 0 0 1-5.41-3.307zm21.696-23.454a15.95 15.95 0 0 1-2.704 2.027 17.67 17.67 0 0 0-2.706-5.334 15.988 15.988 0 0 1 5.41 3.307zm-1.276 10.66a32.387 32.387 0 0 0-.826-6.501 18.051 18.051 0 0 0 3.578-2.624 15.922 15.922 0 0 1 3.622 9.125h-6.374zm-17.013 0c.057-1.874.285-3.74.682-5.573a18.133 18.133 0 0 0 13.518 0c.397 1.833.625 3.699.682 5.573H24.56zm14.882 2.134a30.697 30.697 0 0 1-.683 5.573 18.133 18.133 0 0 0-13.516 0 30.697 30.697 0 0 1-.683-5.573H39.44zm-1.223-9.78a16.125 16.125 0 0 1-12.436 0C27.134 18.936 29.44 16 32 16s4.866 2.937 6.218 7.286zM26.56 16.971a17.67 17.67 0 0 0-2.706 5.333 15.91 15.91 0 0 1-2.704-2.027 15.988 15.988 0 0 1 5.41-3.306zm-6.886 4.836a18.051 18.051 0 0 0 3.578 2.624 32.387 32.387 0 0 0-.824 6.501h-6.374a15.922 15.922 0 0 1 3.622-9.125h-.002zm2.754 11.259c.054 2.19.33 4.371.825 6.506a18.051 18.051 0 0 0-3.578 2.624 15.922 15.922 0 0 1-3.62-9.13h6.373zm3.354 7.647a16.125 16.125 0 0 1 12.436 0C36.866 45.064 34.56 48 32 48s-4.866-2.937-6.218-7.286zm11.658 6.314a17.67 17.67 0 0 0 2.706-5.333 15.95 15.95 0 0 1 2.704 2.027 15.988 15.988 0 0 1-5.41 3.306zm6.886-4.836a18.051 18.051 0 0 0-3.58-2.619c.495-2.135.772-4.315.826-6.506h6.374a15.922 15.922 0 0 1-3.622 9.125h.002zm5.807-40.059c6.48 0 11.734 5.254 11.734 11.734S56.613 25.6 50.133 25.6c-.4 0-.806-.029-1.214-.07a18.195 18.195 0 0 0-10.453-10.453c-.037-.404-.066-.81-.066-1.21 0-6.48 5.253-11.734 11.733-11.734zM13.867 25.6c-6.48 0-11.734-5.253-11.734-11.733S7.387 2.133 13.867 2.133 25.6 7.387 25.6 13.867c0 .4-.029.806-.07 1.214a18.195 18.195 0 0 0-10.453 10.453c-.404.037-.81.066-1.21.066zm0 36.267c-6.48 0-11.734-5.254-11.734-11.734S7.387 38.4 13.867 38.4c.4 0 .806.029 1.214.07a18.195 18.195 0 0 0 10.453 10.453c.037.404.066.81.066 1.21 0 6.48-5.253 11.734-11.733 11.734zM42.72 59.22a3.209 3.209 0 0 1 3.146-2.687H54.4a3.209 3.209 0 0 1 3.146 2.687 11.703 11.703 0 0 1-14.827 0h.002zm4.212-8.02v-1.067h6.4V51.2a3.2 3.2 0 0 1-6.4 0zM54.4 48h-7.467v-1.067c0-.589.478-1.066 1.067-1.066h7.467v1.066c0 .59-.478 1.067-1.067 1.067zm0 6.4h-.028a5.278 5.278 0 0 0 1.095-3.2v-1.263a3.2 3.2 0 0 0 2.133-3.004V44.8c0-.59-.478-1.067-1.067-1.067H48a3.2 3.2 0 0 0-3.2 3.2V51.2a5.278 5.278 0 0 0 1.094 3.2h-.027a5.35 5.35 0 0 0-4.836 3.118 11.753 11.753 0 0 1-2.631-7.385c0-.4.029-.806.07-1.214a18.195 18.195 0 0 0 10.453-10.453c.404-.037.81-.066 1.21-.066a11.718 11.718 0 0 1 9.102 19.118A5.35 5.35 0 0 0 54.4 54.4z"/>
        <path fill="#0080FF" fill-rule="nonzero" d="M12.8 45.867a3.2 3.2 0 1 0-6.4 0 3.2 3.2 0 0 0 6.4 0zm-4.267 0a1.067 1.067 0 1 1 2.134 0 1.067 1.067 0 0 1-2.134 0zM14.933 54.4a3.2 3.2 0 1 0 6.4 0 3.2 3.2 0 0 0-6.4 0zm4.267 0a1.067 1.067 0 1 1-2.133 0 1.067 1.067 0 0 1 2.133 0zM8.839 53.641l8.532-8.532 1.508 1.508-8.532 8.532zM22.4 13.867V9.6a4.267 4.267 0 0 0-4.267-4.267c-.128 0-.255.023-.375.068L9.406 8.533h-1.94a3.2 3.2 0 1 0 0 6.4h1.067V22.4c0 1.178.955 2.133 2.134 2.133h1.843a2.133 2.133 0 0 0 2.072-2.638l-.66-2.706a1.04 1.04 0 0 1-.055-.335v-2.248l3.89 1.46c.121.045.248.067.376.067a4.267 4.267 0 0 0 4.267-4.266zm-11.733-3.528l6.4-2.4v7.588l-6.4-2.4V10.34zM6.4 11.733c0-.589.478-1.066 1.067-1.066h1.066V12.8H7.467c-.59 0-1.067-.478-1.067-1.067zm5.473 8.047l.64 2.62h-1.846v-6.994l1.066.4v3.048c-.003.314.045.627.14.926zm8.394-5.913a2.133 2.133 0 0 1-1.067 1.838V7.762A2.133 2.133 0 0 1 20.267 9.6v4.267z"/>
    </g>
</svg>
