<svg xmlns="http://www.w3.org/2000/svg" xmlns:xlink="http://www.w3.org/1999/xlink" width="64" height="64" viewBox="0 0 64 64">
    <defs>
        <path id="a" d="M50.37 51.334a7.406 7.406 0 0 1-4.57 2.426L17.336 57.6h-6.67V47.529l7.303-4.504a3.28 3.28 0 0 1 1.294-.546l17.588-3.21c.92-.16 1.838.3 2.263 1.131a2.108 2.108 0 0 1 .245.976 2.15 2.15 0 0 1-1.813 2.105l-11.104 2.41A1.067 1.067 0 0 0 26.667 48h18.336a3.17 3.17 0 0 0 2.222-.895l9.813-9.439a3.223 3.223 0 0 1 3.976-.625l.28.161c.277.158.465.433.512.747.052.321-.043.65-.26.893L50.37 51.334z"/>
    </defs>
    <g fill="none" fill-rule="nonzero">
        <path fill="#B3D9FF" d="M56.533 13.504l1.504-4.533 4.534-1.504-4.534-1.504-1.504-4.534-1.504 4.534-4.533 1.504 4.533 1.504zM36.661 38.219a3.185 3.185 0 0 1 3.392 1.674 3.223 3.223 0 0 1 .374 1.483 3.206 3.206 0 0 1-2.656 3.147l-11.104 2.41h18.336c.294 0 .584-.062.853-.181l-1.995-31.947a2.133 2.133 0 0 0-2.133-2.005H22.251a2.14 2.14 0 0 0-2.134 1.973l-1.845 26.891c.258-.105.526-.184.8-.235l17.59-3.21zM32 17.067h.053A8.533 8.533 0 1 1 32 34.133h-.053A8.533 8.533 0 1 1 32 17.067zM7.467 19.904l1.504-4.533 4.533-1.504-4.533-1.504-1.504-4.534-1.504 4.534-4.534 1.504 4.534 1.504zM9.6 62.933V41.6H1.067v21.333h4.266z"/>
        <path fill="#0080FF" d="M63.911 37.604a3.168 3.168 0 0 0-1.554-2.25l-.277-.16a5.346 5.346 0 0 0-6.574.986l-8.718 8.384-1.862-29.83a3.217 3.217 0 0 0-3.2-3h-2.26V7.466a7.467 7.467 0 0 0-14.933 0v4.266h-2.282a3.223 3.223 0 0 0-3.2 2.968l-1.803 26.295a4.99 4.99 0 0 0-.453.25l-6.128 3.777V41.6c0-.59-.478-1.067-1.067-1.067H1.067C.477 40.533 0 41.011 0 41.6v21.333C0 63.523.478 64 1.067 64H9.6c.59 0 1.067-.478 1.067-1.067v-3.2h6.741c.048 0 .096-.003.143-.01l28.529-3.85a9.533 9.533 0 0 0 5.882-3.119l11.169-12.49c.649-.723.936-1.7.78-2.66zM26.667 7.467a5.333 5.333 0 1 1 10.666 0v4.266H26.667V7.467zm-5.486 7.388a1.077 1.077 0 0 1 1.066-.988h19.481a1.067 1.067 0 0 1 1.067 1.004l1.937 30.996h-8.127l1.353-.294a4.267 4.267 0 0 0 3.535-4.197 4.299 4.299 0 0 0-5.024-4.207l-17.032 3.11 1.744-25.424zM2.133 42.667h2.134v19.2H2.133v-19.2zm6.4 19.2H6.4v-19.2h2.133v19.2z"/>
        <g>
            <use fill="#0080FF" xlink:href="#a"/>
            <use fill="#FFF" xlink:href="#a"/>
        </g>
        <path fill="#0080FF" d="M50.161 8.479l4.026 1.34 1.34 4.019a1.067 1.067 0 0 0 2.027 0l1.34-4.02 4.021-1.34a1.067 1.067 0 0 0 0-2.026l-4.03-1.332-1.34-4.025a1.067 1.067 0 0 0-2.027 0L54.187 5.12 50.16 6.454a1.067 1.067 0 0 0 0 2.027V8.48zM55.36 6.97c.318-.107.568-.357.674-.676l.5-1.489.496 1.494c.106.318.356.569.675.675l1.493.496-1.493.496a1.067 1.067 0 0 0-.675.675l-.497 1.485-.497-1.493a1.067 1.067 0 0 0-.674-.676l-1.489-.491 1.487-.496zM1.094 14.879l4.026 1.334 1.34 4.02a1.067 1.067 0 0 0 2.027 0l1.332-4.02 4.02-1.34a1.067 1.067 0 0 0 0-2.026l-4.02-1.327-1.341-4.025a1.067 1.067 0 0 0-2.027 0L5.12 11.52l-4.026 1.334a1.067 1.067 0 0 0 0 2.027v-.002zm5.2-1.508c.318-.107.568-.357.673-.676l.5-1.489.497 1.494c.106.318.355.569.674.675l1.493.496-1.493.496a1.067 1.067 0 0 0-.674.675l-.497 1.485-.497-1.493a1.067 1.067 0 0 0-.675-.676l-1.489-.491 1.487-.496zM32 35.2a9.6 9.6 0 1 0-9.6-9.6 9.61 9.61 0 0 0 9.6 9.6z"/>
        <path fill="#FFF" d="M32 18.133a7.467 7.467 0 1 1-7.467 7.467A7.475 7.475 0 0 1 32 18.133z"/>
        <path fill="#0080FF" d="M32 28.8c-.59 0-1.067-.478-1.067-1.067H28.8a3.2 3.2 0 0 0 2.133 3.004V32h2.134v-1.263A3.193 3.193 0 0 0 32 24.533a1.067 1.067 0 1 1 1.067-1.066H35.2a3.2 3.2 0 0 0-2.133-3.004V19.2h-2.134v1.263A3.193 3.193 0 0 0 32 26.667a1.067 1.067 0 1 1 0 2.133z"/>
    </g>
</svg>
