<svg xmlns="http://www.w3.org/2000/svg" width="70" height="65" viewBox="0 0 70 65">
    <g fill="none" fill-rule="nonzero">
        <path fill="#94C1FF" d="M31.657 22.911l-1.091 5.458H15.283l3.275-5.458z"/>
        <path fill="#D7E9FF" d="M38.207 22.911L39.3 28.37h-8.733l1.091-5.458z"/>
        <path fill="#94C1FF" d="M51.307 22.911l3.274 5.458H39.3l-1.092-5.458z"/>
        <path fill="#FFF" d="M39.299 28.37v6.549l-4.367-1.092-4.366 1.092v-6.55z"/>
        <path fill="#D7E9FF" d="M54.581 28.37v27.792c-5.316 4.454-12.172 7.15-19.649 7.15a30.45 30.45 0 0 1-19.649-7.15V28.369h15.283v6.55l4.366-1.092L39.3 34.92v-6.55H54.58z"/>
        <path fill="#0080FF" d="M34.932 64.406c-14.452 0-27.059-9.762-30.66-23.74a1.093 1.093 0 0 1 .787-1.33 1.098 1.098 0 0 1 1.33.787c3.35 13.012 15.088 22.1 28.543 22.1 16.252 0 29.474-13.222 29.474-29.474a1.09 1.09 0 1 1 2.183 0c0 17.455-14.202 31.657-31.657 31.657zM4.367 32.75a1.09 1.09 0 0 1-1.092-1.093C3.275 14.202 17.477.001 34.932.001c14.452 0 27.059 9.76 30.66 23.738a1.093 1.093 0 0 1-.787 1.33 1.095 1.095 0 0 1-1.33-.786c-3.35-13.012-15.088-22.1-28.543-22.1C18.68 2.184 5.46 15.406 5.46 31.658c0 .604-.489 1.092-1.092 1.092z"/>
        <path fill="#0080FF" d="M4.367 32.75c-.28 0-.56-.108-.772-.321L.32 29.154a1.09 1.09 0 0 1 0-1.543 1.09 1.09 0 0 1 1.543 0l3.275 3.275a1.09 1.09 0 0 1-.771 1.863z"/>
        <path fill="#0080FF" d="M4.367 32.75c-.28 0-.56-.108-.772-.321a1.09 1.09 0 0 1 0-1.543L6.87 27.61a1.09 1.09 0 0 1 1.543 0 1.09 1.09 0 0 1 0 1.543l-3.275 3.275c-.212.213-.492.32-.771.32zM68.772 36.024c-.28 0-.559-.107-.771-.32l-3.275-3.275a1.09 1.09 0 0 1 0-1.543 1.09 1.09 0 0 1 1.543 0l3.275 3.274a1.09 1.09 0 0 1-.772 1.864z"/>
        <path fill="#0080FF" d="M62.223 36.024a1.09 1.09 0 0 1-.772-1.863l3.275-3.275a1.09 1.09 0 0 1 1.543 0 1.09 1.09 0 0 1 0 1.543l-3.275 3.275c-.213.213-.492.32-.771.32zM15.28 57.25a1.091 1.091 0 0 1-1.091-1.091V28.37a1.09 1.09 0 1 1 2.183 0V56.16a1.09 1.09 0 0 1-1.091 1.091zM54.584 57.252a1.09 1.09 0 0 1-1.092-1.091V28.37a1.09 1.09 0 1 1 2.183 0v27.79a1.09 1.09 0 0 1-1.091 1.091z"/>
        <path fill="#0080FF" d="M54.584 29.463H15.28a1.09 1.09 0 1 1 0-2.183h39.303a1.09 1.09 0 1 1 0 2.183z"/>
        <path fill="#116FFF" d="M15.28 29.463a1.091 1.091 0 0 1-.935-1.654l3.274-5.46a1.092 1.092 0 0 1 1.872 1.123l-3.275 5.46c-.204.342-.565.531-.937.531z"/>
        <path fill="#0080FF" d="M54.585 29.463a1.09 1.09 0 0 1-.937-.53l-3.275-5.46a1.091 1.091 0 1 1 1.872-1.123l3.275 5.46a1.091 1.091 0 0 1-.935 1.653z"/>
        <path fill="#0080FF" d="M51.309 24.003H18.555a1.091 1.091 0 1 1 0-2.183H51.31a1.09 1.09 0 1 1 0 2.183z"/>
        <path fill="#0080FF" d="M30.564 29.463a1.091 1.091 0 0 1-1.07-1.306l1.091-5.461c.117-.59.687-.98 1.285-.856.59.118.975.693.856 1.285l-1.091 5.46c-.104.52-.56.878-1.07.878zM39.297 29.463a1.09 1.09 0 0 1-1.069-.878l-1.091-5.46a1.092 1.092 0 0 1 2.141-.43l1.092 5.462a1.092 1.092 0 0 1-1.073 1.306z"/>
        <path fill="#0080FF" d="M30.563 36.013a1.09 1.09 0 0 1-1.091-1.092v-6.55a1.09 1.09 0 1 1 2.183 0v6.55a1.09 1.09 0 0 1-1.092 1.092zM39.299 36.013a1.09 1.09 0 0 1-1.092-1.092v-6.55a1.09 1.09 0 1 1 2.183 0v6.55a1.09 1.09 0 0 1-1.091 1.092z"/>
        <path fill="#0080FF" d="M39.3 36.013a1.11 1.11 0 0 1-.266-.033l-4.366-1.091a1.092 1.092 0 0 1 .528-2.119l4.367 1.092a1.092 1.092 0 0 1-.263 2.15z"/>
        <path fill="#0080FF" d="M30.562 36.013a1.092 1.092 0 0 1-.263-2.151l4.369-1.092a1.089 1.089 0 0 1 1.323.795 1.09 1.09 0 0 1-.795 1.324l-4.368 1.091a1.11 1.11 0 0 1-.266.033zM44.761 49.114H25.103a1.09 1.09 0 1 1 0-2.183H44.76a1.091 1.091 0 1 1 0 2.183zM44.761 44.757H25.103a1.091 1.091 0 1 1 0-2.183H44.76a1.09 1.09 0 1 1 0 2.183zM39.3 53.483h-8.737a1.09 1.09 0 1 1 0-2.183h8.738a1.091 1.091 0 1 1 0 2.183z"/>
        <g>
            <path fill="#0080FF" d="M68.968 8.724c-.015-.81-.03-1.575-.03-2.315 0-.58-.466-1.05-1.041-1.05-4.454 0-7.845-1.29-10.672-4.062a1.035 1.035 0 0 0-1.452 0c-2.826 2.771-6.216 4.062-10.67 4.062-.575 0-1.041.47-1.041 1.05 0 .74-.014 1.506-.03 2.316-.143 7.538-.338 17.86 12.126 22.217a1.033 1.033 0 0 0 .682 0c12.466-4.357 12.27-14.68 12.128-22.218z"/>
            <path fill="#FFF" d="M56.5 29C45.726 24.985 45.89 16.19 46.033 8.422c.009-.467.017-.919.023-1.362C50.26 6.878 53.622 5.572 56.499 3c2.878 2.572 6.24 3.879 10.444 4.06.006.443.014.895.023 1.36.145 7.77.307 16.565-10.467 20.58z"/>
            <path fill="#0080FF" d="M60.343 12.311l-4.686 5.125-2-2.187a.913.913 0 0 0-1.373 0 1.134 1.134 0 0 0 0 1.502l2.686 2.938c.19.207.438.311.687.311a.927.927 0 0 0 .686-.31l5.373-5.877c.379-.415.379-1.087 0-1.502a.913.913 0 0 0-1.373 0z"/>
        </g>
    </g>
</svg>
