<svg xmlns="http://www.w3.org/2000/svg" width="64" height="64" viewBox="0 0 64 64">
    <g fill="none" fill-rule="evenodd">
        <path fill="#B3D9FF" fill-rule="nonzero" d="M58.667 7.467H51.2v36.266h11.733v-32a4.267 4.267 0 0 0-4.266-4.266zM42.667 16h4.266v23.467h-4.266zM34.133 20.267H38.4v19.2h-4.267zM36.267 50.133h-8.534L25.6 58.667h12.8zM25.6 24.533h4.267v14.934H25.6zM17.067 26.667h4.266v12.8h-4.266zM12.8 7.467H5.333a4.267 4.267 0 0 0-4.266 4.266v32H12.8V7.467z"/>
        <path fill="#FFF" d="M51.133 1.267v42h-38v-42zM38.857 62H25.143C24.512 62 24 61.328 24 60.5s.512-1.5 1.143-1.5h13.714c.631 0 1.143.672 1.143 1.5s-.512 1.5-1.143 1.5zM58.786 49H5.214C3.44 49 2 47.32 2 45.25V44h60v1.25c0 2.07-1.44 3.75-3.214 3.75z"/>
        <g fill="#0080FF" fill-rule="nonzero">
            <path d="M58.667 6.4h-6.4V1.067C52.267.477 51.789 0 51.2 0H12.8c-.59 0-1.067.478-1.067 1.067V6.4h-6.4A5.34 5.34 0 0 0 0 11.733v34.134A5.34 5.34 0 0 0 5.333 51.2h21.035l-1.634 6.534A3.191 3.191 0 0 0 25.6 64h12.8a3.192 3.192 0 0 0 .866-6.266L37.632 51.2h21.035A5.34 5.34 0 0 0 64 45.867V11.733A5.34 5.34 0 0 0 58.667 6.4zm0 2.133a3.2 3.2 0 0 1 3.2 3.2v30.934h-9.6V8.533h6.4zm-8.534-6.4v40.534H13.867V2.133h36.266zm-44.8 6.4h6.4v34.134h-9.6V11.733a3.2 3.2 0 0 1 3.2-3.2zM38.4 61.867H25.6a1.067 1.067 0 0 1 0-2.134h12.8a1.067 1.067 0 0 1 0 2.134zM37.035 57.6h-10.07l1.6-6.4h6.87l1.6 6.4zm21.632-8.533H5.333a3.2 3.2 0 0 1-3.2-3.2V44.8h59.734v1.067a3.2 3.2 0 0 1-3.2 3.2z"/>
            <path d="M29.867 45.867h4.266V48h-4.266zM22.211 19.797l-5.57 1.577.58 2.052 5.567-1.577a39.58 39.58 0 0 0 16.998-9.902l1.814-1.863v1.65h2.133V7.466h-.009a1.043 1.043 0 0 0-.074-.414 1.067 1.067 0 0 0-.983-.653H38.4v2.133h1.733l-1.86 1.905a37.434 37.434 0 0 1-16.062 9.36zM17.067 40.533h4.266c.59 0 1.067-.477 1.067-1.066v-12.8c0-.59-.478-1.067-1.067-1.067h-4.266c-.59 0-1.067.478-1.067 1.067v12.8c0 .589.478 1.066 1.067 1.066zm1.066-12.8h2.134V38.4h-2.134V27.733zM29.867 23.467H25.6c-.59 0-1.067.477-1.067 1.066v14.934c0 .589.478 1.066 1.067 1.066h4.267c.589 0 1.066-.477 1.066-1.066V24.533c0-.589-.477-1.066-1.066-1.066zM28.8 38.4h-2.133V25.6H28.8v12.8zM38.4 19.2h-4.267c-.589 0-1.066.478-1.066 1.067v19.2c0 .589.477 1.066 1.066 1.066H38.4c.59 0 1.067-.477 1.067-1.066v-19.2c0-.59-.478-1.067-1.067-1.067zm-1.067 19.2H35.2V21.333h2.133V38.4zM41.6 16v23.467c0 .589.478 1.066 1.067 1.066h4.266c.59 0 1.067-.477 1.067-1.066V16c0-.59-.478-1.067-1.067-1.067h-4.266c-.59 0-1.067.478-1.067 1.067zm2.133 1.067h2.134V38.4h-2.134V17.067zM16 4.267h12.8V6.4H16zM16 8.533h4.267v2.134H16zM22.4 8.533h6.4v2.134h-6.4z"/>
        </g>
    </g>
</svg>
