<svg xmlns="http://www.w3.org/2000/svg" width="76" height="64" viewBox="0 0 76 64">
    <g fill="none" fill-rule="nonzero">
        <path fill="#B3D9FF" d="M53.333 48.574l3.556-1.185 3.555 1.185 2.37-2.37h4.742a7.101 7.101 0 0 1 7.11 7.11v7.112a2.37 2.37 0 0 1-2.37 2.37H43.852a2.37 2.37 0 0 0 2.37-2.37V56.87h-7.11v-3.555a7.101 7.101 0 0 1 7.11-7.111h4.741l2.37 2.37z"/>
        <path fill="#FFF" d="M56.889 47.389l-3.556 1.185-2.37-2.37V42.41a12.922 12.922 0 0 0 5.926 1.422c2.133 0 4.148-.51 5.926-1.422v3.793l-2.37 2.37-3.556-1.185z"/>
        <path fill="#FFF" d="M69.926 26.056v4.74c0 5.061-2.892 9.458-7.111 11.615a12.922 12.922 0 0 1-5.926 1.422c-2.133 0-4.148-.51-5.926-1.422-4.22-2.156-7.111-6.554-7.111-11.615v-4.74l3.555-3.556s4.397 2.37 9.482 2.37c5.084 0 9.481-2.37 9.481-2.37l3.556 3.556z"/>
        <path fill="#B3D9FF" d="M47.407 22.5l-3.555 3.556V20.13A10.66 10.66 0 0 1 54.519 9.463H64v4.74a5.92 5.92 0 0 1 5.926 5.927v5.926L66.37 22.5s-4.397 2.37-9.481 2.37c-5.085 0-9.482-2.37-9.482-2.37z"/>
        <path fill="#FFF" d="M27.26 16.574c0-5.89-4.777-10.667-10.667-10.667-5.891 0-10.667 4.776-10.667 10.667 0 5.89 4.776 10.667 10.667 10.667 5.89 0 10.666-4.777 10.666-10.667zm2.962-1.79l1.802 1.79-1.802 1.802 1.268 2.193-2.193 1.268.664 2.442-2.453.664v2.534h-2.536l-.653 2.442-2.452-.652-1.269 2.193-2.192-1.267-1.79 1.788-1.801-1.79-2.193 1.268-1.268-2.193-2.441.653-.664-2.453-2.524.011v-2.535l-2.454-.664.652-2.442-2.193-1.268 1.268-2.194-1.79-1.8L3 14.784 1.73 12.591l2.193-1.266-.652-2.455 2.454-.652-.013-2.536H8.25l.664-2.441 2.441.651L12.622 1.7l2.193 1.268 1.801-1.801 1.79 1.801L20.6 1.701l1.268 2.193 2.452-.664.652 2.452h2.536V8.22l2.453.653-.664 2.453 2.193 1.266-1.268 2.193z"/>
        <path fill="#B3D9FF" d="M26.074 16.572a9.482 9.482 0 1 1-18.963 0 9.482 9.482 0 0 1 18.963 0zM46.222 60.426a2.37 2.37 0 0 1-2.37 2.37H29.63a2.37 2.37 0 0 0 2.37-2.37V56.87h14.222v3.556z"/>
        <path fill="#FFF" d="M16.593 47.389a2.37 2.37 0 1 1-2.37 2.37 2.37 2.37 0 0 1 2.37-2.37z"/>
        <path fill="#FFF" d="M32 56.87v3.556a2.37 2.37 0 0 1-2.37 2.37H3.556a2.37 2.37 0 0 1-2.37-2.37V39.093a2.362 2.362 0 0 1 2.37-2.37H29.63a2.362 2.362 0 0 1 2.37 2.37V56.87zm-13.037-7.11a2.37 2.37 0 0 0-2.37-2.371 2.37 2.37 0 1 0 2.37 2.37z"/>
        <g fill="#0080FF">
            <path d="M39.111 54.494c-.656 0-1.185-.53-1.185-1.185 0-4.574 3.723-8.295 8.296-8.295a1.184 1.184 0 1 1 0 2.37 5.932 5.932 0 0 0-5.926 5.925c0 .655-.53 1.185-1.185 1.185z"/>
            <path d="M50.963 47.385h-4.74a1.185 1.185 0 1 1 0-2.371l4.74.001a1.185 1.185 0 1 1 0 2.37zM39.111 58.052c-.656 0-1.185-.53-1.185-1.185v-3.218a1.184 1.184 0 1 1 2.37 0v3.218c0 .655-.53 1.185-1.185 1.185zM74.667 54.494c-.656 0-1.186-.53-1.186-1.185a5.932 5.932 0 0 0-5.925-5.925 1.184 1.184 0 1 1 0-2.37c4.573 0 8.296 3.721 8.296 8.295 0 .655-.53 1.185-1.185 1.185z"/>
            <path d="M62.815 47.385a1.185 1.185 0 0 1 0-2.37l4.74-.001a1.185 1.185 0 1 1 0 2.37l-4.74.001zM74.667 61.606c-.656 0-1.186-.53-1.186-1.185V53.65a1.184 1.184 0 1 1 2.37 0v6.772c0 .655-.529 1.185-1.184 1.185zM72.296 63.977H43.852a1.184 1.184 0 1 1 0-2.37h28.444a1.184 1.184 0 1 1 0 2.37zM50.963 47.385c-.656 0-1.185-.53-1.185-1.185v-3.794c0-.655.53-1.185 1.185-1.185.656 0 1.185.53 1.185 1.185V46.2c0 .655-.53 1.185-1.185 1.185z"/>
            <path d="M62.815 47.384c-.656 0-1.185-.53-1.185-1.185v-3.793c0-.655.53-1.185 1.185-1.185S64 41.751 64 42.406V46.2c0 .655-.53 1.185-1.185 1.185z"/>
            <path d="M56.889 45.014c-7.843 0-14.222-6.38-14.222-14.222 0-.656.53-1.186 1.185-1.186.656 0 1.185.53 1.185 1.186 0 6.534 5.317 11.852 11.852 11.852S68.74 37.326 68.74 30.792c0-.656.53-1.186 1.185-1.186.656 0 1.185.53 1.185 1.186 0 7.842-6.38 14.222-14.222 14.222z"/>
            <path d="M43.852 31.978c-.656 0-1.185-.53-1.185-1.185V20.125c0-.656.53-1.185 1.185-1.185.656 0 1.185.53 1.185 1.185v10.668c0 .655-.53 1.185-1.185 1.185zM69.926 31.98c-.656 0-1.185-.53-1.185-1.186V20.125c0-.656.53-1.185 1.185-1.185.656 0 1.185.53 1.185 1.185v10.669c0 .655-.53 1.185-1.185 1.185z"/>
            <path d="M69.926 21.31c-.656 0-1.185-.53-1.185-1.185A4.745 4.745 0 0 0 64 15.385a1.184 1.184 0 1 1 0-2.371 7.118 7.118 0 0 1 7.111 7.111c0 .655-.53 1.185-1.185 1.185z"/>
            <path d="M64 15.384c-.656 0-1.185-.53-1.185-1.185V9.46c0-.656.53-1.186 1.185-1.186.656 0 1.185.53 1.185 1.185V14.2c0 .655-.53 1.185-1.185 1.185z"/>
            <path d="M64 10.644h-9.481a1.184 1.184 0 1 1 0-2.37H64a1.184 1.184 0 1 1 0 2.37z"/>
            <path d="M43.852 21.31c-.656 0-1.185-.53-1.185-1.185 0-6.535 5.316-11.85 11.852-11.85a1.184 1.184 0 1 1 0 2.37c-5.228 0-9.482 4.252-9.482 9.48 0 .655-.53 1.185-1.185 1.185zM69.926 27.236c-.303 0-.607-.116-.838-.348l-3.556-3.555a1.183 1.183 0 0 1 0-1.676 1.184 1.184 0 0 1 1.676 0l3.556 3.556a1.183 1.183 0 0 1-.838 2.023z"/>
            <path d="M56.889 26.05c-5.316 0-9.853-2.409-10.044-2.51a1.186 1.186 0 0 1 1.123-2.09c.041.023 4.22 2.23 8.92 2.23 4.726 0 8.88-2.205 8.92-2.23a1.186 1.186 0 0 1 1.123 2.088c-.19.103-4.727 2.513-10.042 2.513z"/>
            <path d="M43.852 27.236c-.303 0-.607-.116-.838-.348a1.183 1.183 0 0 1 0-1.675l3.555-3.556a1.184 1.184 0 0 1 1.676 0 1.183 1.183 0 0 1 0 1.676l-3.555 3.555c-.231.232-.535.348-.838.348zM53.333 49.755c-.303 0-.607-.117-.838-.348l-2.37-2.369a1.184 1.184 0 0 1 0-1.676 1.184 1.184 0 0 1 1.676 0l2.37 2.37a1.183 1.183 0 0 1-.838 2.023z"/>
            <path d="M53.333 49.755a1.185 1.185 0 0 1-.374-2.31l3.555-1.186a1.185 1.185 0 1 1 .75 2.248l-3.555 1.186a1.193 1.193 0 0 1-.376.062zM60.444 49.755c-.303 0-.607-.117-.838-.348a1.183 1.183 0 0 1 0-1.676l2.37-2.369a1.184 1.184 0 0 1 1.677 0 1.184 1.184 0 0 1 0 1.676l-2.37 2.369c-.231.231-.535.348-.839.348z"/>
            <path d="M60.444 49.755c-.123 0-.25-.02-.374-.062l-3.556-1.185a1.185 1.185 0 1 1 .75-2.249l3.556 1.185a1.185 1.185 0 0 1-.376 2.31zM72.296 63.977a1.184 1.184 0 1 1 0-2.37c.654 0 1.185-.532 1.185-1.186 0-.655.53-1.185 1.186-1.185.655 0 1.185.53 1.185 1.185a3.56 3.56 0 0 1-3.556 3.556zM1.185 40.273C.53 40.273 0 39.743 0 39.088a3.56 3.56 0 0 1 3.556-3.556c.655 0 1.185.53 1.185 1.186 0 .655-.53 1.185-1.185 1.185-.654 0-1.186.53-1.186 1.185s-.53 1.185-1.185 1.185zM3.556 63.977A3.56 3.56 0 0 1 0 60.42c0-.655.53-1.185 1.185-1.185.656 0 1.185.53 1.185 1.185 0 .654.532 1.185 1.186 1.185.655 0 1.185.53 1.185 1.186 0 .655-.53 1.185-1.185 1.185z"/>
            <path d="M1.185 61.606C.53 61.606 0 61.076 0 60.421V39.088c0-.656.53-1.185 1.185-1.185.656 0 1.185.53 1.185 1.185v21.333c0 .655-.53 1.185-1.185 1.185zM32 40.273c-.656 0-1.185-.53-1.185-1.185s-.531-1.185-1.185-1.185a1.184 1.184 0 1 1 0-2.37 3.56 3.56 0 0 1 3.555 3.555c0 .655-.53 1.185-1.185 1.185zM29.63 63.977a1.184 1.184 0 1 1 0-2.37c.654 0 1.185-.532 1.185-1.186 0-.655.53-1.185 1.185-1.185.656 0 1.185.53 1.185 1.185a3.56 3.56 0 0 1-3.555 3.556zM43.852 63.977a1.184 1.184 0 1 1 0-2.37c.654 0 1.185-.532 1.185-1.186 0-.655.53-1.185 1.185-1.185.656 0 1.185.53 1.185 1.185a3.56 3.56 0 0 1-3.555 3.556z"/>
            <path d="M32 61.606c-.656 0-1.185-.53-1.185-1.185V39.088c0-.656.53-1.185 1.185-1.185.656 0 1.185.53 1.185 1.185v21.333c0 .655-.53 1.185-1.185 1.185zM29.63 63.977H3.556a1.184 1.184 0 1 1 0-2.37H29.63a1.184 1.184 0 1 1 0 2.37zM29.63 37.903H3.556a1.184 1.184 0 1 1 0-2.37H29.63a1.184 1.184 0 1 1 0 2.37zM46.222 61.606c-.655 0-1.185-.53-1.185-1.185v-3.555c0-.656.53-1.185 1.185-1.185.656 0 1.185.53 1.185 1.185v3.555c0 .655-.53 1.185-1.185 1.185z"/>
            <path d="M46.222 58.05H32a1.184 1.184 0 1 1 0-2.37h14.222c.656 0 1.185.53 1.185 1.186 0 .655-.53 1.185-1.185 1.185zM43.852 63.977H29.63a1.184 1.184 0 1 1 0-2.37h14.222a1.184 1.184 0 1 1 0 2.37zM16.593 53.31a3.56 3.56 0 0 1-3.556-3.555 3.56 3.56 0 0 1 3.556-3.556 3.56 3.56 0 0 1 3.555 3.556 3.56 3.56 0 0 1-3.555 3.555zm0-4.74a1.186 1.186 0 1 0 0 2.37 1.186 1.186 0 0 0 0-2.37zM16.593 27.111c-5.8 0-10.519-4.719-10.519-10.518 0-5.8 4.719-10.519 10.519-10.519S27.11 10.793 27.11 16.593 22.393 27.11 16.593 27.11zm0-18.963c-4.657 0-8.445 3.788-8.445 8.445 0 4.655 3.788 8.444 8.445 8.444 4.656 0 8.444-3.789 8.444-8.444 0-4.657-3.788-8.445-8.444-8.445z"/>
            <path d="M15.427 21.32c-.304 0-.608-.116-.838-.347l-2.369-2.368a1.184 1.184 0 0 1 0-1.676 1.184 1.184 0 0 1 1.676 0l2.368 2.368a1.185 1.185 0 0 1-.837 2.024z"/>
            <path d="M15.427 21.32a1.184 1.184 0 0 1-.838-2.023l5.924-5.924a1.185 1.185 0 1 1 1.676 1.676l-5.925 5.924c-.232.231-.535.348-.837.348z"/>
            <path d="M16.612 33.171a1.18 1.18 0 0 1-.838-.347l-1.151-1.152-1.403.812a1.176 1.176 0 0 1-.9.12 1.178 1.178 0 0 1-.72-.552l-.811-1.41-1.57.422c-.306.08-.628.039-.9-.118a1.19 1.19 0 0 1-.552-.72l-.42-1.57H5.72a1.182 1.182 0 0 1-1.185-1.184v-1.628l-1.57-.42a1.19 1.19 0 0 1-.84-1.452l.422-1.57-1.408-.811a1.187 1.187 0 0 1-.435-1.62l.814-1.407-1.15-1.147a1.185 1.185 0 0 1 0-1.677l1.15-1.15-.813-1.406a1.182 1.182 0 0 1 .434-1.619l1.408-.813-.422-1.57a1.189 1.189 0 0 1 .84-1.452l1.569-.42-.002-1.624a1.183 1.183 0 0 1 1.186-1.187l1.625.002.42-1.572a1.189 1.189 0 0 1 1.453-.84l1.57.423.812-1.408a1.184 1.184 0 0 1 1.62-.434l1.407.814 1.149-1.15c.446-.445 1.231-.445 1.678 0l1.146 1.15 1.408-.816c.271-.16.596-.204.9-.12.304.08.564.28.72.552l.814 1.41 1.568-.423a1.187 1.187 0 0 1 1.453.838l.42 1.572 1.626-.001h.001a1.182 1.182 0 0 1 1.185 1.185v1.627l1.57.42a1.188 1.188 0 0 1 .84 1.452l-.422 1.571 1.408.812a1.187 1.187 0 0 1 .435 1.619l-.815 1.408 1.152 1.148a1.185 1.185 0 0 1 0 1.678l-1.152 1.15.815 1.408a1.187 1.187 0 0 1-.434 1.62l-1.408.812.421 1.57a1.189 1.189 0 0 1-.838 1.452l-1.57.421v1.625a1.182 1.182 0 0 1-1.185 1.185h-1.627l-.42 1.57c-.08.304-.278.564-.552.72a1.213 1.213 0 0 1-.9.119l-1.572-.421-.812 1.408a1.187 1.187 0 0 1-1.619.435l-1.408-.816-1.148 1.151c-.224.22-.527.346-.84.346zm-1.795-4.166c.307 0 .61.12.838.347l.957.957.952-.955c.381-.38.968-.456 1.432-.188l1.17.675.673-1.167c.27-.466.818-.694 1.333-.554l1.307.35.348-1.303c.138-.519.608-.88 1.145-.88h1.352l-.001-1.35c0-.535.36-1.005.878-1.144l1.304-.35-.35-1.305a1.187 1.187 0 0 1 .553-1.333l1.17-.674-.676-1.17a1.183 1.183 0 0 1 .188-1.43l.955-.955-.955-.953a1.186 1.186 0 0 1-.188-1.431l.675-1.17-1.168-.673a1.185 1.185 0 0 1-.554-1.333l.35-1.305-1.302-.349a1.184 1.184 0 0 1-.88-1.145v-1.35h-1.351c-.536 0-1.006-.36-1.145-.878l-.35-1.306-1.302.35a1.183 1.183 0 0 1-1.335-.552l-.675-1.17-1.17.676a1.185 1.185 0 0 1-1.433-.187l-.951-.954-.954.955c-.381.38-.968.458-1.432.187l-1.168-.674-.673 1.171c-.268.466-.81.697-1.334.554l-1.304-.351-.348 1.303c-.138.52-.609.88-1.146.88l-1.35-.001.002 1.35c0 .536-.36 1.007-.88 1.146l-1.304.348.351 1.304a1.185 1.185 0 0 1-.552 1.334l-1.17.675.676 1.167c.269.465.19 1.051-.189 1.43l-.953.956.953.952c.38.379.458.966.189 1.432l-.675 1.168 1.168.673c.466.268.692.815.553 1.333l-.35 1.305 1.303.349c.52.137.88.608.88 1.144v1.352l1.348-.002h.001c.536 0 1.007.361 1.146.879l.35 1.305 1.303-.351c.52-.141 1.065.088 1.335.552l.674 1.169 1.161-.672a1.16 1.16 0 0 1 .595-.163z"/>
        </g>
    </g>
</svg>
