<?xml version="1.0" encoding="utf-8"?>
<!-- Generator: Adobe Illustrator 21.0.2, SVG Export Plug-In . SVG Version: 6.00 Build 0)  -->
<svg version="1.1" id="Layer_1" xmlns="http://www.w3.org/2000/svg" xmlns:xlink="http://www.w3.org/1999/xlink" x="0px" y="0px"
	 viewBox="0 0 512 512" style="enable-background:new 0 0 512 512;" xml:space="preserve">
<style type="text/css">
	.st0{fill:#EBA5A5;}
	.st1{fill:#B62C2C;}
</style>
<g>
	<path class="st0" d="M424,160v68.6L376,208l-112,48v74c0,42.4,18.7,82.6,51.1,110H40c-8.8,0-16-7.2-16-16V160h160v64l40-32l40,32
		v-64H424z"/>
	<path class="st0" d="M264,96h160v64H264V96z"/>
	<path class="st0" d="M380.7,31.1L424,96H24l43.3-64.9c2.9-4.5,7.9-7.1,13.3-7.1h286.9C372.8,24,377.8,26.7,380.7,31.1z"/>
	<path class="st0" d="M24,96h160v64H24V96z"/>
</g>
<path class="st1" d="M491.2,248.6L432,223.3V96c0-1.6-0.5-3.1-1.3-4.4l-43.3-64.9C383,20,375.5,16,367.4,16H80.6
	c-8,0-15.5,4-19.9,10.7L17.3,91.6C16.5,92.9,16,94.4,16,96v328c0,13.3,10.7,24,24,24c0,0,0,0,0,0h272.2c0.6,0.5,1.2,1,1.8,1.5
	l57,44.8c2.9,2.3,7,2.3,9.9,0l57-44.8c36.8-28.7,58.2-72.8,58.1-119.5v-74C496,252.8,494.1,249.9,491.2,248.6L491.2,248.6z M176,152
	H32v-48h144V152z M192,104h64v103.4l-27-21.6c-2.9-2.3-7.1-2.3-10,0l-27,21.6V104z M272,104h144v48H272V104z M74,35.5
	c1.5-2.2,4-3.5,6.6-3.5h286.9c2.7,0,5.2,1.3,6.6,3.6L409,88H39L74,35.5z M32,424V168h144v56c0,4.4,3.6,8,8,8c1.8,0,3.6-0.6,5-1.8
	l35-28l35,28c3.4,2.8,8.5,2.2,11.2-1.2c1.1-1.4,1.8-3.2,1.8-5v-56h144v48.4l-36.8-15.8c-2-0.9-4.3-0.9-6.3,0l-112,48
	c-2.9,1.3-4.8,4.2-4.8,7.4v74c-0.1,37.7,13.9,74.1,39.3,102H40C35.6,432,32,428.4,32,424L32,424z M480,330
	c0.1,41.8-19.1,81.2-52,106.9l-52,40.9L324,437c-32.9-25.7-52.1-65.2-52-106.9v-68.7l104-44.6l104,44.6V330z"/>
<path class="st1" d="M372.8,235.5l-80,34.3c-2.9,1.3-4.8,4.2-4.8,7.4V330c-0.1,36.8,16.8,71.7,45.8,94.4l37.2,29.2
	c2.9,2.3,7,2.3,9.9,0l37.2-29.2c29-22.7,46-57.5,45.9-94.4v-52.9c0-3.2-1.9-6.1-4.8-7.4l-80-34.3
	C377.1,234.6,374.9,234.6,372.8,235.5L372.8,235.5z M448,282.4V330c0.1,31.9-14.6,62.1-39.8,81.8L376,437.1l-32.3-25.3
	c-25.2-19.7-39.8-49.8-39.7-81.8v-47.6l72-30.9L448,282.4z"/>
<path class="st1" d="M349.7,330.3l-11.3,11.3l24,24c3.1,3.1,8.2,3.1,11.3,0l48-48l-11.3-11.3L368,348.7L349.7,330.3z"/>
</svg>
