<?xml version="1.0" encoding="utf-8"?>
<!-- Generator: Adobe Illustrator 21.0.2, SVG Export Plug-In . SVG Version: 6.00 Build 0)  -->
<svg version="1.1" id="Layer_1" xmlns="http://www.w3.org/2000/svg" xmlns:xlink="http://www.w3.org/1999/xlink" x="0px" y="0px"
	 viewBox="0 0 512 512" style="enable-background:new 0 0 512 512;" xml:space="preserve">
<style type="text/css">
	.st0{fill:#EBA5A5;}
	.st1{fill:#B62C2C;}
</style>
<g>
	<path class="st0" d="M424,320h64v48h-64V320z"/>
	<path class="st0" d="M408,216c0,36.9-10.6,73-30.7,104H344l-8-8v-40l-32-32v-32l16-16v-48l-40-40h-40l-32-32V24.2
		c2.6-0.1,5.3-0.2,8-0.2C322,24,408,110,408,216z"/>
	<path class="st0" d="M344,320h-32v48h21.2H376v-46v-2H344z"/>
	<path class="st0" d="M424,368v32l-24-16l-24,16v-32h-42.8H312v14.2V488h176V368H424z"/>
	<path class="st0" d="M280,296v32l-16,16v32l-24,24v6.5c-8,1-16,1.5-24,1.5c-2.7,0-5.4-0.1-8-0.2V376l-16-16v-32h-32l-16-16v-24
		l24-24l8-8h64L280,296z"/>
	<path class="st0" d="M264,168v24l-16,16h-16v-32l-16-16v-16h48V168z"/>
	<path class="st0" d="M168,64v32l-32,32v32l-32,32H80v24l40,40v24l-24,24v24l-19.7,19.7C3.6,270.6,7.1,149.1,84.2,76.4
		C100.4,61.2,119,48.9,139.4,40h4.6L168,64z"/>
</g>
<path class="st1" d="M264,136h-48c-4.4,0-8,3.6-8,8v16c0,2.1,0.8,4.2,2.3,5.7l13.7,13.7V208c0,4.4,3.6,8,8,8h16
	c2.1,0,4.2-0.8,5.7-2.3l16-16c1.5-1.5,2.3-3.5,2.3-5.7v-48C272,139.6,268.4,136,264,136L264,136z M256,188.7L244.7,200H240v-24
	c0-2.1-0.8-4.2-2.3-5.7L224,156.7V152h32V188.7z"/>
<path class="st1" d="M488,312h-96.6c53.1-96.8,17.6-218.3-79.2-271.4C282.7,24.5,249.6,16,216,16c-2.8,0-5.5,0.1-8.3,0.2
	C97.3,20.8,11.6,114,16.2,224.4c2,48.1,21.3,93.8,54.3,128.8c35.7,38.1,85,60.6,137.3,62.7c2.7,0.1,5.4,0.2,8.2,0.2
	c8.4,0,16.7-0.5,25-1.6c21.9-2.7,43.2-9.1,63-18.9V488c0,4.4,3.6,8,8,8h176c4.4,0,8-3.6,8-8V320C496,315.6,492.4,312,488,312z
	 M480,360h-48v-32h48V360z M368,360h-48v-32h48V360z M384,328h32v57l-11.6-7.7c-2.7-1.8-6.2-1.8-8.9,0L384,385V328z M400,216
	c0,33.9-9.4,67.1-27.2,96h-25.4l-3.3-3.3V272c0-2.1-0.8-4.2-2.3-5.7L312,236.7v-25.4l13.7-13.7c1.5-1.5,2.3-3.5,2.3-5.7v-48
	c0-2.1-0.8-4.2-2.3-5.7l-40-40c-1.5-1.5-3.5-2.3-5.7-2.3h-36.7L216,68.7V32C317.6,32.1,399.9,114.4,400,216L400,216z M32,216
	c0-72.5,42.6-138.3,108.8-167.8L160,67.3v25.4l-29.7,29.7c-1.5,1.5-2.3,3.5-2.3,5.7v28.7L100.7,184H80c-4.4,0-8,3.6-8,8v24
	c0,2.1,0.8,4.2,2.3,5.7l37.7,37.7v17.4l-21.7,21.7c-1.5,1.5-2.3,3.5-2.3,5.7v20.7l-11.2,11.2C47.9,302.6,32,260,32,216L32,216z
	 M192,320h-28.7L152,308.7v-17.4l27.3-27.3h57.4l35.3,35.3v25.4l-13.7,13.7c-1.5,1.5-2.3,3.5-2.3,5.7v28.7l-21.7,21.7
	c-1.3,1.3-2.1,3.1-2.2,4.9c-5.3,0.4-10.8,0.7-16.1,0.7v-24c0-2.1-0.8-4.2-2.3-5.7L200,356.7V328C200,323.6,196.4,320,192,320z
	 M255.7,395.6l14-14c1.5-1.5,2.3-3.5,2.3-5.7v-28.7l13.7-13.7c1.5-1.5,2.3-3.5,2.3-5.7v-32c0-2.1-0.8-4.2-2.3-5.7l-40-40
	c-1.5-1.5-3.5-2.3-5.7-2.3h-64c-2.1,0-4.2,0.8-5.7,2.3l-32,32c-1.5,1.5-2.3,3.5-2.3,5.7v24c0,2.1,0.8,4.2,2.3,5.7l16,16
	c1.5,1.5,3.5,2.3,5.7,2.3h24v24c0,2.1,0.8,4.2,2.3,5.7l13.7,13.7v19.8c-42.3-3.6-82-21.8-112.3-51.5l13.9-13.9
	c1.5-1.5,2.3-3.5,2.3-5.7v-20.7l21.7-21.7c1.5-1.5,2.3-3.5,2.3-5.7v-24c0-2.1-0.8-4.2-2.3-5.7L88,212.7V200h16
	c2.1,0,4.2-0.8,5.7-2.3l32-32c1.5-1.5,2.3-3.5,2.3-5.7v-28.7l29.7-29.7c1.5-1.5,2.3-3.5,2.3-5.7V64c0-2.1-0.8-4.2-2.3-5.7
	l-16.6-16.6c13.9-4.7,28.3-7.7,42.9-8.9V72c0,2.1,0.8,4.2,2.3,5.7l32,32c1.5,1.5,3.5,2.3,5.7,2.3h36.7l35.3,35.3v41.4l-13.7,13.7
	c-1.5,1.5-2.3,3.5-2.3,5.7v32c0,2.1,0.8,4.2,2.3,5.7l29.7,29.7V312h-16c-4.4,0-8,3.6-8,8v57.3C288.9,385.7,272.6,391.9,255.7,395.6z
	 M320,480V376h48v24c0,4.4,3.6,8,8,8c1.6,0,3.1-0.5,4.4-1.3l19.6-13.1l19.6,13c3.7,2.5,8.6,1.5,11.1-2.2c0.9-1.3,1.3-2.8,1.3-4.4
	v-24h48v104H320z"/>
<path class="st1" d="M456,216c0,18.2-2.1,36.4-6.2,54.2l15.6,3.6c4.4-19,6.6-38.3,6.6-57.8c0.1-53.3-16.5-105.3-47.6-148.7l-13,9.3
	C440.5,117.3,456.1,166,456,216z"/>
<path class="st1" d="M447.4,61c-4.3-0.4-16.6-2-27.2-3.5c0,0,0,0,0,0l-13.5-2c-0.9-0.1-1.7-0.3-2.2-0.4l0,0l-0.1,0
	c-1,6.9-6.1,35.7-7.7,42.6l15.6,3.7c1.1-4.5,3.4-17.2,5.3-28.1c11,1.6,23.9,3.3,28.5,3.7L447.4,61z"/>
<path class="st1" d="M229.9,494.7c2.5-3.5,10.1-13.3,16.8-21.6c0,0,0,0,0,0l8.5-10.6c0.6-0.7,1.1-1.3,1.5-1.7l0,0l0.1-0.1
	c-5.4-4.4-27.7-23.3-32.8-28.2L212.8,444c3.3,3.2,13.1,11.7,21.6,18.8c-6.9,8.7-14.9,18.9-17.6,22.7L229.9,494.7z"/>
<path class="st1" d="M216,456c-64,0.2-125.4-25.4-170.3-70.9l-11.4,11.3C82.3,444.9,147.7,472.2,216,472c8.3,0,16.6-0.4,24.8-1.2
	l-1.6-15.9C231.6,455.6,223.8,456,216,456L216,456z"/>
</svg>
