<svg xmlns="http://www.w3.org/2000/svg" width="43" height="64" viewBox="0 0 43 64">
    <g fill="none" fill-rule="nonzero">
        <path fill="#FFF" d="M36.062 57v3h-6v-3z"/>
        <path fill="#B3D9FF" d="M30.062 60h6v-3h-6v3zm-16.99-13v3c0 4.42 3.58 8 7.99 8 4.42 0 8-3.58 8-8v-3h6c3.32 0 6 2.68 6 6v9c0 .55-.439 1-1 1h-38c-.55 0-1-.45-1-1v-9a6 6 0 0 1 6.01-6h6z"/>
        <path fill="#FFF" d="M15.062 47v-5.25a15.022 15.022 0 0 0 12 0V47h2v3c0 4.42-3.58 8-8 8-4.41 0-7.99-3.58-7.99-8v-3h1.99z"/>
        <path fill="#B3D9FF" d="M21.062 1c1.66 0 3 1.34 3 3v.25a18.47 18.47 0 0 0-3-.25c-1.02 0-2.029.09-3 .26V4c0-1.66 1.351-3 3-3z"/>
        <path fill="#B3D9FF" d="M32.062 7.75V20h-22c-1.649 0-3 1.34-3 3v2c0 .89-.39 1.7-1.01 2.23-.53.48-1.219.77-1.99.77h-1v-6c0-8.92 6.49-16.32 15-17.74.971-.17 1.98-.26 3-.26 1.021 0 2.03.09 3 .25 2.98.5 5.71 1.73 8 3.5z"/>
        <path fill="#FFF" d="M36.062 20v8c0 3.38-1.12 6.5-3 9a15.015 15.015 0 0 1-6 4.75 15.022 15.022 0 0 1-12 0c-5.3-2.32-9-7.6-9-13.75v-.76l-.01-.01c.62-.53 1.01-1.34 1.01-2.23v-2c0-1.66 1.351-3 3-3h22c2.21 0 4-1.79 4-4v4z"/>
        <g fill="#0080FF">
            <path d="M1.062 54.002c-.553 0-1-.447-1-1A7.01 7.01 0 0 1 7.064 46a.999.999 0 1 1 0 2 5.008 5.008 0 0 0-5.002 5.002c0 .553-.447 1-1 1zM41.062 54.001c-.553 0-1-.447-1-1 0-2.757-2.243-5-5-5a.999.999 0 1 1 0-2c3.859 0 7 3.141 7 7 0 .553-.447 1-1 1z"/>
            <path d="M15.062 48.001L7.064 48a1 1 0 0 1 0-2l7.998.001a1 1 0 1 1 0 2zM35.062 48.001l-8-.001a1 1 0 1 1 0-2l8 .001a1 1 0 1 1 0 2zM1.063 62.999a1 1 0 0 1-1-1l-.001-8.997a1 1 0 1 1 2 0l.001 8.997a1 1 0 0 1-1 1z"/>
            <path d="M2.063 63.999c-1.103 0-2-.897-2-2a.999.999 0 1 1 2 0v.002a.998.998 0 1 1 0 1.998zM40.062 63.999a1 1 0 1 1 0-2h.002a.998.998 0 1 1 1.998 0c0 1.103-.897 2-2 2z"/>
            <path d="M41.062 62.999a1 1 0 0 1-1-1v-8.998a1 1 0 1 1 2 0v8.998a1 1 0 0 1-1 1z"/>
            <path d="M40.062 63.999H2.063a1 1 0 1 1 0-2h37.999a.999.999 0 1 1 0 2zM15.062 48.001c-.553 0-1-.447-1-1v-5.25a1 1 0 1 1 2 0v5.25c0 .553-.447 1-1 1zM27.062 48c-.553 0-1-.447-1-1v-5.249a1 1 0 1 1 2 0V47c0 .553-.447 1-1 1z"/>
            <path d="M21.062 44c-8.822 0-16-7.178-16-16a1 1 0 1 1 2 0c0 7.72 6.28 14 14 14s14-6.28 14-14a1 1 0 1 1 2 0c0 8.822-7.178 16-16 16z"/>
            <path d="M36.062 29a1 1 0 0 1-1-1v-8a1 1 0 1 1 2 0v8c0 .553-.447 1-1 1zM3.062 23a1 1 0 0 1-1-1c0-10.477 8.523-19 19-19 4.245 0 8.261 1.37 11.61 3.959a.999.999 0 1 1-1.222 1.582A16.837 16.837 0 0 0 21.062 5c-9.374 0-17 7.626-17 17a1 1 0 0 1-1 1zM4.062 29a1 1 0 1 1 0-2c1.103 0 2-.897 2-2a1 1 0 1 1 2 0c0 2.206-1.794 4-4 4z"/>
            <path d="M3.062 29a1 1 0 0 1-1-1v-6a1 1 0 1 1 2 0v6c0 .553-.447 1-1 1z"/>
            <path d="M4.062 29h-1a1 1 0 1 1 0-2h1a1 1 0 1 1 0 2zM7.062 26a1 1 0 0 1-1-1v-2a1 1 0 1 1 2 0v2c0 .553-.447 1-1 1z"/>
            <path d="M7.062 24a1 1 0 0 1-1-1c0-2.206 1.794-4 4-4a1 1 0 1 1 0 2c-1.103 0-2 .897-2 2a1 1 0 0 1-1 1z"/>
            <path d="M32.062 21h-22a1 1 0 1 1 0-2h22a1 1 0 1 1 0 2z"/>
            <path d="M32.062 21a1 1 0 0 1-1-1V7.751a1 1 0 1 1 2 0V20a1 1 0 0 1-1 1z"/>
            <path d="M36.062 12.752a1 1 0 0 1-1-1 3.005 3.005 0 0 0-3.001-3.001 1 1 0 1 1 0-2 5.007 5.007 0 0 1 5.001 5.001c0 .553-.447 1-1 1zM32.061 21a1 1 0 1 1 0-2 3.006 3.006 0 0 0 3.001-3.001 1 1 0 1 1 2 0A5.007 5.007 0 0 1 32.061 21z"/>
            <path d="M36.062 21a1 1 0 0 1-1-1v-8.247a1 1 0 1 1 2 0V20a1 1 0 0 1-1 1zM6.062 29a1 1 0 0 1-1-1v-.764a1 1 0 1 1 2 0V28c0 .553-.447 1-1 1zM24.062 5a1 1 0 0 1-1-1c0-1.103-.897-2-2-2s-2 .897-2 2a1 1 0 1 1-2 0c0-2.206 1.794-4 4-4s4 1.794 4 4a1 1 0 0 1-1 1z"/>
            <path d="M18.062 5.249a1 1 0 0 1-1-1V4a1 1 0 1 1 2 0v.249a1 1 0 0 1-1 1zM24.062 5.249a1 1 0 0 1-1-1V4a1 1 0 1 1 2 0v.249a1 1 0 0 1-1 1zM21.062 58.999c-4.962 0-8.998-4.036-8.998-8.998a1 1 0 1 1 2 0c0 3.858 3.14 6.998 6.998 6.998s6.998-3.14 6.998-6.998a1 1 0 1 1 2 0c0 4.962-4.036 8.998-8.998 8.998z"/>
            <path d="M13.064 51.001a1 1 0 0 1-1-1v-3a1 1 0 1 1 2 0v3c0 .553-.447 1-1 1zM29.062 51.001c-.553 0-1-.447-1-1v-3a1 1 0 1 1 2 0v3c0 .553-.447 1-1 1zM36.062 37.999a1 1 0 1 1 0-2c2.206 0 4-1.794 4-4s-1.794-4-4-4a1 1 0 1 1 0-2c3.31 0 6 2.69 6 6s-2.69 6-6 6z"/>
            <path d="M36.062 37.999h-13a1 1 0 1 1 0-2h13a.999.999 0 1 1 0 2zM36.062 57.999h-6a1 1 0 1 1 0-2h6a.999.999 0 1 1 0 2z"/>
            <path d="M33.062 57.999a1 1 0 0 1-1-1v-1a.999.999 0 1 1 2 0v1a1 1 0 0 1-1 1zM30.062 60.999a1 1 0 0 1-1-1v-3a.999.999 0 1 1 2 0v3a1 1 0 0 1-1 1zM36.062 60.999a1 1 0 0 1-1-1v-3a.999.999 0 1 1 2 0v3a1 1 0 0 1-1 1z"/>
            <path d="M36.062 60.999h-6a1 1 0 1 1 0-2h6a.999.999 0 1 1 0 2z"/>
        </g>
    </g>
</svg>
