<svg xmlns="http://www.w3.org/2000/svg" width="64" height="64" viewBox="0 0 64 64">
    <g fill="none" fill-rule="nonzero">
        <path fill="#B3D9FF" d="M54.4 1.067A8.533 8.533 0 0 0 45.867 9.6a8.533 8.533 0 0 0 8.533 8.533A8.533 8.533 0 0 0 62.933 9.6 8.533 8.533 0 0 0 54.4 1.067zm3.2 12.8h-6.4v-2.134A2.14 2.14 0 0 1 53.333 9.6H54.4a2.133 2.133 0 1 1 2.133-2.133A2.14 2.14 0 0 1 54.4 9.6h1.067a2.14 2.14 0 0 1 2.133 2.133v2.134zM54.453 45.867H54.4a8.533 8.533 0 0 0-.053 17.067h.053a8.533 8.533 0 0 0 .053-17.067zM42.443 21.333a14.913 14.913 0 1 0-20.845 21.333 14.913 14.913 0 0 0 20.845-21.333zM9.6 62.933a8.533 8.533 0 0 0 8.533-8.533A8.533 8.533 0 0 0 9.6 45.867 8.533 8.533 0 0 0 1.067 54.4 8.533 8.533 0 0 0 9.6 62.933zm-3.2-6.4A2.14 2.14 0 0 1 8.533 54.4H9.6a2.133 2.133 0 1 1 2.133-2.133A2.14 2.14 0 0 1 9.6 54.4h1.067a2.14 2.14 0 0 1 2.133 2.133v2.134H6.4v-2.134zM9.547 18.133H9.6a8.533 8.533 0 0 0 .053-17.067H9.6a8.533 8.533 0 0 0-.053 17.067z"/>
        <g fill="#0080FF">
            <path d="M43.188 20.57A15.98 15.98 0 0 0 17.293 38.2 15.98 15.98 0 0 0 48 32a15.93 15.93 0 0 0-4.812-11.43zM27.742 40.147a13.68 13.68 0 0 1 8.516 0c-1.049 3.56-2.707 5.72-4.258 5.72-1.551 0-3.21-2.16-4.258-5.72zm-.095 5.007a13.81 13.81 0 0 1-4.484-2.486 13.93 13.93 0 0 1 2.582-1.7 15.736 15.736 0 0 0 1.902 4.186zm-9.462-14.22a13.694 13.694 0 0 1 3.445-8.106 16.023 16.023 0 0 0 3.584 2.315 32.702 32.702 0 0 0-.657 5.791h-6.372zm18.073-7.08a13.68 13.68 0 0 1-8.516 0c1.049-3.56 2.707-5.72 4.258-5.72 1.551 0 3.21 2.16 4.258 5.72zm.095-5.006a13.81 13.81 0 0 1 4.484 2.486 13.93 13.93 0 0 1-2.582 1.7 15.736 15.736 0 0 0-1.902-4.186zm-10.608 4.185a13.93 13.93 0 0 1-2.582-1.699 13.815 13.815 0 0 1 4.48-2.486 15.748 15.748 0 0 0-1.898 4.185zm1.494 2.904c3.1.974 6.425.974 9.525 0 .318 1.648.501 3.32.547 4.997H26.689c.046-1.678.23-3.35.549-4.997zm10.072 7.13a30.792 30.792 0 0 1-.548 4.998 15.882 15.882 0 0 0-9.525 0 30.792 30.792 0 0 1-.549-4.997h10.622zm.944 7.902a13.93 13.93 0 0 1 2.582 1.699 13.815 13.815 0 0 1-4.48 2.486 15.748 15.748 0 0 0 1.898-4.185zm.533-2.105c.39-1.909.61-3.848.655-5.796h6.372a13.688 13.688 0 0 1-3.445 8.106 16.062 16.062 0 0 0-3.584-2.31h.002zm7.027-7.93h-6.372a32.706 32.706 0 0 0-.657-5.796 16.04 16.04 0 0 0 3.584-2.316 13.695 13.695 0 0 1 3.445 8.112zm-27.627 2.134h6.37c.047 1.948.267 3.887.658 5.796a16.04 16.04 0 0 0-3.584 2.316 13.692 13.692 0 0 1-3.447-8.112h.003zM9.6 19.2a9.6 9.6 0 0 0 9.6-9.6A9.6 9.6 0 0 0 9.6 0 9.6 9.6 0 0 0 0 9.6a9.611 9.611 0 0 0 9.6 9.6zm0-17.067a7.466 7.466 0 1 1 0 14.934A7.466 7.466 0 0 1 2.133 9.6 7.475 7.475 0 0 1 9.6 2.133z"/>
            <path d="M9.6 12.8c-.59 0-1.067-.478-1.067-1.067H6.4a3.2 3.2 0 0 0 2.133 3.004V16h2.134v-1.263A3.193 3.193 0 0 0 9.6 8.533a1.067 1.067 0 1 1 1.067-1.066H12.8a3.2 3.2 0 0 0-2.133-3.004V3.2H8.533v1.263A3.193 3.193 0 0 0 9.6 10.667a1.067 1.067 0 0 1 0 2.133zM54.4 44.8a9.6 9.6 0 0 0-9.6 9.6 9.6 9.6 0 0 0 9.6 9.6 9.6 9.6 0 0 0 9.6-9.6 9.611 9.611 0 0 0-9.6-9.6zm0 17.067a7.466 7.466 0 1 1 0-14.934 7.466 7.466 0 0 1 7.467 7.467 7.475 7.475 0 0 1-7.467 7.467z"/>
            <path d="M54.4 51.2c.59 0 1.067.478 1.067 1.067H57.6a3.2 3.2 0 0 0-2.133-3.004V48h-2.134v1.263a3.193 3.193 0 0 0 1.067 6.204 1.067 1.067 0 1 1-1.067 1.066H51.2a3.2 3.2 0 0 0 2.133 3.004V60.8h2.134v-1.263a3.193 3.193 0 0 0-1.067-6.204 1.067 1.067 0 0 1 0-2.133zM9.6 44.8A9.6 9.6 0 0 0 0 54.4 9.6 9.6 0 0 0 9.6 64a9.6 9.6 0 0 0 9.6-9.6 9.611 9.611 0 0 0-9.6-9.6zm0 17.067a7.466 7.466 0 1 1 0-14.934 7.466 7.466 0 0 1 7.467 7.467A7.475 7.475 0 0 1 9.6 61.867z"/>
            <path d="M12.373 53.836a3.165 3.165 0 0 0 .427-1.57 3.2 3.2 0 0 0-6.4 0c.003.552.15 1.093.427 1.57a3.193 3.193 0 0 0-1.494 2.697v2.134c0 .589.478 1.066 1.067 1.066h6.4c.59 0 1.067-.477 1.067-1.066v-2.134a3.193 3.193 0 0 0-1.494-2.697zM9.6 51.2a1.067 1.067 0 1 1 0 2.133 1.067 1.067 0 0 1 0-2.133zm2.133 6.4H7.467v-1.067c0-.589.477-1.066 1.066-1.066h2.134c.589 0 1.066.477 1.066 1.066V57.6zM54.4 19.2A9.6 9.6 0 0 0 64 9.6 9.6 9.6 0 0 0 54.4 0a9.6 9.6 0 0 0-9.6 9.6 9.611 9.611 0 0 0 9.6 9.6zm0-17.067a7.466 7.466 0 1 1 0 14.934A7.466 7.466 0 0 1 46.933 9.6 7.475 7.475 0 0 1 54.4 2.133z"/>
            <path d="M51.2 14.933h6.4c.59 0 1.067-.477 1.067-1.066v-2.134a3.193 3.193 0 0 0-1.494-2.697 3.165 3.165 0 0 0 .427-1.57 3.2 3.2 0 0 0-6.4 0c.003.552.15 1.093.427 1.57a3.193 3.193 0 0 0-1.494 2.697v2.134c0 .589.478 1.066 1.067 1.066zm5.333-2.133h-4.266v-1.067c0-.589.477-1.066 1.066-1.066h2.134c.589 0 1.066.477 1.066 1.066V12.8zM54.4 6.4a1.067 1.067 0 1 1 0 2.133 1.067 1.067 0 0 1 0-2.133zM22.4 5.333h2.133v2.134H22.4zM26.667 5.333H28.8v2.134h-2.133zM30.933 5.333h2.134v2.134h-2.134zM35.2 5.333h2.133v2.134H35.2zM39.467 5.333H41.6v2.134h-2.133zM22.4 56.533h2.133v2.134H22.4zM26.667 56.533H28.8v2.134h-2.133zM30.933 56.533h2.134v2.134h-2.134zM35.2 56.533h2.133v2.134H35.2zM39.467 56.533H41.6v2.134h-2.133zM8.533 22.4h2.134v2.133H8.533zM8.533 26.667h2.134V28.8H8.533zM8.533 30.933h2.134v2.134H8.533zM8.533 35.2h2.134v2.133H8.533zM8.533 39.467h2.134V41.6H8.533zM56.533 22.4h2.134v2.133h-2.134zM56.533 26.667h2.134V28.8h-2.134zM56.533 30.933h2.134v2.134h-2.134zM56.533 35.2h2.134v2.133h-2.134zM56.533 39.467h2.134V41.6h-2.134z"/>
        </g>
    </g>
</svg>
